<?xml version="1.0" encoding="utf-8"?>
<!-- Generator: Adobe Illustrator 26.0.1, SVG Export Plug-In . SVG Version: 6.00 Build 0)  -->
<svg version="1.1" id="레이어_1" xmlns="http://www.w3.org/2000/svg" xmlns:xlink="http://www.w3.org/1999/xlink" x="0px"
	 y="0px" viewBox="0 0 1235.62 71" style="enable-background:new 0 0 1235.62 71;" xml:space="preserve">
<style type="text/css">
	.st0{fill:#FFFFFF;}
	.st1{enable-background:new    ;}
</style>
<g>
	<path class="st0" d="M15.32-118.86v-9.46c0-4.29-0.67-9.36-1.68-12.33h26.77c14.05,0,21.54,6.29,21.54,17.06
		s-7.49,17.06-21.54,17.06H13.64C14.75-109.55,15.32-114.57,15.32-118.86z M38.15-117.69c7,0,10.55-1.9,10.55-5.9
		s-3.63-5.9-10.55-5.9h-9.71v11.8H38.15z"/>
	<path class="st0" d="M63.94-123.59c0-11.31,10.11-17.79,24.82-17.79c14.72,0,24.82,6.48,24.82,17.79s-10.11,17.79-24.82,17.79
		S63.94-112.28,63.94-123.59z M100.47-123.59c0-4.24-4.7-6.73-11.7-6.73c-7.05,0-11.7,2.49-11.7,6.73c0,4.24,4.65,6.78,11.7,6.78
		C95.77-116.81,100.47-119.35,100.47-123.59z"/>
	<path class="st0" d="M143.54-117.84v-2.24l-13.34-14.58c-2.13-2.29-4.92-4.68-6.74-6h18c1.02,2,2.13,3.71,3.99,6l4.39,5.41h0.49
		l4.34-5.41c1.86-2.29,2.97-4,3.99-6h18c-1.82,1.32-4.61,3.71-6.69,6l-13.34,14.77v2.24c0,4.05,0.53,8.39,1.29,11.07h-15.69
		C142.92-109.31,143.54-113.74,143.54-117.84z"/>
	<path class="st0" d="M174.12-123.59c0-11.31,10.11-17.79,24.82-17.79c14.72,0,24.82,6.48,24.82,17.79s-10.11,17.79-24.82,17.79
		S174.12-112.28,174.12-123.59z M210.65-123.59c0-4.24-4.7-6.73-11.7-6.73c-7.05,0-11.7,2.49-11.7,6.73c0,4.24,4.65,6.78,11.7,6.78
		C205.95-116.81,210.65-119.35,210.65-123.59z"/>
	<path class="st0" d="M228.15-123.01v-5.31c0-4.24-0.67-9.31-1.68-12.33h16.45c-1.02,3.02-1.64,8.58-1.64,12.87v3.36
		c0,4.49,3.28,7.9,8.07,7.9c4.74,0,8.02-3.41,8.02-7.9v-3.36c0-4.29-0.66-9.85-1.68-12.87h16.49c-1.02,3.02-1.68,8.09-1.68,12.33
		v5.31c0,10.92-6.43,17.21-21.14,17.21C234.57-105.8,228.15-112.08,228.15-123.01z"/>
	<path class="st0" d="M306.33-123.35c-1.15,0-2.66,0.24-3.37,0.54v3.22c0,4.29,0.58,10.04,1.73,13.07H288.2
		c1.06-3.02,1.68-8.04,1.68-12.33v-9.46c0-4.29-0.67-9.36-1.68-12.33h16.49c-1.02,2.97-1.73,6.87-1.73,11.16v2.15h4.7
		c5.98,0,9.62-2.63,9.62-7.61c0-2-0.49-4.14-1.29-5.7h14.36c0.93,1.76,1.33,3.36,1.33,5.95c0,7.02-4.39,9.17-15.29,9.17h-3.46v0.63
		h0.18c7.58,0,7.45,4.88,13.96,4.88c4.79,0,7.27-2.24,8.42-5.02l0.09,15.36c-1.29,2.15-4.17,3.9-7.71,3.9
		C313.78-105.8,317.32-123.35,306.33-123.35z"/>
	<path class="st0" d="M341.12-118.86v-9.46c0-4.29-0.58-9.31-1.68-12.33h15.69l19.28,17.79h0.58v-6c0-4.68-0.84-9.56-1.6-11.8h16.49
		c-1.02,2.97-1.73,8.04-1.73,12.33v21.79h-11.66l-21.63-19.6h-0.62v5.95c0,4.63,0.84,11.12,1.68,13.65h-16.49
		C340.45-109.5,341.12-114.57,341.12-118.86z"/>
	<path class="st0" d="M393.42-123.59c0-11.31,10.11-17.79,24.82-17.79c14.72,0,24.82,6.48,24.82,17.79s-10.11,17.79-24.82,17.79
		C403.52-105.8,393.42-112.28,393.42-123.59z M429.94-123.59c0-4.24-4.7-6.73-11.7-6.73c-7.05,0-11.7,2.49-11.7,6.73
		c0,4.24,4.65,6.78,11.7,6.78C425.24-116.81,429.94-119.35,429.94-123.59z"/>
	<path class="st0" d="M452.27-119.11l-3.72-9.21c-1.82-4.29-4.39-9.31-6.43-12.33h17.07c0.09,1.9,0.4,3.95,1.46,6.63l4.17,10.14
		c0.75,1.85,1.24,3.46,1.86,5.41h0.4l6.92-22.18h9.62l6.92,22.18h0.4c0.58-1.9,1.11-3.56,1.86-5.46l4.17-10.09
		c1.06-2.68,1.37-4.73,1.46-6.63h17.07c-2.04,3.02-4.61,8.04-6.43,12.33l-3.72,9.21c-1.77,4.19-3.41,9.36-3.99,12.58H485.7
		l-6.65-21.35h-0.44l-6.65,21.35h-15.65C455.73-109.74,454.05-114.91,452.27-119.11z"/>
	<path class="st0" d="M528.9-123.01v-5.31c0-4.24-0.67-9.31-1.68-12.33h16.45c-1.02,3.02-1.64,8.58-1.64,12.87v3.36
		c0,4.49,3.28,7.9,8.07,7.9c4.74,0,8.02-3.41,8.02-7.9v-3.36c0-4.29-0.66-9.85-1.68-12.87h16.49c-1.02,3.02-1.68,8.09-1.68,12.33
		v5.31c0,10.92-6.43,17.21-21.14,17.21C535.33-105.8,528.9-112.08,528.9-123.01z"/>
	<path class="st0" d="M575.93-123.59c0-11.41,9.84-17.79,25.04-17.79c6.78,0,11.7,0.73,17.64,2.24l-0.75,11.6
		c-3.46-1.9-9.71-3.17-16.27-3.17c-7.8,0-12.85,2.44-12.85,7.12c0,4.24,4.52,7.17,12.37,7.17c3.59,0,7.05-0.93,9.53-2.63V-121h-7.62
		c-1.2,0-3.15,0.24-4.17,0.63l0.13-4.88h23.32v12.82c-4.21,4-11.7,6.63-21.28,6.63C585.77-105.8,575.93-112.18,575.93-123.59z"/>
	<path class="st0" d="M637.75-107.94c-5.63,0-9.57,1.36-11.52,2.15c1.06-3.02,1.68-8.78,1.68-13.07v-9.46
		c0-4.29-0.67-9.36-1.68-12.33h16.49c-1.02,2.97-1.73,11.36-1.73,15.65v7.56h12.37c4.39,0,8.91-0.83,11.35-2.1l-0.18,12.33
		c-0.35,0.05-3.46,1.41-7.14,1.41C649.86-105.8,646.26-107.94,637.75-107.94z"/>
	<path class="st0" d="M678.62-117.84v-2.24l-13.34-14.58c-2.13-2.29-4.92-4.68-6.74-6h18c1.02,2,2.13,3.71,3.99,6l4.39,5.41h0.49
		l4.34-5.41c1.86-2.29,2.97-4,3.99-6h18c-1.82,1.32-4.61,3.71-6.69,6l-13.34,14.77v2.24c0,4.05,0.53,8.39,1.29,11.07h-15.69
		C678-109.31,678.62-113.74,678.62-117.84z"/>
	<path class="st0" d="M730.6-118.81l-5.1-9.51c-2.13-4.29-5.1-9.31-7.36-12.33h17.11c0.27,1.9,0.75,3.9,2,6.63l5.19,10.63
		c0.84,1.8,1.42,3.31,1.86,5.17h0.44c0.44-2,0.97-3.22,1.82-5.17l5.19-10.63c1.2-2.78,1.77-4.73,2-6.63h16.18
		c-2.31,3.02-5.28,8.04-7.4,12.33l-5.1,9.46c-2.08,4.29-4.08,9.31-4.74,12.33H735.3C734.59-109.65,732.64-114.72,730.6-118.81z"/>
	<path class="st0" d="M773.59-118.86v-9.46c0-4.29-0.67-9.36-1.68-12.33h41.67l1.6,12.09c-1.6-0.93-5.63-1.66-9.22-1.66h-19.24v3.85
		h13.48c2.26,0,4.48-0.1,5.94-0.34v5.95c-1.46-0.29-3.68-0.39-5.94-0.39h-13.48v4.19h20.08c2.97,0,7.31-0.83,9.75-2.68l-2.26,13.11
		h-42.38C773.02-109.55,773.59-114.57,773.59-118.86z"/>
	<path class="st0" d="M817.47-123.59c0-11.41,9.84-17.79,25.04-17.79c6.78,0,11.7,0.73,17.64,2.24l-0.75,11.6
		c-3.46-1.9-9.71-3.17-16.27-3.17c-7.8,0-12.86,2.44-12.86,7.12c0,4.24,4.52,7.17,12.37,7.17c3.59,0,7.05-0.93,9.53-2.63V-121h-7.62
		c-1.2,0-3.15,0.24-4.17,0.63l0.13-4.88h23.32v12.82c-4.21,4-11.7,6.63-21.28,6.63C827.31-105.8,817.47-112.18,817.47-123.59z"/>
	<path class="st0" d="M869.46-118.86v-9.46c0-4.29-0.67-9.36-1.68-12.33h41.67l1.6,12.09c-1.6-0.93-5.63-1.66-9.22-1.66h-19.24v3.85
		h13.48c2.26,0,4.48-0.1,5.94-0.34v5.95c-1.46-0.29-3.68-0.39-5.94-0.39h-13.48v4.19h20.08c2.97,0,7.31-0.83,9.75-2.68l-2.26,13.11
		h-42.38C868.88-109.55,869.46-114.57,869.46-118.86z"/>
	<path class="st0" d="M929.29-118.86v-10.87h-5.54c-5.1,0-8.2,0.29-10.73,1.12l2.44-12.04h40.82l2.44,12.04
		c-2.53-0.83-5.63-1.12-10.73-1.12h-5.58v10.87c0,4.29,0.62,9.31,1.68,12.33H927.6C928.72-109.55,929.29-114.57,929.29-118.86z"/>
	<path class="st0" d="M960.05-118.86l5.1-9.46c2.08-4.29,4.08-9.31,4.74-12.33h18.75c0.71,3.12,2.66,8.19,4.7,12.29l5.14,9.51
		c2.08,4.29,5.01,9.31,7.27,12.33h-16.76c-0.18-1.56-0.58-3.17-1.64-6.09l-0.71-1.41h-14.76l-0.71,1.46
		c-0.97,2.88-1.46,4.49-1.73,6.05h-16.71C955.04-109.55,957.97-114.62,960.05-118.86z M983.63-119.49l-2.39-4.83
		c-0.89-2.05-1.29-3.8-1.68-5.95h-0.62c-0.44,2.29-0.8,3.75-1.73,5.95l-2.35,4.83H983.63z"/>
	<path class="st0" d="M1008.85-118.86v-9.46c0-4.29-0.67-9.36-1.68-12.33h31.74c6.03,0,10.95,2.58,10.95,8.04
		c0,5.27-4.65,7.95-10.55,7.95h-1.29v0.58h2.22c6.65,0,12.19,2.63,12.19,8.68c0,6.05-5.5,8.87-12.54,8.87h-32.71
		C1008.22-109.55,1008.85-114.57,1008.85-118.86z M1034.6-126.37c1.68,0,3.06-0.68,3.06-2.15c0-1.51-1.33-2.15-3.01-2.15h-12.72
		v4.29h12.67V-126.37z M1035.4-116.76c2.22,0,3.68-0.78,3.68-2.49c0-1.8-1.51-2.58-3.72-2.58h-13.43v5.07H1035.4z"/>
	<path class="st0" d="M1067.3-107.94c-5.63,0-9.58,1.36-11.53,2.15c1.06-3.02,1.68-8.78,1.68-13.07v-9.46
		c0-4.29-0.67-9.36-1.68-12.33h16.49c-1.02,2.97-1.73,11.36-1.73,15.65v7.56h12.37c4.39,0,8.91-0.83,11.35-2.1l-0.18,12.33
		c-0.35,0.05-3.46,1.41-7.14,1.41C1079.41-105.8,1075.82-107.94,1067.3-107.94z"/>
	<path class="st0" d="M1099.52-118.86v-9.46c0-4.29-0.67-9.36-1.68-12.33h41.67l1.6,12.09c-1.6-0.93-5.63-1.66-9.22-1.66h-19.24
		v3.85h13.48c2.26,0,4.48-0.1,5.94-0.34v5.95c-1.46-0.29-3.68-0.39-5.94-0.39h-13.48v4.19h20.08c2.97,0,7.31-0.83,9.75-2.68
		l-2.26,13.11h-42.38C1098.95-109.55,1099.52-114.57,1099.52-118.86z"/>
	<path class="st0" d="M1143.89-109.45l0.49-12.97c5.23,4.05,13.12,6.09,23.45,6.09c5.54,0,8.55-0.54,8.55-2.24
		c0-5.31-32.31,1.85-32.31-12.82c0-7.61,9.75-9.99,22.34-9.99c6.07,0,14.23,0.98,19.59,3.07v11.36c-4.96-2.58-11.97-4-19.11-4
		c-4.92-0.05-8.95,0.44-8.95,2.24c0,5.66,32.31-2.49,32.31,11.94c0,7.17-7.8,10.97-22.21,10.97
		C1161.26-105.8,1149.47-107.4,1143.89-109.45z"/>
	<path class="st0" d="M1200.71-126.27c9.13,0,11.21-1.36,11.21-4c0-2.05-2.26-3.75-6.69-3.75c-7,0-12.9,2.44-12.9,2.44v-7.41
		c0,0,5.01-2.19,12.9-2.19c10.28,0,16.8,3.56,16.76,9.56c0,5.17-3.5,8.19-11.35,9.17l-0.53,3.51h-8.33L1200.71-126.27z
		 M1200.35-111.21c0-3.36,2.26-5.27,5.58-5.27s5.58,1.9,5.58,5.27c0,3.31-2.26,5.22-5.58,5.22
		C1202.61-106.04,1200.35-107.89,1200.35-111.21z"/>
</g>
<g>
	<path class="st0" d="M15.32,193.2v-9.46c0-4.29-0.67-9.36-1.68-12.33h26.77c14.05,0,21.54,6.29,21.54,17.06
		s-7.49,17.06-21.54,17.06H13.64C14.75,202.51,15.32,197.49,15.32,193.2z M38.15,194.37c7,0,10.55-1.9,10.55-5.9
		s-3.63-5.9-10.55-5.9h-9.71v11.8H38.15z"/>
	<path class="st0" d="M63.94,188.47c0-11.31,10.11-17.79,24.82-17.79c14.72,0,24.82,6.48,24.82,17.79s-10.11,17.79-24.82,17.79
		S63.94,199.78,63.94,188.47z M100.47,188.47c0-4.24-4.7-6.73-11.7-6.73c-7.05,0-11.7,2.49-11.7,6.73c0,4.24,4.65,6.78,11.7,6.78
		C95.77,195.25,100.47,192.71,100.47,188.47z"/>
	<path class="st0" d="M143.54,194.22v-2.24L130.2,177.4c-2.13-2.29-4.92-4.68-6.74-6h18c1.02,2,2.13,3.71,3.99,6l4.39,5.41h0.49
		l4.34-5.41c1.86-2.29,2.97-4,3.99-6h18c-1.82,1.32-4.61,3.71-6.69,6l-13.34,14.77v2.24c0,4.05,0.53,8.39,1.29,11.07h-15.69
		C142.92,202.75,143.54,198.32,143.54,194.22z"/>
	<path class="st0" d="M174.12,188.47c0-11.31,10.11-17.79,24.82-17.79c14.72,0,24.82,6.48,24.82,17.79s-10.11,17.79-24.82,17.79
		S174.12,199.78,174.12,188.47z M210.65,188.47c0-4.24-4.7-6.73-11.7-6.73c-7.05,0-11.7,2.49-11.7,6.73c0,4.24,4.65,6.78,11.7,6.78
		C205.95,195.25,210.65,192.71,210.65,188.47z"/>
	<path class="st0" d="M228.15,189.05v-5.31c0-4.24-0.67-9.31-1.68-12.33h16.45c-1.02,3.02-1.64,8.58-1.64,12.87v3.36
		c0,4.49,3.28,7.9,8.07,7.9c4.74,0,8.02-3.41,8.02-7.9v-3.36c0-4.29-0.66-9.85-1.68-12.87h16.49c-1.02,3.02-1.68,8.09-1.68,12.33
		v5.31c0,10.92-6.43,17.21-21.14,17.21C234.57,206.26,228.15,199.98,228.15,189.05z"/>
	<path class="st0" d="M306.33,188.71c-1.15,0-2.66,0.24-3.37,0.54v3.22c0,4.29,0.58,10.04,1.73,13.07H288.2
		c1.06-3.02,1.68-8.04,1.68-12.33v-9.46c0-4.29-0.67-9.36-1.68-12.33h16.49c-1.02,2.97-1.73,6.87-1.73,11.16v2.15h4.7
		c5.98,0,9.62-2.63,9.62-7.61c0-2-0.49-4.14-1.29-5.7h14.36c0.93,1.76,1.33,3.36,1.33,5.95c0,7.02-4.39,9.17-15.29,9.17h-3.46v0.63
		h0.18c7.58,0,7.45,4.88,13.96,4.88c4.79,0,7.27-2.24,8.42-5.02l0.09,15.36c-1.29,2.15-4.17,3.9-7.71,3.9
		C313.78,206.26,317.32,188.71,306.33,188.71z"/>
	<path class="st0" d="M341.12,193.2v-9.46c0-4.29-0.58-9.31-1.68-12.33h15.69l19.28,17.79h0.58v-6c0-4.68-0.84-9.56-1.6-11.8h16.49
		c-1.02,2.97-1.73,8.04-1.73,12.33v21.79h-11.66l-21.63-19.6h-0.62v5.95c0,4.63,0.84,11.12,1.68,13.65h-16.49
		C340.45,202.56,341.12,197.49,341.12,193.2z"/>
	<path class="st0" d="M393.42,188.47c0-11.31,10.11-17.79,24.82-17.79c14.72,0,24.82,6.48,24.82,17.79s-10.11,17.79-24.82,17.79
		C403.52,206.26,393.42,199.78,393.42,188.47z M429.94,188.47c0-4.24-4.7-6.73-11.7-6.73c-7.05,0-11.7,2.49-11.7,6.73
		c0,4.24,4.65,6.78,11.7,6.78C425.24,195.25,429.94,192.71,429.94,188.47z"/>
	<path class="st0" d="M452.27,192.95l-3.72-9.21c-1.82-4.29-4.39-9.31-6.43-12.33h17.07c0.09,1.9,0.4,3.95,1.46,6.63l4.17,10.14
		c0.75,1.85,1.24,3.46,1.86,5.41h0.4l6.92-22.18h9.62l6.92,22.18h0.4c0.58-1.9,1.11-3.56,1.86-5.46l4.17-10.09
		c1.06-2.68,1.37-4.73,1.46-6.63h17.07c-2.04,3.02-4.61,8.04-6.43,12.33l-3.72,9.21c-1.77,4.19-3.41,9.36-3.99,12.58H485.7
		l-6.65-21.35h-0.44l-6.65,21.35h-15.65C455.73,202.32,454.05,197.15,452.27,192.95z"/>
	<path class="st0" d="M528.9,189.05v-5.31c0-4.24-0.67-9.31-1.68-12.33h16.45c-1.02,3.02-1.64,8.58-1.64,12.87v3.36
		c0,4.49,3.28,7.9,8.07,7.9c4.74,0,8.02-3.41,8.02-7.9v-3.36c0-4.29-0.66-9.85-1.68-12.87h16.49c-1.02,3.02-1.68,8.09-1.68,12.33
		v5.31c0,10.92-6.43,17.21-21.14,17.21C535.33,206.26,528.9,199.98,528.9,189.05z"/>
	<path class="st0" d="M575.93,188.47c0-11.41,9.84-17.79,25.04-17.79c6.78,0,11.7,0.73,17.64,2.24l-0.75,11.6
		c-3.46-1.9-9.71-3.17-16.27-3.17c-7.8,0-12.85,2.44-12.85,7.12c0,4.24,4.52,7.17,12.37,7.17c3.59,0,7.05-0.93,9.53-2.63v-1.95
		h-7.62c-1.2,0-3.15,0.24-4.17,0.63l0.13-4.88h23.32v12.82c-4.21,4-11.7,6.63-21.28,6.63C585.77,206.26,575.93,199.88,575.93,188.47
		z"/>
	<path class="st0" d="M637.75,204.12c-5.63,0-9.57,1.36-11.52,2.15c1.06-3.02,1.68-8.78,1.68-13.07v-9.46
		c0-4.29-0.67-9.36-1.68-12.33h16.49c-1.02,2.97-1.73,11.36-1.73,15.65v7.56h12.37c4.39,0,8.91-0.83,11.35-2.1l-0.18,12.33
		c-0.35,0.05-3.46,1.41-7.14,1.41C649.86,206.26,646.26,204.12,637.75,204.12z"/>
	<path class="st0" d="M678.62,194.22v-2.24l-13.34-14.58c-2.13-2.29-4.92-4.68-6.74-6h18c1.02,2,2.13,3.71,3.99,6l4.39,5.41h0.49
		l4.34-5.41c1.86-2.29,2.97-4,3.99-6h18c-1.82,1.32-4.61,3.71-6.69,6l-13.34,14.77v2.24c0,4.05,0.53,8.39,1.29,11.07h-15.69
		C678,202.75,678.62,198.32,678.62,194.22z"/>
	<path class="st0" d="M730.6,193.25l-5.1-9.51c-2.13-4.29-5.1-9.31-7.36-12.33h17.11c0.27,1.9,0.75,3.9,2,6.63l5.19,10.63
		c0.84,1.8,1.42,3.31,1.86,5.17h0.44c0.44-2,0.97-3.22,1.82-5.17l5.19-10.63c1.2-2.78,1.77-4.73,2-6.63h16.18
		c-2.31,3.02-5.28,8.04-7.4,12.33l-5.1,9.46c-2.08,4.29-4.08,9.31-4.74,12.33H735.3C734.59,202.41,732.64,197.34,730.6,193.25z"/>
	<path class="st0" d="M773.59,193.2v-9.46c0-4.29-0.67-9.36-1.68-12.33h41.67l1.6,12.09c-1.6-0.93-5.63-1.66-9.22-1.66h-19.24v3.85
		h13.48c2.26,0,4.48-0.1,5.94-0.34v5.95c-1.46-0.29-3.68-0.39-5.94-0.39h-13.48v4.19h20.08c2.97,0,7.31-0.83,9.75-2.68l-2.26,13.11
		h-42.38C773.02,202.51,773.59,197.49,773.59,193.2z"/>
	<path class="st0" d="M817.47,188.47c0-11.41,9.84-17.79,25.04-17.79c6.78,0,11.7,0.73,17.64,2.24l-0.75,11.6
		c-3.46-1.9-9.71-3.17-16.27-3.17c-7.8,0-12.86,2.44-12.86,7.12c0,4.24,4.52,7.17,12.37,7.17c3.59,0,7.05-0.93,9.53-2.63v-1.95
		h-7.62c-1.2,0-3.15,0.24-4.17,0.63l0.13-4.88h23.32v12.82c-4.21,4-11.7,6.63-21.28,6.63C827.31,206.26,817.47,199.88,817.47,188.47
		z"/>
	<path class="st0" d="M869.46,193.2v-9.46c0-4.29-0.67-9.36-1.68-12.33h41.67l1.6,12.09c-1.6-0.93-5.63-1.66-9.22-1.66h-19.24v3.85
		h13.48c2.26,0,4.48-0.1,5.94-0.34v5.95c-1.46-0.29-3.68-0.39-5.94-0.39h-13.48v4.19h20.08c2.97,0,7.31-0.83,9.75-2.68l-2.26,13.11
		h-42.38C868.88,202.51,869.46,197.49,869.46,193.2z"/>
	<path class="st0" d="M929.29,193.2v-10.87h-5.54c-5.1,0-8.2,0.29-10.73,1.12l2.44-12.04h40.82l2.44,12.04
		c-2.53-0.83-5.63-1.12-10.73-1.12h-5.58v10.87c0,4.29,0.62,9.31,1.68,12.33H927.6C928.72,202.51,929.29,197.49,929.29,193.2z"/>
	<path class="st0" d="M960.05,193.2l5.1-9.46c2.08-4.29,4.08-9.31,4.74-12.33h18.75c0.71,3.12,2.66,8.19,4.7,12.29l5.14,9.51
		c2.08,4.29,5.01,9.31,7.27,12.33h-16.76c-0.18-1.56-0.58-3.17-1.64-6.09l-0.71-1.41h-14.76l-0.71,1.46
		c-0.97,2.88-1.46,4.49-1.73,6.05h-16.71C955.04,202.51,957.97,197.44,960.05,193.2z M983.63,192.57l-2.39-4.83
		c-0.89-2.05-1.29-3.8-1.68-5.95h-0.62c-0.44,2.29-0.8,3.75-1.73,5.95l-2.35,4.83H983.63z"/>
	<path class="st0" d="M1008.85,193.2v-9.46c0-4.29-0.67-9.36-1.68-12.33h31.74c6.03,0,10.95,2.58,10.95,8.04
		c0,5.27-4.65,7.95-10.55,7.95h-1.29v0.58h2.22c6.65,0,12.19,2.63,12.19,8.68s-5.5,8.87-12.54,8.87h-32.71
		C1008.22,202.51,1008.85,197.49,1008.85,193.2z M1034.6,185.69c1.68,0,3.06-0.68,3.06-2.15c0-1.51-1.33-2.15-3.01-2.15h-12.72v4.29
		L1034.6,185.69L1034.6,185.69z M1035.4,195.3c2.22,0,3.68-0.78,3.68-2.49c0-1.8-1.51-2.58-3.72-2.58h-13.43v5.07H1035.4z"/>
	<path class="st0" d="M1067.3,204.12c-5.63,0-9.58,1.36-11.53,2.15c1.06-3.02,1.68-8.78,1.68-13.07v-9.46
		c0-4.29-0.67-9.36-1.68-12.33h16.49c-1.02,2.97-1.73,11.36-1.73,15.65v7.56h12.37c4.39,0,8.91-0.83,11.35-2.1l-0.18,12.33
		c-0.35,0.05-3.46,1.41-7.14,1.41C1079.41,206.26,1075.82,204.12,1067.3,204.12z"/>
	<path class="st0" d="M1099.52,193.2v-9.46c0-4.29-0.67-9.36-1.68-12.33h41.67l1.6,12.09c-1.6-0.93-5.63-1.66-9.22-1.66h-19.24v3.85
		h13.48c2.26,0,4.48-0.1,5.94-0.34v5.95c-1.46-0.29-3.68-0.39-5.94-0.39h-13.48v4.19h20.08c2.97,0,7.31-0.83,9.75-2.68l-2.26,13.11
		h-42.38C1098.95,202.51,1099.52,197.49,1099.52,193.2z"/>
	<path class="st0" d="M1143.89,202.61l0.49-12.97c5.23,4.05,13.12,6.09,23.45,6.09c5.54,0,8.55-0.54,8.55-2.24
		c0-5.31-32.31,1.85-32.31-12.82c0-7.61,9.75-9.99,22.34-9.99c6.07,0,14.23,0.98,19.59,3.07v11.36c-4.96-2.58-11.97-4-19.11-4
		c-4.92-0.05-8.95,0.44-8.95,2.24c0,5.66,32.31-2.49,32.31,11.94c0,7.17-7.8,10.97-22.21,10.97
		C1161.26,206.26,1149.47,204.66,1143.89,202.61z"/>
	<path class="st0" d="M1200.71,185.79c9.13,0,11.21-1.36,11.21-4c0-2.05-2.26-3.75-6.69-3.75c-7,0-12.9,2.44-12.9,2.44v-7.41
		c0,0,5.01-2.19,12.9-2.19c10.28,0,16.8,3.56,16.76,9.56c0,5.17-3.5,8.19-11.35,9.17l-0.53,3.51h-8.33L1200.71,185.79z
		 M1200.35,200.85c0-3.36,2.26-5.27,5.58-5.27s5.58,1.9,5.58,5.27c0,3.31-2.26,5.22-5.58,5.22
		C1202.61,206.02,1200.35,204.17,1200.35,200.85z"/>
</g>
<text transform="matrix(0.9091 0 0 1 0.9219 281.4331)" class="st0" style="font-family:'Brice-BoldExpanded'; font-size:48.7524px;">DO YOU KNOW UGLY VEGETABLES?</text>
<text transform="matrix(1 0 0 1 0.9219 454.7022)" class="st0" style="font-family:'Brice-BoldExpanded'; font-size:48.7524px;"> IT&apos;S DELICIOUS EVEN THOUGH UGLY</text>
<text transform="matrix(1 0 0 1 0.9219 569.1143)" class="st0" style="font-family:'Brice-BoldExpanded'; font-size:48.7524px;"> It&apos;s delicious even though ugly</text>
<g class="st1">
	<path class="st0" d="M61.11,34.79v-9.46c0-4.29-0.73-9.36-1.85-12.33h18.14c-1.12,2.97-1.9,8.04-1.9,12.33v9.46
		c0,4.29,0.63,9.31,1.9,12.33H59.26C60.43,44.1,61.11,39.08,61.11,34.79z"/>
	<path class="st0" d="M87.29,38.99V26.02h-6.44v-3.27h6.44v-6.44l13.94-2.54v8.97h11.65v3.27h-11.65v8.78
		c0,2.83,2.19,4.29,5.36,4.29c2.88,0,5.7-1.07,7.31-2.78v9.21c-3.07,1.56-8.39,2.34-12.38,2.34C93.29,47.86,87.29,45.47,87.29,38.99
		z"/>
	<path class="st0" d="M117.27,13h8.97l-0.68,14.92h-7.65L117.27,13z"/>
	<path class="st0" d="M130.29,45.13v-9.56c3.66,3.07,11.9,4.44,18.87,4.44c4.39,0,7.22-0.54,7.22-2.1c0-3.8-25.5,1.22-25.5-8.68
		c0-5.07,8.09-7.22,19.35-7.22c4.53,0,12.63,0.83,16.33,1.61l0.88,8.92c-2.73-1.85-9.8-3.27-15.45-3.27c-3.66,0-7.65,0.29-7.65,1.9
		c0,3.61,25.59-0.93,25.59,9.02c0,4.73-6.29,7.65-19.74,7.65C144.48,47.86,134.33,46.25,130.29,45.13z"/>
	<path class="st0" d="M184.21,34.94c0-8,6.39-12.92,16.09-12.92c6.97,0,12.29,2.63,14.67,7.17h0.63v-4.05
		c0-4.29-0.68-9.12-1.85-12.14h17.7c-1.22,3.02-1.85,7.85-1.85,12.14v9.31c0,4.29,0.63,9.36,1.85,12.68H213.8
		c0.93-1.41,1.8-4.44,1.8-6.24v-0.24h-0.63c-2.39,4.63-7.7,7.22-14.67,7.22C190.59,47.86,184.21,42.93,184.21,34.94z M214.82,34.94
		c0-3.07-3.66-5.02-8.68-5.02c-5.17,0-8.78,1.95-8.78,5.02c0,3.02,3.61,4.97,8.78,4.97C211.17,39.91,214.82,37.96,214.82,34.94z"/>
	<path class="st0" d="M234.62,34.94c0-8,8.58-12.92,21.6-12.92c11.46,0,20.04,2.93,20.04,8.43c0,4.78-7.75,6.87-15.31,6.87
		c-5.75,0-9.12-0.63-13.21-2l-0.29,0.44c1.36,2.97,7.56,4.24,13.36,4.24c5.95,0,11.31-0.97,15.02-3.51l0.29,8.14
		c-3.9,2.19-12.43,3.22-18.92,3.22C243.25,47.86,234.62,42.98,234.62,34.94z M263.48,32.06c0-1.36-1.75-2.63-6.92-2.63
		c-4.49,0-8.43,1.32-9.26,3.41c2.49,0.88,6.24,1.61,10.19,1.61C261.24,34.45,263.48,33.72,263.48,32.06z"/>
	<path class="st0" d="M281.66,36.94V23.19c0-4.29-0.68-7.17-1.85-10.19h17.7c-1.22,3.02-1.85,5.9-1.85,10.19v13.75
		c0,4.24,0.63,7.12,1.85,10.19h-17.7C280.98,44.06,281.66,41.18,281.66,36.94z"/>
	<path class="st0" d="M303.5,36.94v-9.36c0-1.76-0.1-3.71-0.34-4.83c4.92,1.32,9.9,1.27,14.63,0c-0.24,1.12-0.29,3.07-0.29,4.83
		v9.36c0,4.24,0.63,7.12,1.85,10.19h-17.7C302.87,44.06,303.5,41.18,303.5,36.94z M302.63,17c0-2.68,3.22-4.39,7.85-4.39
		s7.85,1.71,7.85,4.39c0,2.63-3.22,4.39-7.85,4.39S302.63,19.63,302.63,17z"/>
	<path class="st0" d="M322.18,34.84c0-7.95,8.58-12.92,21.6-12.92c5.85,0,12.68,1.07,15.16,2.1l-1.22,9.26
		c-2.88-1.61-7.22-2.68-11.55-2.68c-6.83,0-10.58,1.27-10.58,4.24c0,2.97,4.44,4.29,11.36,4.29c4.29,0,9.36-0.88,12.97-3.12
		l0.05,9.99c-3.71,1.02-10.82,1.75-16.19,1.75C330.76,47.76,322.18,42.84,322.18,34.84z"/>
	<path class="st0" d="M365.42,36.94v-9.36c0-1.76-0.1-3.71-0.34-4.83c4.92,1.32,9.9,1.27,14.63,0c-0.24,1.12-0.29,3.07-0.29,4.83
		v9.36c0,4.24,0.63,7.12,1.85,10.19h-17.7C364.79,44.06,365.42,41.18,365.42,36.94z M364.54,17c0-2.68,3.22-4.39,7.85-4.39
		s7.85,1.71,7.85,4.39c0,2.63-3.22,4.39-7.85,4.39S364.54,19.63,364.54,17z"/>
	<path class="st0" d="M383.56,34.99c0-8,8.63-12.97,20.57-12.97c11.9,0,20.52,4.97,20.52,12.97c0,7.95-8.63,12.87-20.52,12.87
		C392.18,47.86,383.56,42.93,383.56,34.99z M411.59,34.99c0-3.75-3.12-5.95-7.46-5.95c-4.29,0-7.51,2.19-7.51,5.95
		c0,3.7,3.22,5.8,7.51,5.8C408.47,40.79,411.59,38.69,411.59,34.99z"/>
	<path class="st0" d="M428.99,36.84v-3.95c0-4.24-0.63-7.12-1.85-10.14h17.7c-1.17,3.02-1.85,5.9-1.85,10.14v2.63
		c0,2.68,2.29,4.92,5.9,4.92c3.17,0,7.02-2.24,7.02-5.95v-1.61c0-4.24-0.63-7.12-1.85-10.14h17.7c-1.17,3.02-1.8,5.9-1.8,10.14v4.05
		c0,4.29,0.63,7.17,1.8,10.19h-17.11c0.68-1.27,1.27-3.9,1.27-5.7v-0.73h-0.58c-2.15,5.07-7.56,7.17-12.68,7.17
		C433.53,47.86,428.99,43.13,428.99,36.84z"/>
	<path class="st0" d="M475.36,45.13v-9.56c3.66,3.07,11.9,4.44,18.87,4.44c4.39,0,7.22-0.54,7.22-2.1c0-3.8-25.5,1.22-25.5-8.68
		c0-5.07,8.09-7.22,19.35-7.22c4.53,0,12.63,0.83,16.33,1.61l0.88,8.92c-2.73-1.85-9.8-3.27-15.45-3.27c-3.66,0-7.65,0.29-7.65,1.9
		c0,3.61,25.59-0.93,25.59,9.02c0,4.73-6.29,7.65-19.74,7.65C489.54,47.86,479.4,46.25,475.36,45.13z"/>
	<path class="st0" d="M529.37,34.94c0-8,8.58-12.92,21.6-12.92c11.46,0,20.04,2.93,20.04,8.43c0,4.78-7.75,6.87-15.31,6.87
		c-5.75,0-9.12-0.63-13.21-2l-0.29,0.44c1.36,2.97,7.56,4.24,13.36,4.24c5.95,0,11.31-0.97,15.02-3.51l0.29,8.14
		c-3.9,2.19-12.43,3.22-18.92,3.22C538,47.86,529.37,42.98,529.37,34.94z M558.23,32.06c0-1.36-1.75-2.63-6.92-2.63
		c-4.49,0-8.43,1.32-9.26,3.41c2.49,0.88,6.24,1.61,10.19,1.61C555.99,34.45,558.23,33.72,558.23,32.06z"/>
	<path class="st0" d="M581.49,38.25l-4.14-6.48c-2.19-3.17-5.22-6.83-7.56-9.02h17.6c0.19,1.41,0.68,2.93,2.05,4.92l4.29,7.22
		c0.83,1.17,1.32,2.24,1.66,3.41h0.59c0.39-1.27,0.83-2.15,1.66-3.41l4.29-7.22c1.36-2,1.8-3.51,2.05-4.92h16.58
		c-2.34,2.19-5.36,5.85-7.56,9.02l-4.19,6.48c-2,2.97-4.05,6.63-4.68,8.87h-17.84C585.58,44.88,583.59,41.18,581.49,38.25z"/>
	<path class="st0" d="M619.22,34.94c0-8,8.58-12.92,21.6-12.92c11.46,0,20.04,2.93,20.04,8.43c0,4.78-7.75,6.87-15.31,6.87
		c-5.75,0-9.12-0.63-13.21-2l-0.29,0.44c1.37,2.97,7.56,4.24,13.36,4.24c5.95,0,11.31-0.97,15.02-3.51l0.29,8.14
		c-3.9,2.19-12.43,3.22-18.92,3.22C627.85,47.86,619.22,42.98,619.22,34.94z M648.08,32.06c0-1.36-1.75-2.63-6.92-2.63
		c-4.49,0-8.43,1.32-9.26,3.41c2.49,0.88,6.24,1.61,10.19,1.61C645.84,34.45,648.08,33.72,648.08,32.06z"/>
	<path class="st0" d="M666.22,36.94v-4c0-4.29-0.68-7.17-1.9-10.19h17.11c-0.68,1.27-1.27,3.9-1.27,5.66v0.78h0.63
		c2.14-5.12,7.56-7.17,12.63-7.17c9.17,0,13.65,4.68,13.65,11.02v3.9c0,4.29,0.63,7.12,1.85,10.19h-17.7
		c1.22-3.07,1.85-5.9,1.85-10.19v-2.58c0-2.68-2.29-4.92-5.9-4.92c-3.12,0-7.02,2.19-7.02,5.95v1.56c0,4.29,0.63,7.12,1.9,10.19
		h-17.75C665.54,44.06,666.22,41.23,666.22,36.94z"/>
	<path class="st0" d="M729.5,38.99V26.02h-6.44v-3.27h6.44v-6.44l13.94-2.54v8.97h11.65v3.27h-11.65v8.78
		c0,2.83,2.19,4.29,5.36,4.29c2.88,0,5.7-1.07,7.31-2.78v9.21c-3.07,1.56-8.38,2.34-12.38,2.34C735.5,47.86,729.5,45.47,729.5,38.99
		z"/>
	<path class="st0" d="M760.95,36.94V23.19c0-4.29-0.68-7.17-1.9-10.19h17.75c-1.22,3.02-1.9,5.9-1.9,10.19v6h0.63
		c2.15-5.12,7.56-7.17,12.68-7.17c9.12,0,13.6,4.68,13.6,11.02v3.9c0,4.29,0.63,7.12,1.9,10.19h-17.75c1.22-3.07,1.9-5.9,1.9-10.19
		v-2.58c0-2.68-2.34-4.92-5.95-4.92c-3.12,0-7.02,2.19-7.02,5.95v1.56c0,4.29,0.68,7.12,1.9,10.19h-17.75
		C760.26,44.06,760.95,41.23,760.95,36.94z"/>
	<path class="st0" d="M806.63,34.99c0-8,8.63-12.97,20.57-12.97c11.9,0,20.52,4.97,20.52,12.97c0,7.95-8.63,12.87-20.52,12.87
		C815.25,47.86,806.63,42.93,806.63,34.99z M834.66,34.99c0-3.75-3.12-5.95-7.46-5.95c-4.29,0-7.51,2.19-7.51,5.95
		c0,3.7,3.22,5.8,7.51,5.8C831.54,40.79,834.66,38.69,834.66,34.99z"/>
	<path class="st0" d="M852.06,36.84v-3.95c0-4.24-0.63-7.12-1.85-10.14h17.7c-1.17,3.02-1.85,5.9-1.85,10.14v2.63
		c0,2.68,2.29,4.92,5.9,4.92c3.17,0,7.02-2.24,7.02-5.95v-1.61c0-4.24-0.63-7.12-1.85-10.14h17.7c-1.17,3.02-1.8,5.9-1.8,10.14v4.05
		c0,4.29,0.63,7.17,1.8,10.19h-17.11c0.68-1.27,1.27-3.9,1.27-5.7v-0.73h-0.58c-2.15,5.07-7.56,7.17-12.68,7.17
		C856.6,47.86,852.06,43.13,852.06,36.84z"/>
	<path class="st0" d="M897.94,56.44v-9.31c3.8,2.58,12.72,4.29,19.4,4.29c8.04,0,13.41-2.54,13.41-6.63c0-1.51-0.83-2.68-2.34-3.61
		h-0.49c-2.49,4.24-7.65,6.68-14.33,6.68c-9.7,0-16.09-4.97-16.09-12.92c0-8,6.39-12.92,16.09-12.92c6.92,0,12.29,2.54,14.67,7.17
		h0.39V28.7c0-1.8-0.93-4.78-2.1-5.95h17.94c-1.22,3.27-1.85,6.39-1.85,10.68l-0.05,7.51c1.41,1.02,2.49,3.27,2.49,5.46
		c0,7.8-11.55,11.99-24.81,11.99C912.86,58.39,903.11,57.66,897.94,56.44z M928.12,34.94c0-3.07-3.66-5.02-8.68-5.02
		c-5.17,0-8.78,1.95-8.78,5.02c0,3.02,3.61,4.97,8.78,4.97C924.46,39.91,928.12,37.96,928.12,34.94z"/>
	<path class="st0" d="M951.27,36.94V23.19c0-4.29-0.68-7.17-1.9-10.19h17.75c-1.22,3.02-1.9,5.9-1.9,10.19v6h0.63
		c2.15-5.12,7.56-7.17,12.68-7.17c9.12,0,13.6,4.68,13.6,11.02v3.9c0,4.29,0.63,7.12,1.9,10.19h-17.75c1.22-3.07,1.9-5.9,1.9-10.19
		v-2.58c0-2.68-2.34-4.92-5.95-4.92c-3.12,0-7.02,2.19-7.02,5.95v1.56c0,4.29,0.68,7.12,1.9,10.19h-17.75
		C950.59,44.06,951.27,41.23,951.27,36.94z"/>
	<path class="st0" d="M1012.02,36.84v-3.95c0-4.24-0.63-7.12-1.85-10.14h17.7c-1.17,3.02-1.85,5.9-1.85,10.14v2.63
		c0,2.68,2.29,4.92,5.9,4.92c3.17,0,7.02-2.24,7.02-5.95v-1.61c0-4.24-0.63-7.12-1.85-10.14h17.7c-1.17,3.02-1.8,5.9-1.8,10.14v4.05
		c0,4.29,0.63,7.17,1.8,10.19h-17.11c0.68-1.27,1.27-3.9,1.27-5.7v-0.73h-0.58c-2.15,5.07-7.56,7.17-12.68,7.17
		C1016.55,47.86,1012.02,43.13,1012.02,36.84z"/>
	<path class="st0" d="M1057.89,56.44v-9.31c3.8,2.58,12.72,4.29,19.4,4.29c8.04,0,13.41-2.54,13.41-6.63c0-1.51-0.83-2.68-2.34-3.61
		h-0.49c-2.49,4.24-7.65,6.68-14.33,6.68c-9.7,0-16.09-4.97-16.09-12.92c0-8,6.39-12.92,16.09-12.92c6.92,0,12.29,2.54,14.67,7.17
		h0.39V28.7c0-1.8-0.93-4.78-2.1-5.95h17.94c-1.22,3.27-1.85,6.39-1.85,10.68l-0.05,7.51c1.41,1.02,2.49,3.27,2.49,5.46
		c0,7.8-11.55,11.99-24.82,11.99C1072.81,58.39,1063.06,57.66,1057.89,56.44z M1088.07,34.94c0-3.07-3.66-5.02-8.68-5.02
		c-5.17,0-8.78,1.95-8.78,5.02c0,3.02,3.61,4.97,8.78,4.97C1084.42,39.91,1088.07,37.96,1088.07,34.94z"/>
	<path class="st0" d="M1111.23,36.94V23.19c0-4.29-0.68-7.17-1.85-10.19h17.7c-1.22,3.02-1.85,5.9-1.85,10.19v13.75
		c0,4.24,0.63,7.12,1.85,10.19h-17.7C1110.55,44.06,1111.23,41.18,1111.23,36.94z"/>
	<path class="st0" d="M1132.49,56.44V46.35c4,3.02,9.85,5.07,16.53,5.07c8.04,0,13.02-2.49,13.02-6.58c0-1.56-0.83-2.92-2.34-3.85
		l-0.54,0.05c-2.24,4.83-7.51,6.83-12.48,6.83c-9.12,0-13.65-4.73-13.65-11.02v-3.95c0-4.24-0.63-7.12-1.85-10.14h17.7
		c-1.22,3.02-1.85,5.9-1.85,10.14v2.63c0,2.68,2.29,4.92,5.85,4.92c3.17,0,7.07-2.24,7.07-5.95v-1.61c0-4.24-0.63-7.12-1.85-10.14
		h17.7c-1.22,3.02-1.85,5.9-1.85,10.14l-0.05,7.9c1.41,1.02,2.49,3.46,2.49,5.61c0,7.8-11.16,11.99-24.42,11.99
		C1144.58,58.39,1137.65,57.66,1132.49,56.44z"/>
</g>
</svg>
