<?xml version="1.0" encoding="utf-8"?>
<!-- Generator: Adobe Illustrator 26.0.1, SVG Export Plug-In . SVG Version: 6.00 Build 0)  -->
<svg version="1.1" id="레이어_1" xmlns="http://www.w3.org/2000/svg" xmlns:xlink="http://www.w3.org/1999/xlink" x="0px"
	 y="0px" viewBox="0 0 1235.62 71" style="enable-background:new 0 0 1235.62 71;" xml:space="preserve">
<style type="text/css">
	.st0{fill:#FFFFFF;}
</style>
<g>
	<path class="st0" d="M15.32,190.23v-9.46c0-4.29-0.67-9.36-1.68-12.33h26.77c14.05,0,21.54,6.29,21.54,17.06
		c0,10.77-7.49,17.06-21.54,17.06H13.64C14.75,199.54,15.32,194.52,15.32,190.23z M38.15,191.4c7,0,10.55-1.9,10.55-5.9
		s-3.63-5.9-10.55-5.9h-9.71v11.8H38.15z"/>
	<path class="st0" d="M63.94,185.5c0-11.31,10.11-17.79,24.82-17.79c14.72,0,24.82,6.48,24.82,17.79
		c0,11.31-10.11,17.79-24.82,17.79C74.05,203.29,63.94,196.81,63.94,185.5z M100.47,185.5c0-4.24-4.7-6.73-11.7-6.73
		c-7.05,0-11.7,2.49-11.7,6.73c0,4.24,4.65,6.78,11.7,6.78C95.77,192.28,100.47,189.74,100.47,185.5z"/>
	<path class="st0" d="M143.54,191.25v-2.24l-13.34-14.58c-2.13-2.29-4.92-4.68-6.74-6h18c1.02,2,2.13,3.71,3.99,6l4.39,5.41h0.49
		l4.34-5.41c1.86-2.29,2.97-4,3.99-6h18c-1.82,1.32-4.61,3.71-6.69,6l-13.34,14.77v2.24c0,4.05,0.53,8.39,1.29,11.07h-15.69
		C142.92,199.78,143.54,195.35,143.54,191.25z"/>
	<path class="st0" d="M174.12,185.5c0-11.31,10.11-17.79,24.82-17.79c14.72,0,24.82,6.48,24.82,17.79
		c0,11.31-10.11,17.79-24.82,17.79C184.23,203.29,174.12,196.81,174.12,185.5z M210.65,185.5c0-4.24-4.7-6.73-11.7-6.73
		c-7.05,0-11.7,2.49-11.7,6.73c0,4.24,4.65,6.78,11.7,6.78C205.95,192.28,210.65,189.74,210.65,185.5z"/>
	<path class="st0" d="M228.15,186.08v-5.31c0-4.24-0.67-9.31-1.68-12.33h16.45c-1.02,3.02-1.64,8.58-1.64,12.87v3.36
		c0,4.49,3.28,7.9,8.07,7.9c4.74,0,8.02-3.41,8.02-7.9v-3.36c0-4.29-0.66-9.85-1.68-12.87h16.49c-1.02,3.02-1.68,8.09-1.68,12.33
		v5.31c0,10.92-6.43,17.21-21.14,17.21C234.57,203.29,228.15,197.01,228.15,186.08z"/>
	<path class="st0" d="M306.33,185.74c-1.15,0-2.66,0.24-3.37,0.54v3.22c0,4.29,0.58,10.04,1.73,13.07H288.2
		c1.06-3.02,1.68-8.04,1.68-12.33v-9.46c0-4.29-0.67-9.36-1.68-12.33h16.49c-1.02,2.97-1.73,6.87-1.73,11.16v2.15h4.7
		c5.98,0,9.62-2.63,9.62-7.61c0-2-0.49-4.14-1.29-5.7h14.36c0.93,1.76,1.33,3.36,1.33,5.95c0,7.02-4.39,9.17-15.29,9.17h-3.46v0.63
		h0.18c7.58,0,7.45,4.88,13.96,4.88c4.79,0,7.27-2.24,8.42-5.02l0.09,15.36c-1.29,2.15-4.17,3.9-7.71,3.9
		C313.78,203.29,317.32,185.74,306.33,185.74z"/>
	<path class="st0" d="M341.12,190.23v-9.46c0-4.29-0.58-9.31-1.68-12.33h15.69l19.28,17.79h0.58v-6c0-4.68-0.84-9.56-1.6-11.8h16.49
		c-1.02,2.97-1.73,8.04-1.73,12.33v21.79h-11.66l-21.63-19.6h-0.62v5.95c0,4.63,0.84,11.12,1.68,13.65h-16.49
		C340.45,199.59,341.12,194.52,341.12,190.23z"/>
	<path class="st0" d="M393.42,185.5c0-11.31,10.11-17.79,24.82-17.79c14.72,0,24.82,6.48,24.82,17.79
		c0,11.31-10.11,17.79-24.82,17.79C403.52,203.29,393.42,196.81,393.42,185.5z M429.94,185.5c0-4.24-4.7-6.73-11.7-6.73
		c-7.05,0-11.7,2.49-11.7,6.73c0,4.24,4.65,6.78,11.7,6.78C425.24,192.28,429.94,189.74,429.94,185.5z"/>
	<path class="st0" d="M452.27,189.98l-3.72-9.21c-1.82-4.29-4.39-9.31-6.43-12.33h17.07c0.09,1.9,0.4,3.95,1.46,6.63l4.17,10.14
		c0.75,1.85,1.24,3.46,1.86,5.41h0.4l6.92-22.18h9.62l6.92,22.18h0.4c0.58-1.9,1.11-3.56,1.86-5.46l4.17-10.09
		c1.06-2.68,1.37-4.73,1.46-6.63h17.07c-2.04,3.02-4.61,8.04-6.43,12.33l-3.72,9.21c-1.77,4.19-3.41,9.36-3.99,12.58H485.7
		l-6.65-21.35h-0.44l-6.65,21.35h-15.65C455.73,199.35,454.05,194.18,452.27,189.98z"/>
	<path class="st0" d="M528.9,186.08v-5.31c0-4.24-0.67-9.31-1.68-12.33h16.45c-1.02,3.02-1.64,8.58-1.64,12.87v3.36
		c0,4.49,3.28,7.9,8.07,7.9c4.74,0,8.02-3.41,8.02-7.9v-3.36c0-4.29-0.66-9.85-1.68-12.87h16.49c-1.02,3.02-1.68,8.09-1.68,12.33
		v5.31c0,10.92-6.43,17.21-21.14,17.21C535.33,203.29,528.9,197.01,528.9,186.08z"/>
	<path class="st0" d="M575.93,185.5c0-11.41,9.84-17.79,25.04-17.79c6.78,0,11.7,0.73,17.64,2.24l-0.75,11.6
		c-3.46-1.9-9.71-3.17-16.27-3.17c-7.8,0-12.85,2.44-12.85,7.12c0,4.24,4.52,7.17,12.37,7.17c3.59,0,7.05-0.93,9.53-2.63v-1.95
		h-7.62c-1.2,0-3.15,0.24-4.17,0.63l0.13-4.88h23.32v12.82c-4.21,4-11.7,6.63-21.28,6.63C585.77,203.29,575.93,196.91,575.93,185.5z
		"/>
	<path class="st0" d="M637.75,201.15c-5.63,0-9.57,1.36-11.52,2.15c1.06-3.02,1.68-8.78,1.68-13.07v-9.46
		c0-4.29-0.67-9.36-1.68-12.33h16.49c-1.02,2.97-1.73,11.36-1.73,15.65v7.56h12.37c4.39,0,8.91-0.83,11.35-2.1l-0.18,12.33
		c-0.35,0.05-3.46,1.41-7.14,1.41C649.86,203.29,646.26,201.15,637.75,201.15z"/>
	<path class="st0" d="M678.62,191.25v-2.24l-13.34-14.58c-2.13-2.29-4.92-4.68-6.74-6h18c1.02,2,2.13,3.71,3.99,6l4.39,5.41h0.49
		l4.34-5.41c1.86-2.29,2.97-4,3.99-6h18c-1.82,1.32-4.61,3.71-6.69,6l-13.34,14.77v2.24c0,4.05,0.53,8.39,1.29,11.07h-15.69
		C678,199.78,678.62,195.35,678.62,191.25z"/>
	<path class="st0" d="M730.6,190.28l-5.1-9.51c-2.13-4.29-5.1-9.31-7.36-12.33h17.11c0.27,1.9,0.75,3.9,2,6.63l5.19,10.63
		c0.84,1.8,1.42,3.31,1.86,5.17h0.44c0.44-2,0.97-3.22,1.82-5.17l5.19-10.63c1.2-2.78,1.77-4.73,2-6.63h16.18
		c-2.31,3.02-5.28,8.04-7.4,12.33l-5.1,9.46c-2.08,4.29-4.08,9.31-4.74,12.33H735.3C734.59,199.44,732.64,194.37,730.6,190.28z"/>
	<path class="st0" d="M773.59,190.23v-9.46c0-4.29-0.67-9.36-1.68-12.33h41.67l1.6,12.09c-1.6-0.93-5.63-1.66-9.22-1.66h-19.24v3.85
		h13.48c2.26,0,4.48-0.1,5.94-0.34v5.95c-1.46-0.29-3.68-0.39-5.94-0.39h-13.48v4.19h20.08c2.97,0,7.31-0.83,9.75-2.68l-2.26,13.11
		h-42.38C773.02,199.54,773.59,194.52,773.59,190.23z"/>
	<path class="st0" d="M817.47,185.5c0-11.41,9.84-17.79,25.04-17.79c6.78,0,11.7,0.73,17.64,2.24l-0.75,11.6
		c-3.46-1.9-9.71-3.17-16.27-3.17c-7.8,0-12.86,2.44-12.86,7.12c0,4.24,4.52,7.17,12.37,7.17c3.59,0,7.05-0.93,9.53-2.63v-1.95
		h-7.62c-1.2,0-3.15,0.24-4.17,0.63l0.13-4.88h23.32v12.82c-4.21,4-11.7,6.63-21.28,6.63C827.31,203.29,817.47,196.91,817.47,185.5z
		"/>
	<path class="st0" d="M869.46,190.23v-9.46c0-4.29-0.67-9.36-1.68-12.33h41.67l1.6,12.09c-1.6-0.93-5.63-1.66-9.22-1.66h-19.24v3.85
		h13.48c2.26,0,4.48-0.1,5.94-0.34v5.95c-1.46-0.29-3.68-0.39-5.94-0.39h-13.48v4.19h20.08c2.97,0,7.31-0.83,9.75-2.68l-2.26,13.11
		h-42.38C868.88,199.54,869.46,194.52,869.46,190.23z"/>
	<path class="st0" d="M929.29,190.23v-10.87h-5.54c-5.1,0-8.2,0.29-10.73,1.12l2.44-12.04h40.82l2.44,12.04
		c-2.53-0.83-5.63-1.12-10.73-1.12h-5.58v10.87c0,4.29,0.62,9.31,1.68,12.33h-16.49C928.72,199.54,929.29,194.52,929.29,190.23z"/>
	<path class="st0" d="M960.05,190.23l5.1-9.46c2.08-4.29,4.08-9.31,4.74-12.33h18.75c0.71,3.12,2.66,8.19,4.7,12.29l5.14,9.51
		c2.08,4.29,5.01,9.31,7.27,12.33h-16.76c-0.18-1.56-0.58-3.17-1.64-6.09l-0.71-1.41h-14.76l-0.71,1.46
		c-0.97,2.88-1.46,4.49-1.73,6.05h-16.71C955.04,199.54,957.97,194.47,960.05,190.23z M983.63,189.6l-2.39-4.83
		c-0.89-2.05-1.29-3.8-1.68-5.95h-0.62c-0.44,2.29-0.8,3.75-1.73,5.95l-2.35,4.83H983.63z"/>
	<path class="st0" d="M1008.85,190.23v-9.46c0-4.29-0.67-9.36-1.68-12.33h31.74c6.03,0,10.95,2.58,10.95,8.04
		c0,5.27-4.65,7.95-10.55,7.95h-1.29v0.58h2.22c6.65,0,12.19,2.63,12.19,8.68c0,6.05-5.5,8.87-12.54,8.87h-32.71
		C1008.22,199.54,1008.85,194.52,1008.85,190.23z M1034.6,182.72c1.68,0,3.06-0.68,3.06-2.15c0-1.51-1.33-2.15-3.01-2.15h-12.72
		v4.29H1034.6z M1035.4,192.33c2.22,0,3.68-0.78,3.68-2.49c0-1.8-1.51-2.58-3.72-2.58h-13.43v5.07H1035.4z"/>
	<path class="st0" d="M1067.3,201.15c-5.63,0-9.58,1.36-11.53,2.15c1.06-3.02,1.68-8.78,1.68-13.07v-9.46
		c0-4.29-0.67-9.36-1.68-12.33h16.49c-1.02,2.97-1.73,11.36-1.73,15.65v7.56h12.37c4.39,0,8.91-0.83,11.35-2.1l-0.18,12.33
		c-0.35,0.05-3.46,1.41-7.14,1.41C1079.41,203.29,1075.82,201.15,1067.3,201.15z"/>
	<path class="st0" d="M1099.52,190.23v-9.46c0-4.29-0.67-9.36-1.68-12.33h41.67l1.6,12.09c-1.6-0.93-5.63-1.66-9.22-1.66h-19.24
		v3.85h13.48c2.26,0,4.48-0.1,5.94-0.34v5.95c-1.46-0.29-3.68-0.39-5.94-0.39h-13.48v4.19h20.08c2.97,0,7.31-0.83,9.75-2.68
		l-2.26,13.11h-42.38C1098.95,199.54,1099.52,194.52,1099.52,190.23z"/>
	<path class="st0" d="M1143.89,199.64l0.49-12.97c5.23,4.05,13.12,6.09,23.45,6.09c5.54,0,8.55-0.54,8.55-2.24
		c0-5.31-32.31,1.85-32.31-12.82c0-7.61,9.75-9.99,22.34-9.99c6.07,0,14.23,0.98,19.59,3.07v11.36c-4.96-2.58-11.97-4-19.11-4
		c-4.92-0.05-8.95,0.44-8.95,2.24c0,5.66,32.31-2.49,32.31,11.94c0,7.17-7.8,10.97-22.21,10.97
		C1161.26,203.29,1149.47,201.69,1143.89,199.64z"/>
	<path class="st0" d="M1200.71,182.82c9.13,0,11.21-1.36,11.21-4c0-2.05-2.26-3.75-6.69-3.75c-7,0-12.9,2.44-12.9,2.44v-7.41
		c0,0,5.01-2.19,12.9-2.19c10.28,0,16.8,3.56,16.76,9.56c0,5.17-3.5,8.19-11.35,9.17l-0.53,3.51h-8.33L1200.71,182.82z
		 M1200.35,197.88c0-3.36,2.26-5.27,5.58-5.27s5.58,1.9,5.58,5.27c0,3.31-2.26,5.22-5.58,5.22
		C1202.61,203.05,1200.35,201.2,1200.35,197.88z"/>
</g>
<text transform="matrix(1 0 0 1.1 0.9218 281.4329)" class="st0" style="font-family:'Brice-BoldExpanded'; font-size:44.3204px;">DO YOU KNOW UGLY VEGETABLES?</text>
<text transform="matrix(1 0 0 1.1 -29.3967 -133.3857)" class="st0" style="font-family:'Brice-BlackExpanded'; font-size:45px;">01</text>
<g>
	<path class="st0" d="M568.65-65.72c0-11.78,11.38-18.07,25.65-18.07s25.69,6.29,25.69,18.07c0,11.73-11.43,18.07-25.69,18.07
		S568.65-53.98,568.65-65.72z M609.37-65.72c0-4.95-6.7-7.33-15.07-7.33c-8.32,0-15.07,2.38-15.07,7.33c0,4.9,6.75,7.33,15.07,7.33
		C602.67-58.39,609.37-60.81,609.37-65.72z"/>
	<path class="st0" d="M622.06-56.61l22.9-9.26c3.46-1.34,4.99-2.77,4.99-4.21c0-2.38-4.41-3.02-9.09-3.02
		c-5.13,0-13.09,1.73-18.09,4.8l-0.09-11.73c7.69-2.47,13.95-3.76,22.09-3.76c12.06,0,21.24,3.76,21.24,10.64
		c0,4.55-3.55,7.62-10.44,9.26l-14.4,4.16v0.45h16.11c3.64,0,7.69-1.39,9.67-3.81l-0.13,14.7h-44.77V-56.61z"/>
</g>
<g>
	<path class="st0" d="M568.2-122.8c0-11.78,11.38-18.07,25.65-18.07s25.69,6.29,25.69,18.07c0,11.73-11.43,18.07-25.69,18.07
		S568.2-111.07,568.2-122.8z M608.92-122.8c0-4.95-6.7-7.33-15.07-7.33c-8.32,0-15.07,2.38-15.07,7.33c0,4.9,6.75,7.33,15.07,7.33
		C602.22-115.47,608.92-117.9,608.92-122.8z"/>
	<path class="st0" d="M621.61-107.11v-11.04c5.98,2.48,12.82,3.56,18.81,3.56c5.13,0,11.34-0.99,11.34-3.56
		c0-2.33-3.28-3.02-9.04-3.02h-10.98v-4.21h10.98c5.76,0,9.04-0.74,9.04-2.77c0-2.62-6.12-3.32-11.25-3.32
		c-5.35,0-11.61,1.34-16.69,3.27v-10.25c5.4-1.48,13.27-2.43,20.7-2.43c11.52,0,22.36,2.67,22.36,9.5c0,4.36-6.39,7.47-14.58,7.47
		h-2.38v0.64h1.3c9.22,0,16.2,2.67,16.2,7.57c0,6.93-11.02,10.94-22.99,10.94C636.1-104.73,627.55-105.62,621.61-107.11z"/>
</g>
<g>
	<path class="st0" d="M566.38,35.5c0-11.78,11.38-18.07,25.65-18.07s25.69,6.29,25.69,18.07c0,11.73-11.43,18.07-25.69,18.07
		S566.38,47.23,566.38,35.5z M607.1,35.5c0-4.95-6.7-7.33-15.07-7.33c-8.32,0-15.07,2.38-15.07,7.33c0,4.9,6.75,7.33,15.07,7.33
		C600.4,42.83,607.1,40.4,607.1,35.5z"/>
	<path class="st0" d="M649.45,45.8h-29.47l-0.45-4.06l21.28-23.36l8.5,4.5c-0.31-1.63-0.68-3.17-1.17-4.7h16.74
		c-0.99,3.12-1.71,7.18-1.71,11.33v11.43h6.07v4.85h-5.71c0.27,2.38,0.72,5.3,1.35,7.03h-16.74
		C648.73,51.29,649.13,48.27,649.45,45.8z M649.9,40.99V29.66l-11.11,11.34H649.9z"/>
</g>
<g>
	<path class="st0" d="M568.56-254.53c0-11.78,11.38-18.07,25.65-18.07s25.69,6.29,25.69,18.07c0,11.73-11.43,18.07-25.69,18.07
		S568.56-242.8,568.56-254.53z M609.28-254.53c0-4.95-6.7-7.33-15.07-7.33c-8.32,0-15.07,2.38-15.07,7.33
		c0,4.9,6.75,7.33,15.07,7.33C602.58-247.2,609.28-249.63,609.28-254.53z"/>
	<path class="st0" d="M621.97-239.98v-12.47c5.27,3.47,13.27,5.45,21.06,5.45c5,0,8.59-1.88,8.59-4.41c0-2.77-3.01-4.21-7.92-4.21
		c-4.1,0-8.23,2.38-10.39,4.26l-10.26-4.06v-16.63h40.99l0.81,12.62c-2.02-2.48-6.48-3.17-13.41-3.17h-17.37v6.83l0.31,0.2
		c3.29-2.38,8.59-3.96,13.9-3.96c10.12,0,18.4,3.17,18.4,10.49c0,8.56-9.99,12.38-23.49,12.38
		C635.29-236.66,626.25-238.49,621.97-239.98z"/>
</g>
<text transform="matrix(1 0 0 1.1 280.6355 -30.3232)" class="st0" style="font-family:'Brice-BoldExpanded'; font-size:45px;">02</text>
<text transform="matrix(1 0 0 1.1 280.2083 -99.246)" class="st0" style="font-family:'Brice-BoldExpanded'; font-size:45px;">03</text>
<text transform="matrix(1 0 0 1.1 278.4758 -168.7777)" class="st0" style="font-family:'Brice-BoldExpanded'; font-size:45px;">04</text>
<text transform="matrix(1 0 0 1.1 280.7258 -237.2033)" class="st0" style="font-family:'Brice-BoldExpanded'; font-size:45px;">05</text>
</svg>
