<?xml version="1.0" encoding="utf-8"?>
<!-- Generator: Adobe Illustrator 26.0.1, SVG Export Plug-In . SVG Version: 6.00 Build 0)  -->
<svg version="1.1" id="레이어_1" xmlns="http://www.w3.org/2000/svg" xmlns:xlink="http://www.w3.org/1999/xlink" x="0px"
	 y="0px" viewBox="0 0 1920 989.21" style="enable-background:new 0 0 1920 989.21;" xml:space="preserve">
<style type="text/css">
	.st0{fill:#FFFFFF;}
</style>
<g>
	<path class="st0" d="M45.64,535.97v-111.2c0-88.76-1.84-194.86-4.67-258.11h45.58c-2.83,63.25-4.55,179.56-4.55,269.34v70.39
		c0,93.86,9.09,165.27,22.36,165.27c13.15,0,22.24-71.41,22.24-165.27v-70.39c0-89.78-1.84-206.08-4.67-269.34h45.71
		c-2.83,63.25-4.67,169.36-4.67,258.11v111.2c0,228.53-17.82,360.14-58.61,360.14C63.46,896.11,45.64,764.5,45.64,535.97z"/>
	<path class="st0" d="M176,523.73c0-238.73,27.28-372.38,69.42-372.38c18.8,0,32.44,15.3,48.9,46.93l-2.09,242.81
		c-9.58-39.79-26.91-66.31-45.09-66.31c-21.63,0-35.63,51.01-35.63,148.95c0,88.76,12.53,149.97,34.28,149.97
		c9.95,0,19.54-19.38,26.42-55.09V577.8h-21.13c-3.32,0-8.72,5.1-11.55,13.26l0.37-102.02h64.63v268.32
		c-11.67,83.66-32.44,138.75-58.98,138.75C203.28,896.11,176,762.46,176,523.73z"/>
	<path class="st0" d="M347.4,851.22c-15.6,0-26.54,28.57-31.95,44.89c2.95-63.25,4.67-183.64,4.67-273.42V424.77
		c0-89.78-1.84-195.88-4.67-258.11h45.71c-2.83,62.23-4.79,237.71-4.79,327.49v158.13h34.28c12.16,0,24.7-17.34,31.45-43.87
		l-0.49,258.11c-0.98,1.02-9.58,29.59-19.78,29.59C380.94,896.11,370.99,851.22,347.4,851.22z"/>
	<path class="st0" d="M460.68,644.11v-46.93L423.7,292.14c-5.9-47.95-13.64-97.94-18.68-125.49h49.88
		c2.83,41.83,5.9,77.54,11.06,125.49l12.16,113.24h1.35l12.04-113.24c5.16-47.95,8.23-83.66,11.06-125.49h49.88
		c-5.04,27.55-12.78,77.54-18.55,125.49l-36.98,309.13v46.93c0,84.68,1.47,175.48,3.56,231.59h-43.5
		C458.96,822.65,460.68,729.81,460.68,644.11z"/>
	<path class="st0" d="M604.8,623.71l-14.13-198.94c-5.9-89.78-14.13-194.86-20.4-258.11h47.43c0.74,39.79,2.09,81.62,5.53,138.75
		l14.38,222.41c2.33,37.75,3.93,69.37,5.16,108.14h1.23c1.23-41.83,2.7-67.33,5.04-108.14l14.38-222.41
		c3.32-58.15,4.91-98.96,5.53-138.75h44.85c-6.39,63.25-14.62,168.34-20.52,258.11l-14.13,197.92
		c-5.78,89.78-11.3,194.86-13.15,258.11h-48.16C615.86,815.51,610.45,709.41,604.8,623.71z"/>
	<path class="st0" d="M723.98,622.69V424.77c0-89.78-1.84-195.88-4.67-258.11h115.5l4.42,253.01c-4.42-19.38-15.6-34.69-25.56-34.69
		h-53.33v80.6h37.35c6.27,0,12.41-2.04,16.46-7.14V582.9c-4.05-6.12-10.2-8.16-16.46-8.16h-37.35v87.74H816
		c8.23,0,20.27-17.34,27.03-56.11l-6.27,274.44H719.31C722.38,817.55,723.98,712.47,723.98,622.69z"/>
	<path class="st0" d="M845.61,523.73c0-238.73,27.28-372.38,69.42-372.38c18.8,0,32.44,15.3,48.9,46.93l-2.09,242.81
		c-9.58-39.79-26.91-66.31-45.09-66.31c-21.63,0-35.63,51.01-35.63,148.95c0,88.76,12.53,149.97,34.28,149.97
		c9.95,0,19.54-19.38,26.42-55.09V577.8h-21.13c-3.32,0-8.72,5.1-11.55,13.26l0.37-102.02h64.63v268.32
		c-11.67,83.66-32.44,138.75-58.98,138.75C872.89,896.11,845.61,762.46,845.61,523.73z"/>
	<path class="st0" d="M989.73,622.69V424.77c0-89.78-1.84-195.88-4.67-258.11h115.5l4.42,253.01c-4.42-19.38-15.6-34.69-25.56-34.69
		h-53.33v80.6h37.35c6.27,0,12.41-2.04,16.46-7.14V582.9c-4.05-6.12-10.2-8.16-16.46-8.16h-37.35v87.74h55.66
		c8.23,0,20.27-17.34,27.03-56.11l-6.27,274.44H985.06C988.13,817.55,989.73,712.47,989.73,622.69z"/>
	<path class="st0" d="M1155.6,622.69V395.18h-15.36c-14.13,0-22.73,6.12-29.73,23.46l6.76-251.99h113.16l6.76,251.99
		c-7-17.34-15.6-23.46-29.73-23.46h-15.48v227.51c0,89.78,1.72,194.86,4.67,258.11h-45.71C1154,817.55,1155.6,712.47,1155.6,622.69z
		"/>
	<path class="st0" d="M1240.87,622.69L1255,424.77c5.77-89.78,11.3-194.86,13.15-258.11h51.97c1.97,65.29,7.37,171.4,13.02,257.09
		l14.25,198.94c5.78,89.78,13.88,194.86,20.15,258.11h-46.44c-0.49-32.65-1.6-66.31-4.55-127.53l-1.97-29.59h-40.91l-1.97,30.61
		c-2.7,60.19-4.05,93.86-4.79,126.51h-46.32C1226.98,817.55,1235.09,711.45,1240.87,622.69z M1306.23,609.43l-6.64-101
		c-2.46-42.85-3.56-79.58-4.67-124.47h-1.72c-1.23,47.95-2.21,78.56-4.79,124.47l-6.51,101H1306.23z"/>
	<path class="st0" d="M1376.14,622.69V424.77c0-89.78-1.84-195.88-4.67-258.11h87.97c16.71,0,30.35,54.07,30.35,168.34
		c0,110.18-12.9,166.3-29.24,166.3h-3.56v12.24h6.14c18.43,0,33.79,55.09,33.79,181.6s-15.24,185.68-34.77,185.68h-90.68
		C1374.42,817.55,1376.14,712.47,1376.14,622.69z M1447.53,465.58c4.67,0,8.48-14.28,8.48-44.89c0-31.63-3.69-44.89-8.35-44.89
		h-35.26v89.78H1447.53z M1449.74,666.56c6.14,0,10.2-16.32,10.2-52.03c0-37.75-4.18-54.07-10.32-54.07h-37.23v106.1H1449.74z"/>
	<path class="st0" d="M1538.2,851.22c-15.6,0-26.54,28.57-31.95,44.89c2.95-63.25,4.67-183.64,4.67-273.42V424.77
		c0-89.78-1.84-195.88-4.67-258.11h45.71c-2.83,62.23-4.79,237.71-4.79,327.49v158.13h34.28c12.16,0,24.7-17.34,31.45-43.87
		l-0.49,258.11c-0.98,1.02-9.58,29.59-19.78,29.59C1571.74,896.11,1561.79,851.22,1538.2,851.22z"/>
	<path class="st0" d="M1627.52,622.69V424.77c0-89.78-1.84-195.88-4.67-258.11h115.5l4.42,253.01
		c-4.42-19.38-15.6-34.69-25.56-34.69h-53.33v80.6h37.35c6.27,0,12.41-2.04,16.46-7.14V582.9c-4.05-6.12-10.2-8.16-16.46-8.16
		h-37.35v87.74h55.66c8.23,0,20.27-17.34,27.03-56.11l-6.27,274.44h-117.46C1625.92,817.55,1627.52,712.47,1627.52,622.69z"/>
	<path class="st0" d="M1750.51,819.59l1.35-271.38c14.5,84.68,36.37,127.53,65,127.53c15.36,0,23.71-11.22,23.71-46.93
		c0-111.2-89.57,38.77-89.57-268.32c0-159.15,27.03-209.14,61.93-209.14c16.83,0,39.44,20.4,54.31,64.27v237.71
		c-13.76-54.07-33.17-83.66-52.96-83.66c-13.64-1.02-24.82,9.18-24.82,46.93c0,118.34,89.57-52.03,89.57,249.95
		c0,149.97-21.62,229.55-61.56,229.55C1798.67,896.11,1765.99,862.44,1750.51,819.59z"/>
</g>
<g>
	<path class="st0" d="M2153.56,547.97v-111.2c0-88.76-1.84-194.86-4.67-258.11h45.58c-2.83,63.25-4.55,179.56-4.55,269.34v70.39
		c0,93.86,9.09,165.27,22.36,165.27c13.15,0,22.24-71.41,22.24-165.27v-70.39c0-89.78-1.84-206.08-4.67-269.34h45.71
		c-2.83,63.25-4.67,169.36-4.67,258.11v111.2c0,228.53-17.82,360.14-58.61,360.14C2171.37,908.11,2153.56,776.5,2153.56,547.97z"/>
	<path class="st0" d="M2283.92,535.73c0-238.73,27.28-372.38,69.42-372.38c18.8,0,32.44,15.3,48.9,46.93l-2.09,242.81
		c-9.58-39.79-26.91-66.31-45.09-66.31c-21.63,0-35.63,51.01-35.63,148.95c0,88.76,12.53,149.97,34.28,149.97
		c9.95,0,19.54-19.38,26.42-55.09V589.8h-21.13c-3.32,0-8.72,5.1-11.55,13.26l0.37-102.02h64.63v268.32
		c-11.67,83.66-32.44,138.75-58.98,138.75C2311.19,908.11,2283.92,774.46,2283.92,535.73z"/>
	<path class="st0" d="M2455.31,863.22c-15.6,0-26.54,28.57-31.95,44.89c2.95-63.25,4.67-183.64,4.67-273.42V436.77
		c0-89.78-1.84-195.88-4.67-258.11h45.71c-2.83,62.23-4.79,237.71-4.79,327.49v158.13h34.28c12.16,0,24.7-17.34,31.45-43.87
		l-0.49,258.11c-0.98,1.02-9.58,29.59-19.78,29.59C2488.86,908.11,2478.9,863.22,2455.31,863.22z"/>
	<path class="st0" d="M2568.59,656.11v-46.93l-36.98-305.04c-5.9-47.95-13.64-97.94-18.68-125.49h49.89
		c2.83,41.83,5.9,77.54,11.06,125.49l12.16,113.24h1.35l12.04-113.24c5.16-47.95,8.23-83.66,11.06-125.49h49.88
		c-5.04,27.55-12.78,77.54-18.55,125.49l-36.98,309.13v46.93c0,84.68,1.47,175.48,3.56,231.59h-43.5
		C2566.87,834.65,2568.59,741.81,2568.59,656.11z"/>
	<path class="st0" d="M2712.71,635.71l-14.13-198.94c-5.9-89.78-14.13-194.86-20.4-258.11h47.43c0.74,39.79,2.09,81.62,5.53,138.75
		l14.38,222.41c2.33,37.75,3.93,69.37,5.16,108.14h1.23c1.23-41.83,2.7-67.33,5.04-108.14l14.38-222.41
		c3.32-58.15,4.91-98.96,5.53-138.75h44.85c-6.39,63.25-14.62,168.34-20.52,258.11l-14.13,197.92
		c-5.78,89.78-11.3,194.86-13.15,258.11h-48.16C2723.77,827.51,2718.37,721.41,2712.71,635.71z"/>
	<path class="st0" d="M2831.89,634.69V436.77c0-89.78-1.84-195.88-4.67-258.11h115.5l4.42,253.01
		c-4.42-19.38-15.6-34.69-25.56-34.69h-53.33v80.6h37.35c6.27,0,12.41-2.04,16.46-7.14V594.9c-4.05-6.12-10.2-8.16-16.46-8.16
		h-37.35v87.74h55.66c8.23,0,20.27-17.34,27.03-56.11l-6.27,274.44h-117.46C2830.29,829.55,2831.89,724.47,2831.89,634.69z"/>
	<path class="st0" d="M2953.53,535.73c0-238.73,27.28-372.38,69.42-372.38c18.8,0,32.44,15.3,48.9,46.93l-2.09,242.81
		c-9.58-39.79-26.91-66.31-45.09-66.31c-21.63,0-35.63,51.01-35.63,148.95c0,88.76,12.53,149.97,34.28,149.97
		c9.95,0,19.54-19.38,26.42-55.09V589.8h-21.13c-3.32,0-8.72,5.1-11.55,13.26l0.37-102.02h64.63v268.32
		c-11.67,83.66-32.44,138.75-58.98,138.75C2980.8,908.11,2953.53,774.46,2953.53,535.73z"/>
	<path class="st0" d="M3097.65,634.69V436.77c0-89.78-1.84-195.88-4.67-258.11h115.5l4.42,253.01
		c-4.42-19.38-15.6-34.69-25.56-34.69h-53.33v80.6h37.35c6.27,0,12.41-2.04,16.46-7.14V594.9c-4.05-6.12-10.2-8.16-16.46-8.16
		h-37.35v87.74h55.66c8.23,0,20.27-17.34,27.03-56.11l-6.27,274.44h-117.46C3096.05,829.55,3097.65,724.47,3097.65,634.69z"/>
	<path class="st0" d="M3263.51,634.69V407.18h-15.36c-14.13,0-22.73,6.12-29.73,23.46l6.76-251.99h113.16l6.76,251.99
		c-7-17.34-15.6-23.46-29.73-23.46h-15.48v227.51c0,89.78,1.72,194.86,4.67,258.11h-45.71
		C3261.92,829.55,3263.51,724.47,3263.51,634.69z"/>
	<path class="st0" d="M3348.78,634.69l14.13-197.92c5.77-89.78,11.3-194.86,13.15-258.11h51.97c1.97,65.29,7.37,171.4,13.02,257.09
		l14.25,198.94c5.78,89.78,13.88,194.86,20.15,258.11h-46.44c-0.49-32.65-1.6-66.31-4.55-127.53l-1.97-29.59h-40.91l-1.97,30.61
		c-2.7,60.19-4.05,93.86-4.79,126.51h-46.32C3334.9,829.55,3343.01,723.45,3348.78,634.69z M3414.15,621.43l-6.64-101
		c-2.46-42.85-3.56-79.58-4.67-124.47h-1.72c-1.23,47.95-2.21,78.56-4.79,124.47l-6.51,101H3414.15z"/>
	<path class="st0" d="M3484.05,634.69V436.77c0-89.78-1.84-195.88-4.67-258.11h87.97c16.71,0,30.35,54.07,30.35,168.34
		c0,110.18-12.9,166.3-29.24,166.3h-3.56v12.24h6.14c18.43,0,33.79,55.09,33.79,181.6s-15.24,185.68-34.77,185.68h-90.68
		C3482.33,829.55,3484.05,724.47,3484.05,634.69z M3555.44,477.58c4.67,0,8.48-14.28,8.48-44.89c0-31.63-3.69-44.89-8.35-44.89
		h-35.26v89.78H3555.44z M3557.65,678.56c6.14,0,10.2-16.32,10.2-52.03c0-37.75-4.18-54.07-10.32-54.07h-37.23v106.1H3557.65z"/>
	<path class="st0" d="M3646.11,863.22c-15.6,0-26.54,28.57-31.95,44.89c2.95-63.25,4.67-183.64,4.67-273.42V436.77
		c0-89.78-1.84-195.88-4.67-258.11h45.71c-2.83,62.23-4.79,237.71-4.79,327.49v158.13h34.28c12.16,0,24.7-17.34,31.45-43.87
		l-0.49,258.11c-0.98,1.02-9.58,29.59-19.78,29.59C3679.66,908.11,3669.7,863.22,3646.11,863.22z"/>
	<path class="st0" d="M3735.43,634.69V436.77c0-89.78-1.84-195.88-4.67-258.11h115.5l4.42,253.01
		c-4.42-19.38-15.6-34.69-25.56-34.69h-53.33v80.6h37.35c6.27,0,12.41-2.04,16.46-7.14V594.9c-4.05-6.12-10.2-8.16-16.46-8.16
		h-37.35v87.74h55.66c8.23,0,20.27-17.34,27.03-56.11l-6.27,274.44h-117.46C3733.84,829.55,3735.43,724.47,3735.43,634.69z"/>
	<path class="st0" d="M3858.42,831.59l1.35-271.38c14.5,84.68,36.37,127.53,65,127.53c15.36,0,23.71-11.22,23.71-46.93
		c0-111.2-89.57,38.77-89.57-268.32c0-159.15,27.03-209.14,61.92-209.14c16.83,0,39.44,20.4,54.31,64.27v237.71
		c-13.76-54.07-33.17-83.66-52.96-83.66c-13.64-1.02-24.82,9.18-24.82,46.93c0,118.34,89.57-52.03,89.57,249.95
		c0,149.97-21.62,229.55-61.56,229.55C3906.58,908.11,3873.9,874.44,3858.42,831.59z"/>
</g>
<g>
	<path class="st0" d="M-2023.46,549V428.45c0-96.22-1.84-211.24-4.67-279.81h45.58c-2.83,68.57-4.55,194.65-4.55,291.98v76.31
		c0,101.75,9.09,179.17,22.36,179.17c13.15,0,22.24-77.42,22.24-179.17v-76.31c0-97.33-1.84-223.41-4.67-291.98h45.71
		c-2.83,68.57-4.67,183.59-4.67,279.81V549c0,247.74-17.82,390.41-58.61,390.41C-2005.65,939.41-2023.46,796.74-2023.46,549z"/>
	<path class="st0" d="M-1893.11,535.73c0-258.8,27.28-403.68,69.42-403.68c18.8,0,32.44,16.59,48.9,50.87l-2.09,263.22
		c-9.58-43.13-26.91-71.89-45.09-71.89c-21.63,0-35.63,55.3-35.63,161.47c0,96.22,12.53,162.58,34.28,162.58
		c9.95,0,19.54-21.01,26.42-59.72v-44.24h-21.13c-3.32,0-8.72,5.53-11.55,14.38l0.37-110.6h64.63V789
		c-11.67,90.69-32.44,150.41-58.98,150.41C-1865.83,939.41-1893.11,794.53-1893.11,535.73z"/>
	<path class="st0" d="M-1721.71,890.75c-15.6,0-26.54,30.97-31.95,48.66c2.95-68.57,4.67-199.08,4.67-296.4V428.45
		c0-97.33-1.84-212.35-4.67-279.81h45.71c-2.83,67.46-4.79,257.69-4.79,355.02v171.43h34.28c12.16,0,24.7-18.8,31.45-47.56
		l-0.49,279.81c-0.98,1.11-9.58,32.07-19.78,32.07C-1688.17,939.41-1698.12,890.75-1721.71,890.75z"/>
	<path class="st0" d="M-1608.43,666.23v-50.87l-36.98-330.69c-5.9-51.98-13.64-106.17-18.68-136.04h49.88
		c2.83,45.34,5.9,84.05,11.06,136.04l12.16,122.76h1.35l12.04-122.76c5.16-51.98,8.23-90.69,11.06-136.04h49.88
		c-5.04,29.86-12.78,84.05-18.55,136.04l-36.98,335.11v50.87c0,91.8,1.47,190.23,3.56,251.06h-43.5
		C-1610.15,859.78-1608.43,759.14-1608.43,666.23z"/>
	<path class="st0" d="M-1464.31,644.12l-14.13-215.67c-5.9-97.33-14.13-211.24-20.4-279.81h47.43c0.74,43.13,2.09,88.48,5.53,150.41
		l14.38,241.1c2.33,40.92,3.93,75.21,5.16,117.23h1.23c1.23-45.34,2.7-72.99,5.04-117.23l14.38-241.1
		c3.32-63.04,4.91-107.28,5.53-150.41h44.85c-6.39,68.57-14.62,182.49-20.52,279.81l-14.13,214.56
		c-5.78,97.33-11.3,211.24-13.15,279.81h-48.16C-1453.25,852.04-1458.66,737.02-1464.31,644.12z"/>
	<path class="st0" d="M-1345.13,643.01V428.45c0-97.33-1.84-212.35-4.67-279.81h115.5l4.42,274.28c-4.42-21.01-15.6-37.6-25.56-37.6
		h-53.33v87.37h37.35c6.27,0,12.41-2.21,16.46-7.74v134.93c-4.05-6.64-10.2-8.85-16.46-8.85h-37.35v95.11h55.66
		c8.23,0,20.27-18.8,27.03-60.83l-6.27,297.51h-117.46C-1346.73,854.25-1345.13,740.33-1345.13,643.01z"/>
	<path class="st0" d="M-1223.49,535.73c0-258.8,27.28-403.68,69.42-403.68c18.8,0,32.44,16.59,48.9,50.87l-2.09,263.22
		c-9.58-43.13-26.91-71.89-45.09-71.89c-21.63,0-35.63,55.3-35.63,161.47c0,96.22,12.53,162.58,34.28,162.58
		c9.95,0,19.54-21.01,26.42-59.72v-44.24h-21.13c-3.32,0-8.72,5.53-11.55,14.38l0.37-110.6h64.63V789
		c-11.67,90.69-32.44,150.41-58.98,150.41C-1196.22,939.41-1223.49,794.53-1223.49,535.73z"/>
	<path class="st0" d="M-1079.38,643.01V428.45c0-97.33-1.84-212.35-4.67-279.81h115.5l4.42,274.28c-4.42-21.01-15.6-37.6-25.56-37.6
		h-53.33v87.37h37.35c6.27,0,12.41-2.21,16.46-7.74v134.93c-4.05-6.64-10.2-8.85-16.46-8.85h-37.35v95.11h55.66
		c8.23,0,20.27-18.8,27.03-60.83l-6.27,297.51h-117.46C-1080.97,854.25-1079.38,740.33-1079.38,643.01z"/>
	<path class="st0" d="M-913.51,643.01V396.38h-15.36c-14.13,0-22.73,6.64-29.73,25.44l6.76-273.18h113.16l6.76,273.18
		c-7-18.8-15.6-25.44-29.73-25.44h-15.48v246.63c0,97.33,1.72,211.24,4.67,279.81h-45.71
		C-915.11,854.25-913.51,740.33-913.51,643.01z"/>
	<path class="st0" d="M-828.24,643.01l14.13-214.56c5.77-97.33,11.3-211.24,13.15-279.81h51.97c1.97,70.78,7.37,185.8,13.02,278.71
		l14.25,215.67c5.78,97.33,13.88,211.24,20.15,279.81h-46.44c-0.49-35.39-1.6-71.89-4.55-138.25l-1.97-32.07h-40.91l-1.97,33.18
		c-2.7,65.25-4.05,101.75-4.79,137.14h-46.32C-842.12,854.25-834.01,739.23-828.24,643.01z M-762.87,628.63l-6.64-109.49
		c-2.46-46.45-3.56-86.27-4.67-134.93h-1.72c-1.23,51.98-2.21,85.16-4.79,134.93l-6.51,109.49H-762.87z"/>
	<path class="st0" d="M-692.97,643.01V428.45c0-97.33-1.84-212.35-4.67-279.81h87.97c16.71,0,30.35,58.62,30.35,182.49
		c0,119.44-12.9,180.27-29.24,180.27h-3.56v13.27h6.14c18.43,0,33.79,59.72,33.79,196.86s-15.24,201.29-34.77,201.29h-90.68
		C-694.69,854.25-692.97,740.33-692.97,643.01z M-621.58,472.69c4.67,0,8.48-15.48,8.48-48.66c0-34.29-3.69-48.66-8.35-48.66h-35.26
		v97.33H-621.58z M-619.37,690.57c6.14,0,10.2-17.7,10.2-56.4c0-40.92-4.18-58.62-10.32-58.62h-37.23v115.02H-619.37z"/>
	<path class="st0" d="M-530.91,890.75c-15.6,0-26.54,30.97-31.95,48.66c2.95-68.57,4.67-199.08,4.67-296.4V428.45
		c0-97.33-1.84-212.35-4.67-279.81h45.71c-2.83,67.46-4.79,257.69-4.79,355.02v171.43h34.28c12.16,0,24.7-18.8,31.45-47.56
		l-0.49,279.81c-0.98,1.11-9.58,32.07-19.78,32.07C-497.37,939.41-507.32,890.75-530.91,890.75z"/>
	<path class="st0" d="M-441.59,643.01V428.45c0-97.33-1.84-212.35-4.67-279.81h115.5l4.42,274.28c-4.42-21.01-15.6-37.6-25.56-37.6
		h-53.33v87.37h37.35c6.27,0,12.41-2.21,16.46-7.74v134.93c-4.05-6.64-10.2-8.85-16.46-8.85h-37.35v95.11h55.66
		c8.23,0,20.27-18.8,27.03-60.83l-6.27,297.51h-117.46C-443.19,854.25-441.59,740.33-441.59,643.01z"/>
	<path class="st0" d="M-318.6,856.46l1.35-294.19c14.5,91.8,36.37,138.25,65,138.25c15.36,0,23.71-12.17,23.71-50.87
		c0-120.55-89.57,42.03-89.57-290.87c0-172.53,27.03-226.73,61.93-226.73c16.83,0,39.44,22.12,54.31,69.68v257.69
		c-13.76-58.62-33.17-90.69-52.96-90.69c-13.64-1.11-24.82,9.95-24.82,50.88c0,128.29,89.57-56.41,89.57,270.96
		c0,162.58-21.62,248.85-61.56,248.85C-270.44,939.41-303.12,902.91-318.6,856.46z"/>
</g>
</svg>
