<?xml version="1.0" encoding="utf-8"?>
<!-- Generator: Adobe Illustrator 26.0.1, SVG Export Plug-In . SVG Version: 6.00 Build 0)  -->
<svg version="1.1" id="레이어_1" xmlns="http://www.w3.org/2000/svg" xmlns:xlink="http://www.w3.org/1999/xlink" x="0px"
	 y="0px" viewBox="0 0 1920 758.51" style="enable-background:new 0 0 1920 758.51;" xml:space="preserve">
<style type="text/css">
	.st0{fill:#FFFFFF;}
</style>
<g>
	<g>
		<path class="st0" d="M61.16-2410.42l-7.4-192.82c-3.61-89.78-8.72-194.86-12.78-258.12H74.9c0.18,39.79,0.79,82.64,2.91,138.75
			l8.28,212.21c1.5,38.77,2.47,72.44,3.7,113.24h0.79l13.75-464.2h19.12l13.75,464.2H138c1.15-39.79,2.2-74.48,3.7-114.26
			l8.28-211.19c2.11-56.11,2.73-98.96,2.91-138.75h33.93c-4.05,63.25-9.16,168.34-12.78,258.12l-7.4,192.82
			c-3.52,87.74-6.79,195.88-7.93,263.22H127.6l-13.22-446.86h-0.88l-13.22,446.86H69.17C68.03-2214.53,64.68-2322.68,61.16-2410.42z
			"/>
		<path class="st0" d="M194.49-2405.32v-197.92c0-89.78-1.41-193.84-3.35-258.12h32.78c-2.2,70.4-3.35,145.89-3.35,233.63v53.05
			h30.58v-53.05c0-89.78-1.41-170.38-3.44-233.63h32.87c-2.11,62.23-3.35,168.34-3.35,258.12v197.92
			c0,89.78,1.15,194.86,3.35,258.12h-32.87c1.67-63.25,3.44-143.85,3.44-233.63v-64.27h-30.58v64.27c0,82.64,0.62,161.2,3.35,233.63
			h-32.78C193.35-2209.43,194.49-2315.54,194.49-2405.32z"/>
		<path class="st0" d="M297.86-2405.32L308-2603.24c4.14-89.78,8.11-194.86,9.43-258.12h37.28c1.41,65.29,5.29,171.4,9.34,257.1
			l10.22,198.94c4.14,89.78,9.96,194.86,14.45,258.12h-33.31c-0.35-32.65-1.15-66.31-3.26-127.53l-1.41-29.59h-29.35l-1.41,30.61
			c-1.94,60.19-2.91,93.86-3.44,126.51h-33.22C287.9-2210.45,293.72-2316.56,297.86-2405.32z M344.74-2418.58l-4.76-101
			c-1.76-42.85-2.56-79.58-3.35-124.47h-1.23c-0.88,47.95-1.59,78.56-3.44,124.47l-4.67,101H344.74z"/>
		<path class="st0" d="M409.17-2405.32v-227.51h-11.02c-10.13,0-16.3,6.12-21.33,23.47l4.85-252h81.16l4.85,252
			c-5.02-17.34-11.19-23.47-21.33-23.47h-11.1v227.51c0,89.78,1.23,194.86,3.35,258.12h-32.78
			C408.02-2210.45,409.17-2315.54,409.17-2405.32z"/>
		<path class="st0" d="M496.5-2405.32v-197.92c0-89.78-1.32-195.88-3.35-258.12h32.78c-2.03,62.23-3.44,168.34-3.44,258.12v197.92
			c0,89.78,1.15,194.86,3.44,258.12h-32.78C495.27-2210.45,496.5-2315.54,496.5-2405.32z"/>
		<path class="st0" d="M532.72-2208.41l0.97-271.38c10.4,84.68,26.08,127.53,46.62,127.53c11.02,0,17.01-11.22,17.01-46.93
			c0-111.2-64.24,38.77-64.24-268.32c0-159.15,19.39-209.14,44.41-209.14c12.07,0,28.29,20.4,38.95,64.27v237.71
			c-9.87-54.07-23.79-83.66-37.98-83.66c-9.78-1.02-17.8,9.18-17.8,46.93c0,118.34,64.24-52.03,64.24,249.95
			c0,149.97-15.51,229.55-44.15,229.55C567.27-2131.9,543.82-2165.56,532.72-2208.41z"/>
		<path class="st0" d="M656.63-2492.03v-111.2c0-88.76-1.32-194.86-3.35-258.12h32.69c-2.03,63.25-3.26,179.56-3.26,269.34v70.4
			c0,93.86,6.52,165.28,16.04,165.28c9.43,0,15.95-71.42,15.95-165.28v-70.4c0-89.78-1.32-206.09-3.35-269.34h32.78
			c-2.03,63.25-3.35,169.36-3.35,258.12v111.2c0,228.53-12.78,360.14-42.04,360.14C669.4-2131.9,656.63-2263.51,656.63-2492.03z"/>
		<path class="st0" d="M750.13-2504.28c0-238.73,19.56-372.38,49.79-372.38c13.48,0,23.26,15.3,35.07,46.93l-1.5,242.81
			c-6.87-39.79-19.3-66.31-32.34-66.31c-15.51,0-25.56,51.01-25.56,148.95c0,88.76,8.99,149.97,24.59,149.97
			c7.14,0,14.01-19.38,18.95-55.09v-40.81h-15.16c-2.38,0-6.26,5.1-8.28,13.26l0.26-102.02h46.35v268.32
			c-8.37,83.66-23.26,138.75-42.3,138.75C769.69-2131.9,750.13-2265.55,750.13-2504.28z"/>
		<path class="st0" d="M873.06-2176.79c-11.19,0-19.03,28.57-22.91,44.89c2.11-63.25,3.35-183.64,3.35-273.42v-197.92
			c0-89.78-1.32-195.88-3.35-258.12h32.78c-2.03,62.23-3.44,237.71-3.44,327.49v158.13h24.59c8.72,0,17.71-17.34,22.56-43.87
			l-0.35,258.12c-0.7,1.02-6.87,29.59-14.19,29.59C897.12-2131.9,889.98-2176.79,873.06-2176.79z"/>
		<path class="st0" d="M954.32-2383.89v-46.93l-26.53-305.05c-4.23-47.95-9.78-97.94-13.39-125.49h35.78
			c2.03,41.83,4.23,77.54,7.93,125.49l8.72,113.24h0.97l8.64-113.24c3.7-47.95,5.9-83.66,7.93-125.49h35.78
			c-3.61,27.55-9.16,77.54-13.31,125.49l-26.53,309.13v46.93c0,84.68,1.06,175.48,2.56,231.59h-31.2
			C953.08-2205.35,954.32-2298.19,954.32-2383.89z"/>
		<path class="st0" d="M1046.41-2405.32v-197.92c0-88.76-1.32-194.86-3.35-258.12h56.84c21.24,0,34.63,98.96,34.63,272.4
			c0,174.46-10.75,290.76-31.28,290.76c-16.04,0-26.97-73.46-29.79-196.9h-0.97v93.86c0,88.76,1.15,190.78,3.35,254.04h-32.78
			C1045.26-2210.45,1046.41-2315.54,1046.41-2405.32z M1108.89-2575.69c0-54.07-4.67-83.66-14.28-83.66
			c-8.02,0-14.8,3.06-22.12,17.34v33.67c0,80.6,7.58,130.59,19.74,130.59C1101.31-2477.75,1108.89-2516.52,1108.89-2575.69z"/>
		<path class="st0" d="M1177.01-2426.74c-2.03,0-5.73,3.06-7.23,7.14v42.85c0,88.76,1.15,166.3,3.35,229.55h-32.78
			c2.2-63.25,3.35-168.34,3.35-258.12v-197.92c0-88.76-1.32-194.86-3.35-258.12h58.25c20.53,0,34.1,62.23,34.1,192.82
			c0,128.55-13.22,195.88-33.49,195.88h-6.08v12.24h0.44c12.07,0,11.63,76.52,24.59,76.52c9.52,0,15.16-53.05,17.45-106.1
			l0.09,290.76c-2.56,40.81-9.69,67.33-16.74,67.33C1188.03-2131.9,1198.95-2426.74,1177.01-2426.74z M1196.75-2520.6
			c5.99,0,10.22-17.34,10.22-53.05c0-39.79-4.23-55.09-10.22-55.09h-26.97v108.14H1196.75z"/>
		<path class="st0" d="M1239.4-2504.28c0-236.69,20.09-372.38,49.35-372.38c29.26,0,49.35,135.69,49.35,372.38
			s-20.09,372.38-49.35,372.38C1259.5-2131.9,1239.4-2267.59,1239.4-2504.28z M1312.02-2504.28c0-88.76-9.34-140.79-23.26-140.79
			c-14.01,0-23.26,52.03-23.26,140.79c0,88.76,9.25,141.81,23.26,141.81C1302.68-2362.47,1312.02-2415.52,1312.02-2504.28z"/>
		<path class="st0" d="M1347.89-2405.32v-197.92c0-89.78-1.32-195.88-3.35-258.12h53.23c27.93,0,42.83,131.61,42.83,357.08
			c0,225.47-14.89,357.08-42.83,357.08h-53.23C1346.74-2210.45,1347.89-2315.54,1347.89-2405.32z M1393.27-2380.83
			c13.92,0,20.97-39.79,20.97-123.45s-7.23-123.45-20.97-123.45h-19.3v246.89H1393.27z"/>
		<path class="st0" d="M1449.41-2492.03v-111.2c0-88.76-1.32-194.86-3.35-258.12h32.69c-2.03,63.25-3.26,179.56-3.26,269.34v70.4
			c0,93.86,6.52,165.28,16.04,165.28c9.43,0,15.95-71.42,15.95-165.28v-70.4c0-89.78-1.32-206.09-3.35-269.34h32.78
			c-2.03,63.25-3.35,169.36-3.35,258.12v111.2c0,228.53-12.78,360.14-42.04,360.14C1462.19-2131.9,1449.41-2263.51,1449.41-2492.03z
			"/>
		<path class="st0" d="M1542.91-2504.28c0-259.14,21.68-372.38,49.88-372.38c15.51,0,28.02,37.75,36.48,81.62l-3.26,249.95
			c-5.29-53.05-16.39-97.94-30.14-97.94c-14.8,0-26.88,43.87-26.88,136.71c0,93.86,12.34,140.79,30.58,140.79
			c12.51,0,23.26-31.63,31.37-90.8v276.48c-9.43,28.57-21.15,47.95-36.66,47.95C1566.09-2131.9,1542.91-2245.14,1542.91-2504.28z"/>
		<path class="st0" d="M1664.7-2405.32v-227.51h-11.02c-10.13,0-16.3,6.12-21.33,23.47l4.85-252h81.16l4.85,252
			c-5.02-17.34-11.19-23.47-21.33-23.47h-11.1v227.51c0,89.78,1.23,194.86,3.35,258.12h-32.78
			C1663.56-2210.45,1664.7-2315.54,1664.7-2405.32z"/>
		<path class="st0" d="M1723.75-2208.41l0.97-271.38c10.4,84.68,26.08,127.53,46.62,127.53c11.02,0,17.01-11.22,17.01-46.93
			c0-111.2-64.24,38.77-64.24-268.32c0-159.15,19.39-209.14,44.41-209.14c12.07,0,28.29,20.4,38.95,64.27v237.71
			c-9.87-54.07-23.79-83.66-37.98-83.66c-9.78-1.02-17.8,9.18-17.8,46.93c0,118.34,64.24-52.03,64.24,249.95
			c0,149.97-15.51,229.55-44.15,229.55C1758.29-2131.9,1734.85-2165.56,1723.75-2208.41z"/>
		<path class="st0" d="M1836.73-2560.39c18.15,0,22.3-28.57,22.3-83.66c0-42.85-4.49-78.56-13.31-78.56
			c-13.92,0-25.64,51.01-25.64,51.01v-155.07c0,0,9.96-45.91,25.64-45.91c20.44,0,33.4,74.48,33.31,199.96
			c0,108.14-6.96,171.4-22.56,191.8l-1.06,73.46h-16.57L1836.73-2560.39z M1836.02-2245.14c0-70.4,4.49-110.18,11.1-110.18
			c6.61,0,11.1,39.79,11.1,110.18c0,69.37-4.49,109.16-11.1,109.16C1840.52-2137,1836.02-2175.77,1836.02-2245.14z"/>
	</g>
</g>
<g>
	
		<text transform="matrix(0.0909 0 0 1 4717.1904 -2922.5239)" class="st0" style="font-family:'Brice-BoldExpanded'; font-size:940.0613px;">WHAT IS UGLY PRODUCTS?</text>
</g>
<g>
	
		<text transform="matrix(0.0909 0 0 1 4845.272 -2102.2239)" class="st0" style="font-family:'Brice-BoldExpanded'; font-size:940.0613px;">FOOD REFURBISHED</text>
</g>
<g>
	
		<text transform="matrix(0.0909 0 0 1 4806.7178 -466.8959)" class="st0" style="font-family:'Brice-BoldExpanded'; font-size:940.0613px;">ENVIRONMENTAL ISSUES</text>
</g>
<g>
	
		<text transform="matrix(0.0909 0 0 1 4766.3647 -1235.2825)" class="st0" style="font-family:'Brice-BoldExpanded'; font-size:940.0613px;">OPINIONS ON UGLY PRODUCTS</text>
</g>
<g>
	<g>
		<path class="st0" d="M45.14-544.35v-197.92c0-89.78-1.58-195.88-4.17-258.12h105.04l4.28,265.26
			c-4.28-20.4-17.24-34.69-26.37-34.69H78.5v106.1h37.98c5.75,0,11.38-2.04,15.1-7.14v130.59c-3.72-5.1-9.35-7.14-15.1-7.14H78.5
			v47.95c0,89.78,1.46,149.97,4.39,213.22H40.97C43.68-349.49,45.14-454.57,45.14-544.35z"/>
		<path class="st0" d="M151.65-643.31c0-236.69,25.7-372.38,63.11-372.38S277.87-880,277.87-643.31s-25.7,372.38-63.11,372.38
			S151.65-406.62,151.65-643.31z M244.51-643.31c0-88.76-11.95-140.79-29.75-140.79c-17.92,0-29.75,52.03-29.75,140.79
			c0,88.76,11.83,141.81,29.75,141.81C232.57-501.5,244.51-554.55,244.51-643.31z"/>
		<path class="st0" d="M282.83-643.31c0-236.69,25.7-372.38,63.11-372.38S409.06-880,409.06-643.31s-25.7,372.38-63.11,372.38
			S282.83-406.62,282.83-643.31z M375.7-643.31c0-88.76-11.95-140.79-29.75-140.79c-17.92,0-29.75,52.03-29.75,140.79
			c0,88.76,11.83,141.81,29.75,141.81C363.75-501.5,375.7-554.55,375.7-643.31z"/>
		<path class="st0" d="M421.57-544.35v-197.92c0-89.78-1.69-195.88-4.28-258.12h68.07c35.73,0,54.77,131.61,54.77,357.08
			c0,225.47-19.05,357.08-54.77,357.08h-68.07C420.1-349.49,421.57-454.57,421.57-544.35z M479.61-519.86
			c17.81,0,26.82-39.79,26.82-123.45c0-83.66-9.24-123.45-26.82-123.45h-24.68v246.89H479.61z"/>
		<path class="st0" d="M625.22-565.77c-2.59,0-7.33,3.06-9.24,7.14v42.85c0,88.76,1.46,166.29,4.28,229.55h-41.92
			c2.82-63.25,4.28-168.34,4.28-258.12v-197.92c0-88.76-1.69-194.86-4.28-258.12h74.5c26.26,0,43.61,62.23,43.61,192.82
			c0,128.55-16.9,195.88-42.83,195.88h-7.78v12.24h0.56c15.44,0,14.88,76.52,31.44,76.52c12.17,0,19.38-53.05,22.32-106.1
			l0.11,290.76c-3.27,40.81-12.4,67.34-21.41,67.34C639.31-270.93,653.28-565.77,625.22-565.77z M650.46-659.64
			c7.66,0,13.07-17.34,13.07-53.05c0-39.79-5.41-55.09-13.07-55.09h-34.49v108.14H650.46z"/>
		<path class="st0" d="M713.8-544.35v-197.92c0-89.78-1.69-195.88-4.28-258.12h105.94l4.06,253.01
			c-4.06-19.38-14.31-34.69-23.44-34.69h-48.91v80.6h34.26c5.75,0,11.38-2.04,15.1-7.14v124.47c-3.72-6.12-9.35-8.16-15.1-8.16
			h-34.26v87.74h51.05c7.55,0,18.6-17.34,24.79-56.11l-5.75,274.44H709.52C712.34-349.49,713.8-454.57,713.8-544.35z"/>
		<path class="st0" d="M835.41-544.35v-197.92c0-89.78-1.58-195.88-4.17-258.12h105.04l4.28,265.26
			c-4.28-20.4-17.24-34.69-26.37-34.69h-45.42v106.1h37.98c5.75,0,11.38-2.04,15.1-7.14v130.59c-3.72-5.1-9.35-7.14-15.1-7.14
			h-37.98v47.95c0,89.78,1.47,149.97,4.4,213.22h-41.92C833.94-349.49,835.41-454.57,835.41-544.35z"/>
		<path class="st0" d="M951.04-631.07v-111.2c0-88.76-1.69-194.86-4.28-258.12h41.81c-2.59,63.25-4.17,179.56-4.17,269.34v70.39
			c0,93.86,8.34,165.28,20.51,165.28c12.06,0,20.4-71.42,20.4-165.28v-70.39c0-89.78-1.69-206.08-4.28-269.34h41.92
			c-2.59,63.25-4.28,169.36-4.28,258.12v111.2c0,228.53-16.34,360.14-53.76,360.14C967.38-270.93,951.04-402.54,951.04-631.07z"/>
		<path class="st0" d="M1121.67-565.77c-2.59,0-7.33,3.06-9.24,7.14v42.85c0,88.76,1.46,166.29,4.28,229.55h-41.92
			c2.82-63.25,4.28-168.34,4.28-258.12v-197.92c0-88.76-1.69-194.86-4.28-258.12h74.5c26.26,0,43.61,62.23,43.61,192.82
			c0,128.55-16.91,195.88-42.83,195.88h-7.78v12.24h0.56c15.44,0,14.88,76.52,31.44,76.52c12.17,0,19.38-53.05,22.32-106.1
			l0.11,290.76c-3.27,40.81-12.4,67.34-21.41,67.34C1135.76-270.93,1149.73-565.77,1121.67-565.77z M1146.92-659.64
			c7.66,0,13.07-17.34,13.07-53.05c0-39.79-5.41-55.09-13.07-55.09h-34.49v108.14H1146.92z"/>
		<path class="st0" d="M1210.25-544.35v-197.92c0-89.78-1.69-195.88-4.28-258.12h80.69c15.33,0,27.84,54.07,27.84,168.34
			c0,110.18-11.83,166.3-26.82,166.3h-3.27v12.24h5.63c16.91,0,30.99,55.09,30.99,181.6c0,126.51-13.97,185.68-31.89,185.68h-83.17
			C1208.68-349.49,1210.25-454.57,1210.25-544.35z M1275.73-701.46c4.28,0,7.78-14.28,7.78-44.89c0-31.63-3.38-44.89-7.66-44.89
			h-32.35v89.78H1275.73z M1277.76-500.48c5.64,0,9.35-16.32,9.35-52.03c0-37.75-3.83-54.07-9.47-54.07h-34.15v106.1H1277.76z"/>
		<path class="st0" d="M1333.89-544.35v-197.92c0-89.78-1.69-195.88-4.28-258.12h41.92c-2.59,62.23-4.39,168.34-4.39,258.12v197.92
			c0,89.78,1.47,194.86,4.39,258.12h-41.92C1332.31-349.49,1333.89-454.57,1333.89-544.35z"/>
		<path class="st0" d="M1380.21-347.45l1.24-271.38c13.3,84.68,33.36,127.53,59.62,127.53c14.09,0,21.75-11.22,21.75-46.93
			c0-111.2-82.16,38.77-82.16-268.32c0-159.15,24.79-209.14,56.8-209.14c15.44,0,36.18,20.4,49.81,64.27v237.71
			c-12.62-54.07-30.43-83.66-48.57-83.66c-12.51-1.02-22.77,9.18-22.77,46.93c0,118.34,82.16-52.03,82.16,249.95
			c0,149.97-19.84,229.55-56.46,229.55C1424.39-270.93,1394.41-304.6,1380.21-347.45z"/>
		<path class="st0" d="M1511.17-544.35v-197.92c0-89.78-1.8-193.84-4.28-258.12h41.92c-2.82,70.39-4.28,145.89-4.28,233.63v53.05
			h39.11v-53.05c0-89.78-1.8-170.38-4.4-233.63h42.04c-2.7,62.23-4.28,168.34-4.28,258.12v197.92c0,89.78,1.46,194.86,4.28,258.12
			h-42.04c2.14-63.25,4.4-143.85,4.4-233.63v-64.27h-39.11v64.27c0,82.64,0.79,161.19,4.28,233.63h-41.92
			C1509.71-348.47,1511.17-454.57,1511.17-544.35z"/>
		<path class="st0" d="M1638.75-544.35v-197.92c0-89.78-1.69-195.88-4.28-258.12h105.94l4.06,253.01
			c-4.06-19.38-14.31-34.69-23.44-34.69h-48.91v80.6h34.26c5.75,0,11.38-2.04,15.1-7.14v124.47c-3.72-6.12-9.35-8.16-15.1-8.16
			h-34.26v87.74h51.05c7.55,0,18.6-17.34,24.79-56.11l-5.75,274.44h-107.74C1637.28-349.49,1638.75-454.57,1638.75-544.35z"/>
		<path class="st0" d="M1760.47-544.35v-197.92c0-89.78-1.69-195.88-4.28-258.12h68.07c35.73,0,54.77,131.61,54.77,357.08
			c0,225.47-19.05,357.08-54.77,357.08h-68.07C1759-349.49,1760.47-454.57,1760.47-544.35z M1818.51-519.86
			c17.81,0,26.82-39.79,26.82-123.45c0-83.66-9.24-123.45-26.82-123.45h-24.68v246.89H1818.51z"/>
	</g>
</g>
<g>
	<g>
		<path class="st0" d="M44.4-1630.88v-197.92c0-89.78-1.35-195.88-3.42-258.12h84.66l3.24,253.01
			c-3.24-19.38-11.44-34.69-18.73-34.69H71.05v80.6h27.38c4.59,0,9.1-2.04,12.07-7.14v124.47c-2.97-6.12-7.47-8.16-12.07-8.16H71.05
			v87.74h40.8c6.03,0,14.86-17.34,19.81-56.11l-4.59,274.44h-86.1C43.23-1436.02,44.4-1541.1,44.4-1630.88z"/>
		<path class="st0" d="M141.66-1630.88v-197.92c0-89.78-1.17-194.86-3.42-258.12h31.88l39.18,372.38h1.17v-125.49
			c0-97.94-1.71-199.96-3.24-246.89h33.5c-2.07,62.23-3.51,168.34-3.51,258.12v456.04h-23.68l-43.95-410.13h-1.26v124.47
			c0,96.92,1.71,232.61,3.42,285.66h-33.5C140.31-1435,141.66-1541.1,141.66-1630.88z"/>
		<path class="st0" d="M269.1-1629.86l-10.36-198.94c-4.32-89.78-10.36-194.86-14.95-258.12h34.76
			c0.54,39.79,1.53,81.62,4.05,138.75l10.54,222.41c1.71,37.75,2.88,69.38,3.78,108.14h0.9c0.9-41.83,1.98-67.33,3.69-108.14
			l10.54-222.41c2.43-58.15,3.6-98.96,4.05-138.75h32.87c-4.68,63.25-10.72,168.34-15.04,258.12l-10.36,197.92
			c-4.23,89.78-8.29,194.86-9.64,258.12h-35.3C277.2-1438.06,273.24-1544.16,269.1-1629.86z"/>
		<path class="st0" d="M356.46-1630.88v-197.92c0-89.78-1.35-195.88-3.42-258.12h33.5c-2.07,62.23-3.51,168.34-3.51,258.12v197.92
			c0,89.78,1.17,194.86,3.51,258.12h-33.5C355.2-1436.02,356.46-1541.1,356.46-1630.88z"/>
		<path class="st0" d="M434.54-1652.31c-2.07,0-5.85,3.06-7.39,7.14v42.85c0,88.76,1.17,166.3,3.42,229.55h-33.5
			c2.25-63.25,3.42-168.34,3.42-258.12v-197.92c0-88.76-1.35-194.86-3.42-258.12h59.53c20.98,0,34.85,62.23,34.85,192.82
			c0,128.55-13.51,195.88-34.22,195.88h-6.21v12.24h0.45c12.34,0,11.89,76.52,25.13,76.52c9.73,0,15.49-53.05,17.83-106.1
			l0.09,290.76c-2.61,40.81-9.91,67.33-17.11,67.33C445.8-1357.46,456.96-1652.31,434.54-1652.31z M454.71-1746.17
			c6.12,0,10.45-17.34,10.45-53.05c0-39.79-4.32-55.09-10.45-55.09h-27.56v108.14H454.71z"/>
		<path class="st0" d="M498.3-1729.84c0-236.69,20.53-372.38,50.43-372.38s50.43,135.69,50.43,372.38s-20.53,372.38-50.43,372.38
			S498.3-1493.15,498.3-1729.84z M572.51-1729.84c0-88.76-9.55-140.79-23.78-140.79c-14.32,0-23.78,52.03-23.78,140.79
			c0,88.76,9.46,141.81,23.78,141.81C562.97-1588.03,572.51-1641.08,572.51-1729.84z"/>
		<path class="st0" d="M609.17-1630.88v-197.92c0-89.78-1.17-194.86-3.42-258.12h31.88l39.18,372.38h1.17v-125.49
			c0-97.94-1.71-199.96-3.24-246.89h33.5c-2.07,62.23-3.51,168.34-3.51,258.12v456.04h-23.68l-43.95-410.13h-1.26v124.47
			c0,96.92,1.71,232.61,3.42,285.66h-33.5C607.82-1435,609.17-1541.1,609.17-1630.88z"/>
		<path class="st0" d="M722.1-1630.88v-197.92c0-89.78-1.17-194.86-3.33-258.12h34.4l17.56,285.66
			c3.06,47.95,4.68,79.58,7.38,144.87h1.17c2.7-62.23,4.05-89.78,7.47-144.87l17.65-285.66h33.5
			c-2.16,63.25-3.42,168.34-3.42,258.12v197.92c0,89.78,1.35,195.88,3.42,258.12h-33.41c1.62-47.95,3.33-177.52,3.33-273.42v-117.33
			h-1.53l-24.77,390.74h-6.94l-24.59-390.74h-1.17v117.33c0,95.9,1.71,225.47,3.42,273.42h-33.5
			C720.84-1435,722.1-1541.1,722.1-1630.88z"/>
		<path class="st0" d="M851.97-1630.88v-197.92c0-89.78-1.35-195.88-3.42-258.12h84.66l3.24,253.01
			c-3.24-19.38-11.44-34.69-18.73-34.69h-39.08v80.6h27.38c4.59,0,9.1-2.04,12.07-7.14v124.47c-2.97-6.12-7.47-8.16-12.07-8.16
			h-27.38v87.74h40.8c6.03,0,14.86-17.34,19.81-56.11l-4.59,274.44h-86.1C850.8-1436.02,851.97-1541.1,851.97-1630.88z"/>
		<path class="st0" d="M949.24-1630.88v-197.92c0-89.78-1.17-194.86-3.42-258.12h31.88l39.18,372.38h1.17v-125.49
			c0-97.94-1.71-199.96-3.24-246.89h33.5c-2.07,62.23-3.51,168.34-3.51,258.12v456.04h-23.68l-43.95-410.13h-1.26v124.47
			c0,96.92,1.71,232.61,3.42,285.66h-33.5C947.89-1435,949.24-1541.1,949.24-1630.88z"/>
		<path class="st0" d="M1086.58-1630.88v-227.51h-11.26c-10.36,0-16.66,6.12-21.79,23.47l4.95-251.99h82.94l4.95,251.99
			c-5.13-17.34-11.44-23.47-21.79-23.47h-11.35v227.51c0,89.78,1.26,194.86,3.42,258.12h-33.5
			C1085.41-1436.02,1086.58-1541.1,1086.58-1630.88z"/>
		<path class="st0" d="M1149.08-1630.88l10.36-197.92c4.23-89.78,8.29-194.86,9.64-258.12h38.1c1.44,65.29,5.4,171.4,9.55,257.1
			l10.45,198.94c4.23,89.78,10.18,194.86,14.77,258.12h-34.04c-0.36-32.65-1.17-66.31-3.33-127.53l-1.44-29.59h-29.99l-1.44,30.61
			c-1.98,60.19-2.97,93.86-3.51,126.51h-33.95C1138.91-1436.02,1144.85-1542.12,1149.08-1630.88z M1196.99-1644.15l-4.86-101
			c-1.8-42.85-2.61-79.58-3.42-124.47h-1.26c-0.9,47.95-1.62,78.56-3.51,124.47l-4.77,101H1196.99z"/>
		<path class="st0" d="M1268.23-1402.35c-11.44,0-19.45,28.57-23.42,44.89c2.16-63.25,3.42-183.64,3.42-273.42v-197.92
			c0-89.78-1.35-195.88-3.42-258.12h33.5c-2.07,62.23-3.51,237.71-3.51,327.49v158.13h25.13c8.92,0,18.1-17.34,23.06-43.87
			l-0.36,258.12c-0.72,1.02-7.03,29.59-14.5,29.59C1292.82-1357.46,1285.53-1402.35,1268.23-1402.35z"/>
		<path class="st0" d="M1354.6-1630.88v-197.92c0-89.78-1.35-195.88-3.42-258.12h33.5c-2.07,62.23-3.51,168.34-3.51,258.12v197.92
			c0,89.78,1.17,194.86,3.51,258.12h-33.5C1353.34-1436.02,1354.6-1541.1,1354.6-1630.88z"/>
		<path class="st0" d="M1391.62-1433.98l0.99-271.38c10.63,84.68,26.66,127.53,47.64,127.53c11.26,0,17.38-11.22,17.38-46.93
			c0-111.2-65.65,38.77-65.65-268.32c0-159.15,19.81-209.15,45.39-209.15c12.34,0,28.91,20.4,39.81,64.27v237.71
			c-10.09-54.07-24.32-83.66-38.82-83.66c-10-1.02-18.19,9.18-18.19,46.93c0,118.35,65.65-52.03,65.65,249.95
			c0,149.97-15.85,229.55-45.12,229.55C1426.92-1357.46,1402.96-1391.13,1391.62-1433.98z"/>
		<path class="st0" d="M1488.88-1433.98l0.99-271.38c10.63,84.68,26.66,127.53,47.64,127.53c11.26,0,17.38-11.22,17.38-46.93
			c0-111.2-65.65,38.77-65.65-268.32c0-159.15,19.81-209.15,45.39-209.15c12.34,0,28.91,20.4,39.81,64.27v237.71
			c-10.09-54.07-24.31-83.66-38.81-83.66c-10-1.02-18.19,9.18-18.19,46.93c0,118.35,65.65-52.03,65.65,249.95
			c0,149.97-15.85,229.55-45.12,229.55C1524.19-1357.46,1500.23-1391.13,1488.88-1433.98z"/>
		<path class="st0" d="M1592.36-1717.6v-111.2c0-88.76-1.35-194.86-3.42-258.12h33.41c-2.07,63.25-3.33,179.56-3.33,269.34v70.39
			c0,93.86,6.66,165.28,16.39,165.28c9.64,0,16.3-71.42,16.3-165.28v-70.39c0-89.78-1.35-206.08-3.42-269.34h33.5
			c-2.07,63.25-3.42,169.36-3.42,258.12v111.2c0,228.53-13.06,360.14-42.96,360.14C1605.42-1357.46,1592.36-1489.07,1592.36-1717.6z
			"/>
		<path class="st0" d="M1694.67-1630.88v-197.92c0-89.78-1.35-195.88-3.42-258.12h84.66l3.24,253.01
			c-3.24-19.38-11.44-34.69-18.73-34.69h-39.08v80.6h27.38c4.59,0,9.1-2.04,12.07-7.14v124.47c-2.97-6.12-7.47-8.16-12.07-8.16
			h-27.38v87.74h40.8c6.03,0,14.86-17.34,19.81-56.11l-4.59,274.44h-86.1C1693.5-1436.02,1694.67-1541.1,1694.67-1630.88z"/>
		<path class="st0" d="M1784.82-1433.98l0.99-271.38c10.63,84.68,26.66,127.53,47.64,127.53c11.26,0,17.38-11.22,17.38-46.93
			c0-111.2-65.65,38.77-65.65-268.32c0-159.15,19.81-209.15,45.39-209.15c12.34,0,28.91,20.4,39.81,64.27v237.71
			c-10.09-54.07-24.32-83.66-38.82-83.66c-10-1.02-18.19,9.18-18.19,46.93c0,118.35,65.65-52.03,65.65,249.95
			c0,149.97-15.85,229.55-45.12,229.55C1820.13-1357.46,1796.17-1391.13,1784.82-1433.98z"/>
	</g>
</g>
<g>
	<g>
		<path class="st0" d="M40.97,379.26c0-236.69,17.37-372.38,42.66-372.38s42.66,135.69,42.66,372.38s-17.37,372.38-42.66,372.38
			S40.97,615.95,40.97,379.26z M103.74,379.26c0-88.76-8.07-140.79-20.11-140.79c-12.11,0-20.11,52.03-20.11,140.79
			c0,88.76,8,141.81,20.11,141.81C95.67,521.07,103.74,468.01,103.74,379.26z"/>
		<path class="st0" d="M134.74,478.22V280.29c0-88.76-1.14-194.86-2.89-258.12h49.13c18.36,0,29.93,98.96,29.93,272.4
			c0,174.46-9.29,290.76-27.04,290.76c-13.86,0-23.31-73.46-25.75-196.9h-0.84v93.86c0,88.76,0.99,190.78,2.89,254.03h-28.34
			C133.75,673.08,134.74,568,134.74,478.22z M188.75,307.84c0-54.07-4.04-83.66-12.34-83.66c-6.93,0-12.8,3.06-19.12,17.34v33.67
			c0,80.6,6.55,130.59,17.06,130.59C182.2,405.78,188.75,367.01,188.75,307.84z"/>
		<path class="st0" d="M218.84,478.22V280.29c0-89.78-1.14-195.88-2.89-258.12h28.34c-1.75,62.23-2.97,168.34-2.97,258.12v197.92
			c0,89.78,0.99,194.86,2.97,258.12h-28.34C217.77,673.08,218.84,568,218.84,478.22z"/>
		<path class="st0" d="M256.09,478.22V280.29c0-89.78-0.99-194.86-2.89-258.12h26.96l33.13,372.38h0.99V269.07
			c0-97.94-1.45-199.96-2.74-246.89h28.34c-1.75,62.23-2.97,168.34-2.97,258.12v456.04h-20.03L279.7,326.2h-1.07v124.47
			c0,96.92,1.45,232.61,2.89,285.66h-28.34C254.94,674.1,256.09,568,256.09,478.22z"/>
		<path class="st0" d="M351.68,478.22V280.29c0-89.78-1.14-195.88-2.89-258.12h28.34c-1.75,62.23-2.97,168.34-2.97,258.12v197.92
			c0,89.78,0.99,194.86,2.97,258.12h-28.34C350.62,673.08,351.68,568,351.68,478.22z"/>
		<path class="st0" d="M383.22,379.26c0-236.69,17.37-372.38,42.66-372.38s42.66,135.69,42.66,372.38s-17.37,372.38-42.66,372.38
			S383.22,615.95,383.22,379.26z M445.98,379.26c0-88.76-8.07-140.79-20.11-140.79c-12.11,0-20.11,52.03-20.11,140.79
			c0,88.76,8,141.81,20.11,141.81C437.91,521.07,445.98,468.01,445.98,379.26z"/>
		<path class="st0" d="M476.99,478.22V280.29c0-89.78-0.99-194.86-2.89-258.12h26.96l33.13,372.38h0.99V269.07
			c0-97.94-1.45-199.96-2.74-246.89h28.34c-1.75,62.23-2.97,168.34-2.97,258.12v456.04h-20.03L500.6,326.2h-1.07v124.47
			c0,96.92,1.45,232.61,2.9,285.66h-28.34C475.85,674.1,476.99,568,476.99,478.22z"/>
		<path class="st0" d="M566.64,675.12l0.84-271.38c8.99,84.68,22.55,127.53,40.3,127.53c9.52,0,14.7-11.22,14.7-46.93
			c0-111.2-55.53,38.77-55.53-268.32c0-159.15,16.76-209.15,38.39-209.15c10.44,0,24.45,20.4,33.67,64.27v237.71
			c-8.53-54.07-20.57-83.66-32.83-83.66c-8.45-1.02-15.39,9.18-15.39,46.93c0,118.35,55.53-52.03,55.53,249.95
			c0,149.97-13.41,229.55-38.16,229.55C596.5,751.64,576.24,717.97,566.64,675.12z"/>
		<path class="st0" d="M669.02,379.26c0-236.69,17.37-372.38,42.66-372.38s42.66,135.69,42.66,372.38s-17.37,372.38-42.66,372.38
			S669.02,615.95,669.02,379.26z M731.78,379.26c0-88.76-8.07-140.79-20.11-140.79c-12.11,0-20.11,52.03-20.11,140.79
			c0,88.76,8,141.81,20.11,141.81C723.71,521.07,731.78,468.01,731.78,379.26z"/>
		<path class="st0" d="M762.79,478.22V280.29c0-89.78-0.99-194.86-2.89-258.12h26.96l33.13,372.38h0.99V269.07
			c0-97.94-1.45-199.96-2.74-246.89h28.34c-1.75,62.23-2.97,168.34-2.97,258.12v456.04h-20.03L786.4,326.2h-1.07v124.47
			c0,96.92,1.45,232.61,2.9,285.66h-28.34C761.65,674.1,762.79,568,762.79,478.22z"/>
		<path class="st0" d="M876.97,391.5v-111.2c0-88.76-1.14-194.86-2.89-258.12h28.26c-1.75,63.25-2.82,179.56-2.82,269.34v70.39
			c0,93.86,5.64,165.28,13.86,165.28c8.15,0,13.79-71.42,13.79-165.28v-70.39c0-89.78-1.14-206.08-2.9-269.34h28.34
			c-1.75,63.25-2.89,169.36-2.89,258.12v111.2c0,228.53-11.05,360.14-36.33,360.14C888.01,751.64,876.97,620.03,876.97,391.5z"/>
		<path class="st0" d="M957.79,379.26c0-238.73,16.91-372.38,43.04-372.38c11.65,0,20.11,15.3,30.32,46.93l-1.29,242.81
			c-5.94-39.79-16.68-66.31-27.96-66.31c-13.41,0-22.09,51.01-22.09,148.95c0,88.76,7.77,149.97,21.25,149.97
			c6.17,0,12.11-19.38,16.38-55.09v-40.81h-13.1c-2.06,0-5.41,5.1-7.16,13.26l0.23-102.02h40.07v268.32
			c-7.24,83.66-20.11,138.75-36.56,138.75C974.7,751.64,957.79,617.99,957.79,379.26z"/>
		<path class="st0" d="M1064.05,706.75c-9.67,0-16.45,28.57-19.8,44.89c1.83-63.25,2.9-183.64,2.9-273.42V280.29
			c0-89.78-1.14-195.88-2.9-258.12h28.34c-1.75,62.23-2.97,237.71-2.97,327.49V507.8h21.25c7.54,0,15.31-17.34,19.5-43.87
			l-0.3,258.12c-0.61,1.02-5.94,29.59-12.26,29.59C1084.84,751.64,1078.67,706.75,1064.05,706.75z"/>
		<path class="st0" d="M1134.28,499.64v-46.93l-22.93-305.05c-3.66-47.95-8.45-97.94-11.58-125.49h30.93
			c1.75,41.83,3.66,77.54,6.85,125.49l7.54,113.24h0.84l7.46-113.24c3.2-47.95,5.1-83.66,6.86-125.49h30.92
			c-3.12,27.55-7.92,77.54-11.5,125.49l-22.93,309.13v46.93c0,84.68,0.91,175.48,2.21,231.59H1132
			C1133.22,678.18,1134.28,585.34,1134.28,499.64z"/>
		<path class="st0" d="M1213.88,478.22V280.29c0-88.76-1.14-194.86-2.9-258.12h49.13c18.36,0,29.94,98.96,29.94,272.4
			c0,174.46-9.29,290.76-27.04,290.76c-13.86,0-23.31-73.46-25.75-196.9h-0.84v93.86c0,88.76,0.99,190.78,2.89,254.03h-28.34
			C1212.89,673.08,1213.88,568,1213.88,478.22z M1267.89,307.84c0-54.07-4.04-83.66-12.34-83.66c-6.93,0-12.8,3.06-19.12,17.34
			v33.67c0,80.6,6.55,130.59,17.06,130.59C1261.34,405.78,1267.89,367.01,1267.89,307.84z"/>
		<path class="st0" d="M1326.77,456.79c-1.75,0-4.95,3.06-6.25,7.14v42.85c0,88.76,0.99,166.3,2.89,229.55h-28.34
			c1.9-63.25,2.9-168.34,2.9-258.12V280.29c0-88.76-1.14-194.86-2.9-258.12h50.35c17.75,0,29.48,62.23,29.48,192.82
			c0,128.55-11.42,195.88-28.95,195.88h-5.26v12.24h0.38c10.44,0,10.05,76.52,21.25,76.52c8.23,0,13.1-53.05,15.08-106.1
			l0.08,290.76c-2.21,40.81-8.38,67.33-14.47,67.33C1336.29,751.64,1345.74,456.79,1326.77,456.79z M1343.83,362.93
			c5.18,0,8.84-17.34,8.84-53.05c0-39.79-3.66-55.09-8.84-55.09h-23.31v108.14H1343.83z"/>
		<path class="st0" d="M1380.7,379.26c0-236.69,17.37-372.38,42.66-372.38c25.29,0,42.66,135.69,42.66,372.38
			s-17.37,372.38-42.66,372.38C1398.07,751.64,1380.7,615.95,1380.7,379.26z M1443.47,379.26c0-88.76-8.07-140.79-20.11-140.79
			c-12.11,0-20.11,52.03-20.11,140.79c0,88.76,8,141.81,20.11,141.81C1435.39,521.07,1443.47,468.01,1443.47,379.26z"/>
		<path class="st0" d="M1474.47,478.22V280.29c0-89.78-1.14-195.88-2.9-258.12h46.01c24.15,0,37.02,131.61,37.02,357.08
			c0,225.47-12.87,357.08-37.02,357.08h-46.01C1473.48,673.08,1474.47,568,1474.47,478.22z M1513.7,502.7
			c12.04,0,18.13-39.79,18.13-123.45c0-83.66-6.25-123.45-18.13-123.45h-16.68V502.7H1513.7z"/>
		<path class="st0" d="M1562.22,391.5v-111.2c0-88.76-1.14-194.86-2.89-258.12h28.26c-1.75,63.25-2.82,179.56-2.82,269.34v70.39
			c0,93.86,5.64,165.28,13.86,165.28c8.15,0,13.79-71.42,13.79-165.28v-70.39c0-89.78-1.14-206.08-2.9-269.34h28.34
			c-1.75,63.25-2.89,169.36-2.89,258.12v111.2c0,228.53-11.05,360.14-36.33,360.14C1573.27,751.64,1562.22,620.03,1562.22,391.5z"/>
		<path class="st0" d="M1643.04,379.26c0-259.14,18.74-372.38,43.11-372.38c13.41,0,24.22,37.75,31.53,81.62l-2.82,249.95
			c-4.57-53.05-14.17-97.94-26.05-97.94c-12.8,0-23.23,43.87-23.23,136.71c0,93.86,10.66,140.79,26.43,140.79
			c10.82,0,20.11-31.63,27.12-90.8v276.48c-8.15,28.57-18.28,47.95-31.69,47.95C1663.07,751.64,1643.04,638.39,1643.04,379.26z"/>
		<path class="st0" d="M1748.31,478.22V250.71h-9.52c-8.76,0-14.09,6.12-18.43,23.47l4.19-251.99h70.15l4.19,251.99
			c-4.34-17.34-9.67-23.47-18.43-23.47h-9.6v227.51c0,89.78,1.07,194.86,2.9,258.12h-28.34
			C1747.32,673.08,1748.31,568,1748.31,478.22z"/>
		<path class="st0" d="M1799.35,675.12l0.84-271.38c8.99,84.68,22.55,127.53,40.29,127.53c9.52,0,14.7-11.22,14.7-46.93
			c0-111.2-55.53,38.77-55.53-268.32c0-159.15,16.76-209.15,38.39-209.15c10.44,0,24.45,20.4,33.67,64.27v237.71
			c-8.53-54.07-20.57-83.66-32.83-83.66c-8.46-1.02-15.39,9.18-15.39,46.93c0,118.35,55.53-52.03,55.53,249.95
			c0,149.97-13.41,229.55-38.16,229.55C1829.21,751.64,1808.95,717.97,1799.35,675.12z"/>
	</g>
</g>
<g>
	<path class="st0" d="M2462.84,391.5V280.3c0-88.76-1.84-194.86-4.67-258.11h45.58c-2.83,63.25-4.55,179.56-4.55,269.34v70.39
		c0,93.86,9.09,165.27,22.36,165.27c13.15,0,22.24-71.41,22.24-165.27v-70.39c0-89.78-1.84-206.08-4.67-269.34h45.71
		c-2.83,63.25-4.67,169.36-4.67,258.11v111.2c0,228.53-17.82,360.14-58.61,360.14C2480.66,751.63,2462.84,620.03,2462.84,391.5z"/>
	<path class="st0" d="M2593.2,379.26c0-238.73,27.28-372.38,69.42-372.38c18.8,0,32.44,15.3,48.9,46.93l-2.09,242.81
		c-9.58-39.79-26.91-66.31-45.09-66.31c-21.63,0-35.63,51.01-35.63,148.95c0,88.76,12.53,149.97,34.28,149.97
		c9.95,0,19.54-19.38,26.42-55.09v-40.81h-21.13c-3.32,0-8.72,5.1-11.55,13.26l0.37-102.02h64.63v268.32
		c-11.67,83.66-32.44,138.75-58.98,138.75C2620.48,751.63,2593.2,617.99,2593.2,379.26z"/>
	<path class="st0" d="M2764.6,706.74c-15.6,0-26.54,28.57-31.95,44.89c2.95-63.25,4.67-183.64,4.67-273.42V280.29
		c0-89.78-1.84-195.88-4.67-258.11h45.71c-2.83,62.23-4.79,237.71-4.79,327.49V507.8h34.28c12.16,0,24.7-17.34,31.45-43.87
		l-0.49,258.11c-0.98,1.02-9.58,29.59-19.78,29.59C2798.14,751.63,2788.19,706.74,2764.6,706.74z"/>
	<path class="st0" d="M2877.88,499.64v-46.93l-36.98-305.04c-5.9-47.95-13.64-97.94-18.68-125.49h49.88
		c2.83,41.83,5.9,77.54,11.06,125.49l12.16,113.24h1.35l12.04-113.24c5.16-47.95,8.23-83.66,11.06-125.49h49.88
		c-5.04,27.55-12.78,77.54-18.55,125.49l-36.98,309.13v46.93c0,84.68,1.47,175.48,3.56,231.59h-43.5
		C2876.16,678.18,2877.88,585.34,2877.88,499.64z"/>
	<path class="st0" d="M3022,479.24l-14.13-198.94c-5.9-89.78-14.13-194.86-20.4-258.11h47.43c0.74,39.79,2.09,81.62,5.53,138.75
		l14.38,222.41c2.33,37.75,3.93,69.37,5.16,108.14h1.23c1.23-41.83,2.7-67.33,5.04-108.14l14.38-222.41
		c3.32-58.15,4.91-98.96,5.53-138.75H3131c-6.39,63.25-14.62,168.34-20.52,258.11l-14.13,197.92
		c-5.78,89.78-11.3,194.86-13.15,258.11h-48.16C3033.06,671.04,3027.65,564.93,3022,479.24z"/>
	<path class="st0" d="M3141.18,478.22V280.29c0-89.78-1.84-195.88-4.67-258.11h115.5l4.42,253.01
		c-4.42-19.38-15.6-34.69-25.56-34.69h-53.33v80.6h37.35c6.27,0,12.41-2.04,16.46-7.14v124.47c-4.05-6.12-10.2-8.16-16.46-8.16
		h-37.35v87.74h55.66c8.23,0,20.27-17.34,27.03-56.11l-6.27,274.44h-117.45C3139.58,673.08,3141.18,567.99,3141.18,478.22z"/>
	<path class="st0" d="M3262.81,379.26c0-238.73,27.28-372.38,69.42-372.38c18.8,0,32.44,15.3,48.9,46.93l-2.09,242.81
		c-9.58-39.79-26.91-66.31-45.09-66.31c-21.63,0-35.63,51.01-35.63,148.95c0,88.76,12.53,149.97,34.28,149.97
		c9.95,0,19.54-19.38,26.42-55.09v-40.81h-21.13c-3.32,0-8.72,5.1-11.55,13.26l0.37-102.02h64.63v268.32
		c-11.67,83.66-32.44,138.75-58.98,138.75C3290.09,751.63,3262.81,617.99,3262.81,379.26z"/>
	<path class="st0" d="M3406.93,478.22V280.29c0-89.78-1.84-195.88-4.67-258.11h115.5l4.42,253.01
		c-4.42-19.38-15.6-34.69-25.56-34.69h-53.33v80.6h37.35c6.27,0,12.41-2.04,16.46-7.14v124.47c-4.05-6.12-10.2-8.16-16.46-8.16
		h-37.35v87.74h55.66c8.23,0,20.27-17.34,27.03-56.11l-6.27,274.44h-117.45C3405.33,673.08,3406.93,567.99,3406.93,478.22z"/>
	<path class="st0" d="M3572.8,478.22V250.71h-15.36c-14.13,0-22.73,6.12-29.73,23.46l6.76-251.99h113.16l6.76,251.99
		c-7-17.34-15.6-23.46-29.73-23.46h-15.48v227.51c0,89.78,1.72,194.86,4.67,258.11h-45.71
		C3571.2,673.08,3572.8,567.99,3572.8,478.22z"/>
	<path class="st0" d="M3658.07,478.22l14.13-197.93c5.77-89.78,11.3-194.86,13.15-258.11h51.97c1.97,65.29,7.37,171.4,13.02,257.09
		l14.25,198.94c5.78,89.78,13.88,194.86,20.15,258.11h-46.44c-0.49-32.65-1.6-66.31-4.55-127.53l-1.97-29.59h-40.91l-1.97,30.61
		c-2.7,60.19-4.05,93.86-4.79,126.51h-46.32C3644.18,673.08,3652.29,566.97,3658.07,478.22z M3723.43,464.95l-6.64-101
		c-2.46-42.85-3.56-79.58-4.67-124.47h-1.72c-1.23,47.95-2.21,78.56-4.79,124.47l-6.51,101H3723.43z"/>
	<path class="st0" d="M3793.34,478.22V280.29c0-89.78-1.84-195.88-4.67-258.11h87.97c16.71,0,30.35,54.07,30.35,168.34
		c0,110.18-12.9,166.3-29.24,166.3h-3.56v12.24h6.14c18.43,0,33.79,55.09,33.79,181.6s-15.24,185.68-34.77,185.68h-90.68
		C3791.62,673.08,3793.34,567.99,3793.34,478.22z M3864.73,321.1c4.67,0,8.48-14.28,8.48-44.89c0-31.63-3.69-44.89-8.35-44.89
		h-35.26v89.78L3864.73,321.1L3864.73,321.1z M3866.94,522.09c6.14,0,10.2-16.32,10.2-52.03c0-37.75-4.18-54.07-10.32-54.07h-37.23
		v106.1H3866.94z"/>
	<path class="st0" d="M3955.4,706.74c-15.6,0-26.54,28.57-31.95,44.89c2.95-63.25,4.67-183.64,4.67-273.42V280.29
		c0-89.78-1.84-195.88-4.67-258.11h45.71c-2.83,62.23-4.79,237.71-4.79,327.49V507.8h34.28c12.16,0,24.7-17.34,31.45-43.87
		l-0.49,258.11c-0.98,1.02-9.58,29.59-19.78,29.59C3988.94,751.63,3978.99,706.74,3955.4,706.74z"/>
	<path class="st0" d="M4044.72,478.22V280.29c0-89.78-1.84-195.88-4.67-258.11h115.5l4.42,253.01
		c-4.42-19.38-15.6-34.69-25.56-34.69h-53.33v80.6h37.35c6.27,0,12.41-2.04,16.46-7.14v124.47c-4.05-6.12-10.2-8.16-16.46-8.16
		h-37.35v87.74h55.66c8.23,0,20.27-17.34,27.03-56.11l-6.27,274.44h-117.46C4043.12,673.08,4044.72,567.99,4044.72,478.22z"/>
	<path class="st0" d="M4167.71,675.12l1.35-271.38c14.5,84.68,36.37,127.53,65,127.53c15.36,0,23.71-11.22,23.71-46.93
		c0-111.2-89.57,38.77-89.57-268.32c0-159.15,27.03-209.14,61.93-209.14c16.83,0,39.44,20.4,54.31,64.27v237.71
		c-13.76-54.07-33.17-83.66-52.96-83.66c-13.64-1.02-24.82,9.18-24.82,46.93c0,118.34,89.57-52.03,89.57,249.95
		c0,149.97-21.62,229.55-61.56,229.55C4215.87,751.63,4183.19,717.97,4167.71,675.12z"/>
</g>
<g>
	<path class="st0" d="M-2641.61,391.5V280.3c0-88.76-1.84-194.86-4.67-258.11h45.58c-2.83,63.25-4.55,179.56-4.55,269.34v70.39
		c0,93.86,9.09,165.27,22.36,165.27c13.15,0,22.24-71.41,22.24-165.27v-70.39c0-89.78-1.84-206.08-4.67-269.34h45.71
		c-2.83,63.25-4.67,169.36-4.67,258.11v111.2c0,228.53-17.82,360.14-58.61,360.14C-2623.79,751.63-2641.61,620.03-2641.61,391.5z"/>
	<path class="st0" d="M-2511.26,379.26c0-238.73,27.28-372.38,69.42-372.38c18.8,0,32.44,15.3,48.9,46.93l-2.09,242.81
		c-9.58-39.79-26.91-66.31-45.09-66.31c-21.63,0-35.63,51.01-35.63,148.95c0,88.76,12.53,149.97,34.28,149.97
		c9.95,0,19.54-19.38,26.42-55.09v-40.81h-21.13c-3.32,0-8.72,5.1-11.55,13.26l0.37-102.02h64.63v268.32
		c-11.67,83.66-32.44,138.75-58.98,138.75C-2483.98,751.63-2511.26,617.99-2511.26,379.26z"/>
	<path class="st0" d="M-2339.85,706.74c-15.6,0-26.54,28.57-31.95,44.89c2.95-63.25,4.67-183.64,4.67-273.42V280.29
		c0-89.78-1.84-195.88-4.67-258.11h45.71c-2.83,62.23-4.79,237.71-4.79,327.49V507.8h34.28c12.16,0,24.7-17.34,31.45-43.87
		l-0.49,258.11c-0.98,1.02-9.58,29.59-19.78,29.59C-2306.31,751.63-2316.27,706.74-2339.85,706.74z"/>
	<path class="st0" d="M-2226.57,499.64v-46.93l-36.98-305.04c-5.9-47.95-13.64-97.94-18.68-125.49h49.88
		c2.83,41.83,5.9,77.54,11.06,125.49l12.16,113.24h1.35l12.04-113.24c5.16-47.95,8.23-83.66,11.06-125.49h49.88
		c-5.04,27.55-12.78,77.54-18.55,125.49l-36.98,309.13v46.93c0,84.68,1.47,175.48,3.56,231.59h-43.5
		C-2228.29,678.18-2226.57,585.34-2226.57,499.64z"/>
	<path class="st0" d="M-2082.46,479.24l-14.13-198.94c-5.9-89.78-14.13-194.86-20.4-258.11h47.43c0.74,39.79,2.09,81.62,5.53,138.75
		l14.38,222.41c2.33,37.75,3.93,69.37,5.16,108.14h1.23c1.23-41.83,2.7-67.33,5.04-108.14l14.38-222.41
		c3.32-58.15,4.91-98.96,5.53-138.75h44.85c-6.39,63.25-14.62,168.34-20.52,258.11l-14.13,197.92
		c-5.78,89.78-11.3,194.86-13.15,258.11h-48.16C-2071.4,671.04-2076.8,564.93-2082.46,479.24z"/>
	<path class="st0" d="M-1963.28,478.22V280.29c0-89.78-1.84-195.88-4.67-258.11h115.5l4.42,253.01
		c-4.42-19.38-15.6-34.69-25.56-34.69h-53.33v80.6h37.35c6.27,0,12.41-2.04,16.46-7.14v124.47c-4.05-6.12-10.2-8.16-16.46-8.16
		h-37.35v87.74h55.66c8.23,0,20.27-17.34,27.03-56.11l-6.27,274.44h-117.45C-1964.88,673.08-1963.28,567.99-1963.28,478.22z"/>
	<path class="st0" d="M-1841.65,379.26c0-238.73,27.28-372.38,69.42-372.38c18.8,0,32.44,15.3,48.9,46.93l-2.09,242.81
		c-9.58-39.79-26.91-66.31-45.09-66.31c-21.63,0-35.63,51.01-35.63,148.95c0,88.76,12.53,149.97,34.28,149.97
		c9.95,0,19.54-19.38,26.42-55.09v-40.81h-21.13c-3.32,0-8.72,5.1-11.55,13.26l0.37-102.02h64.63v268.32
		c-11.67,83.66-32.44,138.75-58.98,138.75C-1814.36,751.63-1841.65,617.99-1841.65,379.26z"/>
	<path class="st0" d="M-1697.53,478.22V280.29c0-89.78-1.84-195.88-4.67-258.11h115.5l4.42,253.01
		c-4.42-19.38-15.6-34.69-25.56-34.69h-53.33v80.6h37.35c6.27,0,12.41-2.04,16.46-7.14v124.47c-4.05-6.12-10.2-8.16-16.46-8.16
		h-37.35v87.74h55.66c8.23,0,20.27-17.34,27.03-56.11l-6.27,274.44h-117.45C-1699.12,673.08-1697.53,567.99-1697.53,478.22z"/>
	<path class="st0" d="M-1531.66,478.22V250.71h-15.36c-14.13,0-22.73,6.12-29.73,23.46l6.76-251.99h113.16l6.76,251.99
		c-7-17.34-15.6-23.46-29.73-23.46h-15.48v227.51c0,89.78,1.72,194.86,4.67,258.11h-45.71
		C-1533.26,673.08-1531.66,567.99-1531.66,478.22z"/>
	<path class="st0" d="M-1446.39,478.22l14.13-197.93c5.77-89.78,11.3-194.86,13.15-258.11h51.97c1.97,65.29,7.37,171.4,13.02,257.09
		l14.25,198.94c5.78,89.78,13.88,194.86,20.15,258.11h-46.44c-0.49-32.65-1.6-66.31-4.55-127.53l-1.97-29.59h-40.91l-1.97,30.61
		c-2.7,60.19-4.05,93.86-4.79,126.51h-46.32C-1460.28,673.08-1452.17,566.97-1446.39,478.22z M-1381.03,464.95l-6.64-101
		c-2.46-42.85-3.56-79.58-4.67-124.47h-1.72c-1.23,47.95-2.21,78.56-4.79,124.47l-6.51,101H-1381.03z"/>
	<path class="st0" d="M-1311.11,478.22V280.29c0-89.78-1.84-195.88-4.67-258.11h87.97c16.71,0,30.35,54.07,30.35,168.34
		c0,110.18-12.9,166.3-29.24,166.3h-3.56v12.24h6.14c18.43,0,33.79,55.09,33.79,181.6s-15.24,185.68-34.77,185.68h-90.68
		C-1312.83,673.08-1311.11,567.99-1311.11,478.22z M-1239.72,321.1c4.67,0,8.48-14.28,8.48-44.89c0-31.63-3.69-44.89-8.35-44.89
		h-35.26v89.78L-1239.72,321.1L-1239.72,321.1z M-1237.52,522.09c6.14,0,10.2-16.32,10.2-52.03c0-37.75-4.18-54.07-10.32-54.07
		h-37.23v106.1H-1237.52z"/>
	<path class="st0" d="M-1149.06,706.74c-15.6,0-26.54,28.57-31.95,44.89c2.95-63.25,4.67-183.64,4.67-273.42V280.29
		c0-89.78-1.84-195.88-4.67-258.11h45.71c-2.83,62.23-4.79,237.71-4.79,327.49V507.8h34.28c12.16,0,24.7-17.34,31.45-43.87
		l-0.49,258.11c-0.98,1.02-9.58,29.59-19.78,29.59C-1115.52,751.63-1125.46,706.74-1149.06,706.74z"/>
	<path class="st0" d="M-1059.73,478.22V280.29c0-89.78-1.84-195.88-4.67-258.11h115.5l4.42,253.01
		c-4.42-19.38-15.6-34.69-25.56-34.69h-53.33v80.6h37.35c6.27,0,12.41-2.04,16.46-7.14v124.47c-4.05-6.12-10.2-8.16-16.46-8.16
		h-37.35v87.74h55.66c8.23,0,20.27-17.34,27.03-56.11l-6.27,274.44h-117.46C-1061.33,673.08-1059.73,567.99-1059.73,478.22z"/>
	<path class="st0" d="M-936.74,675.12l1.35-271.38c14.5,84.68,36.37,127.53,65,127.53c15.36,0,23.71-11.22,23.71-46.93
		c0-111.2-89.57,38.77-89.57-268.32c0-159.15,27.03-209.14,61.93-209.14c16.83,0,39.44,20.4,54.31,64.27v237.71
		c-13.76-54.07-33.17-83.66-52.96-83.66c-13.64-1.02-24.82,9.18-24.82,46.93c0,118.34,89.57-52.03,89.57,249.95
		c0,149.97-21.62,229.55-61.56,229.55C-888.58,751.63-921.27,717.97-936.74,675.12z"/>
</g>
</svg>
