<?xml version="1.0" encoding="utf-8"?>
<!-- Generator: Adobe Illustrator 26.0.2, SVG Export Plug-In . SVG Version: 6.00 Build 0)  -->
<svg version="1.1" id="레이어_1" xmlns="http://www.w3.org/2000/svg" xmlns:xlink="http://www.w3.org/1999/xlink" x="0px"
	 y="0px" viewBox="0 0 1920 758.5" style="enable-background:new 0 0 1920 758.5;" xml:space="preserve">
<style type="text/css">
	.st0{enable-background:new    ;}
	.st1{fill:#FFFFFF;}
</style>
<g>
	
		<text transform="matrix(9.090000e-02 0 0 1 4717.1904 -2922.5239)" class="st1" style="font-family:'Brice-BoldExpanded'; font-size:940.0613px;">WHAT IS UGLY PRODUCTS?</text>
</g>
<g>
	
		<text transform="matrix(9.090000e-02 0 0 1 4845.2715 -2102.2236)" class="st1" style="font-family:'Brice-BoldExpanded'; font-size:940.0613px;">FOOD REFURBISHED</text>
</g>
<g>
	
		<text transform="matrix(9.090000e-02 0 0 1 4806.7178 -466.896)" class="st1" style="font-family:'Brice-BoldExpanded'; font-size:940.0613px;">ENVIRONMENTAL ISSUES</text>
</g>
<g class="st0">
	<path class="st1" d="M60.2,473.1l-7-192.8C49.7,190.5,44.8,85.4,41,22.2h32.3C73.4,62,74,104.8,76,160.9l7.9,212.2
		c1.4,38.8,2.3,72.4,3.5,113.2h0.8l13.1-464.2h18.2l13.1,464.2h0.8c1.1-39.8,2.1-74.5,3.5-114.3l7.9-211.2c2-56.1,2.6-99,2.8-138.7
		h32.3c-3.9,63.3-8.7,168.3-12.2,258.1l-7,192.8c-3.4,87.7-6.5,195.9-7.6,263.2h-29.6l-12.6-446.9H110L97.4,736.3H67.8
		C66.7,669,63.5,560.9,60.2,473.1z"/>
	<path class="st1" d="M187.1,478.2V280.3c0-89.8-1.3-193.8-3.2-258.1h31.2c-2.1,70.4-3.2,145.9-3.2,233.6v53.1h29.1v-53.1
		c0-89.8-1.3-170.4-3.3-233.6h31.3c-2,62.2-3.2,168.3-3.2,258.1v197.9c0,89.8,1.1,194.9,3.2,258.1h-31.3
		c1.6-63.3,3.3-143.9,3.3-233.6v-64.3H212v64.3c0,82.6,0.6,161.2,3.2,233.6h-31.2C186,674.1,187.1,568,187.1,478.2z"/>
	<path class="st1" d="M285.5,478.2l9.6-197.9c3.9-89.8,7.7-194.9,9-258.1h35.5c1.3,65.3,5,171.4,8.9,257.1l9.7,198.9
		c3.9,89.8,9.5,194.9,13.8,258.1h-31.7c-0.3-32.6-1.1-66.3-3.1-127.5l-1.3-29.6h-27.9l-1.3,30.6c-1.8,60.2-2.8,93.9-3.3,126.5h-31.6
		C276.1,673.1,281.6,567,285.5,478.2z M330.2,465l-4.5-101c-1.7-42.9-2.4-79.6-3.2-124.5h-1.2c-0.8,48-1.5,78.6-3.3,124.5l-4.4,101
		H330.2z"/>
	<path class="st1" d="M391.5,478.2V250.7H381c-9.6,0-15.5,6.1-20.3,23.5l4.6-252h77.3l4.6,252c-4.8-17.3-10.7-23.5-20.3-23.5h-10.6
		v227.5c0,89.8,1.2,194.9,3.2,258.1h-31.2C390.4,673.1,391.5,568,391.5,478.2z"/>
	<path class="st1" d="M474.6,478.2V280.3c0-89.8-1.3-195.9-3.2-258.1h31.2c-1.9,62.2-3.3,168.3-3.3,258.1v197.9
		c0,89.8,1.1,194.9,3.3,258.1h-31.2C473.5,673.1,474.6,568,474.6,478.2z"/>
	<path class="st1" d="M509.1,675.1l0.9-271.4c9.9,84.7,24.8,127.5,44.4,127.5c10.5,0,16.2-11.2,16.2-46.9
		c0-111.2-61.2,38.8-61.2-268.3c0-159.2,18.5-209.1,42.3-209.1c11.5,0,26.9,20.4,37.1,64.3v237.7c-9.4-54.1-22.7-83.7-36.2-83.7
		c-9.3-1-16.9,9.2-16.9,46.9c0,118.3,61.2-52,61.2,250c0,150-14.8,229.5-42,229.5C542,751.6,519.7,718,509.1,675.1z"/>
	<path class="st1" d="M627.1,391.5V280.3c0-88.8-1.3-194.9-3.2-258.1H655c-1.9,63.3-3.1,179.6-3.1,269.3v70.4
		c0,93.9,6.2,165.3,15.3,165.3c9,0,15.2-71.4,15.2-165.3v-70.4c0-89.8-1.3-206.1-3.2-269.3h31.2c-1.9,63.3-3.2,169.4-3.2,258.1
		v111.2c0,228.5-12.2,360.1-40,360.1C639.3,751.6,627.1,620,627.1,391.5z"/>
	<path class="st1" d="M716.1,379.3c0-238.7,18.6-372.4,47.4-372.4c12.8,0,22.1,15.3,33.4,46.9l-1.4,242.8
		c-6.5-39.8-18.4-66.3-30.8-66.3c-14.8,0-24.3,51-24.3,149c0,88.8,8.6,150,23.4,150c6.8,0,13.3-19.4,18-55.1v-40.8h-14.4
		c-2.3,0-6,5.1-7.9,13.3l0.3-102h44.1v268.3c-8,83.7-22.1,138.7-40.3,138.7C734.7,751.6,716.1,618,716.1,379.3z"/>
	<path class="st1" d="M833.1,706.7c-10.7,0-18.1,28.6-21.8,44.9c2-63.3,3.2-183.6,3.2-273.4V280.3c0-89.8-1.3-195.9-3.2-258.1h31.2
		c-1.9,62.2-3.3,237.7-3.3,327.5v158.1h23.4c8.3,0,16.9-17.3,21.5-43.9L883.8,722c-0.7,1-6.5,29.6-13.5,29.6
		C856.1,751.6,849.3,706.7,833.1,706.7z"/>
	<path class="st1" d="M910.5,499.6v-46.9l-25.3-305c-4-47.9-9.3-97.9-12.8-125.5h34.1c1.9,41.8,4,77.5,7.6,125.5l8.3,113.2h0.9
		l8.2-113.2c3.5-47.9,5.6-83.7,7.5-125.5h34.1c-3.4,27.5-8.7,77.5-12.7,125.5l-25.3,309.1v46.9c0,84.7,1,175.5,2.4,231.6H908
		C909.3,678.2,910.5,585.3,910.5,499.6z"/>
	<path class="st1" d="M1008.9,479.2l-9.6-198.9c-4-89.8-9.6-194.9-13.9-258.1h32.4c0.5,39.8,1.4,81.6,3.8,138.7l9.8,222.4
		c1.6,37.7,2.7,69.4,3.5,108.1h0.8c0.8-41.8,1.8-67.3,3.4-108.1l9.8-222.4c2.3-58.2,3.4-99,3.8-138.7h30.6
		c-4.4,63.3-10,168.3-14,258.1l-9.6,197.9c-3.9,89.8-7.7,194.9-9,258.1h-32.9C1016.5,671,1012.8,564.9,1008.9,479.2z"/>
	<path class="st1" d="M1090.3,478.2V280.3c0-89.8-1.3-195.9-3.2-258.1h78.9l3,253c-3-19.4-10.7-34.7-17.5-34.7h-36.4v80.6h25.5
		c4.3,0,8.5-2,11.2-7.1v124.5c-2.8-6.1-7-8.2-11.2-8.2h-25.5V518h38c5.6,0,13.8-17.3,18.5-56.1l-4.3,274.4h-80.2
		C1089.2,673.1,1090.3,568,1090.3,478.2z"/>
	<path class="st1" d="M1173.4,379.3c0-238.7,18.6-372.4,47.4-372.4c12.8,0,22.1,15.3,33.4,46.9l-1.4,242.8
		c-6.5-39.8-18.4-66.3-30.8-66.3c-14.8,0-24.3,51-24.3,149c0,88.8,8.6,150,23.4,150c6.8,0,13.3-19.4,18-55.1v-40.8h-14.4
		c-2.3,0-6,5.1-7.9,13.3l0.3-102h44.1v268.3c-8,83.7-22.1,138.7-40.3,138.7C1192,751.6,1173.4,618,1173.4,379.3z"/>
	<path class="st1" d="M1271.8,478.2V280.3c0-89.8-1.3-195.9-3.2-258.1h78.9l3,253c-3-19.4-10.7-34.7-17.5-34.7h-36.4v80.6h25.5
		c4.3,0,8.5-2,11.2-7.1v124.5c-2.8-6.1-7-8.2-11.2-8.2h-25.5V518h38c5.6,0,13.8-17.3,18.5-56.1l-4.3,274.4h-80.2
		C1270.7,673.1,1271.8,568,1271.8,478.2z"/>
	<path class="st1" d="M1385,478.2V250.7h-10.5c-9.6,0-15.5,6.1-20.3,23.5l4.6-252h77.3l4.6,252c-4.8-17.3-10.7-23.5-20.3-23.5h-10.6
		v227.5c0,89.8,1.2,194.9,3.2,258.1h-31.2C1383.9,673.1,1385,568,1385,478.2z"/>
	<path class="st1" d="M1443.3,478.2l9.6-197.9c3.9-89.8,7.7-194.9,9-258.1h35.5c1.3,65.3,5,171.4,8.9,257.1l9.7,198.9
		c3.9,89.8,9.5,194.9,13.8,258.1H1498c-0.3-32.6-1.1-66.3-3.1-127.5l-1.3-29.6h-27.9l-1.3,30.6c-1.8,60.2-2.8,93.9-3.3,126.5h-31.6
		C1433.8,673.1,1439.3,567,1443.3,478.2z M1487.9,465l-4.5-101c-1.7-42.9-2.4-79.6-3.2-124.5h-1.2c-0.8,48-1.5,78.6-3.3,124.5
		l-4.4,101H1487.9z"/>
	<path class="st1" d="M1535.6,478.2V280.3c0-89.8-1.3-195.9-3.2-258.1h60.1c11.4,0,20.7,54.1,20.7,168.3c0,110.2-8.8,166.3-20,166.3
		h-2.4v12.2h4.2c12.6,0,23.1,55.1,23.1,181.6c0,126.5-10.4,185.7-23.7,185.7h-61.9C1534.5,673.1,1535.6,568,1535.6,478.2z
		 M1584.4,321.1c3.2,0,5.8-14.3,5.8-44.9c0-31.6-2.5-44.9-5.7-44.9h-24.1v89.8H1584.4z M1585.9,522.1c4.2,0,7-16.3,7-52
		c0-37.7-2.9-54.1-7-54.1h-25.4v106.1H1585.9z"/>
	<path class="st1" d="M1646.3,706.7c-10.7,0-18.1,28.6-21.8,44.9c2-63.3,3.2-183.6,3.2-273.4V280.3c0-89.8-1.3-195.9-3.2-258.1h31.2
		c-1.9,62.2-3.3,237.7-3.3,327.5v158.1h23.4c8.3,0,16.9-17.3,21.5-43.9L1697,722c-0.7,1-6.5,29.6-13.5,29.6
		C1669.2,751.6,1662.4,706.7,1646.3,706.7z"/>
	<path class="st1" d="M1707.3,478.2V280.3c0-89.8-1.3-195.9-3.2-258.1h78.9l3,253c-3-19.4-10.7-34.7-17.5-34.7h-36.4v80.6h25.5
		c4.3,0,8.5-2,11.2-7.1v124.5c-2.8-6.1-7-8.2-11.2-8.2h-25.5V518h38c5.6,0,13.8-17.3,18.5-56.1l-4.3,274.4h-80.2
		C1706.2,673.1,1707.3,568,1707.3,478.2z"/>
	<path class="st1" d="M1791.3,675.1l0.9-271.4c9.9,84.7,24.8,127.5,44.4,127.5c10.5,0,16.2-11.2,16.2-46.9
		c0-111.2-61.2,38.8-61.2-268.3c0-159.2,18.5-209.1,42.3-209.1c11.5,0,26.9,20.4,37.1,64.3v237.7c-9.4-54.1-22.7-83.7-36.2-83.7
		c-9.3-1-16.9,9.2-16.9,46.9c0,118.3,61.2-52,61.2,250c0,150-14.8,229.5-42,229.5C1824.2,751.6,1801.8,718,1791.3,675.1z"/>
</g>
<g>
	
		<text transform="matrix(9.090000e-02 0 0 1 4766.3643 -1235.2822)" class="st1" style="font-family:'Brice-BoldExpanded'; font-size:940.0613px;">OPINIONS ON UGLY PRODUCTS</text>
</g>
<g>
	<g>
		<path class="st1" d="M59.3,2880.4V2698c0-82.7-1.6-180.5-4.2-237.8h105l4.3,244.4c-4.3-18.8-17.2-32-26.4-32H92.6v97.8h38
			c5.8,0,11.4-1.9,15.1-6.6v120.3c-3.7-4.7-9.4-6.6-15.1-6.6h-38v44.2c0,82.7,1.5,138.2,4.4,196.5H55.1
			C57.8,3060,59.3,2963.1,59.3,2880.4z"/>
		<path class="st1" d="M165.8,2789.2c0-218.1,25.7-343.1,63.1-343.1s63.1,125,63.1,343.1s-25.7,343.1-63.1,343.1
			S165.8,3007.3,165.8,2789.2z M258.6,2789.2c0-81.8-11.9-129.7-29.8-129.7c-17.9,0-29.8,47.9-29.8,129.7s11.8,130.7,29.8,130.7
			C246.7,2919.9,258.6,2871,258.6,2789.2z"/>
		<path class="st1" d="M297,2789.2c0-218.1,25.7-343.1,63.1-343.1s63.1,125,63.1,343.1s-25.7,343.1-63.1,343.1
			S297,3007.3,297,2789.2z M389.8,2789.2c0-81.8-12-129.7-29.8-129.7c-17.9,0-29.8,47.9-29.8,129.7s11.8,130.7,29.8,130.7
			C377.9,2919.9,389.8,2871,389.8,2789.2z"/>
		<path class="st1" d="M435.7,2880.4V2698c0-82.7-1.7-180.5-4.3-237.8h68.1c35.7,0,54.8,121.3,54.8,329s-19,329-54.8,329h-68.1
			C434.2,3060,435.7,2963.1,435.7,2880.4z M493.7,2903c17.8,0,26.8-36.7,26.8-113.8c0-77.1-9.2-113.8-26.8-113.8h-24.7V2903H493.7z"
			/>
		<path class="st1" d="M639.3,2860.7c-2.6,0-7.3,2.8-9.2,6.6v39.5c0,81.8,1.5,153.2,4.3,211.5h-41.9c2.8-58.3,4.3-155.1,4.3-237.8
			V2698c0-81.8-1.7-179.6-4.3-237.8H667c26.3,0,43.6,57.3,43.6,177.7c0,118.4-16.9,180.5-42.8,180.5H660v11.3h0.6
			c15.4,0,14.9,70.5,31.4,70.5c12.2,0,19.4-48.9,22.3-97.8l0.1,267.9c-3.3,37.6-12.4,62-21.4,62
			C653.4,3132.4,667.4,2860.7,639.3,2860.7z M664.6,2774.2c7.7,0,13.1-16,13.1-48.9c0-36.7-5.4-50.8-13.1-50.8h-34.5v99.6
			L664.6,2774.2L664.6,2774.2z"/>
		<path class="st1" d="M727.9,2880.4V2698c0-82.7-1.7-180.5-4.3-237.8h105.9l4.1,233.1c-4.1-17.9-14.3-32-23.4-32h-48.9v74.3h34.3
			c5.8,0,11.4-1.9,15.1-6.6v114.7c-3.7-5.6-9.3-7.5-15.1-7.5h-34.3v80.8h51c7.5,0,18.6-16,24.8-51.7l-5.8,252.9H723.7
			C726.5,3060,727.9,2963.1,727.9,2880.4z"/>
		<path class="st1" d="M849.5,2880.4V2698c0-82.7-1.6-180.5-4.2-237.8h105l4.3,244.4c-4.3-18.8-17.2-32-26.4-32h-45.4v97.8h38
			c5.8,0,11.4-1.9,15.1-6.6v120.3c-3.7-4.7-9.3-6.6-15.1-6.6h-38v44.2c0,82.7,1.5,138.2,4.4,196.5h-41.9
			C848.1,3060,849.5,2963.1,849.5,2880.4z"/>
		<path class="st1" d="M965.2,2800.5V2698c0-81.8-1.7-179.6-4.3-237.8h41.8c-2.6,58.3-4.2,165.4-4.2,248.2v64.9
			c0,86.5,8.3,152.3,20.5,152.3c12.1,0,20.4-65.8,20.4-152.3v-64.9c0-82.7-1.7-189.9-4.3-248.2h41.9c-2.6,58.3-4.3,156.1-4.3,237.8
			v102.5c0,210.6-16.3,331.8-53.8,331.8C981.5,3132.4,965.2,3011.1,965.2,2800.5z"/>
		<path class="st1" d="M1135.8,2860.7c-2.6,0-7.3,2.8-9.2,6.6v39.5c0,81.8,1.5,153.2,4.3,211.5h-41.9c2.8-58.3,4.3-155.1,4.3-237.8
			V2698c0-81.8-1.7-179.6-4.3-237.8h74.5c26.3,0,43.6,57.3,43.6,177.7c0,118.4-16.9,180.5-42.8,180.5h-7.8v11.3h0.6
			c15.4,0,14.9,70.5,31.4,70.5c12.2,0,19.4-48.9,22.3-97.8l0.1,267.9c-3.3,37.6-12.4,62-21.4,62
			C1149.9,3132.4,1163.9,2860.7,1135.8,2860.7z M1161.1,2774.2c7.7,0,13.1-16,13.1-48.9c0-36.7-5.4-50.8-13.1-50.8h-34.5v99.6
			L1161.1,2774.2L1161.1,2774.2z"/>
		<path class="st1" d="M1224.4,2880.4V2698c0-82.7-1.7-180.5-4.3-237.8h80.7c15.3,0,27.8,49.8,27.8,155.1
			c0,101.5-11.8,153.2-26.8,153.2h-3.3v11.3h5.6c16.9,0,31,50.8,31,167.3s-14,171.1-31.9,171.1h-83.2
			C1222.8,3060,1224.4,2963.1,1224.4,2880.4z M1289.9,2735.6c4.3,0,7.8-13.2,7.8-41.4c0-29.1-3.4-41.4-7.7-41.4h-32.3v82.7
			L1289.9,2735.6L1289.9,2735.6z M1291.9,2920.8c5.6,0,9.3-15,9.3-47.9c0-34.8-3.8-49.8-9.5-49.8h-34.2v97.8L1291.9,2920.8
			L1291.9,2920.8z"/>
		<path class="st1" d="M1348,2880.4V2698c0-82.7-1.7-180.5-4.3-237.8h41.9c-2.6,57.3-4.4,155.1-4.4,237.8v182.4
			c0,82.7,1.5,179.6,4.4,237.8h-41.9C1346.4,3060,1348,2963.1,1348,2880.4z"/>
		<path class="st1" d="M1394.3,3061.8l1.2-250.1c13.3,78,33.4,117.5,59.6,117.5c14.1,0,21.8-10.3,21.8-43.2
			c0-102.5-82.2,35.7-82.2-247.2c0-146.6,24.8-192.7,56.8-192.7c15.4,0,36.2,18.8,49.8,59.2v219c-12.6-49.8-30.4-77.1-48.6-77.1
			c-12.5-0.9-22.8,8.5-22.8,43.2c0,109.1,82.2-47.9,82.2,230.3c0,138.2-19.8,211.5-56.5,211.5
			C1438.5,3132.4,1408.5,3101.3,1394.3,3061.8z"/>
		<path class="st1" d="M1525.3,2880.4V2698c0-82.7-1.8-178.6-4.3-237.8h41.9c-2.8,64.9-4.3,134.4-4.3,215.3v48.9h39.1v-48.9
			c0-82.7-1.8-157-4.4-215.3h42c-2.7,57.3-4.3,155.1-4.3,237.8v182.4c0,82.7,1.5,179.6,4.3,237.8h-42c2.1-58.3,4.4-132.6,4.4-215.3
			v-59.2h-39.1v59.2c0,76.1,0.8,148.5,4.3,215.3H1521C1523.8,3060.9,1525.3,2963.1,1525.3,2880.4z"/>
		<path class="st1" d="M1652.9,2880.4V2698c0-82.7-1.7-180.5-4.3-237.8h105.9l4.1,233.1c-4.1-17.9-14.3-32-23.4-32h-48.9v74.3h34.3
			c5.8,0,11.4-1.9,15.1-6.6v114.7c-3.7-5.6-9.3-7.5-15.1-7.5h-34.3v80.8h51.1c7.6,0,18.6-16,24.8-51.7l-5.8,252.9h-107.7
			C1651.4,3060,1652.9,2963.1,1652.9,2880.4z"/>
		<path class="st1" d="M1774.6,2880.4V2698c0-82.7-1.7-180.5-4.3-237.8h68.1c35.7,0,54.8,121.3,54.8,329s-19.1,329-54.8,329h-68.1
			C1773.1,3060,1774.6,2963.1,1774.6,2880.4z M1832.6,2903c17.8,0,26.8-36.7,26.8-113.8c0-77.1-9.2-113.8-26.8-113.8H1808V2903
			H1832.6z"/>
	</g>
</g>
<g>
	<g>
		<path class="st1" d="M42.2,2106.5v-182.4c0-82.7-1.3-180.5-3.4-237.8h84.7l3.2,233.1c-3.2-17.9-11.4-32-18.7-32H68.8v74.3h27.4
			c4.6,0,9.1-1.9,12.1-6.6v114.7c-3-5.6-7.5-7.5-12.1-7.5H68.8v80.9h40.8c6,0,14.9-16,19.8-51.7l-4.6,252.9H38.8
			C41,2286.1,42.2,2189.2,42.2,2106.5z"/>
		<path class="st1" d="M139.4,2106.5v-182.4c0-82.7-1.2-179.6-3.4-237.8h31.9l39.2,343.1h1.2v-115.6c0-90.2-1.7-184.2-3.2-227.5
			h33.5c-2.1,57.3-3.5,155.1-3.5,237.8v420.2h-23.7l-43.9-377.9h-1.3v114.7c0,89.3,1.7,214.3,3.4,263.2H136
			C138.1,2287,139.4,2189.2,139.4,2106.5z"/>
		<path class="st1" d="M266.9,2107.5l-10.4-183.3c-4.3-82.7-10.4-179.6-14.9-237.8h34.8c0.5,36.7,1.5,75.2,4,127.8l10.5,204.9
			c1.7,34.8,2.9,63.9,3.8,99.6h0.9c0.9-38.5,2-62,3.7-99.7l10.5-204.9c2.4-53.6,3.6-91.2,4-127.8h32.9
			c-4.7,58.3-10.7,155.1-15,237.8l-10.4,182.4c-4.2,82.7-8.3,179.6-9.6,237.8h-35.3C275,2284.2,271,2186.4,266.9,2107.5z"/>
		<path class="st1" d="M354.2,2106.5v-182.4c0-82.7-1.4-180.5-3.4-237.8h33.5c-2.1,57.3-3.5,155.1-3.5,237.8v182.4
			c0,82.7,1.2,179.6,3.5,237.8h-33.5C353,2286.1,354.2,2189.2,354.2,2106.5z"/>
		<path class="st1" d="M432.3,2086.8c-2.1,0-5.9,2.8-7.4,6.6v39.5c0,81.8,1.2,153.2,3.4,211.5h-33.5c2.2-58.3,3.4-155.1,3.4-237.8
			v-182.4c0-81.8-1.4-179.6-3.4-237.8h59.5c21,0,34.9,57.3,34.9,177.7c0,118.4-13.5,180.5-34.2,180.5h-6.2v11.3h0.5
			c12.3,0,11.9,70.5,25.1,70.5c9.7,0,15.5-48.9,17.8-97.8l0.1,267.9c-2.6,37.6-9.9,62-17.1,62
			C443.6,2358.5,454.8,2086.8,432.3,2086.8z M452.5,2000.3c6.1,0,10.5-16,10.5-48.9c0-36.7-4.3-50.8-10.5-50.8h-27.6v99.7
			L452.5,2000.3L452.5,2000.3z"/>
		<path class="st1" d="M496.1,2015.3c0-218.1,20.5-343.1,50.4-343.1s50.4,125,50.4,343.1s-20.5,343.1-50.4,343.1
			C516.6,2358.5,496.1,2233.4,496.1,2015.3z M570.3,2015.3c0-81.8-9.5-129.7-23.8-129.7c-14.3,0-23.8,47.9-23.8,129.7
			c0,81.8,9.5,130.7,23.8,130.7C560.8,2146,570.3,2097.1,570.3,2015.3z"/>
		<path class="st1" d="M607,2106.5v-182.4c0-82.7-1.2-179.6-3.4-237.8h31.9l39.2,343.1h1.2v-115.6c0-90.2-1.7-184.2-3.2-227.5H706
			c-2.1,57.3-3.5,155.1-3.5,237.8v420.2h-23.7l-44-377.9h-1.3v114.7c0,89.3,1.7,214.3,3.4,263.2h-33.5
			C605.6,2287,607,2189.2,607,2106.5z"/>
		<path class="st1" d="M719.9,2106.5v-182.4c0-82.7-1.2-179.6-3.3-237.8H751l17.6,263.2c3.1,44.2,4.7,73.3,7.4,133.5h1.2
			c2.7-57.3,4-82.7,7.5-133.5l17.7-263.2h33.5c-2.2,58.3-3.4,155.1-3.4,237.8v182.4c0,82.7,1.3,180.5,3.4,237.8h-33.4
			c1.6-44.2,3.3-163.6,3.3-251.9v-108.1h-1.5l-24.8,360h-6.9l-24.6-360h-1.2v108.1c0,88.4,1.7,207.8,3.4,251.9h-33.5
			C718.6,2287,719.9,2189.2,719.9,2106.5z"/>
		<path class="st1" d="M849.8,2106.5v-182.4c0-82.7-1.3-180.5-3.4-237.8H931l3.2,233.1c-3.2-17.9-11.4-32-18.7-32h-39.1v74.3h27.4
			c4.6,0,9.1-1.9,12.1-6.6v114.7c-3-5.6-7.5-7.5-12.1-7.5h-27.4v80.9h40.8c6,0,14.9-16,19.8-51.7l-4.6,252.9h-86.1
			C848.6,2286.1,849.8,2189.2,849.8,2106.5z"/>
		<path class="st1" d="M947,2106.5v-182.4c0-82.7-1.2-179.6-3.4-237.8h31.9l39.2,343.1h1.2v-115.6c0-90.2-1.7-184.2-3.2-227.5h33.5
			c-2.1,57.3-3.5,155.1-3.5,237.8v420.2h-23.7l-44-377.9h-1.3v114.7c0,89.3,1.7,214.3,3.4,263.2h-33.5
			C945.7,2287,947,2189.2,947,2106.5z"/>
		<path class="st1" d="M1084.4,2106.5v-209.6h-11.3c-10.4,0-16.7,5.6-21.8,21.6l4.9-232.2h82.9l4.9,232.2
			c-5.1-16-11.4-21.6-21.8-21.6H1111v209.6c0,82.7,1.3,179.6,3.4,237.8h-33.5C1083.2,2286.1,1084.4,2189.2,1084.4,2106.5z"/>
		<path class="st1" d="M1146.9,2106.5l10.4-182.4c4.2-82.7,8.3-179.6,9.6-237.8h38.1c1.4,60.2,5.4,157.9,9.6,236.9l10.4,183.3
			c4.2,82.7,10.2,179.6,14.8,237.8h-34c-0.4-30.1-1.2-61.1-3.3-117.5l-1.4-27.3h-30l-1.4,28.2c-2,55.5-3,86.5-3.5,116.6H1132
			C1136.7,2286.1,1142.6,2188.3,1146.9,2106.5z M1194.8,2094.3l-4.9-93.1c-1.8-39.5-2.6-73.3-3.4-114.7h-1.3
			c-0.9,44.2-1.6,72.4-3.5,114.7l-4.8,93.1H1194.8z"/>
		<path class="st1" d="M1266,2317.1c-11.4,0-19.4,26.3-23.4,41.4c2.2-58.3,3.4-169.2,3.4-251.9v-182.4c0-82.7-1.3-180.5-3.4-237.8
			h33.5c-2.1,57.3-3.5,219-3.5,301.8v145.7h25.1c8.9,0,18.1-16,23.1-40.4l-0.4,237.8c-0.7,0.9-7,27.3-14.5,27.3
			C1290.6,2358.5,1283.3,2317.1,1266,2317.1z"/>
		<path class="st1" d="M1352.4,2106.5v-182.4c0-82.7-1.3-180.5-3.4-237.8h33.5c-2.1,57.3-3.5,155.1-3.5,237.8v182.4
			c0,82.7,1.2,179.6,3.5,237.8H1349C1351.1,2286.1,1352.4,2189.2,1352.4,2106.5z"/>
		<path class="st1" d="M1389.4,2288l1-250.1c10.6,78,26.7,117.5,47.6,117.5c11.3,0,17.4-10.3,17.4-43.2
			c0-102.5-65.7,35.7-65.7-247.2c0-146.7,19.8-192.7,45.4-192.7c12.3,0,28.9,18.8,39.8,59.2v219c-10.1-49.8-24.3-77.1-38.8-77.1
			c-10-0.9-18.2,8.5-18.2,43.2c0,109.1,65.7-47.9,65.7,230.3c0,138.2-15.8,211.5-45.1,211.5
			C1424.7,2358.5,1400.8,2327.4,1389.4,2288z"/>
		<path class="st1" d="M1486.7,2288l1-250.1c10.6,78,26.7,117.5,47.6,117.5c11.3,0,17.4-10.3,17.4-43.2
			c0-102.5-65.7,35.7-65.7-247.2c0-146.7,19.8-192.7,45.4-192.7c12.3,0,28.9,18.8,39.8,59.2v219c-10.1-49.8-24.3-77.1-38.8-77.1
			c-10-0.9-18.2,8.5-18.2,43.2c0,109.1,65.7-47.9,65.7,230.3c0,138.2-15.8,211.5-45.1,211.5C1522,2358.5,1498,2327.4,1486.7,2288z"
			/>
		<path class="st1" d="M1590.2,2026.6v-102.5c0-81.8-1.3-179.6-3.4-237.8h33.4c-2.1,58.3-3.3,165.4-3.3,248.2v64.9
			c0,86.5,6.7,152.3,16.4,152.3c9.6,0,16.3-65.8,16.3-152.3v-64.9c0-82.7-1.3-189.9-3.4-248.2h33.5c-2.1,58.3-3.4,156.1-3.4,237.8
			v102.5c0,210.6-13.1,331.8-43,331.8C1603.2,2358.5,1590.2,2237.2,1590.2,2026.6z"/>
		<path class="st1" d="M1692.5,2106.5v-182.4c0-82.7-1.3-180.5-3.4-237.8h84.7l3.2,233.1c-3.2-17.9-11.4-32-18.7-32h-39.1v74.3h27.4
			c4.6,0,9.1-1.9,12.1-6.6v114.7c-3-5.6-7.5-7.5-12.1-7.5h-27.4v80.9h40.8c6,0,14.9-16,19.8-51.7l-4.6,252.9h-86.1
			C1691.3,2286.1,1692.5,2189.2,1692.5,2106.5z"/>
		<path class="st1" d="M1782.6,2288l1-250.1c10.6,78,26.7,117.5,47.6,117.5c11.3,0,17.4-10.3,17.4-43.2
			c0-102.5-65.7,35.7-65.7-247.2c0-146.7,19.8-192.7,45.4-192.7c12.3,0,28.9,18.8,39.8,59.2v219c-10.1-49.8-24.3-77.1-38.8-77.1
			c-10-0.9-18.2,8.5-18.2,43.2c0,109.1,65.7-47.9,65.7,230.3c0,138.2-15.8,211.5-45.1,211.5C1817.9,2358.5,1794,2327.4,1782.6,2288z
			"/>
	</g>
</g>
<g>
	<g>
		<path class="st1" d="M41,3577.2c0-218.1,17.4-343.1,42.7-343.1s42.7,125,42.7,343.1s-17.4,343.1-42.7,343.1S41,3795.3,41,3577.2z
			 M103.7,3577.2c0-81.8-8.1-129.7-20.1-129.7c-12.1,0-20.1,47.9-20.1,129.7s8,130.7,20.1,130.7
			C95.7,3707.9,103.7,3659,103.7,3577.2z"/>
		<path class="st1" d="M134.7,3668.4V3486c0-81.8-1.1-179.6-2.9-237.8H181c18.4,0,29.9,91.2,29.9,251c0,160.8-9.3,267.9-27,267.9
			c-13.9,0-23.3-67.7-25.8-181.4h-0.8v86.5c0,81.8,1,175.8,2.9,234.1h-28.3C133.8,3847.9,134.7,3751.1,134.7,3668.4z M188.8,3511.4
			c0-49.8-4-77.1-12.3-77.1c-6.9,0-12.8,2.8-19.1,16v31c0,74.3,6.6,120.3,17.1,120.3C182.2,3601.7,188.8,3565.9,188.8,3511.4z"/>
		<path class="st1" d="M218.8,3668.4V3486c0-82.7-1.1-180.5-2.9-237.8h28.3c-1.8,57.3-3,155.1-3,237.8v182.4c0,82.7,1,179.6,3,237.8
			h-28.3C217.8,3847.9,218.8,3751.1,218.8,3668.4z"/>
		<path class="st1" d="M256.1,3668.4V3486c0-82.7-1-179.6-2.9-237.8h27l33.1,343.1h1v-115.6c0-90.2-1.5-184.2-2.7-227.5h28.3
			c-1.8,57.3-3,155.1-3,237.8v420.2h-20l-37.2-377.9h-1.1V3643c0,89.3,1.5,214.3,2.9,263.2h-28.3
			C254.9,3848.9,256.1,3751.1,256.1,3668.4z"/>
		<path class="st1" d="M351.7,3668.4V3486c0-82.7-1.1-180.5-2.9-237.8h28.3c-1.8,57.3-3,155.1-3,237.8v182.4c0,82.7,1,179.6,3,237.8
			h-28.3C350.6,3847.9,351.7,3751.1,351.7,3668.4z"/>
		<path class="st1" d="M383.2,3577.2c0-218.1,17.4-343.1,42.7-343.1s42.7,125,42.7,343.1s-17.4,343.1-42.7,343.1
			S383.2,3795.3,383.2,3577.2z M446,3577.2c0-81.8-8.1-129.7-20.1-129.7c-12.1,0-20.1,47.9-20.1,129.7s8,130.7,20.1,130.7
			C437.9,3707.9,446,3659,446,3577.2z"/>
		<path class="st1" d="M477,3668.4V3486c0-82.7-1-179.6-2.9-237.8h27l33.1,343.1h1v-115.6c0-90.2-1.5-184.2-2.7-227.5h28.3
			c-1.8,57.3-3,155.1-3,237.8v420.2h-20l-37.2-377.9h-1.1V3643c0,89.3,1.5,214.3,2.9,263.2h-28.3
			C475.9,3848.9,477,3751.1,477,3668.4z"/>
		<path class="st1" d="M566.6,3849.8l0.8-250.1c9,78,22.5,117.5,40.3,117.5c9.5,0,14.7-10.3,14.7-43.2c0-102.5-55.5,35.7-55.5-247.2
			c0-146.6,16.8-192.7,38.4-192.7c10.4,0,24.5,18.8,33.7,59.2v219c-8.5-49.8-20.6-77.1-32.8-77.1c-8.5-0.9-15.4,8.5-15.4,43.2
			c0,109.1,55.5-47.9,55.5,230.3c0,138.2-13.4,211.5-38.2,211.5C596.5,3920.3,576.2,3889.3,566.6,3849.8z"/>
		<path class="st1" d="M669,3577.2c0-218.1,17.4-343.1,42.7-343.1s42.7,125,42.7,343.1s-17.4,343.1-42.7,343.1
			S669,3795.3,669,3577.2z M731.8,3577.2c0-81.8-8.1-129.7-20.1-129.7c-12.1,0-20.1,47.9-20.1,129.7s8,130.7,20.1,130.7
			C723.7,3707.9,731.8,3659,731.8,3577.2z"/>
		<path class="st1" d="M762.8,3668.4V3486c0-82.7-1-179.6-2.9-237.8h27l33.1,343.1h1v-115.6c0-90.2-1.5-184.2-2.7-227.5h28.3
			c-1.8,57.3-3,155.1-3,237.8v420.2h-20l-37.2-377.9h-1.1V3643c0,89.3,1.5,214.3,2.9,263.2h-28.3
			C761.7,3848.9,762.8,3751.1,762.8,3668.4z"/>
		<path class="st1" d="M877,3588.5V3486c0-81.8-1.1-179.6-2.9-237.8h28.3c-1.8,58.3-2.8,165.4-2.8,248.2v64.9
			c0,86.5,5.6,152.3,13.9,152.3c8.2,0,13.8-65.8,13.8-152.3v-64.9c0-82.7-1.1-189.9-2.9-248.2h28.3c-1.8,58.3-2.9,156.1-2.9,237.8
			v102.5c0,210.6-11,331.8-36.3,331.8C888,3920.3,877,3799.1,877,3588.5z"/>
		<path class="st1" d="M957.8,3577.2c0-220,16.9-343.1,43-343.1c11.7,0,20.1,14.1,30.3,43.2l-1.3,223.7c-5.9-36.7-16.7-61.1-28-61.1
			c-13.4,0-22.1,47-22.1,137.2c0,81.8,7.8,138.2,21.2,138.2c6.2,0,12.1-17.9,16.4-50.8V3627h-13.1c-2.1,0-5.4,4.7-7.2,12.2l0.2-94
			h40.1v247.2c-7.2,77.1-20.1,127.9-36.6,127.9C974.7,3920.3,957.8,3797.2,957.8,3577.2z"/>
		<path class="st1" d="M1064.1,3879c-9.7,0-16.4,26.3-19.8,41.4c1.8-58.3,2.9-169.2,2.9-251.9V3486c0-82.7-1.1-180.5-2.9-237.8h28.3
			c-1.8,57.3-3,219-3,301.8v145.7h21.2c7.5,0,15.3-16,19.5-40.4l-0.3,237.8c-0.6,0.9-5.9,27.3-12.3,27.3
			C1084.8,3920.3,1078.7,3879,1064.1,3879z"/>
		<path class="st1" d="M1134.3,3688.1v-43.2l-22.9-281.1c-3.7-44.2-8.4-90.2-11.6-115.6h30.9c1.8,38.5,3.7,71.4,6.8,115.6l7.5,104.4
			h0.8l7.5-104.4c3.2-44.2,5.1-77.1,6.9-115.6h30.9c-3.1,25.4-7.9,71.4-11.5,115.6l-22.9,284.8v43.2c0,78,0.9,161.7,2.2,213.4H1132
			C1133.2,3852.6,1134.3,3767.1,1134.3,3688.1z"/>
		<path class="st1" d="M1213.9,3668.4V3486c0-81.8-1.1-179.6-2.9-237.8h49.1c18.4,0,29.9,91.2,29.9,251c0,160.8-9.3,267.9-27,267.9
			c-13.9,0-23.3-67.7-25.8-181.4h-0.8v86.5c0,81.8,1,175.8,2.9,234.1H1211C1212.9,3847.9,1213.9,3751.1,1213.9,3668.4z
			 M1267.9,3511.4c0-49.8-4-77.1-12.3-77.1c-6.9,0-12.8,2.8-19.1,16v31c0,74.3,6.6,120.3,17.1,120.3
			C1261.3,3601.7,1267.9,3565.9,1267.9,3511.4z"/>
		<path class="st1" d="M1326.8,3648.7c-1.8,0-4.9,2.8-6.2,6.6v39.5c0,81.8,1,153.2,2.9,211.5h-28.3c1.9-58.3,2.9-155.1,2.9-237.8
			V3486c0-81.8-1.1-179.6-2.9-237.8h50.3c17.8,0,29.5,57.3,29.5,177.7c0,118.4-11.4,180.5-28.9,180.5h-5.3v11.3h0.4
			c10.4,0,10.1,70.5,21.2,70.5c8.2,0,13.1-48.9,15.1-97.8l0.1,267.9c-2.2,37.6-8.4,62-14.5,62
			C1336.3,3920.3,1345.7,3648.7,1326.8,3648.7z M1343.8,3562.2c5.2,0,8.8-16,8.8-48.9c0-36.7-3.7-50.8-8.8-50.8h-23.3v99.6
			L1343.8,3562.2L1343.8,3562.2z"/>
		<path class="st1" d="M1380.7,3577.2c0-218.1,17.4-343.1,42.7-343.1s42.7,125,42.7,343.1s-17.4,343.1-42.7,343.1
			C1398.1,3920.3,1380.7,3795.3,1380.7,3577.2z M1443.5,3577.2c0-81.8-8.1-129.7-20.1-129.7c-12.1,0-20.1,47.9-20.1,129.7
			s8,130.7,20.1,130.7C1435.4,3707.9,1443.5,3659,1443.5,3577.2z"/>
		<path class="st1" d="M1474.5,3668.4V3486c0-82.7-1.1-180.5-2.9-237.8h46c24.2,0,37,121.3,37,329s-12.9,329-37,329h-46
			C1473.5,3847.9,1474.5,3751.1,1474.5,3668.4z M1513.7,3691c12,0,18.1-36.7,18.1-113.8s-6.2-113.8-18.1-113.8H1497V3691H1513.7z"/>
		<path class="st1" d="M1562.2,3588.5V3486c0-81.8-1.1-179.6-2.9-237.8h28.3c-1.8,58.3-2.8,165.4-2.8,248.2v64.9
			c0,86.5,5.6,152.3,13.9,152.3c8.2,0,13.8-65.8,13.8-152.3v-64.9c0-82.7-1.1-189.9-2.9-248.2h28.3c-1.8,58.3-2.9,156.1-2.9,237.8
			v102.5c0,210.6-11.1,331.8-36.3,331.8C1573.3,3920.3,1562.2,3799.1,1562.2,3588.5z"/>
		<path class="st1" d="M1643,3577.2c0-238.8,18.7-343.1,43.1-343.1c13.4,0,24.2,34.8,31.5,75.2l-2.8,230.3
			c-4.6-48.9-14.2-90.2-26.1-90.2c-12.8,0-23.2,40.4-23.2,126c0,86.5,10.7,129.7,26.4,129.7c10.8,0,20.1-29.1,27.1-83.7v254.8
			c-8.2,26.3-18.3,44.2-31.7,44.2C1663.1,3920.3,1643,3816,1643,3577.2z"/>
		<path class="st1" d="M1748.3,3668.4v-209.6h-9.5c-8.8,0-14.1,5.6-18.4,21.6l4.2-232.2h70.2l4.2,232.2c-4.3-16-9.7-21.6-18.4-21.6
			h-9.6v209.6c0,82.7,1.1,179.6,2.9,237.8h-28.3C1747.3,3847.9,1748.3,3751.1,1748.3,3668.4z"/>
		<path class="st1" d="M1799.3,3849.8l0.8-250.1c9,78,22.6,117.5,40.3,117.5c9.5,0,14.7-10.3,14.7-43.2
			c0-102.5-55.5,35.7-55.5-247.2c0-146.6,16.8-192.7,38.4-192.7c10.4,0,24.4,18.8,33.7,59.2v219c-8.5-49.8-20.6-77.1-32.8-77.1
			c-8.5-0.9-15.4,8.5-15.4,43.2c0,109.1,55.5-47.9,55.5,230.3c0,138.2-13.4,211.5-38.2,211.5
			C1829.2,3920.3,1808.9,3889.3,1799.3,3849.8z"/>
	</g>
</g>
<g>
	<path class="st1" d="M2462.8-1054.6v-111.2c0-88.8-1.8-194.9-4.7-258.1h45.6c-2.8,63.2-4.6,179.6-4.6,269.3v70.4
		c0,93.9,9.1,165.3,22.4,165.3c13.1,0,22.2-71.4,22.2-165.3v-70.4c0-89.8-1.8-206.1-4.7-269.3h45.7c-2.8,63.2-4.7,169.4-4.7,258.1
		v111.2c0,228.5-17.8,360.1-58.6,360.1C2480.7-694.5,2462.8-826.1,2462.8-1054.6z"/>
	<path class="st1" d="M2593.2-1066.9c0-238.7,27.3-372.4,69.4-372.4c18.8,0,32.4,15.3,48.9,46.9l-2.1,242.8
		c-9.6-39.8-26.9-66.3-45.1-66.3c-21.6,0-35.6,51-35.6,148.9c0,88.8,12.5,150,34.3,150c9.9,0,19.5-19.4,26.4-55.1v-40.8h-21.1
		c-3.3,0-8.7,5.1-11.6,13.3l0.4-102h64.6v268.3c-11.7,83.7-32.4,138.8-59,138.8C2620.5-694.5,2593.2-828.1,2593.2-1066.9z"/>
	<path class="st1" d="M2764.6-739.4c-15.6,0-26.5,28.6-31.9,44.9c2.9-63.2,4.7-183.6,4.7-273.4v-197.9c0-89.8-1.8-195.9-4.7-258.1
		h45.7c-2.8,62.2-4.8,237.7-4.8,327.5v158.1h34.3c12.2,0,24.7-17.3,31.4-43.9l-0.5,258.1c-1,1-9.6,29.6-19.8,29.6
		C2798.1-694.5,2788.2-739.4,2764.6-739.4z"/>
	<path class="st1" d="M2877.9-946.5v-46.9l-37-305c-5.9-47.9-13.6-97.9-18.7-125.5h49.9c2.8,41.8,5.9,77.5,11.1,125.5l12.2,113.2
		h1.4l12-113.2c5.2-47.9,8.2-83.7,11.1-125.5h49.9c-5,27.5-12.8,77.5-18.6,125.5l-37,309.1v46.9c0,84.7,1.5,175.5,3.6,231.6h-43.5
		C2876.2-767.9,2877.9-860.8,2877.9-946.5z"/>
	<path class="st1" d="M3022-966.9l-14.1-198.9c-5.9-89.8-14.1-194.9-20.4-258.1h47.4c0.7,39.8,2.1,81.6,5.5,138.8l14.4,222.4
		c2.3,37.8,3.9,69.4,5.2,108.1h1.2c1.2-41.8,2.7-67.3,5-108.1l14.4-222.4c3.3-58.1,4.9-99,5.5-138.8h44.9
		c-6.4,63.2-14.6,168.3-20.5,258.1l-14.1,197.9c-5.8,89.8-11.3,194.9-13.1,258.1H3035C3033.1-775.1,3027.6-881.2,3022-966.9z"/>
	<path class="st1" d="M3141.2-967.9v-197.9c0-89.8-1.8-195.9-4.7-258.1H3252l4.4,253c-4.4-19.4-15.6-34.7-25.6-34.7h-53.3v80.6h37.4
		c6.3,0,12.4-2,16.5-7.1v124.5c-4.1-6.1-10.2-8.2-16.5-8.2h-37.4v87.7h55.7c8.2,0,20.3-17.3,27-56.1l-6.3,274.4h-117.4
		C3139.6-773,3141.2-878.1,3141.2-967.9z"/>
	<path class="st1" d="M3262.8-1066.9c0-238.7,27.3-372.4,69.4-372.4c18.8,0,32.4,15.3,48.9,46.9l-2.1,242.8
		c-9.6-39.8-26.9-66.3-45.1-66.3c-21.6,0-35.6,51-35.6,148.9c0,88.8,12.5,150,34.3,150c9.9,0,19.5-19.4,26.4-55.1v-40.8h-21.1
		c-3.3,0-8.7,5.1-11.6,13.3l0.4-102h64.6v268.3c-11.7,83.7-32.4,138.8-59,138.8C3290.1-694.5,3262.8-828.1,3262.8-1066.9z"/>
	<path class="st1" d="M3406.9-967.9v-197.9c0-89.8-1.8-195.9-4.7-258.1h115.5l4.4,253c-4.4-19.4-15.6-34.7-25.6-34.7h-53.3v80.6
		h37.4c6.3,0,12.4-2,16.5-7.1v124.5c-4.1-6.1-10.2-8.2-16.5-8.2h-37.4v87.7h55.7c8.2,0,20.3-17.3,27-56.1l-6.3,274.4h-117.4
		C3405.3-773,3406.9-878.1,3406.9-967.9z"/>
	<path class="st1" d="M3572.8-967.9v-227.5h-15.4c-14.1,0-22.7,6.1-29.7,23.5l6.8-252h113.2l6.8,252c-7-17.3-15.6-23.5-29.7-23.5
		h-15.5v227.5c0,89.8,1.7,194.9,4.7,258.1h-45.7C3571.2-773,3572.8-878.1,3572.8-967.9z"/>
	<path class="st1" d="M3658.1-967.9l14.1-197.9c5.8-89.8,11.3-194.9,13.1-258.1h52c2,65.3,7.4,171.4,13,257.1l14.2,198.9
		c5.8,89.8,13.9,194.9,20.1,258.1h-46.4c-0.5-32.7-1.6-66.3-4.6-127.5l-2-29.6h-40.9l-2,30.6c-2.7,60.2-4.1,93.9-4.8,126.5h-46.3
		C3644.2-773,3652.3-879.2,3658.1-967.9z M3723.4-981.2l-6.6-101c-2.5-42.9-3.6-79.6-4.7-124.5h-1.7c-1.2,48-2.2,78.6-4.8,124.5
		l-6.5,101H3723.4z"/>
	<path class="st1" d="M3793.3-967.9v-197.9c0-89.8-1.8-195.9-4.7-258.1h88c16.7,0,30.4,54.1,30.4,168.3
		c0,110.2-12.9,166.3-29.2,166.3h-3.6v12.2h6.1c18.4,0,33.8,55.1,33.8,181.6s-15.2,185.7-34.8,185.7h-90.7
		C3791.6-773,3793.3-878.1,3793.3-967.9z M3864.7-1125c4.7,0,8.5-14.3,8.5-44.9c0-31.6-3.7-44.9-8.4-44.9h-35.3v89.8L3864.7-1125
		L3864.7-1125z M3866.9-924c6.1,0,10.2-16.3,10.2-52c0-37.8-4.2-54.1-10.3-54.1h-37.2V-924H3866.9z"/>
	<path class="st1" d="M3955.4-739.4c-15.6,0-26.5,28.6-31.9,44.9c2.9-63.2,4.7-183.6,4.7-273.4v-197.9c0-89.8-1.8-195.9-4.7-258.1
		h45.7c-2.8,62.2-4.8,237.7-4.8,327.5v158.1h34.3c12.2,0,24.7-17.3,31.4-43.9l-0.5,258.1c-1,1-9.6,29.6-19.8,29.6
		C3988.9-694.5,3979-739.4,3955.4-739.4z"/>
	<path class="st1" d="M4044.7-967.9v-197.9c0-89.8-1.8-195.9-4.7-258.1h115.5l4.4,253c-4.4-19.4-15.6-34.7-25.6-34.7h-53.3v80.6
		h37.4c6.3,0,12.4-2,16.5-7.1v124.5c-4-6.1-10.2-8.2-16.5-8.2h-37.4v87.7h55.7c8.2,0,20.3-17.3,27-56.1l-6.3,274.4H4040
		C4043.1-773,4044.7-878.1,4044.7-967.9z"/>
	<path class="st1" d="M4167.7-771l1.4-271.4c14.5,84.7,36.4,127.5,65,127.5c15.4,0,23.7-11.2,23.7-46.9
		c0-111.2-89.6,38.8-89.6-268.3c0-159.2,27-209.1,61.9-209.1c16.8,0,39.4,20.4,54.3,64.3v237.7c-13.8-54.1-33.2-83.7-53-83.7
		c-13.6-1-24.8,9.2-24.8,46.9c0,118.3,89.6-52,89.6,250c0,150-21.6,229.5-61.6,229.5C4215.9-694.5,4183.2-728.2,4167.7-771z"/>
</g>
<g>
	<path class="st1" d="M-2641.6,391.5V280.3c0-88.8-1.8-194.9-4.7-258.1h45.6c-2.8,63.2-4.6,179.6-4.6,269.3v70.4
		c0,93.9,9.1,165.3,22.4,165.3c13.1,0,22.2-71.4,22.2-165.3v-70.4c0-89.8-1.8-206.1-4.7-269.3h45.7c-2.8,63.2-4.7,169.4-4.7,258.1
		v111.2c0,228.5-17.8,360.1-58.6,360.1C-2623.8,751.6-2641.6,620-2641.6,391.5z"/>
	<path class="st1" d="M-2511.3,379.3c0-238.7,27.3-372.4,69.4-372.4c18.8,0,32.4,15.3,48.9,46.9l-2.1,242.8
		c-9.6-39.8-26.9-66.3-45.1-66.3c-21.6,0-35.6,51-35.6,149c0,88.8,12.5,150,34.3,150c9.9,0,19.5-19.4,26.4-55.1v-40.8h-21.1
		c-3.3,0-8.7,5.1-11.6,13.3l0.4-102h64.6v268.3c-11.7,83.7-32.4,138.8-59,138.8C-2484,751.6-2511.3,618-2511.3,379.3z"/>
	<path class="st1" d="M-2339.9,706.7c-15.6,0-26.5,28.6-31.9,44.9c2.9-63.2,4.7-183.6,4.7-273.4V280.3c0-89.8-1.8-195.9-4.7-258.1
		h45.7c-2.8,62.2-4.8,237.7-4.8,327.5v158.1h34.3c12.2,0,24.7-17.3,31.4-43.9l-0.5,258.1c-1,1-9.6,29.6-19.8,29.6
		C-2306.3,751.6-2316.3,706.7-2339.9,706.7z"/>
	<path class="st1" d="M-2226.6,499.6v-46.9l-37-305c-5.9-47.9-13.6-97.9-18.7-125.5h49.9c2.8,41.8,5.9,77.5,11.1,125.5l12.2,113.2
		h1.4l12-113.2c5.2-47.9,8.2-83.7,11.1-125.5h49.9c-5,27.5-12.8,77.5-18.6,125.5l-37,309.1v46.9c0,84.7,1.5,175.5,3.6,231.6h-43.5
		C-2228.3,678.2-2226.6,585.3-2226.6,499.6z"/>
	<path class="st1" d="M-2082.5,479.2l-14.1-198.9c-5.9-89.8-14.1-194.9-20.4-258.1h47.4c0.7,39.8,2.1,81.6,5.5,138.8l14.4,222.4
		c2.3,37.8,3.9,69.4,5.2,108.1h1.2c1.2-41.8,2.7-67.3,5-108.1l14.4-222.4c3.3-58.2,4.9-99,5.5-138.8h44.8
		c-6.4,63.2-14.6,168.3-20.5,258.1l-14.1,197.9c-5.8,89.8-11.3,194.9-13.2,258.1h-48.2C-2071.4,671-2076.8,564.9-2082.5,479.2z"/>
	<path class="st1" d="M-1963.3,478.2V280.3c0-89.8-1.8-195.9-4.7-258.1h115.5l4.4,253c-4.4-19.4-15.6-34.7-25.6-34.7h-53.3v80.6
		h37.3c6.3,0,12.4-2,16.5-7.1v124.5c-4.1-6.1-10.2-8.2-16.5-8.2h-37.3V518h55.7c8.2,0,20.3-17.3,27-56.1l-6.3,274.4h-117.4
		C-1964.9,673.1-1963.3,568-1963.3,478.2z"/>
	<path class="st1" d="M-1841.7,379.3c0-238.7,27.3-372.4,69.4-372.4c18.8,0,32.4,15.3,48.9,46.9l-2.1,242.8
		c-9.6-39.8-26.9-66.3-45.1-66.3c-21.6,0-35.6,51-35.6,149c0,88.8,12.5,150,34.3,150c9.9,0,19.5-19.4,26.4-55.1v-40.8h-21.1
		c-3.3,0-8.7,5.1-11.6,13.3l0.4-102h64.6v268.3c-11.7,83.7-32.4,138.8-59,138.8C-1814.4,751.6-1841.7,618-1841.7,379.3z"/>
	<path class="st1" d="M-1697.5,478.2V280.3c0-89.8-1.8-195.9-4.7-258.1h115.5l4.4,253c-4.4-19.4-15.6-34.7-25.6-34.7h-53.3v80.6
		h37.3c6.3,0,12.4-2,16.5-7.1v124.5c-4.1-6.1-10.2-8.2-16.5-8.2h-37.3V518h55.7c8.2,0,20.3-17.3,27-56.1l-6.3,274.4h-117.4
		C-1699.1,673.1-1697.5,568-1697.5,478.2z"/>
	<path class="st1" d="M-1531.7,478.2V250.7h-15.4c-14.1,0-22.7,6.1-29.7,23.5l6.8-252h113.2l6.8,252c-7-17.3-15.6-23.5-29.7-23.5
		h-15.5v227.5c0,89.8,1.7,194.9,4.7,258.1h-45.7C-1533.3,673.1-1531.7,568-1531.7,478.2z"/>
	<path class="st1" d="M-1446.4,478.2l14.1-197.9c5.8-89.8,11.3-194.9,13.2-258.1h52c2,65.3,7.4,171.4,13,257.1l14.2,198.9
		c5.8,89.8,13.9,194.9,20.2,258.1h-46.4c-0.5-32.7-1.6-66.3-4.6-127.5l-2-29.6h-40.9l-2,30.6c-2.7,60.2-4.1,93.9-4.8,126.5h-46.3
		C-1460.3,673.1-1452.2,567-1446.4,478.2z M-1381,465l-6.6-101c-2.5-42.9-3.6-79.6-4.7-124.5h-1.7c-1.2,48-2.2,78.6-4.8,124.5
		l-6.5,101H-1381z"/>
	<path class="st1" d="M-1311.1,478.2V280.3c0-89.8-1.8-195.9-4.7-258.1h88c16.7,0,30.3,54.1,30.3,168.3
		c0,110.2-12.9,166.3-29.2,166.3h-3.6v12.2h6.1c18.4,0,33.8,55.1,33.8,181.6s-15.2,185.7-34.8,185.7h-90.7
		C-1312.8,673.1-1311.1,568-1311.1,478.2z M-1239.7,321.1c4.7,0,8.5-14.3,8.5-44.9c0-31.6-3.7-44.9-8.3-44.9h-35.3v89.8
		L-1239.7,321.1L-1239.7,321.1z M-1237.5,522.1c6.1,0,10.2-16.3,10.2-52c0-37.8-4.2-54.1-10.3-54.1h-37.2v106.1H-1237.5z"/>
	<path class="st1" d="M-1149.1,706.7c-15.6,0-26.5,28.6-31.9,44.9c2.9-63.2,4.7-183.6,4.7-273.4V280.3c0-89.8-1.8-195.9-4.7-258.1
		h45.7c-2.8,62.2-4.8,237.7-4.8,327.5v158.1h34.3c12.2,0,24.7-17.3,31.4-43.9l-0.5,258.1c-1,1-9.6,29.6-19.8,29.6
		C-1115.5,751.6-1125.5,706.7-1149.1,706.7z"/>
	<path class="st1" d="M-1059.7,478.2V280.3c0-89.8-1.8-195.9-4.7-258.1h115.5l4.4,253c-4.4-19.4-15.6-34.7-25.6-34.7h-53.3v80.6
		h37.3c6.3,0,12.4-2,16.5-7.1v124.5c-4-6.1-10.2-8.2-16.5-8.2h-37.3V518h55.7c8.2,0,20.3-17.3,27-56.1l-6.3,274.4h-117.5
		C-1061.3,673.1-1059.7,568-1059.7,478.2z"/>
	<path class="st1" d="M-936.7,675.1l1.3-271.4c14.5,84.7,36.4,127.5,65,127.5c15.4,0,23.7-11.2,23.7-46.9
		c0-111.2-89.6,38.8-89.6-268.3c0-159.1,27-209.1,61.9-209.1c16.8,0,39.4,20.4,54.3,64.3v237.7c-13.8-54.1-33.2-83.7-53-83.7
		c-13.6-1-24.8,9.2-24.8,46.9c0,118.3,89.6-52,89.6,250c0,150-21.6,229.5-61.6,229.5C-888.6,751.6-921.3,718-936.7,675.1z"/>
</g>
</svg>
