<?xml version="1.0" encoding="utf-8"?>
<!-- Generator: Adobe Illustrator 26.0.2, SVG Export Plug-In . SVG Version: 6.00 Build 0)  -->
<svg version="1.1" id="레이어_1" xmlns="http://www.w3.org/2000/svg" xmlns:xlink="http://www.w3.org/1999/xlink" x="0px"
	 y="0px" viewBox="0 0 1920 758.5" style="enable-background:new 0 0 1920 758.5;" xml:space="preserve">
<style type="text/css">
	.st0{fill:#FFFFFF;}
	.st1{enable-background:new    ;}
</style>
<g>
	<g>
		<path class="st0" d="M61.2-2410.4l-7.4-192.8C50.1-2693,45-2798.1,41-2861.4h33.9c0.2,39.8,0.8,82.6,2.9,138.8l8.3,212.2
			c1.5,38.8,2.5,72.4,3.7,113.2h0.8l13.8-464.2h19.1l13.8,464.2h0.8c1.1-39.8,2.2-74.5,3.7-114.3l8.3-211.2
			c2.1-56.1,2.7-99,2.9-138.8h33.9c-4.1,63.2-9.2,168.3-12.8,258.1l-7.4,192.8c-3.5,87.7-6.8,195.9-7.9,263.2h-31.1l-13.2-446.9
			h-0.9l-13.2,446.9H69.2C68-2214.5,64.7-2322.7,61.2-2410.4z"/>
		<path class="st0" d="M194.5-2405.3v-197.9c0-89.8-1.4-193.8-3.4-258.1h32.8c-2.2,70.4-3.4,145.9-3.4,233.6v53.1h30.6v-53.1
			c0-89.8-1.4-170.4-3.4-233.6h32.9c-2.1,62.2-3.4,168.3-3.4,258.1v197.9c0,89.8,1.1,194.9,3.4,258.1h-32.9
			c1.7-63.2,3.4-143.9,3.4-233.6v-64.3h-30.6v64.3c0,82.6,0.6,161.2,3.4,233.6h-32.8C193.4-2209.4,194.5-2315.5,194.5-2405.3z"/>
		<path class="st0" d="M297.9-2405.3l10.1-197.9c4.1-89.8,8.1-194.9,9.4-258.1h37.3c1.4,65.3,5.3,171.4,9.3,257.1l10.2,198.9
			c4.1,89.8,10,194.9,14.5,258.1h-33.3c-0.4-32.6-1.1-66.3-3.3-127.5l-1.4-29.6h-29.4l-1.4,30.6c-1.9,60.2-2.9,93.9-3.4,126.5h-33.2
			C287.9-2210.4,293.7-2316.6,297.9-2405.3z M344.7-2418.6l-4.8-101c-1.8-42.9-2.6-79.6-3.4-124.5h-1.2
			c-0.9,47.9-1.6,78.6-3.4,124.5l-4.7,101H344.7z"/>
		<path class="st0" d="M409.2-2405.3v-227.5h-11c-10.1,0-16.3,6.1-21.3,23.5l4.9-252h81.2l4.9,252c-5-17.3-11.2-23.5-21.3-23.5
			h-11.1v227.5c0,89.8,1.2,194.9,3.4,258.1h-32.8C408-2210.4,409.2-2315.5,409.2-2405.3z"/>
		<path class="st0" d="M496.5-2405.3v-197.9c0-89.8-1.3-195.9-3.4-258.1h32.8c-2,62.2-3.4,168.3-3.4,258.1v197.9
			c0,89.8,1.2,194.9,3.4,258.1h-32.8C495.3-2210.4,496.5-2315.5,496.5-2405.3z"/>
		<path class="st0" d="M532.7-2208.4l1-271.4c10.4,84.7,26.1,127.5,46.6,127.5c11,0,17-11.2,17-46.9c0-111.2-64.2,38.8-64.2-268.3
			c0-159.1,19.4-209.1,44.4-209.1c12.1,0,28.3,20.4,39,64.3v237.7c-9.9-54.1-23.8-83.7-38-83.7c-9.8-1-17.8,9.2-17.8,46.9
			c0,118.3,64.2-52,64.2,249.9c0,150-15.5,229.6-44.2,229.6C567.3-2131.9,543.8-2165.6,532.7-2208.4z"/>
		<path class="st0" d="M656.6-2492v-111.2c0-88.8-1.3-194.9-3.3-258.1H686c-2,63.2-3.3,179.6-3.3,269.3v70.4
			c0,93.9,6.5,165.3,16,165.3c9.4,0,16-71.4,16-165.3v-70.4c0-89.8-1.3-206.1-3.3-269.3h32.8c-2,63.2-3.3,169.4-3.3,258.1v111.2
			c0,228.5-12.8,360.1-42,360.1C669.4-2131.9,656.6-2263.5,656.6-2492z"/>
		<path class="st0" d="M750.1-2504.3c0-238.7,19.6-372.4,49.8-372.4c13.5,0,23.3,15.3,35.1,46.9l-1.5,242.8
			c-6.9-39.8-19.3-66.3-32.3-66.3c-15.5,0-25.6,51-25.6,148.9c0,88.8,9,150,24.6,150c7.1,0,14-19.4,19-55.1v-40.8H804
			c-2.4,0-6.3,5.1-8.3,13.3l0.3-102h46.3v268.3c-8.4,83.7-23.3,138.8-42.3,138.8C769.7-2131.9,750.1-2265.6,750.1-2504.3z"/>
		<path class="st0" d="M873.1-2176.8c-11.2,0-19,28.6-22.9,44.9c2.1-63.2,3.3-183.6,3.3-273.4v-197.9c0-89.8-1.3-195.9-3.3-258.1
			h32.8c-2,62.2-3.4,237.7-3.4,327.5v158.1h24.6c8.7,0,17.7-17.3,22.6-43.9l-0.3,258.1c-0.7,1-6.9,29.6-14.2,29.6
			C897.1-2131.9,890-2176.8,873.1-2176.8z"/>
		<path class="st0" d="M954.3-2383.9v-46.9l-26.5-305.1c-4.2-47.9-9.8-97.9-13.4-125.5h35.8c2,41.8,4.2,77.5,7.9,125.5l8.7,113.2h1
			l8.6-113.2c3.7-47.9,5.9-83.7,7.9-125.5h35.8c-3.6,27.6-9.2,77.5-13.3,125.5l-26.5,309.1v46.9c0,84.7,1.1,175.5,2.6,231.6h-31.2
			C953.1-2205.4,954.3-2298.2,954.3-2383.9z"/>
		<path class="st0" d="M1046.4-2405.3v-197.9c0-88.8-1.3-194.9-3.3-258.1h56.8c21.2,0,34.6,99,34.6,272.4
			c0,174.5-10.8,290.8-31.3,290.8c-16,0-27-73.5-29.8-196.9h-1v93.9c0,88.8,1.2,190.8,3.3,254h-32.8
			C1045.3-2210.4,1046.4-2315.5,1046.4-2405.3z M1108.9-2575.7c0-54.1-4.7-83.7-14.3-83.7c-8,0-14.8,3.1-22.1,17.3v33.7
			c0,80.6,7.6,130.6,19.7,130.6C1101.3-2477.8,1108.9-2516.5,1108.9-2575.7z"/>
		<path class="st0" d="M1177-2426.7c-2,0-5.7,3.1-7.2,7.1v42.9c0,88.8,1.2,166.3,3.3,229.6h-32.8c2.2-63.2,3.3-168.3,3.3-258.1
			v-197.9c0-88.8-1.3-194.9-3.3-258.1h58.2c20.5,0,34.1,62.2,34.1,192.8c0,128.6-13.2,195.9-33.5,195.9h-6.1v12.2h0.4
			c12.1,0,11.6,76.5,24.6,76.5c9.5,0,15.2-53.1,17.4-106.1l0.1,290.8c-2.6,40.8-9.7,67.3-16.7,67.3
			C1188-2131.9,1198.9-2426.7,1177-2426.7z M1196.8-2520.6c6,0,10.2-17.3,10.2-53.1c0-39.8-4.2-55.1-10.2-55.1h-27v108.1
			L1196.8-2520.6L1196.8-2520.6z"/>
		<path class="st0" d="M1239.4-2504.3c0-236.7,20.1-372.4,49.3-372.4s49.3,135.7,49.3,372.4s-20.1,372.4-49.3,372.4
			C1259.5-2131.9,1239.4-2267.6,1239.4-2504.3z M1312-2504.3c0-88.8-9.3-140.8-23.3-140.8c-14,0-23.3,52-23.3,140.8
			s9.2,141.8,23.3,141.8C1302.7-2362.5,1312-2415.5,1312-2504.3z"/>
		<path class="st0" d="M1347.9-2405.3v-197.9c0-89.8-1.3-195.9-3.3-258.1h53.2c27.9,0,42.8,131.6,42.8,357.1s-14.9,357.1-42.8,357.1
			h-53.2C1346.7-2210.4,1347.9-2315.5,1347.9-2405.3z M1393.3-2380.8c13.9,0,21-39.8,21-123.4s-7.2-123.4-21-123.4H1374v246.9
			L1393.3-2380.8L1393.3-2380.8z"/>
		<path class="st0" d="M1449.4-2492v-111.2c0-88.8-1.3-194.9-3.3-258.1h32.7c-2,63.2-3.3,179.6-3.3,269.3v70.4
			c0,93.9,6.5,165.3,16,165.3c9.4,0,15.9-71.4,15.9-165.3v-70.4c0-89.8-1.3-206.1-3.3-269.3h32.8c-2,63.2-3.3,169.4-3.3,258.1v111.2
			c0,228.5-12.8,360.1-42,360.1C1462.2-2131.9,1449.4-2263.5,1449.4-2492z"/>
		<path class="st0" d="M1542.9-2504.3c0-259.1,21.7-372.4,49.9-372.4c15.5,0,28,37.8,36.5,81.6l-3.3,249.9
			c-5.3-53.1-16.4-97.9-30.1-97.9c-14.8,0-26.9,43.9-26.9,136.7c0,93.9,12.3,140.8,30.6,140.8c12.5,0,23.3-31.6,31.4-90.8v276.5
			c-9.4,28.6-21.2,47.9-36.7,47.9C1566.1-2131.9,1542.9-2245.1,1542.9-2504.3z"/>
		<path class="st0" d="M1664.7-2405.3v-227.5h-11c-10.1,0-16.3,6.1-21.3,23.5l4.8-252h81.2l4.8,252c-5-17.3-11.2-23.5-21.3-23.5
			h-11.1v227.5c0,89.8,1.2,194.9,3.3,258.1h-32.8C1663.6-2210.4,1664.7-2315.5,1664.7-2405.3z"/>
		<path class="st0" d="M1723.8-2208.4l1-271.4c10.4,84.7,26.1,127.5,46.6,127.5c11,0,17-11.2,17-46.9c0-111.2-64.2,38.8-64.2-268.3
			c0-159.1,19.4-209.1,44.4-209.1c12.1,0,28.3,20.4,38.9,64.3v237.7c-9.9-54.1-23.8-83.7-38-83.7c-9.8-1-17.8,9.2-17.8,46.9
			c0,118.3,64.2-52,64.2,249.9c0,150-15.5,229.6-44.2,229.6C1758.3-2131.9,1734.8-2165.6,1723.8-2208.4z"/>
		<path class="st0" d="M1836.7-2560.4c18.2,0,22.3-28.6,22.3-83.7c0-42.9-4.5-78.6-13.3-78.6c-13.9,0-25.6,51-25.6,51v-155.1
			c0,0,10-45.9,25.6-45.9c20.4,0,33.4,74.5,33.3,200c0,108.1-7,171.4-22.6,191.8l-1.1,73.5h-16.6L1836.7-2560.4z M1836-2245.1
			c0-70.4,4.5-110.2,11.1-110.2s11.1,39.8,11.1,110.2c0,69.4-4.5,109.2-11.1,109.2C1840.5-2137,1836-2175.8,1836-2245.1z"/>
	</g>
</g>
<g>
	
		<text transform="matrix(9.090000e-02 0 0 1 4717.1904 -2922.5239)" class="st0" style="font-family:'Brice-BoldExpanded'; font-size:940.0613px;">WHAT IS UGLY PRODUCTS?</text>
</g>
<g>
	
		<text transform="matrix(9.090000e-02 0 0 1 4845.2715 -2102.2236)" class="st0" style="font-family:'Brice-BoldExpanded'; font-size:940.0613px;">FOOD REFURBISHED</text>
</g>
<g>
	
		<text transform="matrix(9.090000e-02 0 0 1 2449.3567 -466.896)" class="st0" style="font-family:'Brice-BoldExpanded'; font-size:940.0613px;">FOOD REFURBISHED</text>
</g>
<text transform="matrix(9.090000e-02 0 0 1 277.8696 2280.2124)" class="st0" style="font-family:'Brice-BoldExpanded'; font-size:940.0613px;">FOOD REFURB</text>
<g>
	
		<text transform="matrix(9.090000e-02 0 0 1 4806.7178 -466.896)" class="st0" style="font-family:'Brice-BoldExpanded'; font-size:940.0613px;">ENVIRONMENTAL ISSUES</text>
</g>
<g class="st1">
	<path class="st0" d="M41,379.3C41,120.1,58.9,6.9,82.2,6.9c12.8,0,23.2,37.7,30.2,81.6l-2.7,250c-4.4-53.1-13.5-97.9-24.9-97.9
		c-12.2,0-22.2,43.9-22.2,136.7c0,93.9,10.2,140.8,25.3,140.8c10.3,0,19.2-31.6,25.9-90.8v276.5c-7.8,28.6-17.5,48-30.3,48
		C60.1,751.6,41,638.4,41,379.3z"/>
	<path class="st0" d="M149.7,456.8c-1.7,0-4.7,3.1-6,7.1v42.8c0,88.8,0.9,166.3,2.8,229.6h-27.1c1.8-63.3,2.8-168.3,2.8-258.1V280.3
		c0-88.8-1.1-194.9-2.8-258.1h48.1c17,0,28.2,62.2,28.2,192.8c0,128.5-10.9,195.9-27.7,195.9h-5v12.2h0.4c10,0,9.6,76.5,20.3,76.5
		c7.9,0,12.5-53.1,14.4-106.1l0.1,290.8c-2.1,40.8-8,67.3-13.8,67.3C158.8,751.6,167.8,456.8,149.7,456.8z M166,362.9
		c5,0,8.4-17.3,8.4-53.1c0-39.8-3.5-55.1-8.4-55.1h-22.3v108.1H166z"/>
	<path class="st0" d="M206.9,478.2V280.3c0-89.8-1.1-195.9-2.8-258.1h27.1c-1.7,62.2-2.8,168.3-2.8,258.1v197.9
		c0,89.8,0.9,194.9,2.8,258.1h-27.1C205.9,673.1,206.9,568,206.9,478.2z"/>
	<path class="st0" d="M262.2,478.2V250.7h-9.1c-8.4,0-13.5,6.1-17.6,23.5l4-252h67.1l4,252c-4.2-17.3-9.3-23.5-17.6-23.5h-9.2v227.5
		c0,89.8,1,194.9,2.8,258.1h-27.1C261.2,673.1,262.2,568,262.2,478.2z"/>
	<path class="st0" d="M317.6,478.2V280.3c0-89.8-1.1-195.9-2.8-258.1h68.5l2.6,253c-2.6-19.4-9.3-34.7-15.2-34.7h-31.6v80.6h22.1
		c3.7,0,7.4-2,9.8-7.1v124.5c-2.4-6.1-6-8.2-9.8-8.2h-22.1V518h33c4.9,0,12-17.3,16-56.1l-3.7,274.4h-69.6
		C316.7,673.1,317.6,568,317.6,478.2z"/>
	<path class="st0" d="M423.8,456.8c-1.7,0-4.7,3.1-6,7.1v42.8c0,88.8,0.9,166.3,2.8,229.6h-27.1c1.8-63.3,2.8-168.3,2.8-258.1V280.3
		c0-88.8-1.1-194.9-2.8-258.1h48.1c17,0,28.2,62.2,28.2,192.8c0,128.5-10.9,195.9-27.7,195.9h-5v12.2h0.4c10,0,9.6,76.5,20.3,76.5
		c7.9,0,12.5-53.1,14.4-106.1l0.1,290.8c-2.1,40.8-8,67.3-13.8,67.3C432.9,751.6,442,456.8,423.8,456.8z M440.1,362.9
		c5,0,8.4-17.3,8.4-53.1c0-39.8-3.5-55.1-8.4-55.1h-22.3v108.1H440.1z"/>
	<path class="st0" d="M481.1,478.2V280.3c0-89.8-1.1-195.9-2.8-258.1h27.1c-1.7,62.2-2.8,168.3-2.8,258.1v197.9
		c0,89.8,0.9,194.9,2.8,258.1h-27.1C480.1,673.1,481.1,568,481.1,478.2z"/>
	<path class="st0" d="M519.7,478.2l8.4-197.9c3.4-89.8,6.7-194.9,7.8-258.1h30.8c1.2,65.3,4.4,171.4,7.7,257.1l8.4,198.9
		c3.4,89.8,8.2,194.9,11.9,258.1h-27.5c-0.3-32.6-0.9-66.3-2.7-127.5l-1.2-29.6h-24.3l-1.2,30.6c-1.6,60.2-2.4,93.9-2.8,126.5h-27.5
		C511.4,673.1,516.3,567,519.7,478.2z M558.4,465l-3.9-101c-1.5-42.8-2.1-79.6-2.8-124.5h-1c-0.7,48-1.3,78.6-2.8,124.5L544,465
		H558.4z"/>
	<path class="st0" d="M610.7,379.3c0-236.7,16.6-372.4,40.8-372.4s40.8,135.7,40.8,372.4s-16.6,372.4-40.8,372.4
		S610.7,615.9,610.7,379.3z M670.8,379.3c0-88.8-7.7-140.8-19.2-140.8c-11.6,0-19.2,52-19.2,140.8s7.6,141.8,19.2,141.8
		C663,521.1,670.8,468,670.8,379.3z"/>
	<path class="st0" d="M700.3,478.2V280.3c0-89.8-1-195.9-2.7-258.1h67.9l2.8,265.3c-2.8-20.4-11.1-34.7-17-34.7h-29.4v106.1h24.5
		c3.7,0,7.4-2,9.8-7.1v130.6c-2.4-5.1-6-7.1-9.8-7.1h-24.5v48c0,89.8,0.9,150,2.8,213.2h-27.1C699.4,673.1,700.3,568,700.3,478.2z"
		/>
	<path class="st0" d="M792.1,391.5V280.3c0-88.8-1.1-194.9-2.8-258.1h27c-1.7,63.3-2.7,179.6-2.7,269.3v70.4
		c0,93.9,5.4,165.3,13.3,165.3c7.8,0,13.2-71.4,13.2-165.3v-70.4c0-89.8-1.1-206.1-2.8-269.3h27.1c-1.7,63.3-2.8,169.4-2.8,258.1
		v111.2c0,228.5-10.6,360.1-34.7,360.1C802.7,751.6,792.1,620,792.1,391.5z"/>
	<path class="st0" d="M869.4,379.3c0-238.7,16.2-372.4,41.2-372.4c11.1,0,19.2,15.3,29,46.9l-1.2,242.8c-5.7-39.8-16-66.3-26.7-66.3
		c-12.8,0-21.1,51-21.1,149c0,88.8,7.4,150,20.3,150c5.9,0,11.6-19.4,15.7-55.1v-40.8h-12.5c-2,0-5.2,5.1-6.8,13.3l0.2-102h38.3
		v268.3c-6.9,83.7-19.2,138.8-35,138.8C885.6,751.6,869.4,618,869.4,379.3z"/>
	<path class="st0" d="M971,706.7c-9.3,0-15.7,28.6-18.9,44.9c1.7-63.3,2.8-183.6,2.8-273.4V280.3c0-89.8-1.1-195.9-2.8-258.1h27.1
		c-1.7,62.2-2.8,237.7-2.8,327.5v158.1h20.3c7.2,0,14.6-17.3,18.6-43.9l-0.3,258.1c-0.6,1-5.7,29.6-11.7,29.6
		C990.9,751.6,985,706.7,971,706.7z"/>
	<path class="st0" d="M1038.2,499.6v-46.9l-21.9-305c-3.5-48-8.1-97.9-11.1-125.5h29.6c1.7,41.8,3.5,77.5,6.6,125.5l7.2,113.2h0.8
		l7.1-113.2c3.1-48,4.9-83.7,6.6-125.5h29.6c-3,27.5-7.6,77.5-11,125.5l-21.9,309.1v46.9c0,84.7,0.9,175.5,2.1,231.6H1036
		C1037.1,678.2,1038.2,585.3,1038.2,499.6z"/>
	<path class="st0" d="M1123.6,479.2l-8.4-198.9c-3.5-89.8-8.4-194.9-12.1-258.1h28.1c0.4,39.8,1.2,81.6,3.3,138.8l8.5,222.4
		c1.4,37.7,2.3,69.4,3.1,108.1h0.7c0.7-41.8,1.6-67.3,3-108.1l8.5-222.4c2-58.2,2.9-99,3.3-138.8h26.6
		c-3.8,63.3-8.7,168.3-12.2,258.1l-8.4,197.9c-3.4,89.8-6.7,194.9-7.8,258.1h-28.6C1130.2,671,1126.9,564.9,1123.6,479.2z"/>
	<path class="st0" d="M1194.3,478.2V280.3c0-89.8-1.1-195.9-2.8-258.1h68.5l2.6,253c-2.6-19.4-9.3-34.7-15.2-34.7h-31.6v80.6h22.1
		c3.7,0,7.4-2,9.8-7.1v124.5c-2.4-6.1-6-8.2-9.8-8.2h-22.1V518h33c4.9,0,12-17.3,16-56.1l-3.7,274.4h-69.6
		C1193.3,673.1,1194.3,568,1194.3,478.2z"/>
	<path class="st0" d="M1266.4,379.3c0-238.7,16.2-372.4,41.2-372.4c11.1,0,19.2,15.3,29,46.9l-1.2,242.8
		c-5.7-39.8-16-66.3-26.7-66.3c-12.8,0-21.1,51-21.1,149c0,88.8,7.4,150,20.3,150c5.9,0,11.6-19.4,15.7-55.1v-40.8h-12.5
		c-2,0-5.2,5.1-6.8,13.3l0.2-102h38.3v268.3c-6.9,83.7-19.2,138.8-35,138.8C1282.5,751.6,1266.4,618,1266.4,379.3z"/>
	<path class="st0" d="M1351.8,478.2V280.3c0-89.8-1.1-195.9-2.8-258.1h68.5l2.6,253c-2.6-19.4-9.3-34.7-15.2-34.7h-31.6v80.6h22.1
		c3.7,0,7.4-2,9.8-7.1v124.5c-2.4-6.1-6-8.2-9.8-8.2h-22.1V518h33c4.9,0,12-17.3,16-56.1l-3.7,274.4H1349
		C1350.9,673.1,1351.8,568,1351.8,478.2z"/>
	<path class="st0" d="M1450.1,478.2V250.7h-9.1c-8.4,0-13.5,6.1-17.6,23.5l4-252h67.1l4,252c-4.2-17.3-9.3-23.5-17.6-23.5h-9.2
		v227.5c0,89.8,1,194.9,2.8,258.1h-27.1C1449.2,673.1,1450.1,568,1450.1,478.2z"/>
	<path class="st0" d="M1500.7,478.2l8.4-197.9c3.4-89.8,6.7-194.9,7.8-258.1h30.8c1.2,65.3,4.4,171.4,7.7,257.1l8.4,198.9
		c3.4,89.8,8.2,194.9,11.9,258.1h-27.5c-0.3-32.6-0.9-66.3-2.7-127.5l-1.2-29.6h-24.3l-1.2,30.6c-1.6,60.2-2.4,93.9-2.8,126.5h-27.5
		C1492.5,673.1,1497.3,567,1500.7,478.2z M1539.4,465l-3.9-101c-1.5-42.8-2.1-79.6-2.8-124.5h-1c-0.7,48-1.3,78.6-2.8,124.5
		l-3.9,101H1539.4z"/>
	<path class="st0" d="M1580.9,478.2V280.3c0-89.8-1.1-195.9-2.8-258.1h52.2c9.9,0,18,54.1,18,168.3c0,110.2-7.6,166.3-17.3,166.3
		h-2.1v12.2h3.6c10.9,0,20,55.1,20,181.6c0,126.5-9,185.7-20.6,185.7h-53.8C1579.9,673.1,1580.9,568,1580.9,478.2z M1623.2,321.1
		c2.8,0,5-14.3,5-44.9c0-31.6-2.2-44.9-5-44.9h-20.9v89.8H1623.2z M1624.5,522.1c3.6,0,6-16.3,6-52c0-37.7-2.5-54.1-6.1-54.1h-22.1
		v106.1H1624.5z"/>
	<path class="st0" d="M1677,706.7c-9.3,0-15.7,28.6-18.9,44.9c1.7-63.3,2.8-183.6,2.8-273.4V280.3c0-89.8-1.1-195.9-2.8-258.1h27.1
		c-1.7,62.2-2.8,237.7-2.8,327.5v158.1h20.3c7.2,0,14.6-17.3,18.6-43.9l-0.3,258.1c-0.6,1-5.7,29.6-11.7,29.6
		C1696.9,751.6,1691,706.7,1677,706.7z"/>
	<path class="st0" d="M1729.9,478.2V280.3c0-89.8-1.1-195.9-2.8-258.1h68.5l2.6,253c-2.6-19.4-9.3-34.7-15.2-34.7h-31.6v80.6h22.1
		c3.7,0,7.4-2,9.8-7.1v124.5c-2.4-6.1-6-8.2-9.8-8.2h-22.1V518h33c4.9,0,12-17.3,16-56.1l-3.7,274.4h-69.6
		C1729,673.1,1729.9,568,1729.9,478.2z"/>
	<path class="st0" d="M1802.8,675.1l0.8-271.4c8.6,84.7,21.6,127.5,38.5,127.5c9.1,0,14.1-11.2,14.1-46.9
		c0-111.2-53.1,38.8-53.1-268.3c0-159.2,16-209.1,36.7-209.1c10,0,23.4,20.4,32.2,64.3v237.7c-8.2-54.1-19.7-83.7-31.4-83.7
		c-8.1-1-14.7,9.2-14.7,46.9c0,118.3,53.1-52,53.1,250c0,150-12.8,229.6-36.5,229.6C1831.4,751.6,1812,718,1802.8,675.1z"/>
</g>
<g>
	
		<text transform="matrix(9.090000e-02 0 0 1 4766.3643 -1235.2822)" class="st0" style="font-family:'Brice-BoldExpanded'; font-size:940.0613px;">OPINIONS ON UGLY PRODUCTS</text>
</g>
<g>
	<g>
		<path class="st0" d="M45.1-544.3v-197.9c0-89.8-1.6-195.9-4.2-258.1h105l4.3,265.3c-4.3-20.4-17.2-34.7-26.4-34.7H78.5v106.1h38
			c5.8,0,11.4-2,15.1-7.1v130.6c-3.7-5.1-9.3-7.1-15.1-7.1h-38v48c0,89.8,1.5,150,4.4,213.2H41C43.7-349.5,45.1-454.6,45.1-544.3z"
			/>
		<path class="st0" d="M151.6-643.3c0-236.7,25.7-372.4,63.1-372.4s63.1,135.7,63.1,372.4s-25.7,372.4-63.1,372.4
			S151.6-406.6,151.6-643.3z M244.5-643.3c0-88.8-11.9-140.8-29.8-140.8c-17.9,0-29.8,52-29.8,140.8s11.8,141.8,29.8,141.8
			C232.6-501.5,244.5-554.5,244.5-643.3z"/>
		<path class="st0" d="M282.8-643.3c0-236.7,25.7-372.4,63.1-372.4s63.1,135.7,63.1,372.4S383.4-270.9,346-270.9
			S282.8-406.6,282.8-643.3z M375.7-643.3c0-88.8-12-140.8-29.8-140.8c-17.9,0-29.8,52-29.8,140.8S328-501.5,346-501.5
			C363.8-501.5,375.7-554.5,375.7-643.3z"/>
		<path class="st0" d="M421.6-544.3v-197.9c0-89.8-1.7-195.9-4.3-258.1h68.1c35.7,0,54.8,131.6,54.8,357.1s-19,357.1-54.8,357.1
			h-68.1C420.1-349.5,421.6-454.6,421.6-544.3z M479.6-519.9c17.8,0,26.8-39.8,26.8-123.5s-9.2-123.5-26.8-123.5h-24.7v246.9
			L479.6-519.9L479.6-519.9z"/>
		<path class="st0" d="M625.2-565.8c-2.6,0-7.3,3.1-9.2,7.1v42.8c0,88.8,1.5,166.3,4.3,229.5h-41.9c2.8-63.2,4.3-168.3,4.3-258.1
			v-197.9c0-88.8-1.7-194.9-4.3-258.1h74.5c26.3,0,43.6,62.2,43.6,192.8c0,128.5-16.9,195.9-42.8,195.9h-7.8v12.2h0.6
			c15.4,0,14.9,76.5,31.4,76.5c12.2,0,19.4-53,22.3-106.1l0.1,290.8c-3.3,40.8-12.4,67.3-21.4,67.3
			C639.3-270.9,653.3-565.8,625.2-565.8z M650.5-659.6c7.7,0,13.1-17.3,13.1-53c0-39.8-5.4-55.1-13.1-55.1H616v108.1H650.5z"/>
		<path class="st0" d="M713.8-544.3v-197.9c0-89.8-1.7-195.9-4.3-258.1h105.9l4.1,253c-4.1-19.4-14.3-34.7-23.4-34.7h-48.9v80.6
			h34.3c5.8,0,11.4-2,15.1-7.1v124.5c-3.7-6.1-9.3-8.2-15.1-8.2h-34.3v87.7h51c7.5,0,18.6-17.3,24.8-56.1l-5.8,274.4H709.5
			C712.3-349.5,713.8-454.6,713.8-544.3z"/>
		<path class="st0" d="M835.4-544.3v-197.9c0-89.8-1.6-195.9-4.2-258.1h105l4.3,265.3c-4.3-20.4-17.2-34.7-26.4-34.7h-45.4v106.1h38
			c5.8,0,11.4-2,15.1-7.1v130.6c-3.7-5.1-9.3-7.1-15.1-7.1h-38v48c0,89.8,1.5,150,4.4,213.2h-41.9
			C833.9-349.5,835.4-454.6,835.4-544.3z"/>
		<path class="st0" d="M951-631.1v-111.2c0-88.8-1.7-194.9-4.3-258.1h41.8c-2.6,63.2-4.2,179.6-4.2,269.3v70.4
			c0,93.9,8.3,165.3,20.5,165.3c12.1,0,20.4-71.4,20.4-165.3v-70.4c0-89.8-1.7-206.1-4.3-269.3h41.9c-2.6,63.2-4.3,169.4-4.3,258.1
			v111.2c0,228.5-16.3,360.1-53.8,360.1C967.4-270.9,951-402.5,951-631.1z"/>
		<path class="st0" d="M1121.7-565.8c-2.6,0-7.3,3.1-9.2,7.1v42.8c0,88.8,1.5,166.3,4.3,229.5h-41.9c2.8-63.2,4.3-168.3,4.3-258.1
			v-197.9c0-88.8-1.7-194.9-4.3-258.1h74.5c26.3,0,43.6,62.2,43.6,192.8c0,128.5-16.9,195.9-42.8,195.9h-7.8v12.2h0.6
			c15.4,0,14.9,76.5,31.4,76.5c12.2,0,19.4-53,22.3-106.1l0.1,290.8c-3.3,40.8-12.4,67.3-21.4,67.3
			C1135.8-270.9,1149.7-565.8,1121.7-565.8z M1146.9-659.6c7.7,0,13.1-17.3,13.1-53c0-39.8-5.4-55.1-13.1-55.1h-34.5v108.1H1146.9z"
			/>
		<path class="st0" d="M1210.2-544.3v-197.9c0-89.8-1.7-195.9-4.3-258.1h80.7c15.3,0,27.8,54.1,27.8,168.3
			c0,110.2-11.8,166.3-26.8,166.3h-3.3v12.2h5.6c16.9,0,31,55.1,31,181.6s-14,185.7-31.9,185.7H1206
			C1208.7-349.5,1210.2-454.6,1210.2-544.3z M1275.7-701.5c4.3,0,7.8-14.3,7.8-44.9c0-31.6-3.4-44.9-7.7-44.9h-32.3v89.8
			L1275.7-701.5L1275.7-701.5z M1277.8-500.5c5.6,0,9.3-16.3,9.3-52c0-37.8-3.8-54.1-9.5-54.1h-34.2v106.1H1277.8z"/>
		<path class="st0" d="M1333.9-544.3v-197.9c0-89.8-1.7-195.9-4.3-258.1h41.9c-2.6,62.2-4.4,168.3-4.4,258.1v197.9
			c0,89.8,1.5,194.9,4.4,258.1h-41.9C1332.3-349.5,1333.9-454.6,1333.9-544.3z"/>
		<path class="st0" d="M1380.2-347.5l1.2-271.4c13.3,84.7,33.4,127.5,59.6,127.5c14.1,0,21.8-11.2,21.8-46.9
			c0-111.2-82.2,38.8-82.2-268.3c0-159.2,24.8-209.1,56.8-209.1c15.4,0,36.2,20.4,49.8,64.3v237.7c-12.6-54.1-30.4-83.7-48.6-83.7
			c-12.5-1-22.8,9.2-22.8,46.9c0,118.3,82.2-52,82.2,250c0,150-19.8,229.5-56.5,229.5C1424.4-270.9,1394.4-304.6,1380.2-347.5z"/>
		<path class="st0" d="M1511.2-544.3v-197.9c0-89.8-1.8-193.8-4.3-258.1h41.9c-2.8,70.4-4.3,145.9-4.3,233.6v53h39.1v-53
			c0-89.8-1.8-170.4-4.4-233.6h42c-2.7,62.2-4.3,168.3-4.3,258.1v197.9c0,89.8,1.5,194.9,4.3,258.1h-42
			c2.1-63.2,4.4-143.9,4.4-233.6v-64.3h-39.1v64.3c0,82.6,0.8,161.2,4.3,233.6h-41.9C1509.7-348.5,1511.2-454.6,1511.2-544.3z"/>
		<path class="st0" d="M1638.8-544.3v-197.9c0-89.8-1.7-195.9-4.3-258.1h105.9l4.1,253c-4.1-19.4-14.3-34.7-23.4-34.7h-48.9v80.6
			h34.3c5.8,0,11.4-2,15.1-7.1v124.5c-3.7-6.1-9.3-8.2-15.1-8.2h-34.3v87.7h51.1c7.6,0,18.6-17.3,24.8-56.1l-5.8,274.4h-107.7
			C1637.3-349.5,1638.8-454.6,1638.8-544.3z"/>
		<path class="st0" d="M1760.5-544.3v-197.9c0-89.8-1.7-195.9-4.3-258.1h68.1c35.7,0,54.8,131.6,54.8,357.1s-19.1,357.1-54.8,357.1
			h-68.1C1759-349.5,1760.5-454.6,1760.5-544.3z M1818.5-519.9c17.8,0,26.8-39.8,26.8-123.5s-9.2-123.5-26.8-123.5h-24.7v246.9
			L1818.5-519.9L1818.5-519.9z"/>
	</g>
</g>
<g>
	<g>
		<path class="st0" d="M44.4-1630.9v-197.9c0-89.8-1.3-195.9-3.4-258.1h84.7l3.2,253c-3.2-19.4-11.4-34.7-18.7-34.7H71.1v80.6h27.4
			c4.6,0,9.1-2,12.1-7.1v124.5c-3-6.1-7.5-8.2-12.1-8.2H71.1v87.7h40.8c6,0,14.9-17.3,19.8-56.1l-4.6,274.4H41
			C43.2-1436,44.4-1541.1,44.4-1630.9z"/>
		<path class="st0" d="M141.7-1630.9v-197.9c0-89.8-1.2-194.9-3.4-258.1h31.9l39.2,372.4h1.2V-1840c0-97.9-1.7-200-3.2-246.9h33.5
			c-2.1,62.2-3.5,168.3-3.5,258.1v456h-23.7l-43.9-410.1h-1.3v124.5c0,96.9,1.7,232.6,3.4,285.7h-33.5
			C140.3-1435,141.7-1541.1,141.7-1630.9z"/>
		<path class="st0" d="M269.1-1629.9l-10.4-198.9c-4.3-89.8-10.4-194.9-14.9-258.1h34.8c0.5,39.8,1.5,81.6,4,138.8l10.5,222.4
			c1.7,37.8,2.9,69.4,3.8,108.1h0.9c0.9-41.8,2-67.3,3.7-108.1l10.5-222.4c2.4-58.2,3.6-99,4-138.8H349
			c-4.7,63.2-10.7,168.3-15,258.1l-10.4,197.9c-4.2,89.8-8.3,194.9-9.6,258.1h-35.3C277.2-1438.1,273.2-1544.2,269.1-1629.9z"/>
		<path class="st0" d="M356.5-1630.9v-197.9c0-89.8-1.4-195.9-3.4-258.1h33.5c-2.1,62.2-3.5,168.3-3.5,258.1v197.9
			c0,89.8,1.2,194.9,3.5,258.1H353C355.2-1436,356.5-1541.1,356.5-1630.9z"/>
		<path class="st0" d="M434.5-1652.3c-2.1,0-5.9,3.1-7.4,7.1v42.8c0,88.8,1.2,166.3,3.4,229.6h-33.5c2.2-63.2,3.4-168.3,3.4-258.1
			v-197.9c0-88.8-1.4-194.9-3.4-258.1h59.5c21,0,34.9,62.2,34.9,192.8c0,128.6-13.5,195.9-34.2,195.9H451v12.2h0.5
			c12.3,0,11.9,76.5,25.1,76.5c9.7,0,15.5-53.1,17.8-106.1l0.1,290.8c-2.6,40.8-9.9,67.3-17.1,67.3
			C445.8-1357.5,457-1652.3,434.5-1652.3z M454.7-1746.2c6.1,0,10.5-17.3,10.5-53.1c0-39.8-4.3-55.1-10.5-55.1h-27.6v108.1H454.7z"
			/>
		<path class="st0" d="M498.3-1729.8c0-236.7,20.5-372.4,50.4-372.4s50.4,135.7,50.4,372.4s-20.5,372.4-50.4,372.4
			S498.3-1493.2,498.3-1729.8z M572.5-1729.8c0-88.8-9.5-140.8-23.8-140.8c-14.3,0-23.8,52-23.8,140.8s9.5,141.8,23.8,141.8
			C563-1588,572.5-1641.1,572.5-1729.8z"/>
		<path class="st0" d="M609.2-1630.9v-197.9c0-89.8-1.2-194.9-3.4-258.1h31.9l39.2,372.4h1.2V-1840c0-97.9-1.7-200-3.2-246.9h33.5
			c-2.1,62.2-3.5,168.3-3.5,258.1v456H681l-44-410.1h-1.3v124.5c0,96.9,1.7,232.6,3.4,285.7h-33.5
			C607.8-1435,609.2-1541.1,609.2-1630.9z"/>
		<path class="st0" d="M722.1-1630.9v-197.9c0-89.8-1.2-194.9-3.3-258.1h34.4l17.6,285.7c3.1,47.9,4.7,79.6,7.4,144.9h1.2
			c2.7-62.2,4-89.8,7.5-144.9l17.7-285.7h33.5c-2.2,63.2-3.4,168.3-3.4,258.1v197.9c0,89.8,1.3,195.9,3.4,258.1h-33.4
			c1.6-47.9,3.3-177.5,3.3-273.4v-117.3h-1.5l-24.8,390.7h-6.9L750-1763.5h-1.2v117.3c0,95.9,1.7,225.5,3.4,273.4h-33.5
			C720.8-1435,722.1-1541.1,722.1-1630.9z"/>
		<path class="st0" d="M852-1630.9v-197.9c0-89.8-1.3-195.9-3.4-258.1h84.7l3.2,253c-3.2-19.4-11.4-34.7-18.7-34.7h-39.1v80.6H906
			c4.6,0,9.1-2,12.1-7.1v124.5c-3-6.1-7.5-8.2-12.1-8.2h-27.4v87.7h40.8c6,0,14.9-17.3,19.8-56.1l-4.6,274.4h-86.1
			C850.8-1436,852-1541.1,852-1630.9z"/>
		<path class="st0" d="M949.2-1630.9v-197.9c0-89.8-1.2-194.9-3.4-258.1h31.9l39.2,372.4h1.2V-1840c0-97.9-1.7-200-3.2-246.9h33.5
			c-2.1,62.2-3.5,168.3-3.5,258.1v456h-23.7l-44-410.1h-1.3v124.5c0,96.9,1.7,232.6,3.4,285.7h-33.5
			C947.9-1435,949.2-1541.1,949.2-1630.9z"/>
		<path class="st0" d="M1086.6-1630.9v-227.5h-11.3c-10.4,0-16.7,6.1-21.8,23.5l4.9-252h82.9l4.9,252c-5.1-17.3-11.4-23.5-21.8-23.5
			h-11.3v227.5c0,89.8,1.3,194.9,3.4,258.1h-33.5C1085.4-1436,1086.6-1541.1,1086.6-1630.9z"/>
		<path class="st0" d="M1149.1-1630.9l10.4-197.9c4.2-89.8,8.3-194.9,9.6-258.1h38.1c1.4,65.3,5.4,171.4,9.6,257.1l10.4,198.9
			c4.2,89.8,10.2,194.9,14.8,258.1h-34c-0.4-32.7-1.2-66.3-3.3-127.5l-1.4-29.6h-30l-1.4,30.6c-2,60.2-3,93.9-3.5,126.5h-33.9
			C1138.9-1436,1144.8-1542.1,1149.1-1630.9z M1197-1644.2l-4.9-101c-1.8-42.8-2.6-79.6-3.4-124.5h-1.3
			c-0.9,47.9-1.6,78.6-3.5,124.5l-4.8,101H1197z"/>
		<path class="st0" d="M1268.2-1402.3c-11.4,0-19.4,28.6-23.4,44.9c2.2-63.2,3.4-183.6,3.4-273.4v-197.9c0-89.8-1.3-195.9-3.4-258.1
			h33.5c-2.1,62.2-3.5,237.7-3.5,327.5v158.1h25.1c8.9,0,18.1-17.3,23.1-43.9l-0.4,258.1c-0.7,1-7,29.6-14.5,29.6
			C1292.8-1357.5,1285.5-1402.3,1268.2-1402.3z"/>
		<path class="st0" d="M1354.6-1630.9v-197.9c0-89.8-1.3-195.9-3.4-258.1h33.5c-2.1,62.2-3.5,168.3-3.5,258.1v197.9
			c0,89.8,1.2,194.9,3.5,258.1h-33.5C1353.3-1436,1354.6-1541.1,1354.6-1630.9z"/>
		<path class="st0" d="M1391.6-1434l1-271.4c10.6,84.7,26.7,127.5,47.6,127.5c11.3,0,17.4-11.2,17.4-46.9
			c0-111.2-65.7,38.8-65.7-268.3c0-159.1,19.8-209.1,45.4-209.1c12.3,0,28.9,20.4,39.8,64.3v237.7c-10.1-54.1-24.3-83.7-38.8-83.7
			c-10-1-18.2,9.2-18.2,46.9c0,118.3,65.7-52,65.7,249.9c0,150-15.8,229.6-45.1,229.6C1426.9-1357.5,1403-1391.1,1391.6-1434z"/>
		<path class="st0" d="M1488.9-1434l1-271.4c10.6,84.7,26.7,127.5,47.6,127.5c11.3,0,17.4-11.2,17.4-46.9
			c0-111.2-65.7,38.8-65.7-268.3c0-159.1,19.8-209.1,45.4-209.1c12.3,0,28.9,20.4,39.8,64.3v237.7c-10.1-54.1-24.3-83.7-38.8-83.7
			c-10-1-18.2,9.2-18.2,46.9c0,118.3,65.7-52,65.7,249.9c0,150-15.8,229.6-45.1,229.6C1524.2-1357.5,1500.2-1391.1,1488.9-1434z"/>
		<path class="st0" d="M1592.4-1717.6v-111.2c0-88.8-1.3-194.9-3.4-258.1h33.4c-2.1,63.2-3.3,179.6-3.3,269.3v70.4
			c0,93.9,6.7,165.3,16.4,165.3c9.6,0,16.3-71.4,16.3-165.3v-70.4c0-89.8-1.3-206.1-3.4-269.3h33.5c-2.1,63.2-3.4,169.4-3.4,258.1
			v111.2c0,228.5-13.1,360.1-43,360.1C1605.4-1357.5,1592.4-1489.1,1592.4-1717.6z"/>
		<path class="st0" d="M1694.7-1630.9v-197.9c0-89.8-1.3-195.9-3.4-258.1h84.7l3.2,253c-3.2-19.4-11.4-34.7-18.7-34.7h-39.1v80.6
			h27.4c4.6,0,9.1-2,12.1-7.1v124.5c-3-6.1-7.5-8.2-12.1-8.2h-27.4v87.7h40.8c6,0,14.9-17.3,19.8-56.1l-4.6,274.4h-86.1
			C1693.5-1436,1694.7-1541.1,1694.7-1630.9z"/>
		<path class="st0" d="M1784.8-1434l1-271.4c10.6,84.7,26.7,127.5,47.6,127.5c11.3,0,17.4-11.2,17.4-46.9
			c0-111.2-65.7,38.8-65.7-268.3c0-159.1,19.8-209.1,45.4-209.1c12.3,0,28.9,20.4,39.8,64.3v237.7c-10.1-54.1-24.3-83.7-38.8-83.7
			c-10-1-18.2,9.2-18.2,46.9c0,118.3,65.7-52,65.7,249.9c0,150-15.8,229.6-45.1,229.6C1820.1-1357.5,1796.2-1391.1,1784.8-1434z"/>
	</g>
</g>
<g>
	<path class="st0" d="M-4971.2,391.5V280.3c0-88.8-1.8-194.9-4.7-258.1h45.6c-2.8,63.2-4.6,179.6-4.6,269.3v70.4
		c0,93.9,9.1,165.3,22.4,165.3c13.1,0,22.2-71.4,22.2-165.3v-70.4c0-89.8-1.8-206.1-4.7-269.3h45.7c-2.8,63.2-4.7,169.4-4.7,258.1
		v111.2c0,228.5-17.8,360.1-58.6,360.1C-4953.4,751.6-4971.2,620-4971.2,391.5z"/>
	<path class="st0" d="M-4840.9,379.3c0-238.7,27.3-372.4,69.4-372.4c18.8,0,32.4,15.3,48.9,46.9l-2.1,242.8
		c-9.6-39.8-26.9-66.3-45.1-66.3c-21.6,0-35.6,51-35.6,149c0,88.8,12.5,150,34.3,150c10,0,19.5-19.4,26.4-55.1v-40.8h-21.1
		c-3.3,0-8.7,5.1-11.5,13.3l0.4-102h64.6v268.3c-11.7,83.7-32.4,138.8-59,138.8C-4813.6,751.6-4840.9,618-4840.9,379.3z"/>
	<path class="st0" d="M-4669.5,706.7c-15.6,0-26.5,28.6-31.9,44.9c2.9-63.2,4.7-183.6,4.7-273.4V280.3c0-89.8-1.8-195.9-4.7-258.1
		h45.7c-2.8,62.2-4.8,237.7-4.8,327.5v158.1h34.3c12.2,0,24.7-17.3,31.5-43.9l-0.5,258.1c-1,1-9.6,29.6-19.8,29.6
		C-4635.9,751.6-4645.9,706.7-4669.5,706.7z"/>
	<path class="st0" d="M-4556.2,499.6v-46.9l-37-305c-5.9-47.9-13.6-97.9-18.7-125.5h49.9c2.8,41.8,5.9,77.5,11.1,125.5l12.2,113.2
		h1.4l12-113.2c5.2-47.9,8.2-83.7,11.1-125.5h49.9c-5,27.5-12.8,77.5-18.5,125.5l-37,309.1v46.9c0,84.7,1.5,175.5,3.6,231.6h-43.5
		C-4557.9,678.2-4556.2,585.3-4556.2,499.6z"/>
	<path class="st0" d="M-4412.1,479.2l-14.1-198.9c-5.9-89.8-14.1-194.9-20.4-258.1h47.4c0.7,39.8,2.1,81.6,5.5,138.8l14.4,222.4
		c2.3,37.8,3.9,69.4,5.2,108.1h1.2c1.2-41.8,2.7-67.3,5-108.1l14.4-222.4c3.3-58.2,4.9-99,5.5-138.8h44.9
		c-6.4,63.2-14.6,168.3-20.5,258.1l-14.1,197.9c-5.8,89.8-11.3,194.9-13.1,258.1h-48.2C-4401,671-4406.4,564.9-4412.1,479.2z"/>
	<path class="st0" d="M-4292.9,478.2V280.3c0-89.8-1.8-195.9-4.7-258.1h115.5l4.4,253c-4.4-19.4-15.6-34.7-25.6-34.7h-53.3v80.6
		h37.4c6.3,0,12.4-2,16.5-7.1v124.5c-4.1-6.1-10.2-8.2-16.5-8.2h-37.4V518h55.7c8.2,0,20.3-17.3,27-56.1l-6.3,274.4h-117.5
		C-4294.5,673.1-4292.9,568-4292.9,478.2z"/>
	<path class="st0" d="M-4171.3,379.3c0-238.7,27.3-372.4,69.4-372.4c18.8,0,32.4,15.3,48.9,46.9l-2.1,242.8
		c-9.6-39.8-26.9-66.3-45.1-66.3c-21.6,0-35.6,51-35.6,149c0,88.8,12.5,150,34.3,150c9.9,0,19.5-19.4,26.4-55.1v-40.8h-21.1
		c-3.3,0-8.7,5.1-11.6,13.3l0.4-102h64.6v268.3c-11.7,83.7-32.4,138.8-59,138.8C-4144,751.6-4171.3,618-4171.3,379.3z"/>
	<path class="st0" d="M-4027.2,478.2V280.3c0-89.8-1.8-195.9-4.7-258.1h115.5l4.4,253c-4.4-19.4-15.6-34.7-25.6-34.7h-53.3v80.6
		h37.4c6.3,0,12.4-2,16.5-7.1v124.5c-4.1-6.1-10.2-8.2-16.5-8.2h-37.4V518h55.7c8.2,0,20.3-17.3,27-56.1l-6.3,274.4h-117.4
		C-4028.8,673.1-4027.2,568-4027.2,478.2z"/>
	<path class="st0" d="M-3861.3,478.2V250.7h-15.4c-14.1,0-22.7,6.1-29.7,23.5l6.8-252h113.2l6.8,252c-7-17.3-15.6-23.5-29.7-23.5
		h-15.5v227.5c0,89.8,1.7,194.9,4.7,258.1h-45.7C-3862.9,673.1-3861.3,568-3861.3,478.2z"/>
	<path class="st0" d="M-3776,478.2l14.1-197.9c5.8-89.8,11.3-194.9,13.1-258.1h52c2,65.3,7.4,171.4,13,257.1l14.2,198.9
		c5.8,89.8,13.9,194.9,20.1,258.1h-46.4c-0.5-32.7-1.6-66.3-4.6-127.5l-2-29.6h-40.9l-2,30.6c-2.7,60.2-4.1,93.9-4.8,126.5h-46.3
		C-3789.9,673.1-3781.8,567-3776,478.2z M-3710.7,465l-6.6-101c-2.5-42.9-3.6-79.6-4.7-124.5h-1.7c-1.2,48-2.2,78.6-4.8,124.5
		l-6.5,101H-3710.7z"/>
	<path class="st0" d="M-3640.7,478.2V280.3c0-89.8-1.8-195.9-4.7-258.1h88c16.7,0,30.4,54.1,30.4,168.3
		c0,110.2-12.9,166.3-29.2,166.3h-3.6v12.2h6.1c18.4,0,33.8,55.1,33.8,181.6s-15.2,185.7-34.8,185.7h-90.7
		C-3642.5,673.1-3640.7,568-3640.7,478.2z M-3569.4,321.1c4.7,0,8.5-14.3,8.5-44.9c0-31.6-3.7-44.9-8.4-44.9h-35.3v89.8
		L-3569.4,321.1L-3569.4,321.1z M-3567.1,522.1c6.1,0,10.2-16.3,10.2-52c0-37.8-4.2-54.1-10.3-54.1h-37.2v106.1H-3567.1z"/>
	<path class="st0" d="M-3478.7,706.7c-15.6,0-26.5,28.6-31.9,44.9c2.9-63.2,4.7-183.6,4.7-273.4V280.3c0-89.8-1.8-195.9-4.7-258.1
		h45.7c-2.8,62.2-4.8,237.7-4.8,327.5v158.1h34.3c12.2,0,24.7-17.3,31.4-43.9l-0.5,258.1c-1,1-9.6,29.6-19.8,29.6
		C-3445.1,751.6-3455.1,706.7-3478.7,706.7z"/>
	<path class="st0" d="M-3389.4,478.2V280.3c0-89.8-1.8-195.9-4.7-258.1h115.5l4.4,253c-4.4-19.4-15.6-34.7-25.6-34.7h-53.3v80.6
		h37.4c6.3,0,12.4-2,16.5-7.1v124.5c-4-6.1-10.2-8.2-16.5-8.2h-37.4V518h55.7c8.2,0,20.3-17.3,27-56.1l-6.3,274.4H-3394
		C-3391,673.1-3389.4,568-3389.4,478.2z"/>
	<path class="st0" d="M-3266.4,675.1l1.4-271.4c14.5,84.7,36.4,127.5,65,127.5c15.4,0,23.7-11.2,23.7-46.9
		c0-111.2-89.6,38.8-89.6-268.3c0-159.1,27-209.1,61.9-209.1c16.8,0,39.4,20.4,54.3,64.3v237.7c-13.8-54.1-33.2-83.7-53-83.7
		c-13.6-1-24.8,9.2-24.8,46.9c0,118.3,89.6-52,89.6,250c0,150-21.6,229.5-61.6,229.5C-3218.2,751.6-3250.9,718-3266.4,675.1z"/>
</g>
<g>
	<path class="st0" d="M-2641.6,391.5V280.3c0-88.8-1.8-194.9-4.7-258.1h45.6c-2.8,63.2-4.6,179.6-4.6,269.3v70.4
		c0,93.9,9.1,165.3,22.4,165.3c13.1,0,22.2-71.4,22.2-165.3v-70.4c0-89.8-1.8-206.1-4.7-269.3h45.7c-2.8,63.2-4.7,169.4-4.7,258.1
		v111.2c0,228.5-17.8,360.1-58.6,360.1C-2623.8,751.6-2641.6,620-2641.6,391.5z"/>
	<path class="st0" d="M-2511.3,379.3c0-238.7,27.3-372.4,69.4-372.4c18.8,0,32.4,15.3,48.9,46.9l-2.1,242.8
		c-9.6-39.8-26.9-66.3-45.1-66.3c-21.6,0-35.6,51-35.6,149c0,88.8,12.5,150,34.3,150c9.9,0,19.5-19.4,26.4-55.1v-40.8h-21.1
		c-3.3,0-8.7,5.1-11.6,13.3l0.4-102h64.6v268.3c-11.7,83.7-32.4,138.8-59,138.8C-2484,751.6-2511.3,618-2511.3,379.3z"/>
	<path class="st0" d="M-2339.9,706.7c-15.6,0-26.5,28.6-31.9,44.9c2.9-63.2,4.7-183.6,4.7-273.4V280.3c0-89.8-1.8-195.9-4.7-258.1
		h45.7c-2.8,62.2-4.8,237.7-4.8,327.5v158.1h34.3c12.2,0,24.7-17.3,31.4-43.9l-0.5,258.1c-1,1-9.6,29.6-19.8,29.6
		C-2306.3,751.6-2316.3,706.7-2339.9,706.7z"/>
	<path class="st0" d="M-2226.6,499.6v-46.9l-37-305c-5.9-47.9-13.6-97.9-18.7-125.5h49.9c2.8,41.8,5.9,77.5,11.1,125.5l12.2,113.2
		h1.4l12-113.2c5.2-47.9,8.2-83.7,11.1-125.5h49.9c-5,27.5-12.8,77.5-18.6,125.5l-37,309.1v46.9c0,84.7,1.5,175.5,3.6,231.6h-43.5
		C-2228.3,678.2-2226.6,585.3-2226.6,499.6z"/>
	<path class="st0" d="M-2082.5,479.2l-14.1-198.9c-5.9-89.8-14.1-194.9-20.4-258.1h47.4c0.7,39.8,2.1,81.6,5.5,138.8l14.4,222.4
		c2.3,37.8,3.9,69.4,5.2,108.1h1.2c1.2-41.8,2.7-67.3,5-108.1l14.4-222.4c3.3-58.2,4.9-99,5.5-138.8h44.8
		c-6.4,63.2-14.6,168.3-20.5,258.1l-14.1,197.9c-5.8,89.8-11.3,194.9-13.2,258.1h-48.2C-2071.4,671-2076.8,564.9-2082.5,479.2z"/>
	<path class="st0" d="M-1963.3,478.2V280.3c0-89.8-1.8-195.9-4.7-258.1h115.5l4.4,253c-4.4-19.4-15.6-34.7-25.6-34.7h-53.3v80.6
		h37.3c6.3,0,12.4-2,16.5-7.1v124.5c-4.1-6.1-10.2-8.2-16.5-8.2h-37.3V518h55.7c8.2,0,20.3-17.3,27-56.1l-6.3,274.4h-117.4
		C-1964.9,673.1-1963.3,568-1963.3,478.2z"/>
	<path class="st0" d="M-1841.7,379.3c0-238.7,27.3-372.4,69.4-372.4c18.8,0,32.4,15.3,48.9,46.9l-2.1,242.8
		c-9.6-39.8-26.9-66.3-45.1-66.3c-21.6,0-35.6,51-35.6,149c0,88.8,12.5,150,34.3,150c9.9,0,19.5-19.4,26.4-55.1v-40.8h-21.1
		c-3.3,0-8.7,5.1-11.6,13.3l0.4-102h64.6v268.3c-11.7,83.7-32.4,138.8-59,138.8C-1814.4,751.6-1841.7,618-1841.7,379.3z"/>
	<path class="st0" d="M-1697.5,478.2V280.3c0-89.8-1.8-195.9-4.7-258.1h115.5l4.4,253c-4.4-19.4-15.6-34.7-25.6-34.7h-53.3v80.6
		h37.3c6.3,0,12.4-2,16.5-7.1v124.5c-4.1-6.1-10.2-8.2-16.5-8.2h-37.3V518h55.7c8.2,0,20.3-17.3,27-56.1l-6.3,274.4h-117.4
		C-1699.1,673.1-1697.5,568-1697.5,478.2z"/>
	<path class="st0" d="M-1531.7,478.2V250.7h-15.4c-14.1,0-22.7,6.1-29.7,23.5l6.8-252h113.2l6.8,252c-7-17.3-15.6-23.5-29.7-23.5
		h-15.5v227.5c0,89.8,1.7,194.9,4.7,258.1h-45.7C-1533.3,673.1-1531.7,568-1531.7,478.2z"/>
	<path class="st0" d="M-1446.4,478.2l14.1-197.9c5.8-89.8,11.3-194.9,13.2-258.1h52c2,65.3,7.4,171.4,13,257.1l14.2,198.9
		c5.8,89.8,13.9,194.9,20.2,258.1h-46.4c-0.5-32.7-1.6-66.3-4.6-127.5l-2-29.6h-40.9l-2,30.6c-2.7,60.2-4.1,93.9-4.8,126.5h-46.3
		C-1460.3,673.1-1452.2,567-1446.4,478.2z M-1381,465l-6.6-101c-2.5-42.9-3.6-79.6-4.7-124.5h-1.7c-1.2,48-2.2,78.6-4.8,124.5
		l-6.5,101H-1381z"/>
	<path class="st0" d="M-1311.1,478.2V280.3c0-89.8-1.8-195.9-4.7-258.1h88c16.7,0,30.3,54.1,30.3,168.3
		c0,110.2-12.9,166.3-29.2,166.3h-3.6v12.2h6.1c18.4,0,33.8,55.1,33.8,181.6s-15.2,185.7-34.8,185.7h-90.7
		C-1312.8,673.1-1311.1,568-1311.1,478.2z M-1239.7,321.1c4.7,0,8.5-14.3,8.5-44.9c0-31.6-3.7-44.9-8.3-44.9h-35.3v89.8
		L-1239.7,321.1L-1239.7,321.1z M-1237.5,522.1c6.1,0,10.2-16.3,10.2-52c0-37.8-4.2-54.1-10.3-54.1h-37.2v106.1H-1237.5z"/>
	<path class="st0" d="M-1149.1,706.7c-15.6,0-26.5,28.6-31.9,44.9c2.9-63.2,4.7-183.6,4.7-273.4V280.3c0-89.8-1.8-195.9-4.7-258.1
		h45.7c-2.8,62.2-4.8,237.7-4.8,327.5v158.1h34.3c12.2,0,24.7-17.3,31.4-43.9l-0.5,258.1c-1,1-9.6,29.6-19.8,29.6
		C-1115.5,751.6-1125.5,706.7-1149.1,706.7z"/>
	<path class="st0" d="M-1059.7,478.2V280.3c0-89.8-1.8-195.9-4.7-258.1h115.5l4.4,253c-4.4-19.4-15.6-34.7-25.6-34.7h-53.3v80.6
		h37.3c6.3,0,12.4-2,16.5-7.1v124.5c-4-6.1-10.2-8.2-16.5-8.2h-37.3V518h55.7c8.2,0,20.3-17.3,27-56.1l-6.3,274.4h-117.5
		C-1061.3,673.1-1059.7,568-1059.7,478.2z"/>
	<path class="st0" d="M-936.7,675.1l1.3-271.4c14.5,84.7,36.4,127.5,65,127.5c15.4,0,23.7-11.2,23.7-46.9
		c0-111.2-89.6,38.8-89.6-268.3c0-159.1,27-209.1,61.9-209.1c16.8,0,39.4,20.4,54.3,64.3v237.7c-13.8-54.1-33.2-83.7-53-83.7
		c-13.6-1-24.8,9.2-24.8,46.9c0,118.3,89.6-52,89.6,250c0,150-21.6,229.5-61.6,229.5C-888.6,751.6-921.3,718-936.7,675.1z"/>
</g>
</svg>
