<?xml version="1.0" encoding="utf-8"?>
<!-- Generator: Adobe Illustrator 26.0.2, SVG Export Plug-In . SVG Version: 6.00 Build 0)  -->
<svg version="1.1" id="레이어_1" xmlns="http://www.w3.org/2000/svg" xmlns:xlink="http://www.w3.org/1999/xlink" x="0px"
	 y="0px" viewBox="0 0 1920 758.5" style="enable-background:new 0 0 1920 758.5;" xml:space="preserve">
<style type="text/css">
	.st0{fill:#FFFFFF;}
	.st1{enable-background:new    ;}
</style>
<g>
	<g>
		<path class="st0" d="M61.2-2410.4l-7.4-192.8C50.1-2693,45-2798.1,41-2861.4h33.9c0.2,39.8,0.8,82.6,2.9,138.8l8.3,212.2
			c1.5,38.8,2.5,72.4,3.7,113.2h0.8l13.8-464.2h19.1l13.8,464.2h0.8c1.1-39.8,2.2-74.5,3.7-114.3l8.3-211.2
			c2.1-56.1,2.7-99,2.9-138.8h33.9c-4.1,63.2-9.2,168.3-12.8,258.1l-7.4,192.8c-3.5,87.7-6.8,195.9-7.9,263.2h-31.1l-13.2-446.9
			h-0.9l-13.2,446.9H69.2C68-2214.5,64.7-2322.7,61.2-2410.4z"/>
		<path class="st0" d="M194.5-2405.3v-197.9c0-89.8-1.4-193.8-3.4-258.1h32.8c-2.2,70.4-3.4,145.9-3.4,233.6v53.1h30.6v-53.1
			c0-89.8-1.4-170.4-3.4-233.6h32.9c-2.1,62.2-3.4,168.3-3.4,258.1v197.9c0,89.8,1.1,194.9,3.4,258.1h-32.9
			c1.7-63.2,3.4-143.9,3.4-233.6v-64.3h-30.6v64.3c0,82.6,0.6,161.2,3.4,233.6h-32.8C193.4-2209.4,194.5-2315.5,194.5-2405.3z"/>
		<path class="st0" d="M297.9-2405.3l10.1-197.9c4.1-89.8,8.1-194.9,9.4-258.1h37.3c1.4,65.3,5.3,171.4,9.3,257.1l10.2,198.9
			c4.1,89.8,10,194.9,14.5,258.1h-33.3c-0.4-32.6-1.1-66.3-3.3-127.5l-1.4-29.6h-29.4l-1.4,30.6c-1.9,60.2-2.9,93.9-3.4,126.5h-33.2
			C287.9-2210.4,293.7-2316.6,297.9-2405.3z M344.7-2418.6l-4.8-101c-1.8-42.9-2.6-79.6-3.4-124.5h-1.2
			c-0.9,47.9-1.6,78.6-3.4,124.5l-4.7,101H344.7z"/>
		<path class="st0" d="M409.2-2405.3v-227.5h-11c-10.1,0-16.3,6.1-21.3,23.5l4.9-252h81.2l4.9,252c-5-17.3-11.2-23.5-21.3-23.5
			h-11.1v227.5c0,89.8,1.2,194.9,3.4,258.1h-32.8C408-2210.4,409.2-2315.5,409.2-2405.3z"/>
		<path class="st0" d="M496.5-2405.3v-197.9c0-89.8-1.3-195.9-3.4-258.1h32.8c-2,62.2-3.4,168.3-3.4,258.1v197.9
			c0,89.8,1.2,194.9,3.4,258.1h-32.8C495.3-2210.4,496.5-2315.5,496.5-2405.3z"/>
		<path class="st0" d="M532.7-2208.4l1-271.4c10.4,84.7,26.1,127.5,46.6,127.5c11,0,17-11.2,17-46.9c0-111.2-64.2,38.8-64.2-268.3
			c0-159.1,19.4-209.1,44.4-209.1c12.1,0,28.3,20.4,39,64.3v237.7c-9.9-54.1-23.8-83.7-38-83.7c-9.8-1-17.8,9.2-17.8,46.9
			c0,118.3,64.2-52,64.2,249.9c0,150-15.5,229.6-44.2,229.6C567.3-2131.9,543.8-2165.6,532.7-2208.4z"/>
		<path class="st0" d="M656.6-2492v-111.2c0-88.8-1.3-194.9-3.3-258.1H686c-2,63.2-3.3,179.6-3.3,269.3v70.4
			c0,93.9,6.5,165.3,16,165.3c9.4,0,16-71.4,16-165.3v-70.4c0-89.8-1.3-206.1-3.3-269.3h32.8c-2,63.2-3.3,169.4-3.3,258.1v111.2
			c0,228.5-12.8,360.1-42,360.1C669.4-2131.9,656.6-2263.5,656.6-2492z"/>
		<path class="st0" d="M750.1-2504.3c0-238.7,19.6-372.4,49.8-372.4c13.5,0,23.3,15.3,35.1,46.9l-1.5,242.8
			c-6.9-39.8-19.3-66.3-32.3-66.3c-15.5,0-25.6,51-25.6,148.9c0,88.8,9,150,24.6,150c7.1,0,14-19.4,19-55.1v-40.8H804
			c-2.4,0-6.3,5.1-8.3,13.3l0.3-102h46.3v268.3c-8.4,83.7-23.3,138.8-42.3,138.8C769.7-2131.9,750.1-2265.6,750.1-2504.3z"/>
		<path class="st0" d="M873.1-2176.8c-11.2,0-19,28.6-22.9,44.9c2.1-63.2,3.3-183.6,3.3-273.4v-197.9c0-89.8-1.3-195.9-3.3-258.1
			h32.8c-2,62.2-3.4,237.7-3.4,327.5v158.1h24.6c8.7,0,17.7-17.3,22.6-43.9l-0.3,258.1c-0.7,1-6.9,29.6-14.2,29.6
			C897.1-2131.9,890-2176.8,873.1-2176.8z"/>
		<path class="st0" d="M954.3-2383.9v-46.9l-26.5-305.1c-4.2-47.9-9.8-97.9-13.4-125.5h35.8c2,41.8,4.2,77.5,7.9,125.5l8.7,113.2h1
			l8.6-113.2c3.7-47.9,5.9-83.7,7.9-125.5h35.8c-3.6,27.6-9.2,77.5-13.3,125.5l-26.5,309.1v46.9c0,84.7,1.1,175.5,2.6,231.6h-31.2
			C953.1-2205.4,954.3-2298.2,954.3-2383.9z"/>
		<path class="st0" d="M1046.4-2405.3v-197.9c0-88.8-1.3-194.9-3.3-258.1h56.8c21.2,0,34.6,99,34.6,272.4
			c0,174.5-10.8,290.8-31.3,290.8c-16,0-27-73.5-29.8-196.9h-1v93.9c0,88.8,1.2,190.8,3.3,254h-32.8
			C1045.3-2210.4,1046.4-2315.5,1046.4-2405.3z M1108.9-2575.7c0-54.1-4.7-83.7-14.3-83.7c-8,0-14.8,3.1-22.1,17.3v33.7
			c0,80.6,7.6,130.6,19.7,130.6C1101.3-2477.8,1108.9-2516.5,1108.9-2575.7z"/>
		<path class="st0" d="M1177-2426.7c-2,0-5.7,3.1-7.2,7.1v42.9c0,88.8,1.2,166.3,3.3,229.6h-32.8c2.2-63.2,3.3-168.3,3.3-258.1
			v-197.9c0-88.8-1.3-194.9-3.3-258.1h58.2c20.5,0,34.1,62.2,34.1,192.8c0,128.6-13.2,195.9-33.5,195.9h-6.1v12.2h0.4
			c12.1,0,11.6,76.5,24.6,76.5c9.5,0,15.2-53.1,17.4-106.1l0.1,290.8c-2.6,40.8-9.7,67.3-16.7,67.3
			C1188-2131.9,1198.9-2426.7,1177-2426.7z M1196.8-2520.6c6,0,10.2-17.3,10.2-53.1c0-39.8-4.2-55.1-10.2-55.1h-27v108.1
			L1196.8-2520.6L1196.8-2520.6z"/>
		<path class="st0" d="M1239.4-2504.3c0-236.7,20.1-372.4,49.3-372.4s49.3,135.7,49.3,372.4s-20.1,372.4-49.3,372.4
			C1259.5-2131.9,1239.4-2267.6,1239.4-2504.3z M1312-2504.3c0-88.8-9.3-140.8-23.3-140.8c-14,0-23.3,52-23.3,140.8
			s9.2,141.8,23.3,141.8C1302.7-2362.5,1312-2415.5,1312-2504.3z"/>
		<path class="st0" d="M1347.9-2405.3v-197.9c0-89.8-1.3-195.9-3.3-258.1h53.2c27.9,0,42.8,131.6,42.8,357.1s-14.9,357.1-42.8,357.1
			h-53.2C1346.7-2210.4,1347.9-2315.5,1347.9-2405.3z M1393.3-2380.8c13.9,0,21-39.8,21-123.4s-7.2-123.4-21-123.4H1374v246.9
			L1393.3-2380.8L1393.3-2380.8z"/>
		<path class="st0" d="M1449.4-2492v-111.2c0-88.8-1.3-194.9-3.3-258.1h32.7c-2,63.2-3.3,179.6-3.3,269.3v70.4
			c0,93.9,6.5,165.3,16,165.3c9.4,0,15.9-71.4,15.9-165.3v-70.4c0-89.8-1.3-206.1-3.3-269.3h32.8c-2,63.2-3.3,169.4-3.3,258.1v111.2
			c0,228.5-12.8,360.1-42,360.1C1462.2-2131.9,1449.4-2263.5,1449.4-2492z"/>
		<path class="st0" d="M1542.9-2504.3c0-259.1,21.7-372.4,49.9-372.4c15.5,0,28,37.8,36.5,81.6l-3.3,249.9
			c-5.3-53.1-16.4-97.9-30.1-97.9c-14.8,0-26.9,43.9-26.9,136.7c0,93.9,12.3,140.8,30.6,140.8c12.5,0,23.3-31.6,31.4-90.8v276.5
			c-9.4,28.6-21.2,47.9-36.7,47.9C1566.1-2131.9,1542.9-2245.1,1542.9-2504.3z"/>
		<path class="st0" d="M1664.7-2405.3v-227.5h-11c-10.1,0-16.3,6.1-21.3,23.5l4.8-252h81.2l4.8,252c-5-17.3-11.2-23.5-21.3-23.5
			h-11.1v227.5c0,89.8,1.2,194.9,3.3,258.1h-32.8C1663.6-2210.4,1664.7-2315.5,1664.7-2405.3z"/>
		<path class="st0" d="M1723.8-2208.4l1-271.4c10.4,84.7,26.1,127.5,46.6,127.5c11,0,17-11.2,17-46.9c0-111.2-64.2,38.8-64.2-268.3
			c0-159.1,19.4-209.1,44.4-209.1c12.1,0,28.3,20.4,38.9,64.3v237.7c-9.9-54.1-23.8-83.7-38-83.7c-9.8-1-17.8,9.2-17.8,46.9
			c0,118.3,64.2-52,64.2,249.9c0,150-15.5,229.6-44.2,229.6C1758.3-2131.9,1734.8-2165.6,1723.8-2208.4z"/>
		<path class="st0" d="M1836.7-2560.4c18.2,0,22.3-28.6,22.3-83.7c0-42.9-4.5-78.6-13.3-78.6c-13.9,0-25.6,51-25.6,51v-155.1
			c0,0,10-45.9,25.6-45.9c20.4,0,33.4,74.5,33.3,200c0,108.1-7,171.4-22.6,191.8l-1.1,73.5h-16.6L1836.7-2560.4z M1836-2245.1
			c0-70.4,4.5-110.2,11.1-110.2s11.1,39.8,11.1,110.2c0,69.4-4.5,109.2-11.1,109.2C1840.5-2137,1836-2175.8,1836-2245.1z"/>
	</g>
</g>
<g>
	
		<text transform="matrix(9.090000e-02 0 0 1 4717.1904 -2922.5239)" class="st0" style="font-family:'Brice-BoldExpanded'; font-size:940.0613px;">WHAT IS UGLY PRODUCTS?</text>
</g>
<g>
	
		<text transform="matrix(9.090000e-02 0 0 1 4845.2715 -2102.2236)" class="st0" style="font-family:'Brice-BoldExpanded'; font-size:940.0613px;">FOOD REFURBISHED</text>
</g>
<g>
	
		<text transform="matrix(9.090000e-02 0 0 1 4806.7178 -466.896)" class="st0" style="font-family:'Brice-BoldExpanded'; font-size:940.0613px;">ENVIRONMENTAL ISSUES</text>
</g>
<g>
	
		<text transform="matrix(9.090000e-02 0 0 1 4766.3643 -1235.2822)" class="st0" style="font-family:'Brice-BoldExpanded'; font-size:940.0613px;">OPINIONS ON UGLY PRODUCTS</text>
</g>
<g>
	<g>
		<path class="st0" d="M-2209.8,478.2V280.3c0-89.8-1.6-195.9-4.2-258.1h105l4.3,265.3c-4.3-20.4-17.2-34.7-26.4-34.7h-45.4v106.1
			h38c5.8,0,11.4-2,15.1-7.1v130.6c-3.7-5.1-9.4-7.1-15.1-7.1h-38v48c0,89.8,1.5,150,4.4,213.2h-41.9
			C-2211.3,673.1-2209.8,568-2209.8,478.2z"/>
		<path class="st0" d="M-2103.3,379.2c0-236.7,25.7-372.4,63.1-372.4c37.4,0,63.1,135.7,63.1,372.4s-25.7,372.4-63.1,372.4
			C-2077.6,751.6-2103.3,616-2103.3,379.2z M-2010.5,379.2c0-88.8-11.9-140.8-29.8-140.8c-17.9,0-29.8,52-29.8,140.8
			s11.8,141.8,29.8,141.8C-2022.4,521.1-2010.5,468-2010.5,379.2z"/>
		<path class="st0" d="M-1972.1,379.2c0-236.7,25.7-372.4,63.1-372.4s63.1,135.7,63.1,372.4s-25.7,372.4-63.1,372.4
			C-1946.4,751.6-1972.1,616-1972.1,379.2z M-1879.3,379.2c0-88.8-12-140.8-29.8-140.8c-17.9,0-29.8,52-29.8,140.8
			s11.8,141.8,29.8,141.8C-1891.2,521.1-1879.3,468-1879.3,379.2z"/>
		<path class="st0" d="M-1833.4,478.2V280.3c0-89.8-1.7-195.9-4.3-258.1h68.1c35.7,0,54.8,131.6,54.8,357.1s-19,357.1-54.8,357.1
			h-68.1C-1834.9,673.1-1833.4,568-1833.4,478.2z M-1775.4,502.7c17.8,0,26.8-39.8,26.8-123.5s-9.2-123.4-26.8-123.4h-24.7v246.9
			H-1775.4z"/>
		<path class="st0" d="M-1629.8,456.8c-2.6,0-7.3,3.1-9.2,7.1v42.9c0,88.8,1.5,166.3,4.3,229.5h-41.9c2.8-63.2,4.3-168.3,4.3-258.1
			V280.3c0-88.8-1.7-194.9-4.3-258.1h74.5c26.3,0,43.6,62.2,43.6,192.8c0,128.6-16.9,195.9-42.8,195.9h-7.8v12.2h0.6
			c15.4,0,14.9,76.5,31.4,76.5c12.2,0,19.4-53,22.3-106.1l0.1,290.8c-3.3,40.8-12.4,67.3-21.4,67.3
			C-1615.7,751.6-1601.7,456.8-1629.8,456.8z M-1604.5,362.9c7.7,0,13.1-17.3,13.1-53c0-39.8-5.4-55.1-13.1-55.1h-34.5v108.1
			H-1604.5z"/>
		<path class="st0" d="M-1541.2,478.2V280.3c0-89.8-1.7-195.9-4.3-258.1h105.9l4.1,253c-4.1-19.4-14.3-34.7-23.4-34.7h-48.9v80.6
			h34.3c5.8,0,11.4-2,15.1-7.1v124.5c-3.7-6.1-9.3-8.2-15.1-8.2h-34.3V518h51c7.6,0,18.6-17.3,24.8-56.1l-5.8,274.4h-107.7
			C-1542.6,673.1-1541.2,568-1541.2,478.2z"/>
		<path class="st0" d="M-1419.6,478.2V280.3c0-89.8-1.6-195.9-4.2-258.1h105l4.3,265.3c-4.3-20.4-17.2-34.7-26.4-34.7h-45.4v106.1
			h38c5.8,0,11.4-2,15.1-7.1v130.6c-3.7-5.1-9.3-7.1-15.1-7.1h-38v48c0,89.8,1.5,150,4.4,213.2h-41.9
			C-1421,673.1-1419.6,568-1419.6,478.2z"/>
		<path class="st0" d="M-1303.9,391.5V280.3c0-88.8-1.7-194.9-4.3-258.1h41.8c-2.6,63.2-4.2,179.6-4.2,269.3v70.4
			c0,93.9,8.3,165.3,20.5,165.3c12.1,0,20.4-71.4,20.4-165.3v-70.4c0-89.8-1.7-206.1-4.3-269.3h41.9c-2.6,63.2-4.3,169.4-4.3,258.1
			v111.2c0,228.5-16.3,360.1-53.8,360.1C-1287.6,751.6-1303.9,620-1303.9,391.5z"/>
		<path class="st0" d="M-1133.3,456.8c-2.6,0-7.3,3.1-9.2,7.1v42.9c0,88.8,1.5,166.3,4.3,229.5h-41.9c2.8-63.2,4.3-168.3,4.3-258.1
			V280.3c0-88.8-1.7-194.9-4.3-258.1h74.5c26.3,0,43.6,62.2,43.6,192.8c0,128.6-16.9,195.9-42.8,195.9h-7.8v12.2h0.6
			c15.4,0,14.9,76.5,31.4,76.5c12.2,0,19.4-53,22.3-106.1l0.1,290.8c-3.3,40.8-12.4,67.3-21.4,67.3
			C-1119.2,751.6-1105.2,456.8-1133.3,456.8z M-1108.1,362.9c7.7,0,13.1-17.3,13.1-53c0-39.8-5.4-55.1-13.1-55.1h-34.5v108.1
			H-1108.1z"/>
		<path class="st0" d="M-1044.7,478.2V280.3c0-89.8-1.7-195.9-4.3-258.1h80.7c15.3,0,27.8,54.1,27.8,168.3
			c0,110.2-11.8,166.3-26.8,166.3h-3.3V369h5.6c16.9,0,31,55.1,31,181.6s-14,185.7-31.9,185.7h-83.2
			C-1046.3,673.1-1044.7,568-1044.7,478.2z M-979.2,321.1c4.3,0,7.8-14.3,7.8-44.9c0-31.6-3.4-44.9-7.7-44.9h-32.3v89.8
			L-979.2,321.1L-979.2,321.1z M-977.2,522.1c5.6,0,9.3-16.3,9.3-52c0-37.8-3.8-54.1-9.5-54.1h-34.2v106.1H-977.2z"/>
		<path class="st0" d="M-921.1,478.2V280.3c0-89.8-1.7-195.9-4.3-258.1h41.9c-2.6,62.2-4.4,168.3-4.4,258.1v197.9
			c0,89.8,1.5,194.9,4.4,258.1h-41.9C-922.7,673.1-921.1,568-921.1,478.2z"/>
		<path class="st0" d="M-874.8,675.1l1.2-271.4c13.3,84.7,33.4,127.5,59.6,127.5c14.1,0,21.8-11.2,21.8-46.9
			c0-111.2-82.2,38.8-82.2-268.3c0-159.1,24.8-209.1,56.8-209.1c15.4,0,36.2,20.4,49.8,64.3v237.7c-12.6-54.1-30.4-83.7-48.6-83.7
			c-12.5-1-22.8,9.2-22.8,46.9c0,118.3,82.2-52,82.2,250c0,150-19.8,229.5-56.5,229.5C-830.6,751.6-860.6,718-874.8,675.1z"/>
		<path class="st0" d="M-743.8,478.2V280.3c0-89.8-1.8-193.8-4.3-258.1h41.9c-2.8,70.4-4.3,145.9-4.3,233.6v53h39.1v-53.1
			c0-89.8-1.8-170.4-4.4-233.6h42c-2.7,62.2-4.3,168.3-4.3,258.1v197.9c0,89.8,1.5,194.9,4.3,258.1h-42
			c2.1-63.2,4.4-143.8,4.4-233.6v-64.3h-39.1v64.3c0,82.6,0.8,161.2,4.3,233.6h-41.9C-745.3,674.1-743.8,568-743.8,478.2z"/>
		<path class="st0" d="M-616.2,478.2V280.3c0-89.8-1.7-195.9-4.3-258.1h105.9l4.1,253c-4.1-19.4-14.3-34.7-23.4-34.7h-48.9v80.6
			h34.3c5.8,0,11.4-2,15.1-7.1v124.5c-3.7-6.1-9.3-8.2-15.1-8.2h-34.3V518h51.1c7.6,0,18.6-17.3,24.8-56.1l-5.7,274.4h-107.7
			C-617.7,673.1-616.2,568-616.2,478.2z"/>
		<path class="st0" d="M-494.5,478.2V280.3c0-89.8-1.7-195.9-4.3-258.1h68.1c35.7,0,54.8,131.6,54.8,357.1s-19.1,357.1-54.8,357.1
			h-68.1C-496,673.1-494.5,568-494.5,478.2z M-436.5,502.7c17.8,0,26.8-39.8,26.8-123.5s-9.2-123.4-26.8-123.4h-24.7v246.9H-436.5z"
			/>
	</g>
</g>
<g>
	<g>
		<path class="st0" d="M44.4-1630.9v-197.9c0-89.8-1.3-195.9-3.4-258.1h84.7l3.2,253c-3.2-19.4-11.4-34.7-18.7-34.7H71.1v80.6h27.4
			c4.6,0,9.1-2,12.1-7.1v124.5c-3-6.1-7.5-8.2-12.1-8.2H71.1v87.7h40.8c6,0,14.9-17.3,19.8-56.1l-4.6,274.4H41
			C43.2-1436,44.4-1541.1,44.4-1630.9z"/>
		<path class="st0" d="M141.7-1630.9v-197.9c0-89.8-1.2-194.9-3.4-258.1h31.9l39.2,372.4h1.2V-1840c0-97.9-1.7-200-3.2-246.9h33.5
			c-2.1,62.2-3.5,168.3-3.5,258.1v456h-23.7l-43.9-410.1h-1.3v124.5c0,96.9,1.7,232.6,3.4,285.7h-33.5
			C140.3-1435,141.7-1541.1,141.7-1630.9z"/>
		<path class="st0" d="M269.1-1629.9l-10.4-198.9c-4.3-89.8-10.4-194.9-14.9-258.1h34.8c0.5,39.8,1.5,81.6,4,138.8l10.5,222.4
			c1.7,37.8,2.9,69.4,3.8,108.1h0.9c0.9-41.8,2-67.3,3.7-108.1l10.5-222.4c2.4-58.2,3.6-99,4-138.8H349
			c-4.7,63.2-10.7,168.3-15,258.1l-10.4,197.9c-4.2,89.8-8.3,194.9-9.6,258.1h-35.3C277.2-1438.1,273.2-1544.2,269.1-1629.9z"/>
		<path class="st0" d="M356.5-1630.9v-197.9c0-89.8-1.4-195.9-3.4-258.1h33.5c-2.1,62.2-3.5,168.3-3.5,258.1v197.9
			c0,89.8,1.2,194.9,3.5,258.1H353C355.2-1436,356.5-1541.1,356.5-1630.9z"/>
		<path class="st0" d="M434.5-1652.3c-2.1,0-5.9,3.1-7.4,7.1v42.8c0,88.8,1.2,166.3,3.4,229.6h-33.5c2.2-63.2,3.4-168.3,3.4-258.1
			v-197.9c0-88.8-1.4-194.9-3.4-258.1h59.5c21,0,34.9,62.2,34.9,192.8c0,128.6-13.5,195.9-34.2,195.9H451v12.2h0.5
			c12.3,0,11.9,76.5,25.1,76.5c9.7,0,15.5-53.1,17.8-106.1l0.1,290.8c-2.6,40.8-9.9,67.3-17.1,67.3
			C445.8-1357.5,457-1652.3,434.5-1652.3z M454.7-1746.2c6.1,0,10.5-17.3,10.5-53.1c0-39.8-4.3-55.1-10.5-55.1h-27.6v108.1H454.7z"
			/>
		<path class="st0" d="M498.3-1729.8c0-236.7,20.5-372.4,50.4-372.4s50.4,135.7,50.4,372.4s-20.5,372.4-50.4,372.4
			S498.3-1493.2,498.3-1729.8z M572.5-1729.8c0-88.8-9.5-140.8-23.8-140.8c-14.3,0-23.8,52-23.8,140.8s9.5,141.8,23.8,141.8
			C563-1588,572.5-1641.1,572.5-1729.8z"/>
		<path class="st0" d="M609.2-1630.9v-197.9c0-89.8-1.2-194.9-3.4-258.1h31.9l39.2,372.4h1.2V-1840c0-97.9-1.7-200-3.2-246.9h33.5
			c-2.1,62.2-3.5,168.3-3.5,258.1v456H681l-44-410.1h-1.3v124.5c0,96.9,1.7,232.6,3.4,285.7h-33.5
			C607.8-1435,609.2-1541.1,609.2-1630.9z"/>
		<path class="st0" d="M722.1-1630.9v-197.9c0-89.8-1.2-194.9-3.3-258.1h34.4l17.6,285.7c3.1,47.9,4.7,79.6,7.4,144.9h1.2
			c2.7-62.2,4-89.8,7.5-144.9l17.7-285.7h33.5c-2.2,63.2-3.4,168.3-3.4,258.1v197.9c0,89.8,1.3,195.9,3.4,258.1h-33.4
			c1.6-47.9,3.3-177.5,3.3-273.4v-117.3h-1.5l-24.8,390.7h-6.9L750-1763.5h-1.2v117.3c0,95.9,1.7,225.5,3.4,273.4h-33.5
			C720.8-1435,722.1-1541.1,722.1-1630.9z"/>
		<path class="st0" d="M852-1630.9v-197.9c0-89.8-1.3-195.9-3.4-258.1h84.7l3.2,253c-3.2-19.4-11.4-34.7-18.7-34.7h-39.1v80.6H906
			c4.6,0,9.1-2,12.1-7.1v124.5c-3-6.1-7.5-8.2-12.1-8.2h-27.4v87.7h40.8c6,0,14.9-17.3,19.8-56.1l-4.6,274.4h-86.1
			C850.8-1436,852-1541.1,852-1630.9z"/>
		<path class="st0" d="M949.2-1630.9v-197.9c0-89.8-1.2-194.9-3.4-258.1h31.9l39.2,372.4h1.2V-1840c0-97.9-1.7-200-3.2-246.9h33.5
			c-2.1,62.2-3.5,168.3-3.5,258.1v456h-23.7l-44-410.1h-1.3v124.5c0,96.9,1.7,232.6,3.4,285.7h-33.5
			C947.9-1435,949.2-1541.1,949.2-1630.9z"/>
		<path class="st0" d="M1086.6-1630.9v-227.5h-11.3c-10.4,0-16.7,6.1-21.8,23.5l4.9-252h82.9l4.9,252c-5.1-17.3-11.4-23.5-21.8-23.5
			h-11.3v227.5c0,89.8,1.3,194.9,3.4,258.1h-33.5C1085.4-1436,1086.6-1541.1,1086.6-1630.9z"/>
		<path class="st0" d="M1149.1-1630.9l10.4-197.9c4.2-89.8,8.3-194.9,9.6-258.1h38.1c1.4,65.3,5.4,171.4,9.6,257.1l10.4,198.9
			c4.2,89.8,10.2,194.9,14.8,258.1h-34c-0.4-32.7-1.2-66.3-3.3-127.5l-1.4-29.6h-30l-1.4,30.6c-2,60.2-3,93.9-3.5,126.5h-33.9
			C1138.9-1436,1144.8-1542.1,1149.1-1630.9z M1197-1644.2l-4.9-101c-1.8-42.8-2.6-79.6-3.4-124.5h-1.3
			c-0.9,47.9-1.6,78.6-3.5,124.5l-4.8,101H1197z"/>
		<path class="st0" d="M1268.2-1402.3c-11.4,0-19.4,28.6-23.4,44.9c2.2-63.2,3.4-183.6,3.4-273.4v-197.9c0-89.8-1.3-195.9-3.4-258.1
			h33.5c-2.1,62.2-3.5,237.7-3.5,327.5v158.1h25.1c8.9,0,18.1-17.3,23.1-43.9l-0.4,258.1c-0.7,1-7,29.6-14.5,29.6
			C1292.8-1357.5,1285.5-1402.3,1268.2-1402.3z"/>
		<path class="st0" d="M1354.6-1630.9v-197.9c0-89.8-1.3-195.9-3.4-258.1h33.5c-2.1,62.2-3.5,168.3-3.5,258.1v197.9
			c0,89.8,1.2,194.9,3.5,258.1h-33.5C1353.3-1436,1354.6-1541.1,1354.6-1630.9z"/>
		<path class="st0" d="M1391.6-1434l1-271.4c10.6,84.7,26.7,127.5,47.6,127.5c11.3,0,17.4-11.2,17.4-46.9
			c0-111.2-65.7,38.8-65.7-268.3c0-159.1,19.8-209.1,45.4-209.1c12.3,0,28.9,20.4,39.8,64.3v237.7c-10.1-54.1-24.3-83.7-38.8-83.7
			c-10-1-18.2,9.2-18.2,46.9c0,118.3,65.7-52,65.7,249.9c0,150-15.8,229.6-45.1,229.6C1426.9-1357.5,1403-1391.1,1391.6-1434z"/>
		<path class="st0" d="M1488.9-1434l1-271.4c10.6,84.7,26.7,127.5,47.6,127.5c11.3,0,17.4-11.2,17.4-46.9
			c0-111.2-65.7,38.8-65.7-268.3c0-159.1,19.8-209.1,45.4-209.1c12.3,0,28.9,20.4,39.8,64.3v237.7c-10.1-54.1-24.3-83.7-38.8-83.7
			c-10-1-18.2,9.2-18.2,46.9c0,118.3,65.7-52,65.7,249.9c0,150-15.8,229.6-45.1,229.6C1524.2-1357.5,1500.2-1391.1,1488.9-1434z"/>
		<path class="st0" d="M1592.4-1717.6v-111.2c0-88.8-1.3-194.9-3.4-258.1h33.4c-2.1,63.2-3.3,179.6-3.3,269.3v70.4
			c0,93.9,6.7,165.3,16.4,165.3c9.6,0,16.3-71.4,16.3-165.3v-70.4c0-89.8-1.3-206.1-3.4-269.3h33.5c-2.1,63.2-3.4,169.4-3.4,258.1
			v111.2c0,228.5-13.1,360.1-43,360.1C1605.4-1357.5,1592.4-1489.1,1592.4-1717.6z"/>
		<path class="st0" d="M1694.7-1630.9v-197.9c0-89.8-1.3-195.9-3.4-258.1h84.7l3.2,253c-3.2-19.4-11.4-34.7-18.7-34.7h-39.1v80.6
			h27.4c4.6,0,9.1-2,12.1-7.1v124.5c-3-6.1-7.5-8.2-12.1-8.2h-27.4v87.7h40.8c6,0,14.9-17.3,19.8-56.1l-4.6,274.4h-86.1
			C1693.5-1436,1694.7-1541.1,1694.7-1630.9z"/>
		<path class="st0" d="M1784.8-1434l1-271.4c10.6,84.7,26.7,127.5,47.6,127.5c11.3,0,17.4-11.2,17.4-46.9
			c0-111.2-65.7,38.8-65.7-268.3c0-159.1,19.8-209.1,45.4-209.1c12.3,0,28.9,20.4,39.8,64.3v237.7c-10.1-54.1-24.3-83.7-38.8-83.7
			c-10-1-18.2,9.2-18.2,46.9c0,118.3,65.7-52,65.7,249.9c0,150-15.8,229.6-45.1,229.6C1820.1-1357.5,1796.2-1391.1,1784.8-1434z"/>
	</g>
</g>
<g>
	<g>
		<path class="st0" d="M41,3577.2c0-218.1,17.4-343.1,42.7-343.1s42.7,125,42.7,343.1s-17.4,343.1-42.7,343.1S41,3795.3,41,3577.2z
			 M103.7,3577.2c0-81.8-8.1-129.7-20.1-129.7c-12.1,0-20.1,47.9-20.1,129.7s8,130.7,20.1,130.7
			C95.7,3707.9,103.7,3659,103.7,3577.2z"/>
		<path class="st0" d="M134.7,3668.4V3486c0-81.8-1.1-179.6-2.9-237.8H181c18.4,0,29.9,91.2,29.9,251c0,160.8-9.3,267.9-27,267.9
			c-13.9,0-23.3-67.7-25.8-181.4h-0.8v86.5c0,81.8,1,175.8,2.9,234.1h-28.3C133.8,3847.9,134.7,3751.1,134.7,3668.4z M188.8,3511.4
			c0-49.8-4-77.1-12.3-77.1c-6.9,0-12.8,2.8-19.1,16v31c0,74.3,6.6,120.3,17.1,120.3C182.2,3601.7,188.8,3565.9,188.8,3511.4z"/>
		<path class="st0" d="M218.8,3668.4V3486c0-82.7-1.1-180.5-2.9-237.8h28.3c-1.8,57.3-3,155.1-3,237.8v182.4c0,82.7,1,179.6,3,237.8
			h-28.3C217.8,3847.9,218.8,3751.1,218.8,3668.4z"/>
		<path class="st0" d="M256.1,3668.4V3486c0-82.7-1-179.6-2.9-237.8h27l33.1,343.1h1v-115.6c0-90.2-1.5-184.2-2.7-227.5h28.3
			c-1.8,57.3-3,155.1-3,237.8v420.2h-20l-37.2-377.9h-1.1V3643c0,89.3,1.5,214.3,2.9,263.2h-28.3
			C254.9,3848.9,256.1,3751.1,256.1,3668.4z"/>
		<path class="st0" d="M351.7,3668.4V3486c0-82.7-1.1-180.5-2.9-237.8h28.3c-1.8,57.3-3,155.1-3,237.8v182.4c0,82.7,1,179.6,3,237.8
			h-28.3C350.6,3847.9,351.7,3751.1,351.7,3668.4z"/>
		<path class="st0" d="M383.2,3577.2c0-218.1,17.4-343.1,42.7-343.1s42.7,125,42.7,343.1s-17.4,343.1-42.7,343.1
			S383.2,3795.3,383.2,3577.2z M446,3577.2c0-81.8-8.1-129.7-20.1-129.7c-12.1,0-20.1,47.9-20.1,129.7s8,130.7,20.1,130.7
			C437.9,3707.9,446,3659,446,3577.2z"/>
		<path class="st0" d="M477,3668.4V3486c0-82.7-1-179.6-2.9-237.8h27l33.1,343.1h1v-115.6c0-90.2-1.5-184.2-2.7-227.5h28.3
			c-1.8,57.3-3,155.1-3,237.8v420.2h-20l-37.2-377.9h-1.1V3643c0,89.3,1.5,214.3,2.9,263.2h-28.3
			C475.9,3848.9,477,3751.1,477,3668.4z"/>
		<path class="st0" d="M566.6,3849.8l0.8-250.1c9,78,22.5,117.5,40.3,117.5c9.5,0,14.7-10.3,14.7-43.2c0-102.5-55.5,35.7-55.5-247.2
			c0-146.6,16.8-192.7,38.4-192.7c10.4,0,24.5,18.8,33.7,59.2v219c-8.5-49.8-20.6-77.1-32.8-77.1c-8.5-0.9-15.4,8.5-15.4,43.2
			c0,109.1,55.5-47.9,55.5,230.3c0,138.2-13.4,211.5-38.2,211.5C596.5,3920.3,576.2,3889.3,566.6,3849.8z"/>
		<path class="st0" d="M669,3577.2c0-218.1,17.4-343.1,42.7-343.1s42.7,125,42.7,343.1s-17.4,343.1-42.7,343.1
			S669,3795.3,669,3577.2z M731.8,3577.2c0-81.8-8.1-129.7-20.1-129.7c-12.1,0-20.1,47.9-20.1,129.7s8,130.7,20.1,130.7
			C723.7,3707.9,731.8,3659,731.8,3577.2z"/>
		<path class="st0" d="M762.8,3668.4V3486c0-82.7-1-179.6-2.9-237.8h27l33.1,343.1h1v-115.6c0-90.2-1.5-184.2-2.7-227.5h28.3
			c-1.8,57.3-3,155.1-3,237.8v420.2h-20l-37.2-377.9h-1.1V3643c0,89.3,1.5,214.3,2.9,263.2h-28.3
			C761.7,3848.9,762.8,3751.1,762.8,3668.4z"/>
		<path class="st0" d="M877,3588.5V3486c0-81.8-1.1-179.6-2.9-237.8h28.3c-1.8,58.3-2.8,165.4-2.8,248.2v64.9
			c0,86.5,5.6,152.3,13.9,152.3c8.2,0,13.8-65.8,13.8-152.3v-64.9c0-82.7-1.1-189.9-2.9-248.2h28.3c-1.8,58.3-2.9,156.1-2.9,237.8
			v102.5c0,210.6-11,331.8-36.3,331.8C888,3920.3,877,3799.1,877,3588.5z"/>
		<path class="st0" d="M957.8,3577.2c0-220,16.9-343.1,43-343.1c11.7,0,20.1,14.1,30.3,43.2l-1.3,223.7c-5.9-36.7-16.7-61.1-28-61.1
			c-13.4,0-22.1,47-22.1,137.2c0,81.8,7.8,138.2,21.2,138.2c6.2,0,12.1-17.9,16.4-50.8V3627h-13.1c-2.1,0-5.4,4.7-7.2,12.2l0.2-94
			h40.1v247.2c-7.2,77.1-20.1,127.9-36.6,127.9C974.7,3920.3,957.8,3797.2,957.8,3577.2z"/>
		<path class="st0" d="M1064.1,3879c-9.7,0-16.4,26.3-19.8,41.4c1.8-58.3,2.9-169.2,2.9-251.9V3486c0-82.7-1.1-180.5-2.9-237.8h28.3
			c-1.8,57.3-3,219-3,301.8v145.7h21.2c7.5,0,15.3-16,19.5-40.4l-0.3,237.8c-0.6,0.9-5.9,27.3-12.3,27.3
			C1084.8,3920.3,1078.7,3879,1064.1,3879z"/>
		<path class="st0" d="M1134.3,3688.1v-43.2l-22.9-281.1c-3.7-44.2-8.4-90.2-11.6-115.6h30.9c1.8,38.5,3.7,71.4,6.8,115.6l7.5,104.4
			h0.8l7.5-104.4c3.2-44.2,5.1-77.1,6.9-115.6h30.9c-3.1,25.4-7.9,71.4-11.5,115.6l-22.9,284.8v43.2c0,78,0.9,161.7,2.2,213.4H1132
			C1133.2,3852.6,1134.3,3767.1,1134.3,3688.1z"/>
		<path class="st0" d="M1213.9,3668.4V3486c0-81.8-1.1-179.6-2.9-237.8h49.1c18.4,0,29.9,91.2,29.9,251c0,160.8-9.3,267.9-27,267.9
			c-13.9,0-23.3-67.7-25.8-181.4h-0.8v86.5c0,81.8,1,175.8,2.9,234.1H1211C1212.9,3847.9,1213.9,3751.1,1213.9,3668.4z
			 M1267.9,3511.4c0-49.8-4-77.1-12.3-77.1c-6.9,0-12.8,2.8-19.1,16v31c0,74.3,6.6,120.3,17.1,120.3
			C1261.3,3601.7,1267.9,3565.9,1267.9,3511.4z"/>
		<path class="st0" d="M1326.8,3648.7c-1.8,0-4.9,2.8-6.2,6.6v39.5c0,81.8,1,153.2,2.9,211.5h-28.3c1.9-58.3,2.9-155.1,2.9-237.8
			V3486c0-81.8-1.1-179.6-2.9-237.8h50.3c17.8,0,29.5,57.3,29.5,177.7c0,118.4-11.4,180.5-28.9,180.5h-5.3v11.3h0.4
			c10.4,0,10.1,70.5,21.2,70.5c8.2,0,13.1-48.9,15.1-97.8l0.1,267.9c-2.2,37.6-8.4,62-14.5,62
			C1336.3,3920.3,1345.7,3648.7,1326.8,3648.7z M1343.8,3562.2c5.2,0,8.8-16,8.8-48.9c0-36.7-3.7-50.8-8.8-50.8h-23.3v99.6
			L1343.8,3562.2L1343.8,3562.2z"/>
		<path class="st0" d="M1380.7,3577.2c0-218.1,17.4-343.1,42.7-343.1s42.7,125,42.7,343.1s-17.4,343.1-42.7,343.1
			C1398.1,3920.3,1380.7,3795.3,1380.7,3577.2z M1443.5,3577.2c0-81.8-8.1-129.7-20.1-129.7c-12.1,0-20.1,47.9-20.1,129.7
			s8,130.7,20.1,130.7C1435.4,3707.9,1443.5,3659,1443.5,3577.2z"/>
		<path class="st0" d="M1474.5,3668.4V3486c0-82.7-1.1-180.5-2.9-237.8h46c24.2,0,37,121.3,37,329s-12.9,329-37,329h-46
			C1473.5,3847.9,1474.5,3751.1,1474.5,3668.4z M1513.7,3691c12,0,18.1-36.7,18.1-113.8s-6.2-113.8-18.1-113.8H1497V3691H1513.7z"/>
		<path class="st0" d="M1562.2,3588.5V3486c0-81.8-1.1-179.6-2.9-237.8h28.3c-1.8,58.3-2.8,165.4-2.8,248.2v64.9
			c0,86.5,5.6,152.3,13.9,152.3c8.2,0,13.8-65.8,13.8-152.3v-64.9c0-82.7-1.1-189.9-2.9-248.2h28.3c-1.8,58.3-2.9,156.1-2.9,237.8
			v102.5c0,210.6-11.1,331.8-36.3,331.8C1573.3,3920.3,1562.2,3799.1,1562.2,3588.5z"/>
		<path class="st0" d="M1643,3577.2c0-238.8,18.7-343.1,43.1-343.1c13.4,0,24.2,34.8,31.5,75.2l-2.8,230.3
			c-4.6-48.9-14.2-90.2-26.1-90.2c-12.8,0-23.2,40.4-23.2,126c0,86.5,10.7,129.7,26.4,129.7c10.8,0,20.1-29.1,27.1-83.7v254.8
			c-8.2,26.3-18.3,44.2-31.7,44.2C1663.1,3920.3,1643,3816,1643,3577.2z"/>
		<path class="st0" d="M1748.3,3668.4v-209.6h-9.5c-8.8,0-14.1,5.6-18.4,21.6l4.2-232.2h70.2l4.2,232.2c-4.3-16-9.7-21.6-18.4-21.6
			h-9.6v209.6c0,82.7,1.1,179.6,2.9,237.8h-28.3C1747.3,3847.9,1748.3,3751.1,1748.3,3668.4z"/>
		<path class="st0" d="M1799.3,3849.8l0.8-250.1c9,78,22.6,117.5,40.3,117.5c9.5,0,14.7-10.3,14.7-43.2
			c0-102.5-55.5,35.7-55.5-247.2c0-146.6,16.8-192.7,38.4-192.7c10.4,0,24.4,18.8,33.7,59.2v219c-8.5-49.8-20.6-77.1-32.8-77.1
			c-8.5-0.9-15.4,8.5-15.4,43.2c0,109.1,55.5-47.9,55.5,230.3c0,138.2-13.4,211.5-38.2,211.5
			C1829.2,3920.3,1808.9,3889.3,1799.3,3849.8z"/>
	</g>
</g>
<g>
	<path class="st0" d="M2462.8-1116v-111.2c0-88.8-1.8-194.9-4.7-258.1h45.6c-2.8,63.2-4.6,179.6-4.6,269.3v70.4
		c0,93.9,9.1,165.3,22.4,165.3c13.1,0,22.2-71.4,22.2-165.3v-70.4c0-89.8-1.8-206.1-4.7-269.3h45.7c-2.8,63.2-4.7,169.4-4.7,258.1
		v111.2c0,228.5-17.8,360.1-58.6,360.1C2480.7-755.8,2462.8-887.4,2462.8-1116z"/>
	<path class="st0" d="M2593.2-1128.2c0-238.7,27.3-372.4,69.4-372.4c18.8,0,32.4,15.3,48.9,46.9l-2.1,242.8
		c-9.6-39.8-26.9-66.3-45.1-66.3c-21.6,0-35.6,51-35.6,149c0,88.8,12.5,150,34.3,150c9.9,0,19.5-19.4,26.4-55.1v-40.8h-21.1
		c-3.3,0-8.7,5.1-11.6,13.3l0.4-102h64.6v268.3c-11.7,83.7-32.4,138.8-59,138.8C2620.5-755.8,2593.2-889.5,2593.2-1128.2z"/>
	<path class="st0" d="M2764.6-800.7c-15.6,0-26.5,28.6-31.9,44.9c2.9-63.2,4.7-183.6,4.7-273.4v-197.9c0-89.8-1.8-195.9-4.7-258.1
		h45.7c-2.8,62.2-4.8,237.7-4.8,327.5v158.1h34.3c12.2,0,24.7-17.3,31.4-43.9l-0.5,258.1c-1,1-9.6,29.6-19.8,29.6
		C2798.1-755.8,2788.2-800.7,2764.6-800.7z"/>
	<path class="st0" d="M2877.9-1007.8v-46.9l-37-305c-5.9-47.9-13.6-97.9-18.7-125.5h49.9c2.8,41.8,5.9,77.5,11.1,125.5l12.2,113.2
		h1.4l12-113.2c5.2-47.9,8.2-83.7,11.1-125.5h49.9c-5,27.6-12.8,77.5-18.6,125.5l-37,309.1v46.9c0,84.7,1.5,175.5,3.6,231.6h-43.5
		C2876.2-829.3,2877.9-922.1,2877.9-1007.8z"/>
	<path class="st0" d="M3022-1028.2l-14.1-198.9c-5.9-89.8-14.1-194.9-20.4-258.1h47.4c0.7,39.8,2.1,81.6,5.5,138.8l14.4,222.4
		c2.3,37.8,3.9,69.4,5.2,108.1h1.2c1.2-41.8,2.7-67.3,5-108.1l14.4-222.4c3.3-58.2,4.9-99,5.5-138.8h44.9
		c-6.4,63.2-14.6,168.3-20.5,258.1l-14.1,197.9c-5.8,89.8-11.3,194.9-13.1,258.1H3035C3033.1-836.4,3027.6-942.5,3022-1028.2z"/>
	<path class="st0" d="M3141.2-1029.2v-197.9c0-89.8-1.8-195.9-4.7-258.1H3252l4.4,253c-4.4-19.4-15.6-34.7-25.6-34.7h-53.3v80.6
		h37.4c6.3,0,12.4-2,16.5-7.1v124.5c-4.1-6.1-10.2-8.2-16.5-8.2h-37.4v87.7h55.7c8.2,0,20.3-17.3,27-56.1l-6.3,274.4h-117.4
		C3139.6-834.4,3141.2-939.5,3141.2-1029.2z"/>
	<path class="st0" d="M3262.8-1128.2c0-238.7,27.3-372.4,69.4-372.4c18.8,0,32.4,15.3,48.9,46.9l-2.1,242.8
		c-9.6-39.8-26.9-66.3-45.1-66.3c-21.6,0-35.6,51-35.6,149c0,88.8,12.5,150,34.3,150c9.9,0,19.5-19.4,26.4-55.1v-40.8h-21.1
		c-3.3,0-8.7,5.1-11.6,13.3l0.4-102h64.6v268.3c-11.7,83.7-32.4,138.8-59,138.8C3290.1-755.8,3262.8-889.5,3262.8-1128.2z"/>
	<path class="st0" d="M3406.9-1029.2v-197.9c0-89.8-1.8-195.9-4.7-258.1h115.5l4.4,253c-4.4-19.4-15.6-34.7-25.6-34.7h-53.3v80.6
		h37.4c6.3,0,12.4-2,16.5-7.1v124.5c-4.1-6.1-10.2-8.2-16.5-8.2h-37.4v87.7h55.7c8.2,0,20.3-17.3,27-56.1l-6.3,274.4h-117.4
		C3405.3-834.4,3406.9-939.5,3406.9-1029.2z"/>
	<path class="st0" d="M3572.8-1029.2v-227.5h-15.4c-14.1,0-22.7,6.1-29.7,23.5l6.8-252h113.2l6.8,252c-7-17.3-15.6-23.5-29.7-23.5
		h-15.5v227.5c0,89.8,1.7,194.9,4.7,258.1h-45.7C3571.2-834.4,3572.8-939.5,3572.8-1029.2z"/>
	<path class="st0" d="M3658.1-1029.2l14.1-197.9c5.8-89.8,11.3-194.9,13.1-258.1h52c2,65.3,7.4,171.4,13,257.1l14.2,198.9
		c5.8,89.8,13.9,194.9,20.1,258.1h-46.4c-0.5-32.7-1.6-66.3-4.6-127.5l-2-29.6h-40.9l-2,30.6c-2.7,60.2-4.1,93.9-4.8,126.5h-46.3
		C3644.2-834.4,3652.3-940.5,3658.1-1029.2z M3723.4-1042.5l-6.6-101c-2.5-42.8-3.6-79.6-4.7-124.5h-1.7
		c-1.2,47.9-2.2,78.6-4.8,124.5l-6.5,101H3723.4z"/>
	<path class="st0" d="M3793.3-1029.2v-197.9c0-89.8-1.8-195.9-4.7-258.1h88c16.7,0,30.4,54.1,30.4,168.3
		c0,110.2-12.9,166.3-29.2,166.3h-3.6v12.2h6.1c18.4,0,33.8,55.1,33.8,181.6s-15.2,185.7-34.8,185.7h-90.7
		C3791.6-834.4,3793.3-939.5,3793.3-1029.2z M3864.7-1186.4c4.7,0,8.5-14.3,8.5-44.9c0-31.6-3.7-44.9-8.4-44.9h-35.3v89.8H3864.7
		L3864.7-1186.4z M3866.9-985.4c6.1,0,10.2-16.3,10.2-52c0-37.8-4.2-54.1-10.3-54.1h-37.2v106.1H3866.9z"/>
	<path class="st0" d="M3955.4-800.7c-15.6,0-26.5,28.6-31.9,44.9c2.9-63.2,4.7-183.6,4.7-273.4v-197.9c0-89.8-1.8-195.9-4.7-258.1
		h45.7c-2.8,62.2-4.8,237.7-4.8,327.5v158.1h34.3c12.2,0,24.7-17.3,31.4-43.9l-0.5,258.1c-1,1-9.6,29.6-19.8,29.6
		C3988.9-755.8,3979-800.7,3955.4-800.7z"/>
	<path class="st0" d="M4044.7-1029.2v-197.9c0-89.8-1.8-195.9-4.7-258.1h115.5l4.4,253c-4.4-19.4-15.6-34.7-25.6-34.7h-53.3v80.6
		h37.4c6.3,0,12.4-2,16.5-7.1v124.5c-4-6.1-10.2-8.2-16.5-8.2h-37.4v87.7h55.7c8.2,0,20.3-17.3,27-56.1l-6.3,274.4H4040
		C4043.1-834.4,4044.7-939.5,4044.7-1029.2z"/>
	<path class="st0" d="M4167.7-832.3l1.4-271.4c14.5,84.7,36.4,127.5,65,127.5c15.4,0,23.7-11.2,23.7-46.9
		c0-111.2-89.6,38.8-89.6-268.3c0-159.2,27-209.1,61.9-209.1c16.8,0,39.4,20.4,54.3,64.3v237.7c-13.8-54.1-33.2-83.7-53-83.7
		c-13.6-1-24.8,9.2-24.8,46.9c0,118.3,89.6-52,89.6,249.9c0,150-21.6,229.5-61.6,229.5C4215.9-755.8,4183.2-789.5,4167.7-832.3z"/>
</g>
<g>
	<path class="st0" d="M-2641.6,391.5V280.3c0-88.8-1.8-194.9-4.7-258.1h45.6c-2.8,63.2-4.6,179.6-4.6,269.3v70.4
		c0,93.9,9.1,165.3,22.4,165.3c13.1,0,22.2-71.4,22.2-165.3v-70.4c0-89.8-1.8-206.1-4.7-269.3h45.7c-2.8,63.2-4.7,169.4-4.7,258.1
		v111.2c0,228.5-17.8,360.1-58.6,360.1C-2623.8,751.6-2641.6,620-2641.6,391.5z"/>
	<path class="st0" d="M-2511.3,379.3c0-238.7,27.3-372.4,69.4-372.4c18.8,0,32.4,15.3,48.9,46.9l-2.1,242.8
		c-9.6-39.8-26.9-66.3-45.1-66.3c-21.6,0-35.6,51-35.6,149c0,88.8,12.5,150,34.3,150c9.9,0,19.5-19.4,26.4-55.1v-40.8h-21.1
		c-3.3,0-8.7,5.1-11.6,13.3l0.4-102h64.6v268.3c-11.7,83.7-32.4,138.8-59,138.8C-2484,751.6-2511.3,618-2511.3,379.3z"/>
	<path class="st0" d="M-2339.9,706.7c-15.6,0-26.5,28.6-31.9,44.9c2.9-63.2,4.7-183.6,4.7-273.4V280.3c0-89.8-1.8-195.9-4.7-258.1
		h45.7c-2.8,62.2-4.8,237.7-4.8,327.5v158.1h34.3c12.2,0,24.7-17.3,31.4-43.9l-0.5,258.1c-1,1-9.6,29.6-19.8,29.6
		C-2306.3,751.6-2316.3,706.7-2339.9,706.7z"/>
	<path class="st0" d="M-2226.6,499.6v-46.9l-37-305c-5.9-47.9-13.6-97.9-18.7-125.5h49.9c2.8,41.8,5.9,77.5,11.1,125.5l12.2,113.2
		h1.4l12-113.2c5.2-47.9,8.2-83.7,11.1-125.5h49.9c-5,27.5-12.8,77.5-18.6,125.5l-37,309.1v46.9c0,84.7,1.5,175.5,3.6,231.6h-43.5
		C-2228.3,678.2-2226.6,585.3-2226.6,499.6z"/>
	<path class="st0" d="M-2082.5,479.2l-14.1-198.9c-5.9-89.8-14.1-194.9-20.4-258.1h47.4c0.7,39.8,2.1,81.6,5.5,138.8l14.4,222.4
		c2.3,37.8,3.9,69.4,5.2,108.1h1.2c1.2-41.8,2.7-67.3,5-108.1l14.4-222.4c3.3-58.2,4.9-99,5.5-138.8h44.8
		c-6.4,63.2-14.6,168.3-20.5,258.1l-14.1,197.9c-5.8,89.8-11.3,194.9-13.2,258.1h-48.2C-2071.4,671-2076.8,564.9-2082.5,479.2z"/>
	<path class="st0" d="M-1963.3,478.2V280.3c0-89.8-1.8-195.9-4.7-258.1h115.5l4.4,253c-4.4-19.4-15.6-34.7-25.6-34.7h-53.3v80.6
		h37.3c6.3,0,12.4-2,16.5-7.1v124.5c-4.1-6.1-10.2-8.2-16.5-8.2h-37.3V518h55.7c8.2,0,20.3-17.3,27-56.1l-6.3,274.4h-117.4
		C-1964.9,673.1-1963.3,568-1963.3,478.2z"/>
	<path class="st0" d="M-1841.7,379.3c0-238.7,27.3-372.4,69.4-372.4c18.8,0,32.4,15.3,48.9,46.9l-2.1,242.8
		c-9.6-39.8-26.9-66.3-45.1-66.3c-21.6,0-35.6,51-35.6,149c0,88.8,12.5,150,34.3,150c9.9,0,19.5-19.4,26.4-55.1v-40.8h-21.1
		c-3.3,0-8.7,5.1-11.6,13.3l0.4-102h64.6v268.3c-11.7,83.7-32.4,138.8-59,138.8C-1814.4,751.6-1841.7,618-1841.7,379.3z"/>
	<path class="st0" d="M-1697.5,478.2V280.3c0-89.8-1.8-195.9-4.7-258.1h115.5l4.4,253c-4.4-19.4-15.6-34.7-25.6-34.7h-53.3v80.6
		h37.3c6.3,0,12.4-2,16.5-7.1v124.5c-4.1-6.1-10.2-8.2-16.5-8.2h-37.3V518h55.7c8.2,0,20.3-17.3,27-56.1l-6.3,274.4h-117.4
		C-1699.1,673.1-1697.5,568-1697.5,478.2z"/>
	<path class="st0" d="M-1531.7,478.2V250.7h-15.4c-14.1,0-22.7,6.1-29.7,23.5l6.8-252h113.2l6.8,252c-7-17.3-15.6-23.5-29.7-23.5
		h-15.5v227.5c0,89.8,1.7,194.9,4.7,258.1h-45.7C-1533.3,673.1-1531.7,568-1531.7,478.2z"/>
	<path class="st0" d="M-1446.4,478.2l14.1-197.9c5.8-89.8,11.3-194.9,13.2-258.1h52c2,65.3,7.4,171.4,13,257.1l14.2,198.9
		c5.8,89.8,13.9,194.9,20.2,258.1h-46.4c-0.5-32.7-1.6-66.3-4.6-127.5l-2-29.6h-40.9l-2,30.6c-2.7,60.2-4.1,93.9-4.8,126.5h-46.3
		C-1460.3,673.1-1452.2,567-1446.4,478.2z M-1381,465l-6.6-101c-2.5-42.9-3.6-79.6-4.7-124.5h-1.7c-1.2,48-2.2,78.6-4.8,124.5
		l-6.5,101H-1381z"/>
	<path class="st0" d="M-1311.1,478.2V280.3c0-89.8-1.8-195.9-4.7-258.1h88c16.7,0,30.3,54.1,30.3,168.3
		c0,110.2-12.9,166.3-29.2,166.3h-3.6v12.2h6.1c18.4,0,33.8,55.1,33.8,181.6s-15.2,185.7-34.8,185.7h-90.7
		C-1312.8,673.1-1311.1,568-1311.1,478.2z M-1239.7,321.1c4.7,0,8.5-14.3,8.5-44.9c0-31.6-3.7-44.9-8.3-44.9h-35.3v89.8
		L-1239.7,321.1L-1239.7,321.1z M-1237.5,522.1c6.1,0,10.2-16.3,10.2-52c0-37.8-4.2-54.1-10.3-54.1h-37.2v106.1H-1237.5z"/>
	<path class="st0" d="M-1149.1,706.7c-15.6,0-26.5,28.6-31.9,44.9c2.9-63.2,4.7-183.6,4.7-273.4V280.3c0-89.8-1.8-195.9-4.7-258.1
		h45.7c-2.8,62.2-4.8,237.7-4.8,327.5v158.1h34.3c12.2,0,24.7-17.3,31.4-43.9l-0.5,258.1c-1,1-9.6,29.6-19.8,29.6
		C-1115.5,751.6-1125.5,706.7-1149.1,706.7z"/>
	<path class="st0" d="M-1059.7,478.2V280.3c0-89.8-1.8-195.9-4.7-258.1h115.5l4.4,253c-4.4-19.4-15.6-34.7-25.6-34.7h-53.3v80.6
		h37.3c6.3,0,12.4-2,16.5-7.1v124.5c-4-6.1-10.2-8.2-16.5-8.2h-37.3V518h55.7c8.2,0,20.3-17.3,27-56.1l-6.3,274.4h-117.5
		C-1061.3,673.1-1059.7,568-1059.7,478.2z"/>
	<path class="st0" d="M-936.7,675.1l1.3-271.4c14.5,84.7,36.4,127.5,65,127.5c15.4,0,23.7-11.2,23.7-46.9
		c0-111.2-89.6,38.8-89.6-268.3c0-159.1,27-209.1,61.9-209.1c16.8,0,39.4,20.4,54.3,64.3v237.7c-13.8-54.1-33.2-83.7-53-83.7
		c-13.6-1-24.8,9.2-24.8,46.9c0,118.3,89.6-52,89.6,250c0,150-21.6,229.5-61.6,229.5C-888.6,751.6-921.3,718-936.7,675.1z"/>
</g>
<g class="st1">
	<path class="st0" d="M47,478.2V280.3c0-89.8-2.3-195.9-6-258.1h150.8l6.1,265.3c-6.1-20.4-24.8-34.7-37.9-34.7H94.9v106.1h54.5
		c8.3,0,16.3-2,21.7-7.1v130.6c-5.3-5.1-13.4-7.1-21.7-7.1H94.9v47.9c0,89.8,2.1,150,6.3,213.2H41C44.9,673.1,47,568,47,478.2z"/>
	<path class="st0" d="M199.9,379.3c0-236.7,36.9-372.4,90.6-372.4c53.7,0,90.6,135.7,90.6,372.4s-36.9,372.4-90.6,372.4
		C236.8,751.6,199.9,615.9,199.9,379.3z M333.2,379.3c0-88.8-17.2-140.8-42.7-140.8c-25.7,0-42.7,52-42.7,140.8
		c0,88.8,17,141.8,42.7,141.8C316.1,521.1,333.2,468,333.2,379.3z"/>
	<path class="st0" d="M388.3,379.3c0-236.7,36.9-372.4,90.6-372.4c53.7,0,90.6,135.7,90.6,372.4s-36.9,372.4-90.6,372.4
		C425.2,751.6,388.3,615.9,388.3,379.3z M521.6,379.3c0-88.8-17.2-140.8-42.7-140.8c-25.7,0-42.7,52-42.7,140.8
		c0,88.8,17,141.8,42.7,141.8C504.4,521.1,521.6,468,521.6,379.3z"/>
	<path class="st0" d="M587.5,478.2V280.3c0-89.8-2.4-195.9-6.1-258.1h97.7c51.3,0,78.6,131.6,78.6,357.1s-27.3,357.1-78.6,357.1
		h-97.7C585.4,673.1,587.5,568,587.5,478.2z M670.8,502.7c25.6,0,38.5-39.8,38.5-123.4c0-83.7-13.3-123.4-38.5-123.4h-35.4v246.9
		H670.8z"/>
	<path class="st0" d="M879.9,456.8c-3.7,0-10.5,3.1-13.3,7.1v42.8c0,88.8,2.1,166.3,6.1,229.5h-60.2c4-63.3,6.1-168.3,6.1-258.1
		V280.3c0-88.8-2.4-194.9-6.1-258.1h107c37.7,0,62.6,62.2,62.6,192.8c0,128.5-24.3,195.9-61.5,195.9h-11.2v12.2h0.8
		c22.2,0,21.4,76.5,45.1,76.5c17.5,0,27.8-53.1,32-106.1l0.2,290.8c-4.7,40.8-17.8,67.3-30.7,67.3
		C900.1,751.6,920.2,456.8,879.9,456.8z M916.1,362.9c11,0,18.8-17.3,18.8-53.1c0-39.8-7.8-55.1-18.8-55.1h-49.5v108.1H916.1z"/>
	<path class="st0" d="M1007.1,478.2V280.3c0-89.8-2.4-195.9-6.1-258.1h152.1l5.8,253c-5.8-19.4-20.6-34.7-33.7-34.7H1055v80.6h49.2
		c8.3,0,16.3-2,21.7-7.1v124.5c-5.3-6.1-13.4-8.2-21.7-8.2H1055V518h73.3c10.8,0,26.7-17.3,35.6-56.1l-8.3,274.4h-154.7
		C1005,673.1,1007.1,568,1007.1,478.2z"/>
	<path class="st0" d="M1181.7,478.2V280.3c0-89.8-2.3-195.9-6-258.1h150.8l6.1,265.3c-6.1-20.4-24.8-34.7-37.9-34.7h-65.2v106.1
		h54.5c8.3,0,16.3-2,21.7-7.1v130.6c-5.3-5.1-13.4-7.1-21.7-7.1h-54.5v47.9c0,89.8,2.1,150,6.3,213.2h-60.2
		C1179.6,673.1,1181.7,568,1181.7,478.2z"/>
	<path class="st0" d="M1347.7,391.5V280.3c0-88.8-2.4-194.9-6.1-258.1h60c-3.7,63.3-6,179.6-6,269.3v70.4
		c0,93.9,12,165.3,29.5,165.3c17.3,0,29.3-71.4,29.3-165.3v-70.4c0-89.8-2.4-206.1-6.1-269.3h60.2c-3.7,63.3-6.1,169.4-6.1,258.1
		v111.2c0,228.5-23.5,360.1-77.2,360.1C1371.2,751.6,1347.7,620,1347.7,391.5z"/>
	<path class="st0" d="M1592.8,456.8c-3.7,0-10.5,3.1-13.3,7.1v42.8c0,88.8,2.1,166.3,6.1,229.5h-60.2c4-63.3,6.1-168.3,6.1-258.1
		V280.3c0-88.8-2.4-194.9-6.1-258.1h107c37.7,0,62.6,62.2,62.6,192.8c0,128.5-24.3,195.9-61.5,195.9h-11.2v12.2h0.8
		c22.2,0,21.4,76.5,45.2,76.5c17.5,0,27.8-53.1,32-106.1l0.2,290.8c-4.7,40.8-17.8,67.3-30.7,67.3
		C1613,751.6,1633,456.8,1592.8,456.8z M1629,362.9c11,0,18.8-17.3,18.8-53.1c0-39.8-7.8-55.1-18.8-55.1h-49.5v108.1H1629z"/>
	<path class="st0" d="M1720,478.2V280.3c0-89.8-2.4-195.9-6.1-258.1h115.9c22,0,40,54.1,40,168.3c0,110.2-17,166.3-38.5,166.3h-4.7
		v12.2h8.1c24.3,0,44.5,55.1,44.5,181.6c0,126.5-20.1,185.7-45.8,185.7h-119.4C1717.7,673.1,1720,568,1720,478.2z M1814,321.1
		c6.2,0,11.2-14.3,11.2-44.9c0-31.6-4.9-44.9-11-44.9h-46.4v89.8H1814z M1816.9,522.1c8.1,0,13.4-16.3,13.4-52
		c0-37.7-5.5-54.1-13.6-54.1h-49v106.1H1816.9z"/>
</g>
</svg>
