<?xml version="1.0" encoding="utf-8"?>
<!-- Generator: Adobe Illustrator 26.0.1, SVG Export Plug-In . SVG Version: 6.00 Build 0)  -->
<svg version="1.1" id="레이어_1" xmlns="http://www.w3.org/2000/svg" xmlns:xlink="http://www.w3.org/1999/xlink" x="0px"
	 y="0px" viewBox="0 0 1920 758.51" style="enable-background:new 0 0 1920 758.51;" xml:space="preserve">
<style type="text/css">
	.st0{fill:#FFFFFF;}
</style>
<g>
	<path class="st0" d="M45.64,391.5v-111.2c0-88.76-1.84-194.86-4.67-258.11h45.58c-2.83,63.25-4.55,179.56-4.55,269.34v70.39
		c0,93.86,9.09,165.27,22.36,165.27c13.15,0,22.24-71.41,22.24-165.27v-70.39c0-89.78-1.84-206.08-4.67-269.34h45.71
		c-2.83,63.25-4.67,169.36-4.67,258.11v111.2c0,228.53-17.82,360.14-58.61,360.14C63.46,751.63,45.64,620.03,45.64,391.5z"/>
	<path class="st0" d="M176,379.26c0-238.73,27.28-372.38,69.42-372.38c18.8,0,32.44,15.3,48.9,46.93l-2.09,242.81
		c-9.58-39.79-26.91-66.31-45.09-66.31c-21.63,0-35.63,51.01-35.63,148.95c0,88.76,12.53,149.97,34.28,149.97
		c9.95,0,19.54-19.38,26.42-55.09v-40.81h-21.13c-3.32,0-8.72,5.1-11.55,13.26l0.37-102.02h64.63v268.32
		c-11.67,83.66-32.44,138.75-58.98,138.75C203.28,751.63,176,617.99,176,379.26z"/>
	<path class="st0" d="M347.4,706.74c-15.6,0-26.54,28.57-31.95,44.89c2.95-63.25,4.67-183.64,4.67-273.42V280.29
		c0-89.78-1.84-195.88-4.67-258.11h45.71c-2.83,62.23-4.79,237.71-4.79,327.49V507.8h34.28c12.16,0,24.7-17.34,31.45-43.87
		l-0.49,258.11c-0.98,1.02-9.58,29.59-19.78,29.59C380.94,751.63,370.99,706.74,347.4,706.74z"/>
	<path class="st0" d="M460.68,499.64v-46.93L423.7,147.67c-5.9-47.95-13.64-97.94-18.68-125.49h49.88
		c2.83,41.83,5.9,77.54,11.06,125.49l12.16,113.24h1.35l12.04-113.24c5.16-47.95,8.23-83.66,11.06-125.49h49.88
		c-5.04,27.55-12.78,77.54-18.55,125.49l-36.98,309.13v46.93c0,84.68,1.47,175.48,3.56,231.59h-43.5
		C458.96,678.18,460.68,585.34,460.68,499.64z"/>
	<path class="st0" d="M604.8,479.24l-14.13-198.94c-5.9-89.78-14.13-194.86-20.4-258.11h47.43c0.74,39.79,2.09,81.62,5.53,138.75
		l14.38,222.41c2.33,37.75,3.93,69.37,5.16,108.14h1.23c1.23-41.83,2.7-67.33,5.04-108.14l14.38-222.41
		c3.32-58.15,4.91-98.96,5.53-138.75h44.85c-6.39,63.25-14.62,168.34-20.52,258.11l-14.13,197.92
		c-5.78,89.78-11.3,194.86-13.15,258.11h-48.16C615.86,671.04,610.45,564.93,604.8,479.24z"/>
	<path class="st0" d="M723.98,478.22V280.29c0-89.78-1.84-195.88-4.67-258.11h115.5l4.42,253.01c-4.42-19.38-15.6-34.69-25.56-34.69
		h-53.33v80.6h37.35c6.27,0,12.41-2.04,16.46-7.14v124.47c-4.05-6.12-10.2-8.16-16.46-8.16h-37.35v87.74H816
		c8.23,0,20.27-17.34,27.03-56.11l-6.27,274.44H719.31C722.38,673.08,723.98,567.99,723.98,478.22z"/>
	<path class="st0" d="M845.61,379.26c0-238.73,27.28-372.38,69.42-372.38c18.8,0,32.44,15.3,48.9,46.93l-2.09,242.81
		c-9.58-39.79-26.91-66.31-45.09-66.31c-21.63,0-35.63,51.01-35.63,148.95c0,88.76,12.53,149.97,34.28,149.97
		c9.95,0,19.54-19.38,26.42-55.09v-40.81h-21.13c-3.32,0-8.72,5.1-11.55,13.26l0.37-102.02h64.63v268.32
		c-11.67,83.66-32.44,138.75-58.98,138.75C872.89,751.63,845.61,617.99,845.61,379.26z"/>
	<path class="st0" d="M989.73,478.22V280.29c0-89.78-1.84-195.88-4.67-258.11h115.5l4.42,253.01c-4.42-19.38-15.6-34.69-25.56-34.69
		h-53.33v80.6h37.35c6.27,0,12.41-2.04,16.46-7.14v124.47c-4.05-6.12-10.2-8.16-16.46-8.16h-37.35v87.74h55.66
		c8.23,0,20.27-17.34,27.03-56.11l-6.27,274.44H985.06C988.13,673.08,989.73,567.99,989.73,478.22z"/>
	<path class="st0" d="M1155.6,478.22V250.71h-15.36c-14.13,0-22.73,6.12-29.73,23.46l6.76-251.99h113.16l6.76,251.99
		c-7-17.34-15.6-23.46-29.73-23.46h-15.48v227.51c0,89.78,1.72,194.86,4.67,258.11h-45.71C1154,673.08,1155.6,567.99,1155.6,478.22z
		"/>
	<path class="st0" d="M1240.87,478.22L1255,280.29c5.77-89.78,11.3-194.86,13.15-258.11h51.97c1.97,65.29,7.37,171.4,13.02,257.09
		l14.25,198.94c5.78,89.78,13.88,194.86,20.15,258.11h-46.44c-0.49-32.65-1.6-66.31-4.55-127.53l-1.97-29.59h-40.91l-1.97,30.61
		c-2.7,60.19-4.05,93.86-4.79,126.51h-46.32C1226.98,673.08,1235.09,566.97,1240.87,478.22z M1306.23,464.95l-6.64-101
		c-2.46-42.85-3.56-79.58-4.67-124.47h-1.72c-1.23,47.95-2.21,78.56-4.79,124.47l-6.51,101H1306.23z"/>
	<path class="st0" d="M1376.14,478.22V280.29c0-89.78-1.84-195.88-4.67-258.11h87.97c16.71,0,30.35,54.07,30.35,168.34
		c0,110.18-12.9,166.3-29.24,166.3h-3.56v12.24h6.14c18.43,0,33.79,55.09,33.79,181.6s-15.24,185.68-34.77,185.68h-90.68
		C1374.42,673.08,1376.14,567.99,1376.14,478.22z M1447.53,321.1c4.67,0,8.48-14.28,8.48-44.89c0-31.63-3.69-44.89-8.35-44.89
		h-35.26v89.78H1447.53z M1449.74,522.09c6.14,0,10.2-16.32,10.2-52.03c0-37.75-4.18-54.07-10.32-54.07h-37.23v106.1H1449.74z"/>
	<path class="st0" d="M1538.2,706.74c-15.6,0-26.54,28.57-31.95,44.89c2.95-63.25,4.67-183.64,4.67-273.42V280.29
		c0-89.78-1.84-195.88-4.67-258.11h45.71c-2.83,62.23-4.79,237.71-4.79,327.49V507.8h34.28c12.16,0,24.7-17.34,31.45-43.87
		l-0.49,258.11c-0.98,1.02-9.58,29.59-19.78,29.59C1571.74,751.63,1561.79,706.74,1538.2,706.74z"/>
	<path class="st0" d="M1627.52,478.22V280.29c0-89.78-1.84-195.88-4.67-258.11h115.5l4.42,253.01
		c-4.42-19.38-15.6-34.69-25.56-34.69h-53.33v80.6h37.35c6.27,0,12.41-2.04,16.46-7.14v124.47c-4.05-6.12-10.2-8.16-16.46-8.16
		h-37.35v87.74h55.66c8.23,0,20.27-17.34,27.03-56.11l-6.27,274.44h-117.46C1625.92,673.08,1627.52,567.99,1627.52,478.22z"/>
	<path class="st0" d="M1750.51,675.12l1.35-271.38c14.5,84.68,36.37,127.53,65,127.53c15.36,0,23.71-11.22,23.71-46.93
		c0-111.2-89.57,38.77-89.57-268.32c0-159.15,27.03-209.14,61.93-209.14c16.83,0,39.44,20.4,54.31,64.27v237.71
		c-13.76-54.07-33.17-83.66-52.96-83.66c-13.64-1.02-24.82,9.18-24.82,46.93c0,118.34,89.57-52.03,89.57,249.95
		c0,149.97-21.62,229.55-61.56,229.55C1798.67,751.63,1765.99,717.97,1750.51,675.12z"/>
</g>
<g>
	<path class="st0" d="M-2981.42,403V291.8c0-88.76-1.84-194.86-4.67-258.11h45.58c-2.83,63.25-4.55,179.56-4.55,269.34v70.39
		c0,93.86,9.09,165.27,22.36,165.27c13.15,0,22.24-71.41,22.24-165.27v-70.39c0-89.78-1.84-206.08-4.67-269.34h45.71
		c-2.83,63.25-4.67,169.36-4.67,258.11V403c0,228.53-17.82,360.14-58.61,360.14C-2963.6,763.14-2981.42,631.53-2981.42,403z"/>
	<path class="st0" d="M-2851.06,390.76c0-238.73,27.28-372.38,69.42-372.38c18.8,0,32.44,15.3,48.9,46.93l-2.09,242.81
		c-9.58-39.79-26.91-66.31-45.09-66.31c-21.63,0-35.63,51.01-35.63,148.95c0,88.76,12.53,149.97,34.28,149.97
		c9.95,0,19.54-19.38,26.42-55.09v-40.81h-21.13c-3.32,0-8.72,5.1-11.55,13.26l0.37-102.02h64.63v268.32
		c-11.67,83.66-32.44,138.75-58.98,138.75C-2823.79,763.14-2851.06,629.49-2851.06,390.76z"/>
	<path class="st0" d="M-2679.67,718.25c-15.6,0-26.54,28.57-31.95,44.89c2.95-63.25,4.67-183.64,4.67-273.42V291.8
		c0-89.78-1.84-195.88-4.67-258.11h45.71c-2.83,62.23-4.79,237.71-4.79,327.49v158.13h34.28c12.16,0,24.7-17.34,31.45-43.87
		l-0.49,258.11c-0.98,1.02-9.58,29.59-19.78,29.59C-2646.12,763.14-2656.08,718.25-2679.67,718.25z"/>
	<path class="st0" d="M-2566.38,511.15v-46.93l-36.98-305.04c-5.9-47.95-13.64-97.94-18.68-125.49h49.88
		c2.83,41.83,5.9,77.54,11.06,125.49l12.16,113.24h1.35l12.04-113.24c5.16-47.95,8.23-83.66,11.06-125.49h49.88
		c-5.04,27.55-12.78,77.54-18.55,125.49l-36.98,309.13v46.93c0,84.68,1.47,175.48,3.56,231.59h-43.5
		C-2568.1,689.68-2566.38,596.85-2566.38,511.15z"/>
	<path class="st0" d="M-2422.26,490.74l-14.13-198.94c-5.9-89.78-14.13-194.86-20.4-258.11h47.43c0.74,39.79,2.09,81.62,5.53,138.75
		l14.38,222.41c2.33,37.75,3.93,69.37,5.16,108.14h1.23c1.23-41.83,2.7-67.33,5.04-108.14l14.38-222.41
		c3.32-58.15,4.91-98.96,5.53-138.75h44.85c-6.39,63.25-14.62,168.34-20.52,258.11l-14.13,197.92
		c-5.78,89.78-11.3,194.86-13.15,258.11h-48.16C-2411.21,682.54-2416.61,576.44-2422.26,490.74z"/>
	<path class="st0" d="M-2303.09,489.72V291.8c0-89.78-1.84-195.88-4.67-258.11h115.5l4.42,253.01
		c-4.42-19.38-15.6-34.69-25.56-34.69h-53.33v80.6h37.35c6.27,0,12.41-2.04,16.46-7.14v124.47c-4.05-6.12-10.2-8.16-16.46-8.16
		h-37.35v87.74h55.66c8.23,0,20.27-17.34,27.03-56.11l-6.27,274.44h-117.46C-2304.69,684.58-2303.09,579.5-2303.09,489.72z"/>
	<path class="st0" d="M-2181.45,390.76c0-238.73,27.28-372.38,69.42-372.38c18.8,0,32.44,15.3,48.9,46.93l-2.09,242.81
		c-9.58-39.79-26.91-66.31-45.09-66.31c-21.63,0-35.63,51.01-35.63,148.95c0,88.76,12.53,149.97,34.28,149.97
		c9.95,0,19.54-19.38,26.42-55.09v-40.81h-21.13c-3.32,0-8.72,5.1-11.55,13.26l0.37-102.02h64.63v268.32
		c-11.67,83.66-32.44,138.75-58.98,138.75C-2154.18,763.14-2181.45,629.49-2181.45,390.76z"/>
	<path class="st0" d="M-2037.33,489.72V291.8c0-89.78-1.84-195.88-4.67-258.11h115.5l4.42,253.01
		c-4.42-19.38-15.6-34.69-25.56-34.69h-53.33v80.6h37.35c6.27,0,12.41-2.04,16.46-7.14v124.47c-4.05-6.12-10.2-8.16-16.46-8.16
		h-37.35v87.74h55.66c8.23,0,20.27-17.34,27.03-56.11l-6.27,274.44H-2042C-2038.93,684.58-2037.33,579.5-2037.33,489.72z"/>
	<path class="st0" d="M-1871.47,489.72V262.21h-15.36c-14.13,0-22.73,6.12-29.73,23.46l6.76-251.99h113.16l6.76,251.99
		c-7-17.34-15.6-23.46-29.73-23.46h-15.48v227.51c0,89.78,1.72,194.86,4.67,258.11h-45.71
		C-1873.06,684.58-1871.47,579.5-1871.47,489.72z"/>
	<path class="st0" d="M-1786.2,489.72l14.13-197.92c5.77-89.78,11.3-194.86,13.15-258.11h51.97c1.97,65.29,7.37,171.4,13.02,257.09
		l14.25,198.94c5.78,89.78,13.88,194.86,20.15,258.11h-46.44c-0.49-32.65-1.6-66.31-4.55-127.53l-1.97-29.59h-40.91l-1.97,30.61
		c-2.7,60.19-4.05,93.86-4.79,126.51h-46.32C-1800.08,684.58-1791.97,578.48-1786.2,489.72z M-1720.83,476.46l-6.64-101
		c-2.46-42.85-3.56-79.58-4.67-124.47h-1.72c-1.23,47.95-2.21,78.56-4.79,124.47l-6.51,101H-1720.83z"/>
	<path class="st0" d="M-1650.92,489.72V291.8c0-89.78-1.84-195.88-4.67-258.11h87.97c16.71,0,30.35,54.07,30.35,168.34
		c0,110.18-12.9,166.3-29.24,166.3h-3.56v12.24h6.14c18.43,0,33.79,55.09,33.79,181.6s-15.24,185.68-34.77,185.68h-90.68
		C-1652.64,684.58-1650.92,579.5-1650.92,489.72z M-1579.54,332.61c4.67,0,8.48-14.28,8.48-44.89c0-31.63-3.69-44.89-8.35-44.89
		h-35.26v89.78H-1579.54z M-1577.33,533.59c6.14,0,10.2-16.32,10.2-52.03c0-37.75-4.18-54.07-10.32-54.07h-37.23v106.1H-1577.33z"/>
	<path class="st0" d="M-1488.87,718.25c-15.6,0-26.54,28.57-31.95,44.89c2.95-63.25,4.67-183.64,4.67-273.42V291.8
		c0-89.78-1.84-195.88-4.67-258.11h45.71c-2.83,62.23-4.79,237.71-4.79,327.49v158.13h34.28c12.16,0,24.7-17.34,31.45-43.87
		l-0.49,258.11c-0.98,1.02-9.58,29.59-19.78,29.59C-1455.32,763.14-1465.28,718.25-1488.87,718.25z"/>
	<path class="st0" d="M-1399.55,489.72V291.8c0-89.78-1.84-195.88-4.67-258.11h115.5l4.42,253.01
		c-4.42-19.38-15.6-34.69-25.56-34.69h-53.33v80.6h37.35c6.27,0,12.41-2.04,16.46-7.14v124.47c-4.05-6.12-10.2-8.16-16.46-8.16
		h-37.35v87.74h55.66c8.23,0,20.27-17.34,27.03-56.11l-6.27,274.44h-117.46C-1401.14,684.58-1399.55,579.5-1399.55,489.72z"/>
	<path class="st0" d="M-1276.56,686.62l1.35-271.38c14.5,84.68,36.37,127.53,65,127.53c15.36,0,23.71-11.22,23.71-46.93
		c0-111.2-89.57,38.77-89.57-268.32c0-159.15,27.03-209.14,61.93-209.14c16.83,0,39.44,20.4,54.31,64.27v237.71
		c-13.76-54.07-33.17-83.66-52.96-83.66c-13.64-1.02-24.82,9.18-24.82,46.93c0,118.34,89.57-52.03,89.57,249.95
		c0,149.97-21.62,229.55-61.56,229.55C-1228.39,763.14-1261.08,729.47-1276.56,686.62z"/>
</g>
<g>
	<path class="st0" d="M-5013.76,404.03V283.48c0-96.22-1.84-211.24-4.67-279.81h45.58c-2.83,68.57-4.55,194.65-4.55,291.98v76.31
		c0,101.75,9.09,179.17,22.36,179.17c13.15,0,22.24-77.42,22.24-179.17v-76.31c0-97.33-1.84-223.41-4.67-291.98h45.71
		c-2.83,68.57-4.67,183.59-4.67,279.81v120.55c0,247.74-17.82,390.41-58.61,390.41C-4995.95,794.44-5013.76,651.77-5013.76,404.03z"
		/>
	<path class="st0" d="M-4883.4,390.76c0-258.8,27.28-403.68,69.42-403.68c18.8,0,32.44,16.59,48.9,50.87l-2.09,263.22
		c-9.58-43.13-26.91-71.89-45.09-71.89c-21.63,0-35.63,55.3-35.63,161.47c0,96.22,12.53,162.58,34.28,162.58
		c9.95,0,19.54-21.01,26.42-59.72v-44.24h-21.13c-3.32,0-8.72,5.53-11.55,14.38l0.37-110.6h64.63v290.87
		c-11.67,90.69-32.44,150.41-58.98,150.41C-4856.13,794.44-4883.4,649.56-4883.4,390.76z"/>
	<path class="st0" d="M-4712.01,745.78c-15.6,0-26.54,30.97-31.95,48.66c2.95-68.57,4.67-199.08,4.67-296.4V283.48
		c0-97.33-1.84-212.35-4.67-279.81h45.71c-2.83,67.46-4.79,257.69-4.79,355.02v171.43h34.28c12.16,0,24.7-18.8,31.45-47.56
		l-0.49,279.81c-0.98,1.11-9.58,32.07-19.78,32.07C-4678.46,794.44-4688.42,745.78-4712.01,745.78z"/>
	<path class="st0" d="M-4598.72,521.27v-50.87l-36.98-330.69c-5.9-51.98-13.64-106.17-18.68-136.04h49.88
		c2.83,45.34,5.9,84.05,11.06,136.04l12.16,122.76h1.35l12.04-122.76c5.16-51.98,8.23-90.69,11.06-136.04h49.88
		c-5.04,29.86-12.78,84.05-18.55,136.04l-36.98,335.11v50.87c0,91.8,1.48,190.23,3.56,251.06h-43.5
		C-4600.44,714.81-4598.72,614.17-4598.72,521.27z"/>
	<path class="st0" d="M-4454.6,499.15l-14.13-215.67c-5.9-97.33-14.13-211.24-20.4-279.81h47.43c0.74,43.13,2.09,88.48,5.53,150.41
		l14.38,241.1c2.33,40.92,3.93,75.21,5.16,117.23h1.23c1.23-45.34,2.7-72.99,5.04-117.23l14.38-241.1
		c3.32-63.04,4.91-107.28,5.53-150.41h44.85c-6.39,68.57-14.62,182.49-20.52,279.81l-14.13,214.56
		c-5.77,97.33-11.3,211.24-13.15,279.81h-48.16C-4443.55,707.07-4448.95,592.05-4454.6,499.15z"/>
	<path class="st0" d="M-4335.43,498.04V283.48c0-97.33-1.84-212.35-4.67-279.81h115.5l4.42,274.28c-4.42-21.01-15.6-37.6-25.56-37.6
		h-53.33v87.37h37.35c6.27,0,12.41-2.21,16.46-7.74v134.93c-4.05-6.64-10.2-8.85-16.46-8.85h-37.35v95.11h55.66
		c8.23,0,20.27-18.8,27.03-60.83l-6.27,297.51h-117.46C-4337.03,709.28-4335.43,595.37-4335.43,498.04z"/>
	<path class="st0" d="M-4213.79,390.76c0-258.8,27.28-403.68,69.42-403.68c18.8,0,32.44,16.59,48.9,50.87l-2.09,263.22
		c-9.58-43.13-26.91-71.89-45.09-71.89c-21.62,0-35.63,55.3-35.63,161.47c0,96.22,12.53,162.58,34.28,162.58
		c9.95,0,19.54-21.01,26.42-59.72v-44.24h-21.13c-3.32,0-8.72,5.53-11.55,14.38l0.37-110.6h64.63v290.87
		c-11.67,90.69-32.44,150.41-58.98,150.41C-4186.52,794.44-4213.79,649.56-4213.79,390.76z"/>
	<path class="st0" d="M-4069.67,498.04V283.48c0-97.33-1.84-212.35-4.67-279.81h115.5l4.42,274.28c-4.42-21.01-15.6-37.6-25.56-37.6
		h-53.33v87.37h37.35c6.27,0,12.41-2.21,16.46-7.74v134.93c-4.05-6.64-10.2-8.85-16.46-8.85h-37.35v95.11h55.66
		c8.23,0,20.27-18.8,27.03-60.83l-6.27,297.51h-117.46C-4071.27,709.28-4069.67,595.37-4069.67,498.04z"/>
	<path class="st0" d="M-3903.81,498.04V251.41h-15.36c-14.13,0-22.73,6.64-29.73,25.44l6.76-273.18h113.16l6.76,273.18
		c-7-18.8-15.6-25.44-29.73-25.44h-15.48v246.63c0,97.33,1.72,211.24,4.67,279.81h-45.71
		C-3905.4,709.28-3903.81,595.37-3903.81,498.04z"/>
	<path class="st0" d="M-3818.54,498.04l14.13-214.56c5.77-97.33,11.3-211.24,13.15-279.81h51.97c1.97,70.78,7.37,185.8,13.02,278.71
		l14.25,215.67c5.78,97.33,13.88,211.24,20.15,279.81h-46.44c-0.49-35.39-1.6-71.89-4.55-138.25l-1.97-32.07h-40.91l-1.97,33.18
		c-2.7,65.25-4.05,101.75-4.79,137.14h-46.32C-3832.42,709.28-3824.31,594.26-3818.54,498.04z M-3753.17,483.66l-6.64-109.49
		c-2.46-46.45-3.56-86.27-4.67-134.93h-1.72c-1.23,51.98-2.21,85.16-4.79,134.93l-6.51,109.49H-3753.17z"/>
	<path class="st0" d="M-3683.26,498.04V283.48c0-97.33-1.84-212.35-4.67-279.81h87.97c16.71,0,30.35,58.62,30.35,182.49
		c0,119.44-12.9,180.27-29.24,180.27h-3.56v13.27h6.14c18.43,0,33.79,59.72,33.79,196.86s-15.24,201.29-34.77,201.29h-90.68
		C-3684.98,709.28-3683.26,595.37-3683.26,498.04z M-3611.88,327.72c4.67,0,8.48-15.48,8.48-48.66c0-34.29-3.69-48.66-8.35-48.66
		h-35.26v97.33H-3611.88z M-3609.67,545.6c6.14,0,10.2-17.7,10.2-56.4c0-40.92-4.18-58.62-10.32-58.62h-37.23V545.6H-3609.67z"/>
	<path class="st0" d="M-3521.21,745.78c-15.6,0-26.54,30.97-31.95,48.66c2.95-68.57,4.67-199.08,4.67-296.4V283.48
		c0-97.33-1.84-212.35-4.67-279.81h45.71c-2.83,67.46-4.79,257.69-4.79,355.02v171.43h34.28c12.16,0,24.7-18.8,31.45-47.56
		l-0.49,279.81c-0.98,1.11-9.58,32.07-19.78,32.07C-3487.66,794.44-3497.62,745.78-3521.21,745.78z"/>
	<path class="st0" d="M-3431.89,498.04V283.48c0-97.33-1.84-212.35-4.67-279.81h115.5l4.42,274.28c-4.42-21.01-15.6-37.6-25.56-37.6
		h-53.33v87.37h37.35c6.27,0,12.41-2.21,16.46-7.74v134.93c-4.05-6.64-10.2-8.85-16.46-8.85h-37.35v95.11h55.66
		c8.23,0,20.27-18.8,27.03-60.83l-6.27,297.51h-117.46C-3433.48,709.28-3431.89,595.37-3431.89,498.04z"/>
	<path class="st0" d="M-3308.9,711.5l1.35-294.19c14.5,91.8,36.37,138.25,65,138.25c15.36,0,23.71-12.17,23.71-50.87
		c0-120.55-89.57,42.03-89.57-290.87c0-172.53,27.03-226.73,61.93-226.73c16.83,0,39.44,22.12,54.31,69.68v257.69
		c-13.76-58.62-33.17-90.69-52.96-90.69c-13.64-1.11-24.82,9.95-24.82,50.88c0,128.29,89.57-56.41,89.57,270.96
		c0,162.58-21.62,248.85-61.56,248.85C-3260.73,794.44-3293.42,757.95-3308.9,711.5z"/>
</g>
</svg>
