<?xml version="1.0" encoding="utf-8"?>
<!-- Generator: Adobe Illustrator 26.0.1, SVG Export Plug-In . SVG Version: 6.00 Build 0)  -->
<svg version="1.1" id="레이어_1" xmlns="http://www.w3.org/2000/svg" xmlns:xlink="http://www.w3.org/1999/xlink" x="0px"
	 y="0px" viewBox="0 0 1920 758.51" style="enable-background:new 0 0 1920 758.51;" xml:space="preserve">
<style type="text/css">
	.st0{fill:#FFFFFF;}
</style>
<g>
	<g>
		<path class="st0" d="M61.16-2410.42l-7.4-192.82c-3.61-89.78-8.72-194.86-12.78-258.12H74.9c0.18,39.79,0.79,82.64,2.91,138.75
			l8.28,212.21c1.5,38.77,2.47,72.44,3.7,113.24h0.79l13.75-464.2h19.12l13.75,464.2H138c1.15-39.79,2.2-74.48,3.7-114.26
			l8.28-211.19c2.11-56.11,2.73-98.96,2.91-138.75h33.93c-4.05,63.25-9.16,168.34-12.78,258.12l-7.4,192.82
			c-3.52,87.74-6.79,195.88-7.93,263.22H127.6l-13.22-446.86h-0.88l-13.22,446.86H69.17C68.03-2214.53,64.68-2322.68,61.16-2410.42z
			"/>
		<path class="st0" d="M194.49-2405.32v-197.92c0-89.78-1.41-193.84-3.35-258.12h32.78c-2.2,70.4-3.35,145.89-3.35,233.63v53.05
			h30.58v-53.05c0-89.78-1.41-170.38-3.44-233.63h32.87c-2.11,62.23-3.35,168.34-3.35,258.12v197.92
			c0,89.78,1.15,194.86,3.35,258.12h-32.87c1.67-63.25,3.44-143.85,3.44-233.63v-64.27h-30.58v64.27c0,82.64,0.62,161.2,3.35,233.63
			h-32.78C193.35-2209.43,194.49-2315.54,194.49-2405.32z"/>
		<path class="st0" d="M297.86-2405.32L308-2603.24c4.14-89.78,8.11-194.86,9.43-258.12h37.28c1.41,65.29,5.29,171.4,9.34,257.1
			l10.22,198.94c4.14,89.78,9.96,194.86,14.45,258.12h-33.31c-0.35-32.65-1.15-66.31-3.26-127.53l-1.41-29.59h-29.35l-1.41,30.61
			c-1.94,60.19-2.91,93.86-3.44,126.51h-33.22C287.9-2210.45,293.72-2316.56,297.86-2405.32z M344.74-2418.58l-4.76-101
			c-1.76-42.85-2.56-79.58-3.35-124.47h-1.23c-0.88,47.95-1.59,78.56-3.44,124.47l-4.67,101H344.74z"/>
		<path class="st0" d="M409.17-2405.32v-227.51h-11.02c-10.13,0-16.3,6.12-21.33,23.47l4.85-252h81.16l4.85,252
			c-5.02-17.34-11.19-23.47-21.33-23.47h-11.1v227.51c0,89.78,1.23,194.86,3.35,258.12h-32.78
			C408.02-2210.45,409.17-2315.54,409.17-2405.32z"/>
		<path class="st0" d="M496.5-2405.32v-197.92c0-89.78-1.32-195.88-3.35-258.12h32.78c-2.03,62.23-3.44,168.34-3.44,258.12v197.92
			c0,89.78,1.15,194.86,3.44,258.12h-32.78C495.27-2210.45,496.5-2315.54,496.5-2405.32z"/>
		<path class="st0" d="M532.72-2208.41l0.97-271.38c10.4,84.68,26.08,127.53,46.62,127.53c11.02,0,17.01-11.22,17.01-46.93
			c0-111.2-64.24,38.77-64.24-268.32c0-159.15,19.39-209.14,44.41-209.14c12.07,0,28.29,20.4,38.95,64.27v237.71
			c-9.87-54.07-23.79-83.66-37.98-83.66c-9.78-1.02-17.8,9.18-17.8,46.93c0,118.34,64.24-52.03,64.24,249.95
			c0,149.97-15.51,229.55-44.15,229.55C567.27-2131.9,543.82-2165.56,532.72-2208.41z"/>
		<path class="st0" d="M656.63-2492.03v-111.2c0-88.76-1.32-194.86-3.35-258.12h32.69c-2.03,63.25-3.26,179.56-3.26,269.34v70.4
			c0,93.86,6.52,165.28,16.04,165.28c9.43,0,15.95-71.42,15.95-165.28v-70.4c0-89.78-1.32-206.09-3.35-269.34h32.78
			c-2.03,63.25-3.35,169.36-3.35,258.12v111.2c0,228.53-12.78,360.14-42.04,360.14C669.4-2131.9,656.63-2263.51,656.63-2492.03z"/>
		<path class="st0" d="M750.13-2504.28c0-238.73,19.56-372.38,49.79-372.38c13.48,0,23.26,15.3,35.07,46.93l-1.5,242.81
			c-6.87-39.79-19.3-66.31-32.34-66.31c-15.51,0-25.56,51.01-25.56,148.95c0,88.76,8.99,149.97,24.59,149.97
			c7.14,0,14.01-19.38,18.95-55.09v-40.81h-15.16c-2.38,0-6.26,5.1-8.28,13.26l0.26-102.02h46.35v268.32
			c-8.37,83.66-23.26,138.75-42.3,138.75C769.69-2131.9,750.13-2265.55,750.13-2504.28z"/>
		<path class="st0" d="M873.06-2176.79c-11.19,0-19.03,28.57-22.91,44.89c2.11-63.25,3.35-183.64,3.35-273.42v-197.92
			c0-89.78-1.32-195.88-3.35-258.12h32.78c-2.03,62.23-3.44,237.71-3.44,327.49v158.13h24.59c8.72,0,17.71-17.34,22.56-43.87
			l-0.35,258.12c-0.7,1.02-6.87,29.59-14.19,29.59C897.12-2131.9,889.98-2176.79,873.06-2176.79z"/>
		<path class="st0" d="M954.32-2383.89v-46.93l-26.53-305.05c-4.23-47.95-9.78-97.94-13.39-125.49h35.78
			c2.03,41.83,4.23,77.54,7.93,125.49l8.72,113.24h0.97l8.64-113.24c3.7-47.95,5.9-83.66,7.93-125.49h35.78
			c-3.61,27.55-9.16,77.54-13.31,125.49l-26.53,309.13v46.93c0,84.68,1.06,175.48,2.56,231.59h-31.2
			C953.08-2205.35,954.32-2298.19,954.32-2383.89z"/>
		<path class="st0" d="M1046.41-2405.32v-197.92c0-88.76-1.32-194.86-3.35-258.12h56.84c21.24,0,34.63,98.96,34.63,272.4
			c0,174.46-10.75,290.76-31.28,290.76c-16.04,0-26.97-73.46-29.79-196.9h-0.97v93.86c0,88.76,1.15,190.78,3.35,254.04h-32.78
			C1045.26-2210.45,1046.41-2315.54,1046.41-2405.32z M1108.89-2575.69c0-54.07-4.67-83.66-14.28-83.66
			c-8.02,0-14.8,3.06-22.12,17.34v33.67c0,80.6,7.58,130.59,19.74,130.59C1101.31-2477.75,1108.89-2516.52,1108.89-2575.69z"/>
		<path class="st0" d="M1177.01-2426.74c-2.03,0-5.73,3.06-7.23,7.14v42.85c0,88.76,1.15,166.3,3.35,229.55h-32.78
			c2.2-63.25,3.35-168.34,3.35-258.12v-197.92c0-88.76-1.32-194.86-3.35-258.12h58.25c20.53,0,34.1,62.23,34.1,192.82
			c0,128.55-13.22,195.88-33.49,195.88h-6.08v12.24h0.44c12.07,0,11.63,76.52,24.59,76.52c9.52,0,15.16-53.05,17.45-106.1
			l0.09,290.76c-2.56,40.81-9.69,67.33-16.74,67.33C1188.03-2131.9,1198.95-2426.74,1177.01-2426.74z M1196.75-2520.6
			c5.99,0,10.22-17.34,10.22-53.05c0-39.79-4.23-55.09-10.22-55.09h-26.97v108.14H1196.75z"/>
		<path class="st0" d="M1239.4-2504.28c0-236.69,20.09-372.38,49.35-372.38c29.26,0,49.35,135.69,49.35,372.38
			s-20.09,372.38-49.35,372.38C1259.5-2131.9,1239.4-2267.59,1239.4-2504.28z M1312.02-2504.28c0-88.76-9.34-140.79-23.26-140.79
			c-14.01,0-23.26,52.03-23.26,140.79c0,88.76,9.25,141.81,23.26,141.81C1302.68-2362.47,1312.02-2415.52,1312.02-2504.28z"/>
		<path class="st0" d="M1347.89-2405.32v-197.92c0-89.78-1.32-195.88-3.35-258.12h53.23c27.93,0,42.83,131.61,42.83,357.08
			c0,225.47-14.89,357.08-42.83,357.08h-53.23C1346.74-2210.45,1347.89-2315.54,1347.89-2405.32z M1393.27-2380.83
			c13.92,0,20.97-39.79,20.97-123.45s-7.23-123.45-20.97-123.45h-19.3v246.89H1393.27z"/>
		<path class="st0" d="M1449.41-2492.03v-111.2c0-88.76-1.32-194.86-3.35-258.12h32.69c-2.03,63.25-3.26,179.56-3.26,269.34v70.4
			c0,93.86,6.52,165.28,16.04,165.28c9.43,0,15.95-71.42,15.95-165.28v-70.4c0-89.78-1.32-206.09-3.35-269.34h32.78
			c-2.03,63.25-3.35,169.36-3.35,258.12v111.2c0,228.53-12.78,360.14-42.04,360.14C1462.19-2131.9,1449.41-2263.51,1449.41-2492.03z
			"/>
		<path class="st0" d="M1542.91-2504.28c0-259.14,21.68-372.38,49.88-372.38c15.51,0,28.02,37.75,36.48,81.62l-3.26,249.95
			c-5.29-53.05-16.39-97.94-30.14-97.94c-14.8,0-26.88,43.87-26.88,136.71c0,93.86,12.34,140.79,30.58,140.79
			c12.51,0,23.26-31.63,31.37-90.8v276.48c-9.43,28.57-21.15,47.95-36.66,47.95C1566.09-2131.9,1542.91-2245.14,1542.91-2504.28z"/>
		<path class="st0" d="M1664.7-2405.32v-227.51h-11.02c-10.13,0-16.3,6.12-21.33,23.47l4.85-252h81.16l4.85,252
			c-5.02-17.34-11.19-23.47-21.33-23.47h-11.1v227.51c0,89.78,1.23,194.86,3.35,258.12h-32.78
			C1663.56-2210.45,1664.7-2315.54,1664.7-2405.32z"/>
		<path class="st0" d="M1723.75-2208.41l0.97-271.38c10.4,84.68,26.08,127.53,46.62,127.53c11.02,0,17.01-11.22,17.01-46.93
			c0-111.2-64.24,38.77-64.24-268.32c0-159.15,19.39-209.14,44.41-209.14c12.07,0,28.29,20.4,38.95,64.27v237.71
			c-9.87-54.07-23.79-83.66-37.98-83.66c-9.78-1.02-17.8,9.18-17.8,46.93c0,118.34,64.24-52.03,64.24,249.95
			c0,149.97-15.51,229.55-44.15,229.55C1758.29-2131.9,1734.85-2165.56,1723.75-2208.41z"/>
		<path class="st0" d="M1836.73-2560.39c18.15,0,22.3-28.57,22.3-83.66c0-42.85-4.49-78.56-13.31-78.56
			c-13.92,0-25.64,51.01-25.64,51.01v-155.07c0,0,9.96-45.91,25.64-45.91c20.44,0,33.4,74.48,33.31,199.96
			c0,108.14-6.96,171.4-22.56,191.8l-1.06,73.46h-16.57L1836.73-2560.39z M1836.02-2245.14c0-70.4,4.49-110.18,11.1-110.18
			c6.61,0,11.1,39.79,11.1,110.18c0,69.37-4.49,109.16-11.1,109.16C1840.52-2137,1836.02-2175.77,1836.02-2245.14z"/>
	</g>
</g>
<g>
	
		<text transform="matrix(0.0909 0 0 1 4717.1904 -2922.5239)" class="st0" style="font-family:'Brice-BoldExpanded'; font-size:940.0613px;">WHAT IS UGLY PRODUCTS?</text>
</g>
<g>
	
		<text transform="matrix(0.0909 0 0 1 4845.272 -2102.2239)" class="st0" style="font-family:'Brice-BoldExpanded'; font-size:940.0613px;">FOOD REFURBISHED</text>
</g>
<g>
	
		<text transform="matrix(0.0909 0 0 1 4806.7178 -466.8959)" class="st0" style="font-family:'Brice-BoldExpanded'; font-size:940.0613px;">ENVIRONMENTAL ISSUES</text>
</g>
<g>
	
		<text transform="matrix(0.0909 0 0 1 4766.3647 -1235.2825)" class="st0" style="font-family:'Brice-BoldExpanded'; font-size:940.0613px;">OPINIONS ON UGLY PRODUCTS</text>
</g>
<g>
	<g>
		<path class="st0" d="M59.28,2880.41v-182.37c0-82.73-1.58-180.49-4.17-237.84h105.04l4.28,244.42
			c-4.28-18.8-17.24-31.96-26.37-31.96H92.64v97.77h37.98c5.75,0,11.38-1.88,15.1-6.58v120.33c-3.72-4.7-9.35-6.58-15.1-6.58H92.64
			v44.18c0,82.73,1.46,138.19,4.39,196.47H55.11C57.81,3059.96,59.28,2963.14,59.28,2880.41z"/>
		<path class="st0" d="M165.78,2789.23c0-218.09,25.7-343.12,63.11-343.12S292,2571.13,292,2789.23s-25.7,343.12-63.11,343.12
			S165.78,3007.32,165.78,2789.23z M258.64,2789.23c0-81.79-11.95-129.73-29.75-129.73c-17.92,0-29.75,47.94-29.75,129.73
			c0,81.79,11.83,130.67,29.75,130.67C246.7,2919.89,258.64,2871.01,258.64,2789.23z"/>
		<path class="st0" d="M296.96,2789.23c0-218.09,25.7-343.12,63.11-343.12s63.11,125.03,63.11,343.12s-25.7,343.12-63.11,343.12
			S296.96,3007.32,296.96,2789.23z M389.83,2789.23c0-81.79-11.95-129.73-29.75-129.73c-17.92,0-29.75,47.94-29.75,129.73
			c0,81.79,11.83,130.67,29.75,130.67C377.88,2919.89,389.83,2871.01,389.83,2789.23z"/>
		<path class="st0" d="M435.7,2880.41v-182.37c0-82.73-1.69-180.49-4.28-237.84h68.07c35.73,0,54.77,121.27,54.77,329.02
			c0,207.75-19.05,329.02-54.77,329.02h-68.07C434.24,3059.96,435.7,2963.14,435.7,2880.41z M493.74,2902.97
			c17.81,0,26.82-36.66,26.82-113.75c0-77.08-9.24-113.75-26.82-113.75h-24.68v227.5H493.74z"/>
		<path class="st0" d="M639.35,2860.67c-2.59,0-7.33,2.82-9.24,6.58v39.48c0,81.79,1.46,153.23,4.28,211.51h-41.92
			c2.82-58.28,4.28-155.11,4.28-237.84v-182.37c0-81.79-1.69-179.55-4.28-237.84h74.5c26.26,0,43.61,57.34,43.61,177.67
			c0,118.45-16.9,180.49-42.83,180.49h-7.78v11.28h0.56c15.44,0,14.88,70.5,31.44,70.5c12.17,0,19.38-48.88,22.32-97.77l0.11,267.92
			c-3.27,37.6-12.4,62.04-21.41,62.04C653.44,3132.35,667.41,2860.67,639.35,2860.67z M664.6,2774.18
			c7.66,0,13.07-15.98,13.07-48.88c0-36.66-5.41-50.76-13.07-50.76h-34.49v99.65H664.6z"/>
		<path class="st0" d="M727.93,2880.41v-182.37c0-82.73-1.69-180.49-4.28-237.84h105.94l4.06,233.14
			c-4.06-17.86-14.31-31.96-23.44-31.96h-48.91v74.27h34.26c5.75,0,11.38-1.88,15.1-6.58v114.69c-3.72-5.64-9.35-7.52-15.1-7.52
			h-34.26v80.84h51.05c7.55,0,18.6-15.98,24.79-51.7l-5.75,252.88H723.65C726.47,3059.96,727.93,2963.14,727.93,2880.41z"/>
		<path class="st0" d="M849.54,2880.41v-182.37c0-82.73-1.58-180.49-4.17-237.84h105.04l4.28,244.42
			c-4.28-18.8-17.24-31.96-26.37-31.96H882.9v97.77h37.98c5.75,0,11.38-1.88,15.1-6.58v120.33c-3.72-4.7-9.35-6.58-15.1-6.58H882.9
			v44.18c0,82.73,1.47,138.19,4.4,196.47h-41.92C848.07,3059.96,849.54,2963.14,849.54,2880.41z"/>
		<path class="st0" d="M965.17,2800.51v-102.47c0-81.79-1.69-179.55-4.28-237.84h41.81c-2.59,58.28-4.17,165.45-4.17,248.18v64.86
			c0,86.49,8.34,152.29,20.51,152.29c12.06,0,20.4-65.8,20.4-152.29v-64.86c0-82.73-1.69-189.89-4.28-248.18h41.92
			c-2.59,58.28-4.28,156.05-4.28,237.84v102.47c0,210.57-16.34,331.84-53.76,331.84C981.51,3132.35,965.17,3011.08,965.17,2800.51z"
			/>
		<path class="st0" d="M1135.8,2860.67c-2.59,0-7.33,2.82-9.24,6.58v39.48c0,81.79,1.46,153.23,4.28,211.51h-41.92
			c2.82-58.28,4.28-155.11,4.28-237.84v-182.37c0-81.79-1.69-179.55-4.28-237.84h74.5c26.26,0,43.61,57.34,43.61,177.67
			c0,118.45-16.91,180.49-42.83,180.49h-7.78v11.28h0.56c15.44,0,14.88,70.5,31.44,70.5c12.17,0,19.38-48.88,22.32-97.77
			l0.11,267.92c-3.27,37.6-12.4,62.04-21.41,62.04C1149.89,3132.35,1163.86,2860.67,1135.8,2860.67z M1161.05,2774.18
			c7.66,0,13.07-15.98,13.07-48.88c0-36.66-5.41-50.76-13.07-50.76h-34.49v99.65H1161.05z"/>
		<path class="st0" d="M1224.38,2880.41v-182.37c0-82.73-1.69-180.49-4.28-237.84h80.69c15.33,0,27.84,49.82,27.84,155.11
			c0,101.53-11.83,153.23-26.82,153.23h-3.27v11.28h5.63c16.91,0,30.99,50.76,30.99,167.33c0,116.57-13.97,171.09-31.89,171.09
			h-83.17C1222.81,3059.96,1224.38,2963.14,1224.38,2880.41z M1289.86,2735.64c4.28,0,7.78-13.16,7.78-41.36
			c0-29.14-3.38-41.36-7.66-41.36h-32.35v82.73H1289.86z M1291.89,2920.84c5.64,0,9.35-15.04,9.35-47.94
			c0-34.78-3.83-49.82-9.47-49.82h-34.15v97.77H1291.89z"/>
		<path class="st0" d="M1348.02,2880.41v-182.37c0-82.73-1.69-180.49-4.28-237.84h41.92c-2.59,57.34-4.39,155.11-4.39,237.84v182.37
			c0,82.73,1.47,179.55,4.39,237.84h-41.92C1346.44,3059.96,1348.02,2963.14,1348.02,2880.41z"/>
		<path class="st0" d="M1394.34,3061.84l1.24-250.06c13.3,78.03,33.36,117.51,59.62,117.51c14.09,0,21.75-10.34,21.75-43.24
			c0-102.47-82.16,35.72-82.16-247.24c0-146.65,24.79-192.71,56.8-192.71c15.44,0,36.18,18.8,49.81,59.22v219.03
			c-12.62-49.82-30.43-77.08-48.57-77.08c-12.51-0.94-22.77,8.46-22.77,43.24c0,109.05,82.16-47.94,82.16,230.32
			c0,138.19-19.84,211.51-56.46,211.51C1438.52,3132.35,1408.54,3101.33,1394.34,3061.84z"/>
		<path class="st0" d="M1525.3,2880.41v-182.37c0-82.73-1.8-178.61-4.28-237.84h41.92c-2.82,64.86-4.28,134.43-4.28,215.27v48.88
			h39.11v-48.88c0-82.73-1.8-156.99-4.4-215.27h42.04c-2.7,57.34-4.28,155.11-4.28,237.84v182.37c0,82.73,1.46,179.55,4.28,237.84
			h-42.04c2.14-58.28,4.4-132.55,4.4-215.27v-59.22h-39.11v59.22c0,76.15,0.79,148.53,4.28,215.27h-41.92
			C1523.84,3060.9,1525.3,2963.14,1525.3,2880.41z"/>
		<path class="st0" d="M1652.88,2880.41v-182.37c0-82.73-1.69-180.49-4.28-237.84h105.94l4.06,233.14
			c-4.06-17.86-14.31-31.96-23.44-31.96h-48.91v74.27h34.26c5.75,0,11.38-1.88,15.1-6.58v114.69c-3.72-5.64-9.35-7.52-15.1-7.52
			h-34.26v80.84h51.05c7.55,0,18.6-15.98,24.79-51.7l-5.75,252.88H1648.6C1651.41,3059.96,1652.88,2963.14,1652.88,2880.41z"/>
		<path class="st0" d="M1774.6,2880.41v-182.37c0-82.73-1.69-180.49-4.28-237.84h68.07c35.73,0,54.77,121.27,54.77,329.02
			c0,207.75-19.05,329.02-54.77,329.02h-68.07C1773.13,3059.96,1774.6,2963.14,1774.6,2880.41z M1832.64,2902.97
			c17.81,0,26.82-36.66,26.82-113.75c0-77.08-9.24-113.75-26.82-113.75h-24.68v227.5H1832.64z"/>
	</g>
</g>
<g>
	<g>
		<path class="st0" d="M44.4,478.22V280.29c0-89.78-1.35-195.88-3.42-258.12h84.66l3.24,253.01c-3.24-19.38-11.44-34.69-18.73-34.69
			H71.05v80.6h27.38c4.59,0,9.1-2.04,12.07-7.14v124.47c-2.97-6.12-7.47-8.16-12.07-8.16H71.05v87.74h40.8
			c6.03,0,14.86-17.34,19.81-56.11l-4.59,274.44h-86.1C43.23,673.08,44.4,568,44.4,478.22z"/>
		<path class="st0" d="M141.66,478.22V280.29c0-89.78-1.17-194.86-3.42-258.12h31.88l39.18,372.38h1.17V269.07
			c0-97.94-1.71-199.96-3.24-246.89h33.5c-2.07,62.23-3.51,168.34-3.51,258.12v456.04h-23.68L169.58,326.2h-1.26v124.47
			c0,96.92,1.71,232.61,3.42,285.66h-33.5C140.31,674.1,141.66,568,141.66,478.22z"/>
		<path class="st0" d="M269.1,479.24l-10.36-198.94c-4.32-89.78-10.36-194.86-14.95-258.12h34.76c0.54,39.79,1.53,81.62,4.05,138.75
			l10.54,222.41c1.71,37.75,2.88,69.38,3.78,108.14h0.9c0.9-41.83,1.98-67.33,3.69-108.14l10.54-222.41
			c2.43-58.15,3.6-98.96,4.05-138.75h32.87c-4.68,63.25-10.72,168.34-15.04,258.12l-10.36,197.92
			c-4.23,89.78-8.29,194.86-9.64,258.12h-35.3C277.2,671.04,273.24,564.94,269.1,479.24z"/>
		<path class="st0" d="M356.46,478.22V280.29c0-89.78-1.35-195.88-3.42-258.12h33.5c-2.07,62.23-3.51,168.34-3.51,258.12v197.92
			c0,89.78,1.17,194.86,3.51,258.12h-33.5C355.2,673.08,356.46,568,356.46,478.22z"/>
		<path class="st0" d="M434.54,456.79c-2.07,0-5.85,3.06-7.39,7.14v42.85c0,88.76,1.17,166.3,3.42,229.55h-33.5
			c2.25-63.25,3.42-168.34,3.42-258.12V280.29c0-88.76-1.35-194.86-3.42-258.12h59.53c20.98,0,34.85,62.23,34.85,192.82
			c0,128.55-13.51,195.88-34.22,195.88h-6.21v12.24h0.45c12.34,0,11.89,76.52,25.13,76.52c9.73,0,15.49-53.05,17.83-106.1
			l0.09,290.76c-2.61,40.81-9.91,67.33-17.11,67.33C445.8,751.64,456.96,456.79,434.54,456.79z M454.71,362.93
			c6.12,0,10.45-17.34,10.45-53.05c0-39.79-4.32-55.09-10.45-55.09h-27.56v108.14H454.71z"/>
		<path class="st0" d="M498.3,379.26c0-236.69,20.53-372.38,50.43-372.38s50.43,135.69,50.43,372.38s-20.53,372.38-50.43,372.38
			S498.3,615.95,498.3,379.26z M572.51,379.26c0-88.76-9.55-140.79-23.78-140.79c-14.32,0-23.78,52.03-23.78,140.79
			c0,88.76,9.46,141.81,23.78,141.81C562.97,521.07,572.51,468.01,572.51,379.26z"/>
		<path class="st0" d="M609.17,478.22V280.29c0-89.78-1.17-194.86-3.42-258.12h31.88l39.18,372.38h1.17V269.07
			c0-97.94-1.71-199.96-3.24-246.89h33.5c-2.07,62.23-3.51,168.34-3.51,258.12v456.04h-23.68L637.09,326.2h-1.26v124.47
			c0,96.92,1.71,232.61,3.42,285.66h-33.5C607.82,674.1,609.17,568,609.17,478.22z"/>
		<path class="st0" d="M722.1,478.22V280.29c0-89.78-1.17-194.86-3.33-258.12h34.4l17.56,285.66c3.06,47.95,4.68,79.58,7.38,144.87
			h1.17c2.7-62.23,4.05-89.78,7.47-144.87l17.65-285.66h33.5c-2.16,63.25-3.42,168.34-3.42,258.12v197.92
			c0,89.78,1.35,195.88,3.42,258.12h-33.41c1.62-47.95,3.33-177.52,3.33-273.42V345.59h-1.53l-24.77,390.74h-6.94l-24.59-390.74
			h-1.17v117.33c0,95.9,1.71,225.47,3.42,273.42h-33.5C720.84,674.1,722.1,568,722.1,478.22z"/>
		<path class="st0" d="M851.97,478.22V280.29c0-89.78-1.35-195.88-3.42-258.12h84.66l3.24,253.01
			c-3.24-19.38-11.44-34.69-18.73-34.69h-39.08v80.6h27.38c4.59,0,9.1-2.04,12.07-7.14v124.47c-2.97-6.12-7.47-8.16-12.07-8.16
			h-27.38v87.74h40.8c6.03,0,14.86-17.34,19.81-56.11l-4.59,274.44h-86.1C850.8,673.08,851.97,568,851.97,478.22z"/>
		<path class="st0" d="M949.24,478.22V280.29c0-89.78-1.17-194.86-3.42-258.12h31.88l39.18,372.38h1.17V269.07
			c0-97.94-1.71-199.96-3.24-246.89h33.5c-2.07,62.23-3.51,168.34-3.51,258.12v456.04h-23.68L977.16,326.2h-1.26v124.47
			c0,96.92,1.71,232.61,3.42,285.66h-33.5C947.89,674.1,949.24,568,949.24,478.22z"/>
		<path class="st0" d="M1086.58,478.22V250.71h-11.26c-10.36,0-16.66,6.12-21.79,23.47l4.95-251.99h82.94l4.95,251.99
			c-5.13-17.34-11.44-23.47-21.79-23.47h-11.35v227.51c0,89.78,1.26,194.86,3.42,258.12h-33.5
			C1085.41,673.08,1086.58,568,1086.58,478.22z"/>
		<path class="st0" d="M1149.08,478.22l10.36-197.92c4.23-89.78,8.29-194.86,9.64-258.12h38.1c1.44,65.29,5.4,171.4,9.55,257.1
			l10.45,198.94c4.23,89.78,10.18,194.86,14.77,258.12h-34.04c-0.36-32.65-1.17-66.31-3.33-127.53l-1.44-29.59h-29.99l-1.44,30.61
			c-1.98,60.19-2.97,93.86-3.51,126.51h-33.95C1138.91,673.08,1144.85,566.98,1149.08,478.22z M1196.99,464.95l-4.86-101
			c-1.8-42.85-2.61-79.58-3.42-124.47h-1.26c-0.9,47.95-1.62,78.56-3.51,124.47l-4.77,101H1196.99z"/>
		<path class="st0" d="M1268.23,706.75c-11.44,0-19.45,28.57-23.42,44.89c2.16-63.25,3.42-183.64,3.42-273.42V280.29
			c0-89.78-1.35-195.88-3.42-258.12h33.5c-2.07,62.23-3.51,237.71-3.51,327.49V507.8h25.13c8.92,0,18.1-17.34,23.06-43.87
			l-0.36,258.12c-0.72,1.02-7.03,29.59-14.5,29.59C1292.82,751.64,1285.53,706.75,1268.23,706.75z"/>
		<path class="st0" d="M1354.6,478.22V280.29c0-89.78-1.35-195.88-3.42-258.12h33.5c-2.07,62.23-3.51,168.34-3.51,258.12v197.92
			c0,89.78,1.17,194.86,3.51,258.12h-33.5C1353.34,673.08,1354.6,568,1354.6,478.22z"/>
		<path class="st0" d="M1391.62,675.12l0.99-271.38c10.63,84.68,26.66,127.53,47.64,127.53c11.26,0,17.38-11.22,17.38-46.93
			c0-111.2-65.65,38.77-65.65-268.32c0-159.15,19.81-209.15,45.39-209.15c12.34,0,28.91,20.4,39.81,64.27v237.71
			c-10.09-54.07-24.32-83.66-38.82-83.66c-10-1.02-18.19,9.18-18.19,46.93c0,118.35,65.65-52.03,65.65,249.95
			c0,149.97-15.85,229.55-45.12,229.55C1426.92,751.64,1402.96,717.97,1391.62,675.12z"/>
		<path class="st0" d="M1488.88,675.12l0.99-271.38c10.63,84.68,26.66,127.53,47.64,127.53c11.26,0,17.38-11.22,17.38-46.93
			c0-111.2-65.65,38.77-65.65-268.32c0-159.15,19.81-209.15,45.39-209.15c12.34,0,28.91,20.4,39.81,64.27v237.71
			c-10.09-54.07-24.31-83.66-38.81-83.66c-10-1.02-18.19,9.18-18.19,46.93c0,118.35,65.65-52.03,65.65,249.95
			c0,149.97-15.85,229.55-45.12,229.55C1524.19,751.64,1500.23,717.97,1488.88,675.12z"/>
		<path class="st0" d="M1592.36,391.5v-111.2c0-88.76-1.35-194.86-3.42-258.12h33.41c-2.07,63.25-3.33,179.56-3.33,269.34v70.39
			c0,93.86,6.66,165.28,16.39,165.28c9.64,0,16.3-71.42,16.3-165.28v-70.39c0-89.78-1.35-206.08-3.42-269.34h33.5
			c-2.07,63.25-3.42,169.36-3.42,258.12v111.2c0,228.53-13.06,360.14-42.96,360.14C1605.42,751.64,1592.36,620.03,1592.36,391.5z"/>
		<path class="st0" d="M1694.67,478.22V280.29c0-89.78-1.35-195.88-3.42-258.12h84.66l3.24,253.01
			c-3.24-19.38-11.44-34.69-18.73-34.69h-39.08v80.6h27.38c4.59,0,9.1-2.04,12.07-7.14v124.47c-2.97-6.12-7.47-8.16-12.07-8.16
			h-27.38v87.74h40.8c6.03,0,14.86-17.34,19.81-56.11l-4.59,274.44h-86.1C1693.5,673.08,1694.67,568,1694.67,478.22z"/>
		<path class="st0" d="M1784.82,675.12l0.99-271.38c10.63,84.68,26.66,127.53,47.64,127.53c11.26,0,17.38-11.22,17.38-46.93
			c0-111.2-65.65,38.77-65.65-268.32c0-159.15,19.81-209.15,45.39-209.15c12.34,0,28.91,20.4,39.81,64.27v237.71
			c-10.09-54.07-24.32-83.66-38.82-83.66c-10-1.02-18.19,9.18-18.19,46.93c0,118.35,65.65-52.03,65.65,249.95
			c0,149.97-15.85,229.55-45.12,229.55C1820.13,751.64,1796.17,717.97,1784.82,675.12z"/>
	</g>
</g>
<g>
	<g>
		<path class="st0" d="M40.97,3577.22c0-218.09,17.37-343.12,42.66-343.12s42.66,125.03,42.66,343.12s-17.37,343.12-42.66,343.12
			S40.97,3795.31,40.97,3577.22z M103.74,3577.22c0-81.79-8.07-129.73-20.11-129.73c-12.11,0-20.11,47.94-20.11,129.73
			c0,81.79,8,130.67,20.11,130.67C95.67,3707.88,103.74,3659,103.74,3577.22z"/>
		<path class="st0" d="M134.74,3668.4v-182.37c0-81.79-1.14-179.55-2.89-237.84h49.13c18.36,0,29.93,91.19,29.93,251
			c0,160.75-9.29,267.92-27.04,267.92c-13.86,0-23.31-67.68-25.75-181.43h-0.84v86.49c0,81.79,0.99,175.79,2.89,234.08h-28.34
			C133.75,3847.95,134.74,3751.13,134.74,3668.4z M188.75,3511.41c0-49.82-4.04-77.08-12.34-77.08c-6.93,0-12.8,2.82-19.12,15.98
			v31.02c0,74.27,6.55,120.33,17.06,120.33C182.2,3601.66,188.75,3565.93,188.75,3511.41z"/>
		<path class="st0" d="M218.84,3668.4v-182.37c0-82.73-1.14-180.49-2.89-237.84h28.34c-1.75,57.34-2.97,155.11-2.97,237.84v182.37
			c0,82.73,0.99,179.55,2.97,237.84h-28.34C217.77,3847.95,218.84,3751.13,218.84,3668.4z"/>
		<path class="st0" d="M256.09,3668.4v-182.37c0-82.73-0.99-179.55-2.89-237.84h26.96l33.13,343.12h0.99v-115.63
			c0-90.25-1.45-184.25-2.74-227.5h28.34c-1.75,57.34-2.97,155.11-2.97,237.84v420.21h-20.03l-37.17-377.91h-1.07v114.69
			c0,89.31,1.45,214.33,2.89,263.22h-28.34C254.94,3848.89,256.09,3751.13,256.09,3668.4z"/>
		<path class="st0" d="M351.68,3668.4v-182.37c0-82.73-1.14-180.49-2.89-237.84h28.34c-1.75,57.34-2.97,155.11-2.97,237.84v182.37
			c0,82.73,0.99,179.55,2.97,237.84h-28.34C350.62,3847.95,351.68,3751.13,351.68,3668.4z"/>
		<path class="st0" d="M383.22,3577.22c0-218.09,17.37-343.12,42.66-343.12s42.66,125.03,42.66,343.12s-17.37,343.12-42.66,343.12
			S383.22,3795.31,383.22,3577.22z M445.98,3577.22c0-81.79-8.07-129.73-20.11-129.73c-12.11,0-20.11,47.94-20.11,129.73
			c0,81.79,8,130.67,20.11,130.67C437.91,3707.88,445.98,3659,445.98,3577.22z"/>
		<path class="st0" d="M476.99,3668.4v-182.37c0-82.73-0.99-179.55-2.89-237.84h26.96l33.13,343.12h0.99v-115.63
			c0-90.25-1.45-184.25-2.74-227.5h28.34c-1.75,57.34-2.97,155.11-2.97,237.84v420.21h-20.03l-37.17-377.91h-1.07v114.69
			c0,89.31,1.45,214.33,2.9,263.22h-28.34C475.85,3848.89,476.99,3751.13,476.99,3668.4z"/>
		<path class="st0" d="M566.64,3849.83l0.84-250.06c8.99,78.02,22.55,117.51,40.3,117.51c9.52,0,14.7-10.34,14.7-43.24
			c0-102.47-55.53,35.72-55.53-247.24c0-146.65,16.76-192.71,38.39-192.71c10.44,0,24.45,18.8,33.67,59.22v219.03
			c-8.53-49.82-20.57-77.08-32.83-77.08c-8.45-0.94-15.39,8.46-15.39,43.24c0,109.05,55.53-47.94,55.53,230.32
			c0,138.19-13.41,211.51-38.16,211.51C596.5,3920.34,576.24,3889.32,566.64,3849.83z"/>
		<path class="st0" d="M669.02,3577.22c0-218.09,17.37-343.12,42.66-343.12s42.66,125.03,42.66,343.12s-17.37,343.12-42.66,343.12
			S669.02,3795.31,669.02,3577.22z M731.78,3577.22c0-81.79-8.07-129.73-20.11-129.73c-12.11,0-20.11,47.94-20.11,129.73
			c0,81.79,8,130.67,20.11,130.67C723.71,3707.88,731.78,3659,731.78,3577.22z"/>
		<path class="st0" d="M762.79,3668.4v-182.37c0-82.73-0.99-179.55-2.89-237.84h26.96l33.13,343.12h0.99v-115.63
			c0-90.25-1.45-184.25-2.74-227.5h28.34c-1.75,57.34-2.97,155.11-2.97,237.84v420.21h-20.03l-37.17-377.91h-1.07v114.69
			c0,89.31,1.45,214.33,2.9,263.22h-28.34C761.65,3848.89,762.79,3751.13,762.79,3668.4z"/>
		<path class="st0" d="M876.97,3588.5v-102.47c0-81.79-1.14-179.55-2.89-237.84h28.26c-1.75,58.28-2.82,165.45-2.82,248.18v64.86
			c0,86.49,5.64,152.29,13.86,152.29c8.15,0,13.79-65.8,13.79-152.29v-64.86c0-82.73-1.14-189.89-2.9-248.18h28.34
			c-1.75,58.28-2.89,156.05-2.89,237.84v102.47c0,210.57-11.05,331.84-36.33,331.84C888.01,3920.34,876.97,3799.07,876.97,3588.5z"
			/>
		<path class="st0" d="M957.79,3577.22c0-219.98,16.91-343.12,43.04-343.12c11.65,0,20.11,14.1,30.32,43.24l-1.29,223.73
			c-5.94-36.66-16.68-61.1-27.96-61.1c-13.41,0-22.09,47-22.09,137.25c0,81.79,7.77,138.19,21.25,138.19
			c6.17,0,12.11-17.86,16.38-50.76v-37.6h-13.1c-2.06,0-5.41,4.7-7.16,12.22l0.23-94.01h40.07v247.24
			c-7.24,77.08-20.11,127.85-36.56,127.85C974.7,3920.34,957.79,3797.19,957.79,3577.22z"/>
		<path class="st0" d="M1064.05,3878.98c-9.67,0-16.45,26.32-19.8,41.36c1.83-58.28,2.9-169.21,2.9-251.94v-182.37
			c0-82.73-1.14-180.49-2.9-237.84h28.34c-1.75,57.34-2.97,219.03-2.97,301.76v145.71h21.25c7.54,0,15.31-15.98,19.5-40.42
			l-0.3,237.84c-0.61,0.94-5.94,27.26-12.26,27.26C1084.84,3920.34,1078.67,3878.98,1064.05,3878.98z"/>
		<path class="st0" d="M1134.28,3688.14v-43.24l-22.93-281.08c-3.66-44.18-8.45-90.25-11.58-115.63h30.93
			c1.75,38.54,3.66,71.44,6.85,115.63l7.54,104.35h0.84l7.46-104.35c3.2-44.18,5.1-77.09,6.86-115.63h30.92
			c-3.12,25.38-7.92,71.44-11.5,115.63l-22.93,284.84v43.24c0,78.03,0.91,161.69,2.21,213.39H1132
			C1133.22,3852.65,1134.28,3767.11,1134.28,3688.14z"/>
		<path class="st0" d="M1213.88,3668.4v-182.37c0-81.79-1.14-179.55-2.9-237.84h49.13c18.36,0,29.94,91.19,29.94,251
			c0,160.75-9.29,267.92-27.04,267.92c-13.86,0-23.31-67.68-25.75-181.43h-0.84v86.49c0,81.79,0.99,175.79,2.89,234.08h-28.34
			C1212.89,3847.95,1213.88,3751.13,1213.88,3668.4z M1267.89,3511.41c0-49.82-4.04-77.08-12.34-77.08
			c-6.93,0-12.8,2.82-19.12,15.98v31.02c0,74.27,6.55,120.33,17.06,120.33C1261.34,3601.66,1267.89,3565.93,1267.89,3511.41z"/>
		<path class="st0" d="M1326.77,3648.66c-1.75,0-4.95,2.82-6.25,6.58v39.48c0,81.79,0.99,153.23,2.89,211.51h-28.34
			c1.9-58.28,2.9-155.11,2.9-237.84v-182.37c0-81.79-1.14-179.55-2.9-237.84h50.35c17.75,0,29.48,57.34,29.48,177.67
			c0,118.45-11.42,180.49-28.95,180.49h-5.26v11.28h0.38c10.44,0,10.05,70.5,21.25,70.5c8.23,0,13.1-48.88,15.08-97.77l0.08,267.92
			c-2.21,37.6-8.38,62.04-14.47,62.04C1336.29,3920.34,1345.74,3648.66,1326.77,3648.66z M1343.83,3562.17
			c5.18,0,8.84-15.98,8.84-48.88c0-36.66-3.66-50.76-8.84-50.76h-23.31v99.65H1343.83z"/>
		<path class="st0" d="M1380.7,3577.22c0-218.09,17.37-343.12,42.66-343.12c25.29,0,42.66,125.03,42.66,343.12
			s-17.37,343.12-42.66,343.12C1398.07,3920.34,1380.7,3795.31,1380.7,3577.22z M1443.47,3577.22c0-81.79-8.07-129.73-20.11-129.73
			c-12.11,0-20.11,47.94-20.11,129.73c0,81.79,8,130.67,20.11,130.67C1435.39,3707.88,1443.47,3659,1443.47,3577.22z"/>
		<path class="st0" d="M1474.47,3668.4v-182.37c0-82.73-1.14-180.49-2.9-237.84h46.01c24.15,0,37.02,121.27,37.02,329.02
			c0,207.75-12.87,329.02-37.02,329.02h-46.01C1473.48,3847.95,1474.47,3751.13,1474.47,3668.4z M1513.7,3690.96
			c12.04,0,18.13-36.66,18.13-113.75c0-77.09-6.25-113.75-18.13-113.75h-16.68v227.5H1513.7z"/>
		<path class="st0" d="M1562.22,3588.5v-102.47c0-81.79-1.14-179.55-2.89-237.84h28.26c-1.75,58.28-2.82,165.45-2.82,248.18v64.86
			c0,86.49,5.64,152.29,13.86,152.29c8.15,0,13.79-65.8,13.79-152.29v-64.86c0-82.73-1.14-189.89-2.9-248.18h28.34
			c-1.75,58.28-2.89,156.05-2.89,237.84v102.47c0,210.57-11.05,331.84-36.33,331.84C1573.27,3920.34,1562.22,3799.07,1562.22,3588.5
			z"/>
		<path class="st0" d="M1643.04,3577.22c0-238.78,18.74-343.12,43.11-343.12c13.41,0,24.22,34.78,31.53,75.21l-2.82,230.32
			c-4.57-48.88-14.17-90.25-26.05-90.25c-12.8,0-23.23,40.42-23.23,125.97c0,86.49,10.66,129.73,26.43,129.73
			c10.82,0,20.11-29.14,27.12-83.67v254.76c-8.15,26.32-18.28,44.18-31.69,44.18C1663.07,3920.34,1643.04,3815.99,1643.04,3577.22z"
			/>
		<path class="st0" d="M1748.31,3668.4v-209.63h-9.52c-8.76,0-14.09,5.64-18.43,21.62l4.19-232.2h70.15l4.19,232.2
			c-4.34-15.98-9.67-21.62-18.43-21.62h-9.6v209.63c0,82.73,1.07,179.55,2.9,237.84h-28.34
			C1747.32,3847.95,1748.31,3751.13,1748.31,3668.4z"/>
		<path class="st0" d="M1799.35,3849.83l0.84-250.06c8.99,78.02,22.55,117.51,40.29,117.51c9.52,0,14.7-10.34,14.7-43.24
			c0-102.47-55.53,35.72-55.53-247.24c0-146.65,16.76-192.71,38.39-192.71c10.44,0,24.45,18.8,33.67,59.22v219.03
			c-8.53-49.82-20.57-77.08-32.83-77.08c-8.46-0.94-15.39,8.46-15.39,43.24c0,109.05,55.53-47.94,55.53,230.32
			c0,138.19-13.41,211.51-38.16,211.51C1829.21,3920.34,1808.95,3889.32,1799.35,3849.83z"/>
	</g>
</g>
<g>
	<path class="st0" d="M2462.84,391.5V280.3c0-88.76-1.84-194.86-4.67-258.11h45.58c-2.83,63.25-4.55,179.56-4.55,269.34v70.39
		c0,93.86,9.09,165.27,22.36,165.27c13.15,0,22.24-71.41,22.24-165.27v-70.39c0-89.78-1.84-206.08-4.67-269.34h45.71
		c-2.83,63.25-4.67,169.36-4.67,258.11v111.2c0,228.53-17.82,360.14-58.61,360.14C2480.66,751.63,2462.84,620.03,2462.84,391.5z"/>
	<path class="st0" d="M2593.2,379.26c0-238.73,27.28-372.38,69.42-372.38c18.8,0,32.44,15.3,48.9,46.93l-2.09,242.81
		c-9.58-39.79-26.91-66.31-45.09-66.31c-21.63,0-35.63,51.01-35.63,148.95c0,88.76,12.53,149.97,34.28,149.97
		c9.95,0,19.54-19.38,26.42-55.09v-40.81h-21.13c-3.32,0-8.72,5.1-11.55,13.26l0.37-102.02h64.63v268.32
		c-11.67,83.66-32.44,138.75-58.98,138.75C2620.48,751.63,2593.2,617.99,2593.2,379.26z"/>
	<path class="st0" d="M2764.6,706.74c-15.6,0-26.54,28.57-31.95,44.89c2.95-63.25,4.67-183.64,4.67-273.42V280.29
		c0-89.78-1.84-195.88-4.67-258.11h45.71c-2.83,62.23-4.79,237.71-4.79,327.49V507.8h34.28c12.16,0,24.7-17.34,31.45-43.87
		l-0.49,258.11c-0.98,1.02-9.58,29.59-19.78,29.59C2798.14,751.63,2788.19,706.74,2764.6,706.74z"/>
	<path class="st0" d="M2877.88,499.64v-46.93l-36.98-305.04c-5.9-47.95-13.64-97.94-18.68-125.49h49.88
		c2.83,41.83,5.9,77.54,11.06,125.49l12.16,113.24h1.35l12.04-113.24c5.16-47.95,8.23-83.66,11.06-125.49h49.88
		c-5.04,27.55-12.78,77.54-18.55,125.49l-36.98,309.13v46.93c0,84.68,1.47,175.48,3.56,231.59h-43.5
		C2876.16,678.18,2877.88,585.34,2877.88,499.64z"/>
	<path class="st0" d="M3022,479.24l-14.13-198.94c-5.9-89.78-14.13-194.86-20.4-258.11h47.43c0.74,39.79,2.09,81.62,5.53,138.75
		l14.38,222.41c2.33,37.75,3.93,69.37,5.16,108.14h1.23c1.23-41.83,2.7-67.33,5.04-108.14l14.38-222.41
		c3.32-58.15,4.91-98.96,5.53-138.75H3131c-6.39,63.25-14.62,168.34-20.52,258.11l-14.13,197.92
		c-5.78,89.78-11.3,194.86-13.15,258.11h-48.16C3033.06,671.04,3027.65,564.93,3022,479.24z"/>
	<path class="st0" d="M3141.18,478.22V280.29c0-89.78-1.84-195.88-4.67-258.11h115.5l4.42,253.01
		c-4.42-19.38-15.6-34.69-25.56-34.69h-53.33v80.6h37.35c6.27,0,12.41-2.04,16.46-7.14v124.47c-4.05-6.12-10.2-8.16-16.46-8.16
		h-37.35v87.74h55.66c8.23,0,20.27-17.34,27.03-56.11l-6.27,274.44h-117.45C3139.58,673.08,3141.18,567.99,3141.18,478.22z"/>
	<path class="st0" d="M3262.81,379.26c0-238.73,27.28-372.38,69.42-372.38c18.8,0,32.44,15.3,48.9,46.93l-2.09,242.81
		c-9.58-39.79-26.91-66.31-45.09-66.31c-21.63,0-35.63,51.01-35.63,148.95c0,88.76,12.53,149.97,34.28,149.97
		c9.95,0,19.54-19.38,26.42-55.09v-40.81h-21.13c-3.32,0-8.72,5.1-11.55,13.26l0.37-102.02h64.63v268.32
		c-11.67,83.66-32.44,138.75-58.98,138.75C3290.09,751.63,3262.81,617.99,3262.81,379.26z"/>
	<path class="st0" d="M3406.93,478.22V280.29c0-89.78-1.84-195.88-4.67-258.11h115.5l4.42,253.01
		c-4.42-19.38-15.6-34.69-25.56-34.69h-53.33v80.6h37.35c6.27,0,12.41-2.04,16.46-7.14v124.47c-4.05-6.12-10.2-8.16-16.46-8.16
		h-37.35v87.74h55.66c8.23,0,20.27-17.34,27.03-56.11l-6.27,274.44h-117.45C3405.33,673.08,3406.93,567.99,3406.93,478.22z"/>
	<path class="st0" d="M3572.8,478.22V250.71h-15.36c-14.13,0-22.73,6.12-29.73,23.46l6.76-251.99h113.16l6.76,251.99
		c-7-17.34-15.6-23.46-29.73-23.46h-15.48v227.51c0,89.78,1.72,194.86,4.67,258.11h-45.71
		C3571.2,673.08,3572.8,567.99,3572.8,478.22z"/>
	<path class="st0" d="M3658.07,478.22l14.13-197.93c5.77-89.78,11.3-194.86,13.15-258.11h51.97c1.97,65.29,7.37,171.4,13.02,257.09
		l14.25,198.94c5.78,89.78,13.88,194.86,20.15,258.11h-46.44c-0.49-32.65-1.6-66.31-4.55-127.53l-1.97-29.59h-40.91l-1.97,30.61
		c-2.7,60.19-4.05,93.86-4.79,126.51h-46.32C3644.18,673.08,3652.29,566.97,3658.07,478.22z M3723.43,464.95l-6.64-101
		c-2.46-42.85-3.56-79.58-4.67-124.47h-1.72c-1.23,47.95-2.21,78.56-4.79,124.47l-6.51,101H3723.43z"/>
	<path class="st0" d="M3793.34,478.22V280.29c0-89.78-1.84-195.88-4.67-258.11h87.97c16.71,0,30.35,54.07,30.35,168.34
		c0,110.18-12.9,166.3-29.24,166.3h-3.56v12.24h6.14c18.43,0,33.79,55.09,33.79,181.6s-15.24,185.68-34.77,185.68h-90.68
		C3791.62,673.08,3793.34,567.99,3793.34,478.22z M3864.73,321.1c4.67,0,8.48-14.28,8.48-44.89c0-31.63-3.69-44.89-8.35-44.89
		h-35.26v89.78L3864.73,321.1L3864.73,321.1z M3866.94,522.09c6.14,0,10.2-16.32,10.2-52.03c0-37.75-4.18-54.07-10.32-54.07h-37.23
		v106.1H3866.94z"/>
	<path class="st0" d="M3955.4,706.74c-15.6,0-26.54,28.57-31.95,44.89c2.95-63.25,4.67-183.64,4.67-273.42V280.29
		c0-89.78-1.84-195.88-4.67-258.11h45.71c-2.83,62.23-4.79,237.71-4.79,327.49V507.8h34.28c12.16,0,24.7-17.34,31.45-43.87
		l-0.49,258.11c-0.98,1.02-9.58,29.59-19.78,29.59C3988.94,751.63,3978.99,706.74,3955.4,706.74z"/>
	<path class="st0" d="M4044.72,478.22V280.29c0-89.78-1.84-195.88-4.67-258.11h115.5l4.42,253.01
		c-4.42-19.38-15.6-34.69-25.56-34.69h-53.33v80.6h37.35c6.27,0,12.41-2.04,16.46-7.14v124.47c-4.05-6.12-10.2-8.16-16.46-8.16
		h-37.35v87.74h55.66c8.23,0,20.27-17.34,27.03-56.11l-6.27,274.44h-117.46C4043.12,673.08,4044.72,567.99,4044.72,478.22z"/>
	<path class="st0" d="M4167.71,675.12l1.35-271.38c14.5,84.68,36.37,127.53,65,127.53c15.36,0,23.71-11.22,23.71-46.93
		c0-111.2-89.57,38.77-89.57-268.32c0-159.15,27.03-209.14,61.93-209.14c16.83,0,39.44,20.4,54.31,64.27v237.71
		c-13.76-54.07-33.17-83.66-52.96-83.66c-13.64-1.02-24.82,9.18-24.82,46.93c0,118.34,89.57-52.03,89.57,249.95
		c0,149.97-21.62,229.55-61.56,229.55C4215.87,751.63,4183.19,717.97,4167.71,675.12z"/>
</g>
<g>
	<path class="st0" d="M-2641.61,391.5V280.3c0-88.76-1.84-194.86-4.67-258.11h45.58c-2.83,63.25-4.55,179.56-4.55,269.34v70.39
		c0,93.86,9.09,165.27,22.36,165.27c13.15,0,22.24-71.41,22.24-165.27v-70.39c0-89.78-1.84-206.08-4.67-269.34h45.71
		c-2.83,63.25-4.67,169.36-4.67,258.11v111.2c0,228.53-17.82,360.14-58.61,360.14C-2623.79,751.63-2641.61,620.03-2641.61,391.5z"/>
	<path class="st0" d="M-2511.26,379.26c0-238.73,27.28-372.38,69.42-372.38c18.8,0,32.44,15.3,48.9,46.93l-2.09,242.81
		c-9.58-39.79-26.91-66.31-45.09-66.31c-21.63,0-35.63,51.01-35.63,148.95c0,88.76,12.53,149.97,34.28,149.97
		c9.95,0,19.54-19.38,26.42-55.09v-40.81h-21.13c-3.32,0-8.72,5.1-11.55,13.26l0.37-102.02h64.63v268.32
		c-11.67,83.66-32.44,138.75-58.98,138.75C-2483.98,751.63-2511.26,617.99-2511.26,379.26z"/>
	<path class="st0" d="M-2339.85,706.74c-15.6,0-26.54,28.57-31.95,44.89c2.95-63.25,4.67-183.64,4.67-273.42V280.29
		c0-89.78-1.84-195.88-4.67-258.11h45.71c-2.83,62.23-4.79,237.71-4.79,327.49V507.8h34.28c12.16,0,24.7-17.34,31.45-43.87
		l-0.49,258.11c-0.98,1.02-9.58,29.59-19.78,29.59C-2306.31,751.63-2316.27,706.74-2339.85,706.74z"/>
	<path class="st0" d="M-2226.57,499.64v-46.93l-36.98-305.04c-5.9-47.95-13.64-97.94-18.68-125.49h49.88
		c2.83,41.83,5.9,77.54,11.06,125.49l12.16,113.24h1.35l12.04-113.24c5.16-47.95,8.23-83.66,11.06-125.49h49.88
		c-5.04,27.55-12.78,77.54-18.55,125.49l-36.98,309.13v46.93c0,84.68,1.47,175.48,3.56,231.59h-43.5
		C-2228.29,678.18-2226.57,585.34-2226.57,499.64z"/>
	<path class="st0" d="M-2082.46,479.24l-14.13-198.94c-5.9-89.78-14.13-194.86-20.4-258.11h47.43c0.74,39.79,2.09,81.62,5.53,138.75
		l14.38,222.41c2.33,37.75,3.93,69.37,5.16,108.14h1.23c1.23-41.83,2.7-67.33,5.04-108.14l14.38-222.41
		c3.32-58.15,4.91-98.96,5.53-138.75h44.85c-6.39,63.25-14.62,168.34-20.52,258.11l-14.13,197.92
		c-5.78,89.78-11.3,194.86-13.15,258.11h-48.16C-2071.4,671.04-2076.8,564.93-2082.46,479.24z"/>
	<path class="st0" d="M-1963.28,478.22V280.29c0-89.78-1.84-195.88-4.67-258.11h115.5l4.42,253.01
		c-4.42-19.38-15.6-34.69-25.56-34.69h-53.33v80.6h37.35c6.27,0,12.41-2.04,16.46-7.14v124.47c-4.05-6.12-10.2-8.16-16.46-8.16
		h-37.35v87.74h55.66c8.23,0,20.27-17.34,27.03-56.11l-6.27,274.44h-117.45C-1964.88,673.08-1963.28,567.99-1963.28,478.22z"/>
	<path class="st0" d="M-1841.65,379.26c0-238.73,27.28-372.38,69.42-372.38c18.8,0,32.44,15.3,48.9,46.93l-2.09,242.81
		c-9.58-39.79-26.91-66.31-45.09-66.31c-21.63,0-35.63,51.01-35.63,148.95c0,88.76,12.53,149.97,34.28,149.97
		c9.95,0,19.54-19.38,26.42-55.09v-40.81h-21.13c-3.32,0-8.72,5.1-11.55,13.26l0.37-102.02h64.63v268.32
		c-11.67,83.66-32.44,138.75-58.98,138.75C-1814.36,751.63-1841.65,617.99-1841.65,379.26z"/>
	<path class="st0" d="M-1697.53,478.22V280.29c0-89.78-1.84-195.88-4.67-258.11h115.5l4.42,253.01
		c-4.42-19.38-15.6-34.69-25.56-34.69h-53.33v80.6h37.35c6.27,0,12.41-2.04,16.46-7.14v124.47c-4.05-6.12-10.2-8.16-16.46-8.16
		h-37.35v87.74h55.66c8.23,0,20.27-17.34,27.03-56.11l-6.27,274.44h-117.45C-1699.12,673.08-1697.53,567.99-1697.53,478.22z"/>
	<path class="st0" d="M-1531.66,478.22V250.71h-15.36c-14.13,0-22.73,6.12-29.73,23.46l6.76-251.99h113.16l6.76,251.99
		c-7-17.34-15.6-23.46-29.73-23.46h-15.48v227.51c0,89.78,1.72,194.86,4.67,258.11h-45.71
		C-1533.26,673.08-1531.66,567.99-1531.66,478.22z"/>
	<path class="st0" d="M-1446.39,478.22l14.13-197.93c5.77-89.78,11.3-194.86,13.15-258.11h51.97c1.97,65.29,7.37,171.4,13.02,257.09
		l14.25,198.94c5.78,89.78,13.88,194.86,20.15,258.11h-46.44c-0.49-32.65-1.6-66.31-4.55-127.53l-1.97-29.59h-40.91l-1.97,30.61
		c-2.7,60.19-4.05,93.86-4.79,126.51h-46.32C-1460.28,673.08-1452.17,566.97-1446.39,478.22z M-1381.03,464.95l-6.64-101
		c-2.46-42.85-3.56-79.58-4.67-124.47h-1.72c-1.23,47.95-2.21,78.56-4.79,124.47l-6.51,101H-1381.03z"/>
	<path class="st0" d="M-1311.11,478.22V280.29c0-89.78-1.84-195.88-4.67-258.11h87.97c16.71,0,30.35,54.07,30.35,168.34
		c0,110.18-12.9,166.3-29.24,166.3h-3.56v12.24h6.14c18.43,0,33.79,55.09,33.79,181.6s-15.24,185.68-34.77,185.68h-90.68
		C-1312.83,673.08-1311.11,567.99-1311.11,478.22z M-1239.72,321.1c4.67,0,8.48-14.28,8.48-44.89c0-31.63-3.69-44.89-8.35-44.89
		h-35.26v89.78L-1239.72,321.1L-1239.72,321.1z M-1237.52,522.09c6.14,0,10.2-16.32,10.2-52.03c0-37.75-4.18-54.07-10.32-54.07
		h-37.23v106.1H-1237.52z"/>
	<path class="st0" d="M-1149.06,706.74c-15.6,0-26.54,28.57-31.95,44.89c2.95-63.25,4.67-183.64,4.67-273.42V280.29
		c0-89.78-1.84-195.88-4.67-258.11h45.71c-2.83,62.23-4.79,237.71-4.79,327.49V507.8h34.28c12.16,0,24.7-17.34,31.45-43.87
		l-0.49,258.11c-0.98,1.02-9.58,29.59-19.78,29.59C-1115.52,751.63-1125.46,706.74-1149.06,706.74z"/>
	<path class="st0" d="M-1059.73,478.22V280.29c0-89.78-1.84-195.88-4.67-258.11h115.5l4.42,253.01
		c-4.42-19.38-15.6-34.69-25.56-34.69h-53.33v80.6h37.35c6.27,0,12.41-2.04,16.46-7.14v124.47c-4.05-6.12-10.2-8.16-16.46-8.16
		h-37.35v87.74h55.66c8.23,0,20.27-17.34,27.03-56.11l-6.27,274.44h-117.46C-1061.33,673.08-1059.73,567.99-1059.73,478.22z"/>
	<path class="st0" d="M-936.74,675.12l1.35-271.38c14.5,84.68,36.37,127.53,65,127.53c15.36,0,23.71-11.22,23.71-46.93
		c0-111.2-89.57,38.77-89.57-268.32c0-159.15,27.03-209.14,61.93-209.14c16.83,0,39.44,20.4,54.31,64.27v237.71
		c-13.76-54.07-33.17-83.66-52.96-83.66c-13.64-1.02-24.82,9.18-24.82,46.93c0,118.34,89.57-52.03,89.57,249.95
		c0,149.97-21.62,229.55-61.56,229.55C-888.58,751.63-921.27,717.97-936.74,675.12z"/>
</g>
</svg>
